<?xml version="1.0" encoding="UTF-8" standalone="no"?>
<!-- Created with Inkscape (http://www.inkscape.org/) -->

<svg
   xmlns:dc="http://purl.org/dc/elements/1.1/"
   xmlns:cc="http://creativecommons.org/ns#"
   xmlns:rdf="http://www.w3.org/1999/02/22-rdf-syntax-ns#"
   xmlns:svg="http://www.w3.org/2000/svg"
   xmlns="http://www.w3.org/2000/svg"
   xmlns:xlink="http://www.w3.org/1999/xlink"
   xmlns:sodipodi="http://sodipodi.sourceforge.net/DTD/sodipodi-0.dtd"
   xmlns:inkscape="http://www.inkscape.org/namespaces/inkscape"
   width="1024"
   height="1024"
   id="svg2"
   version="1.1"
   inkscape:version="0.92.4 (5da689c313, 2019-01-14)"
   sodipodi:docname="email.svg">
  <defs
     id="defs4">
    <linearGradient
       id="linearGradient1024">
      <stop
         id="stop1018"
         offset="0"
         style="stop-color:#d618a1;stop-opacity:1" />
      <stop
         style="stop-color:#f52834;stop-opacity:1;"
         offset="0.46946779"
         id="stop1020" />
      <stop
         id="stop1022"
         offset="1"
         style="stop-color:#e41249;stop-opacity:1;" />
    </linearGradient>
    <linearGradient
       id="linearGradient860">
      <stop
         id="stop854"
         offset="0"
         style="stop-color:#5158e3;stop-opacity:1" />
      <stop
         style="stop-color:#8551fb;stop-opacity:1"
         offset="0.5"
         id="stop856" />
      <stop
         id="stop858"
         offset="1"
         style="stop-color:#642edb;stop-opacity:1" />
    </linearGradient>
    <linearGradient
       id="linearGradient855">
      <stop
         style="stop-color:#ffffff;stop-opacity:1"
         offset="0"
         id="stop851" />
      <stop
         style="stop-color:#d7d7d7;stop-opacity:1"
         offset="1"
         id="stop853" />
    </linearGradient>
    <linearGradient
       id="linearGradient848">
      <stop
         id="stop844"
         offset="0"
         style="stop-color:#ffffff;stop-opacity:1" />
      <stop
         id="stop846"
         offset="1"
         style="stop-color:#d7d7d7;stop-opacity:1" />
    </linearGradient>
    <inkscape:perspective
       sodipodi:type="inkscape:persp3d"
       inkscape:vp_x="13.534465 : 111.04854 : 1"
       inkscape:vp_y="0 : 1000 : 0"
       inkscape:vp_z="213.53447 : 111.04854 : 1"
       inkscape:persp3d-origin="113.53447 : 77.71521 : 1"
       id="perspective3135" />
    <linearGradient
       id="linearGradient4829">
      <stop
         style="stop-color:#f4fbfc;stop-opacity:1;"
         offset="0"
         id="stop4831" />
      <stop
         style="stop-color:#d6d6d6;stop-opacity:1;"
         offset="1"
         id="stop4833" />
    </linearGradient>
    <clipPath
       clipPathUnits="userSpaceOnUse"
       id="clipPath4282">
      <rect
         style="color:#000000;display:inline;overflow:visible;visibility:visible;fill:#4d4d4d;fill-opacity:1;fill-rule:nonzero;stroke:none;stroke-width:9.13434315;marker:none;enable-background:accumulate"
         id="rect4284"
         width="246.875"
         height="234.375"
         x="462.5"
         y="1646.1122"
         ry="17"
         rx="17" />
    </clipPath>
    <linearGradient
       inkscape:collect="always"
       xlink:href="#linearGradient5423"
       id="linearGradient5429"
       x1="408.66196"
       y1="44.604382"
       x2="408.66196"
       y2="562.04968"
       gradientUnits="userSpaceOnUse" />
    <linearGradient
       id="linearGradient5423">
      <stop
         style="stop-color:#ff8876;stop-opacity:1;"
         offset="0"
         id="stop5425" />
      <stop
         id="stop19693"
         offset="0.5"
         style="stop-color:#f52834;stop-opacity:1;" />
      <stop
         style="stop-color:#e41249;stop-opacity:1;"
         offset="1"
         id="stop5427" />
    </linearGradient>
    <linearGradient
       inkscape:collect="always"
       xlink:href="#linearGradient3986"
       id="linearGradient3992"
       x1="78.5625"
       y1="993.6615"
       x2="120.28125"
       y2="993.6615"
       gradientUnits="userSpaceOnUse" />
    <linearGradient
       inkscape:collect="always"
       id="linearGradient3986">
      <stop
         style="stop-color:#000000;stop-opacity:1;"
         offset="0"
         id="stop3988" />
      <stop
         style="stop-color:#000000;stop-opacity:0;"
         offset="1"
         id="stop3990" />
    </linearGradient>
    <linearGradient
       inkscape:collect="always"
       xlink:href="#linearGradient5423-1"
       id="linearGradient5473-2"
       x1="99.036476"
       y1="-0.50471628"
       x2="99.036476"
       y2="199.83986"
       gradientUnits="userSpaceOnUse" />
    <linearGradient
       id="linearGradient5423-1">
      <stop
         style="stop-color:#51b9db;stop-opacity:1;"
         offset="0"
         id="stop5425-2" />
      <stop
         style="stop-color:#2fabd4;stop-opacity:1;"
         offset="1"
         id="stop5427-3" />
    </linearGradient>
    <linearGradient
       y2="199.83986"
       x2="99.036476"
       y1="-0.50471628"
       x1="99.036476"
       gradientUnits="userSpaceOnUse"
       id="linearGradient4119"
       xlink:href="#linearGradient5423-1"
       inkscape:collect="always" />
    <linearGradient
       inkscape:collect="always"
       xlink:href="#linearGradient4829"
       id="linearGradient4159"
       x1="100"
       y1="852.36218"
       x2="100"
       y2="1052.3622"
       gradientUnits="userSpaceOnUse" />
    <linearGradient
       inkscape:collect="always"
       xlink:href="#linearGradient860"
       id="linearGradient866"
       x1="520"
       y1="32.362179"
       x2="520"
       y2="1052.3622"
       gradientUnits="userSpaceOnUse"
       gradientTransform="matrix(0.96078431,0,0,0.96078431,20.078431,21.190671)" />
    <filter
       style="color-interpolation-filters:sRGB"
       inkscape:label="Drop Shadow"
       id="filter1053">
      <feFlood
         flood-opacity="0.294118"
         flood-color="rgb(0,0,0)"
         result="flood"
         id="feFlood1042" />
      <feComposite
         in="flood"
         in2="SourceGraphic"
         operator="in"
         result="composite1"
         id="feComposite1044" />
      <feGaussianBlur
         in="composite1"
         stdDeviation="3"
         result="blur"
         id="feGaussianBlur1047" />
      <feOffset
         dx="0"
         dy="3"
         result="offset"
         id="feOffset1049" />
      <feComposite
         in="SourceGraphic"
         in2="offset"
         operator="over"
         result="composite2"
         id="feComposite1051" />
    </filter>
    <linearGradient
       id="linearGradient940">
      <stop
         id="stop936"
         offset="0"
         style="stop-color:#f6f7f7;stop-opacity:1" />
      <stop
         id="stop938"
         offset="1"
         style="stop-color:#dce7f0;stop-opacity:1" />
    </linearGradient>
    <filter
       style="color-interpolation-filters:sRGB;"
       inkscape:label="Drop Shadow"
       id="filter973">
      <feFlood
         flood-opacity="0.294118"
         flood-color="rgb(0,0,0)"
         result="flood"
         id="feFlood963" />
      <feComposite
         in="flood"
         in2="SourceGraphic"
         operator="in"
         result="composite1"
         id="feComposite965" />
      <feGaussianBlur
         in="composite1"
         stdDeviation="3"
         result="blur"
         id="feGaussianBlur967" />
      <feOffset
         dx="0"
         dy="3"
         result="offset"
         id="feOffset969" />
      <feComposite
         in="SourceGraphic"
         in2="offset"
         operator="over"
         result="composite2"
         id="feComposite971" />
    </filter>
    <linearGradient
       inkscape:collect="always"
       xlink:href="#linearGradient1197"
       id="linearGradient1199"
       x1="540.14288"
       y1="29.770346"
       x2="540.14288"
       y2="1054.9744"
       gradientUnits="userSpaceOnUse"
       gradientTransform="matrix(0.99492386,0,0,0.99492386,2.59902,2.7429474)" />
    <linearGradient
       inkscape:collect="always"
       id="linearGradient1197">
      <stop
         style="stop-color:#ffffff;stop-opacity:0.58823532"
         offset="0"
         id="stop1193" />
      <stop
         style="stop-color:#ffffff;stop-opacity:0"
         offset="1"
         id="stop1195" />
    </linearGradient>
    <linearGradient
       gradientTransform="matrix(1.6624291,0,0,1.6624291,86.41815,10.272191)"
       inkscape:collect="always"
       xlink:href="#linearGradient940"
       id="linearGradient1048"
       x1="248.78165"
       y1="176.68591"
       x2="248.78165"
       y2="429.32828"
       gradientUnits="userSpaceOnUse" />
    <linearGradient
       y2="203.06541"
       x2="489.3934"
       y1="203.06541"
       x1="20.20047"
       gradientUnits="userSpaceOnUse"
       id="grd1">
      <stop
         offset="0"
         stop-color="#e8efee"
         id="stop1195-3" />
      <stop
         style="stop-color:#f3f7f6;stop-opacity:1;"
         id="stop996"
         stop-color="#ffffff"
         offset="0.5" />
      <stop
         offset="1"
         stop-color="#ffffff"
         id="stop1193-6" />
    </linearGradient>
    <linearGradient
       inkscape:collect="always"
       xlink:href="#grd1"
       id="linearGradient922"
       gradientUnits="userSpaceOnUse"
       gradientTransform="matrix(2.4880067,0,0,2.4880067,-124.92971,-210.52825)"
       x1="135.42154"
       y1="301.80405"
       x2="376.57846"
       y2="301.80405" />
    <linearGradient
       inkscape:collect="always"
       xlink:href="#linearGradient848"
       id="linearGradient930"
       x1="-120"
       y1="232.36218"
       x2="3023.51"
       y2="1520.4004"
       gradientUnits="userSpaceOnUse"
       gradientTransform="rotate(-30,-492.81965,1662.4324)" />
  </defs>
  <sodipodi:namedview
     id="base"
     pagecolor="#ffffff"
     bordercolor="#666666"
     borderopacity="1.0"
     inkscape:pageopacity="0.0"
     inkscape:pageshadow="2"
     inkscape:zoom="0.71679688"
     inkscape:cx="489.67847"
     inkscape:cy="510.6049"
     inkscape:document-units="px"
     inkscape:current-layer="layer1"
     showgrid="true"
     inkscape:window-width="1920"
     inkscape:window-height="958"
     inkscape:window-x="0"
     inkscape:window-y="25"
     inkscape:window-maximized="1"
     inkscape:snap-from-guide="true"
     showguides="true"
     inkscape:guide-bbox="true"
     inkscape:pagecheckerboard="true">
    <sodipodi:guide
       position="200,0"
       orientation="-200,0"
       id="guide3766"
       inkscape:locked="false" />
    <sodipodi:guide
       position="0,200"
       orientation="200,0"
       id="guide3127"
       inkscape:locked="false" />
    <sodipodi:guide
       position="0,-2.6171874e-06"
       orientation="0,100"
       id="guide3129"
       inkscape:locked="false" />
    <sodipodi:guide
       position="100,-2.6171874e-06"
       orientation="-200,0"
       id="guide3131"
       inkscape:locked="false" />
    <sodipodi:guide
       position="100,200"
       orientation="0,-100"
       id="guide3133"
       inkscape:locked="false" />
    <inkscape:grid
       type="xygrid"
       id="grid847" />
  </sodipodi:namedview>
  <metadata
     id="metadata7">
    <rdf:RDF>
      <cc:Work
         rdf:about="">
        <dc:format>image/svg+xml</dc:format>
        <dc:type
           rdf:resource="http://purl.org/dc/dcmitype/StillImage" />
        <dc:title />
      </cc:Work>
    </rdf:RDF>
  </metadata>
  <g
     inkscape:label="Layer 1"
     inkscape:groupmode="layer"
     id="layer1"
     transform="translate(0,-28.36218)">
    <circle
       style="color:#000000;display:inline;overflow:visible;visibility:visible;fill:url(#linearGradient866);fill-opacity:1.0;fill-rule:nonzero;stroke:none;stroke-width:44.75828171;marker:none;enable-background:accumulate"
       id="path4188"
       cx="512"
       cy="540.36218"
       r="490" />
    <path
       inkscape:transform-center-y="-1.4362169e-05"
       inkscape:transform-center-x="-8.5184441e-06"
       d="m 781.38962,690.02308 c -22.92207,41.25973 -57.86551,40.87059 -94.83215,70.21771 -36.96665,29.34712 -44.5131,63.46818 -89.89648,76.43486 -45.38338,12.96668 -69.81696,-12.01722 -116.70788,-17.40504 -46.89091,-5.38782 -76.35428,13.40326 -117.61401,-9.51881 -41.25972,-22.92207 -40.87059,-57.86551 -70.21771,-94.83215 -29.34712,-36.96664 -63.46817,-44.51309 -76.43485,-89.89648 -12.96668,-45.38338 12.01722,-69.81696 17.40503,-116.70788 5.38782,-46.89091 -13.40326,-76.35428 9.51881,-117.61401 22.92207,-41.25972 57.86551,-40.87059 94.83215,-70.21771 36.96665,-29.34712 44.5131,-63.46817 89.89648,-76.43485 45.38338,-12.96668 69.81696,12.01722 116.70788,17.40504 46.89091,5.38781 76.35428,-13.40327 117.61401,9.5188 41.25972,22.92207 40.87059,57.86551 70.21771,94.83216 29.34712,36.96664 63.46817,44.51309 76.43485,89.89647 12.96668,45.38338 -12.01722,69.81697 -17.40503,116.70788 -5.38782,46.89091 13.40326,76.35429 -9.51881,117.61401 z"
       inkscape:randomized="0"
       inkscape:rounded="0.4"
       inkscape:flatsided="false"
       sodipodi:arg2="0.89979759"
       sodipodi:arg1="0.5070985"
       sodipodi:r2="280.7435"
       sodipodi:r1="308.17065"
       sodipodi:cy="540.36218"
       sodipodi:cx="512"
       sodipodi:sides="8"
       id="path920"
       style="opacity:0.25;fill:url(#linearGradient922);fill-opacity:1;fill-rule:evenodd;stroke:none;stroke-width:74.83045959;stroke-linecap:round;stroke-linejoin:round;stroke-miterlimit:4;stroke-dasharray:none;stroke-opacity:0.9626168;paint-order:stroke markers fill"
       sodipodi:type="star" />
    <path
       style="font-style:normal;font-weight:normal;font-size:40px;line-height:1.25;font-family:sans-serif;letter-spacing:0px;word-spacing:0px;fill:url(#linearGradient930);fill-opacity:1;stroke:none;stroke-width:1;opacity:0.2"
       d="M 528.42383 22.822266 C 527.18549 30.868732 527.10995 39.007977 528.20898 47.242188 C 529.74611 58.758736 533.47591 69.648657 539.40039 79.910156 C 545.55273 90.566328 553.20484 99.454154 562.35352 106.57617 C 571.46964 113.64181 581.66919 118.61503 592.95508 121.49609 C 604.24097 124.37716 615.56522 124.98231 626.92773 123.30859 C 638.3228 121.69125 649.23537 117.87174 659.66602 111.84961 C 668.23606 106.90169 675.81864 100.56858 682.41406 92.851562 C 689.09842 85.158379 694.38716 76.541957 698.27734 67.003906 L 685.24609 62.011719 C 682.0191 69.964066 677.58159 77.186257 671.93359 83.679688 C 666.37453 90.196948 659.95685 95.556641 652.68359 99.755859 C 643.83164 104.86654 634.62184 108.11663 625.05078 109.50781 C 615.51227 110.95538 606.08872 110.45551 596.7832 108.00977 C 587.18706 105.58147 578.49215 101.39437 570.69727 95.445312 C 562.95876 89.463702 556.50195 81.990107 551.32617 73.025391 C 545.04362 62.143691 541.6966 50.618762 541.28711 38.451172 C 541.12666 33.351846 541.48579 28.37545 542.34961 23.517578 A 490 490 0 0 0 528.42383 22.822266 z M 572.23828 26.158203 C 570.63661 36.316186 572.94617 46.801549 579.18945 57.615234 C 585.69987 68.891607 594.00555 76.31034 604.10742 79.875 C 614.23312 83.350726 624.14607 82.290365 633.84375 76.691406 C 639.65108 73.338542 644.13907 69.393679 647.30859 64.857422 C 650.50195 60.23223 652.53571 54.773044 653.41211 48.478516 L 660.93164 61.501953 C 666.45607 58.152605 671.23926 54.528923 675.31055 50.640625 A 490 490 0 0 0 642.88672 40.332031 C 642.98481 42.374931 642.85504 44.376483 642.47852 46.333984 C 641.20106 53.235943 637.09317 58.689453 630.1582 62.693359 C 623.16685 66.729818 616.35272 67.619014 609.71289 65.363281 C 603.04051 63.051166 597.37565 57.865341 592.7207 49.802734 C 588.35381 42.239062 586.67464 35.134821 587.66992 28.490234 A 490 490 0 0 0 572.23828 26.158203 z M 444.73828 46.96875 C 442.31665 46.947642 439.87691 47.031546 437.42188 47.222656 C 424.38473 48.209361 411.89045 52.153646 399.9375 59.054688 C 389.28133 65.207031 380.29546 72.949888 372.98047 82.285156 C 365.63292 91.564043 360.38915 101.88443 357.25 113.24414 C 354.2149 124.39344 353.46678 135.72564 355.00391 147.24219 C 356.54103 158.75874 360.27083 169.64866 366.19531 179.91016 C 372.34766 190.56633 379.99976 199.45415 389.14844 206.57617 C 398.26456 213.64181 408.46411 218.61503 419.75 221.49609 C 431.03589 224.37716 442.36015 224.98231 453.72266 223.30859 C 465.11772 221.69125 476.03029 217.87174 486.46094 211.84961 C 495.03098 206.90169 502.61356 200.56858 509.20898 192.85156 C 515.89334 185.15838 521.18208 176.54196 525.07227 167.00391 L 512.04102 162.01172 C 508.81402 169.96407 504.37651 177.18626 498.72852 183.67969 C 493.16946 190.19695 486.75178 195.55664 479.47852 199.75586 C 470.62656 204.86654 461.41676 208.11663 451.8457 209.50781 C 442.30719 210.95538 432.88364 210.45551 423.57812 208.00977 C 413.98198 205.58147 405.28708 201.39437 397.49219 195.44531 C 389.75368 189.4637 383.29687 181.99011 378.12109 173.02539 C 371.83854 162.14369 368.49152 150.61876 368.08203 138.45117 C 367.69637 126.19465 370.26914 114.63506 375.80078 103.77344 C 379.13011 97.039998 383.45958 90.931824 388.78906 85.449219 C 394.08599 79.910232 400.2037 75.138672 407.13867 71.134766 C 417.06188 65.405599 427.36147 62.089077 438.04102 61.185547 C 448.74439 60.193083 459.16103 61.698611 469.28906 65.699219 C 475.50167 68.126434 481.01258 71.48461 485.82031 75.775391 C 490.68443 80.033619 494.85677 85.180031 498.33984 91.212891 C 504.10156 101.19248 506.4655 110.69044 505.43164 119.70703 C 504.42161 128.63469 500.16014 136.09489 492.64453 142.08789 L 456.70703 79.841797 L 444.61133 86.824219 L 451.00781 97.902344 C 445.20732 95.537895 439.50651 94.582223 433.9043 95.035156 C 428.26953 95.431708 422.54952 97.307292 416.74219 100.66016 C 407.10089 106.22656 401.27023 114.29211 399.25 124.85547 C 397.22977 135.41883 399.47396 146.33886 405.98438 157.61523 C 412.49479 168.89161 420.80047 176.31034 430.90234 179.875 C 441.02804 183.35073 450.94099 182.29036 460.63867 176.69141 C 466.446 173.33854 470.93399 169.39368 474.10352 164.85742 C 477.29687 160.23223 479.33063 154.77304 480.20703 148.47852 L 487.72656 161.50195 C 503.31817 152.04908 513.12383 140.44895 517.14062 126.70312 C 521.15742 112.9573 518.88542 98.670227 510.32422 83.841797 C 506.32031 76.906828 501.31908 70.8498 495.32031 65.667969 C 489.37793 60.453586 482.69609 56.304719 475.27734 53.220703 C 465.41091 49.144235 455.23201 47.060219 444.73828 46.96875 z M 439.7793 107.36523 C 442.33128 107.35425 444.87466 107.78808 447.41016 108.66406 C 454.13892 110.94363 459.78255 116.03037 464.33984 123.92383 C 468.96224 131.93005 470.60728 139.39947 469.27344 146.33398 C 467.99598 153.23594 463.88809 158.68945 456.95312 162.69336 C 449.96177 166.72982 443.14764 167.61901 436.50781 165.36328 C 429.83543 163.05117 424.17057 157.86534 419.51562 149.80273 C 414.92578 141.85289 413.29897 134.40912 414.63281 127.47461 C 416.02304 120.50755 420.12897 115.05599 426.95117 111.11719 C 431.25029 108.63509 435.52599 107.38354 439.7793 107.36523 z M 827.0625 136.76758 C 825.41802 145.6466 825.1983 154.63928 826.41406 163.74805 C 827.95119 175.2646 831.68099 186.15452 837.60547 196.41602 C 843.75781 207.07219 851.40992 215.96197 860.55859 223.08398 C 869.67472 230.14962 879.87427 235.12284 891.16016 238.00391 C 900.5668 240.40524 910.00107 241.21796 919.46094 240.45508 A 490 490 0 0 0 909.6543 226.74219 C 904.73459 226.52616 899.84454 225.79394 894.98828 224.51758 C 885.39214 222.08928 876.69723 217.90023 868.90234 211.95117 C 861.16384 205.96956 854.70703 198.49597 849.53125 189.53125 C 843.2487 178.64955 839.90168 167.12462 839.49219 154.95703 C 839.42188 152.72254 839.45371 150.51235 839.58008 148.32422 A 490 490 0 0 0 827.0625 136.76758 z M 271.5332 146.96875 C 269.11157 146.94764 266.67183 147.03155 264.2168 147.22266 C 251.17965 148.20936 238.68538 152.15365 226.73242 159.05469 C 216.07625 165.20703 207.09038 172.94989 199.77539 182.28516 C 192.42785 191.56404 187.18407 201.88443 184.04492 213.24414 C 181.00982 224.39344 180.2617 235.72564 181.79883 247.24219 C 183.33596 258.75874 187.06576 269.64866 192.99023 279.91016 C 199.14258 290.56633 206.79468 299.45415 215.94336 306.57617 C 225.05949 313.64181 235.25903 318.61503 246.54492 321.49609 C 257.83081 324.37716 269.15507 324.98231 280.51758 323.30859 C 291.91264 321.69125 302.82521 317.87174 313.25586 311.84961 C 321.8259 306.90169 329.40848 300.56858 336.00391 292.85156 C 342.68827 285.15838 347.97701 276.54196 351.86719 267.00391 L 338.83594 262.01172 C 335.60894 269.96407 331.17143 277.18626 325.52344 283.67969 C 319.96438 290.19695 313.5467 295.55664 306.27344 299.75586 C 297.42149 304.86654 288.21169 308.11663 278.64062 309.50781 C 269.10212 310.95538 259.67856 310.45551 250.37305 308.00977 C 240.7769 305.58147 232.082 301.39437 224.28711 295.44531 C 216.5486 289.4637 210.0918 281.99011 204.91602 273.02539 C 198.63346 262.14369 195.28644 250.61876 194.87695 238.45117 C 194.49129 226.19465 197.06406 214.63506 202.5957 203.77344 C 205.92503 197.04 210.2545 190.93182 215.58398 185.44922 C 220.88092 179.91023 226.99862 175.13867 233.93359 171.13477 C 243.8568 165.4056 254.15639 162.08908 264.83594 161.18555 C 275.53931 160.19308 285.95595 161.69861 296.08398 165.69922 C 302.29659 168.12643 307.8075 171.48461 312.61523 175.77539 C 317.47935 180.03362 321.65169 185.18003 325.13477 191.21289 C 330.89648 201.19248 333.26042 210.69044 332.22656 219.70703 C 331.21653 228.63469 326.95506 236.09489 319.43945 242.08789 L 283.50195 179.8418 L 271.40625 186.82422 L 277.80273 197.90234 C 272.00225 195.5379 266.30143 194.58222 260.69922 195.03516 C 255.06445 195.43171 249.34444 197.30729 243.53711 200.66016 C 233.89581 206.22656 228.06515 214.29211 226.04492 224.85547 C 224.02469 235.41883 226.26888 246.33886 232.7793 257.61523 C 239.28971 268.89161 247.5954 276.31034 257.69727 279.875 C 267.82297 283.35073 277.73591 282.29036 287.43359 276.69141 C 293.24093 273.33854 297.72891 269.39368 300.89844 264.85742 C 304.0918 260.23223 306.12555 254.77304 307.00195 248.47852 L 314.52148 261.50195 C 330.11309 252.04908 339.91875 240.44895 343.93555 226.70312 C 347.95235 212.9573 345.68034 198.67023 337.11914 183.8418 C 333.11523 176.90683 328.114 170.8498 322.11523 165.66797 C 316.17285 160.45359 309.49101 156.30472 302.07227 153.2207 C 292.20583 149.14423 282.02694 147.06022 271.5332 146.96875 z M 742.94336 163.47461 C 740.52173 163.4535 738.08199 163.5374 735.62695 163.72852 C 722.5898 164.71522 710.09553 168.65951 698.14258 175.56055 C 687.48641 181.71289 678.50054 189.4577 671.18555 198.79297 C 663.838 208.07186 658.59422 218.39028 655.45508 229.75 C 652.41997 240.8993 651.67186 252.2315 653.20898 263.74805 C 654.74611 275.2646 658.47591 286.15452 664.40039 296.41602 C 670.55273 307.07219 678.20484 315.96197 687.35352 323.08398 C 696.46964 330.14962 706.66919 335.12284 717.95508 338.00391 C 729.24097 340.88497 740.56522 341.48817 751.92773 339.81445 C 763.3228 338.19711 774.23537 334.3776 784.66602 328.35547 C 793.23606 323.40755 800.81864 317.07443 807.41406 309.35742 C 814.09842 301.66424 819.38716 293.04977 823.27734 283.51172 L 810.24609 278.51758 C 807.0191 286.46993 802.58159 293.69407 796.93359 300.1875 C 791.37453 306.70476 784.95685 312.0625 777.68359 316.26172 C 768.83164 321.3724 759.62184 324.62249 750.05078 326.01367 C 740.51227 327.46124 731.08872 326.96332 721.7832 324.51758 C 712.18706 322.08928 703.49215 317.90023 695.69727 311.95117 C 687.95876 305.96956 681.50195 298.49597 676.32617 289.53125 C 670.04362 278.64955 666.6966 267.12462 666.28711 254.95703 C 665.90145 242.70051 668.47422 231.14092 674.00586 220.2793 C 677.33518 213.54586 681.66466 207.43768 686.99414 201.95508 C 692.29107 196.41609 698.40878 191.64648 705.34375 187.64258 C 715.26696 181.91341 725.56655 178.59689 736.24609 177.69336 C 746.94947 176.7009 757.3661 178.20447 767.49414 182.20508 C 773.70675 184.63229 779.21766 187.99047 784.02539 192.28125 C 788.88951 196.53948 793.06185 201.68589 796.54492 207.71875 C 802.30664 217.69834 804.67058 227.1963 803.63672 236.21289 C 802.62669 245.14055 798.36522 252.60074 790.84961 258.59375 L 754.91211 196.34766 L 742.81641 203.33008 L 749.21289 214.41016 C 743.4124 212.04571 737.71159 211.09004 732.10938 211.54297 C 726.47461 211.93952 720.7546 213.81315 714.94727 217.16602 C 705.30597 222.73242 699.47531 230.79797 697.45508 241.36133 C 695.43485 251.92469 697.67904 262.84472 704.18945 274.12109 C 710.69987 285.39747 719.00555 292.81815 729.10742 296.38281 C 739.23312 299.85854 749.14607 298.79622 758.84375 293.19727 C 764.65108 289.8444 769.13907 285.89954 772.30859 281.36328 C 775.50195 276.73809 777.53571 271.2789 778.41211 264.98438 L 785.93164 278.00781 C 801.52325 268.55494 811.3289 256.95676 815.3457 243.21094 C 819.3625 229.46511 817.09049 215.17804 808.5293 200.34961 C 804.52539 193.41464 799.52415 187.35566 793.52539 182.17383 C 787.58301 176.95945 780.90117 172.81058 773.48242 169.72656 C 763.61599 165.65009 753.43709 163.56608 742.94336 163.47461 z M 266.57422 207.36523 C 269.1262 207.35425 271.66958 207.78808 274.20508 208.66406 C 280.93384 210.94363 286.57747 216.03037 291.13477 223.92383 C 295.75716 231.93005 297.4022 239.39947 296.06836 246.33398 C 294.7909 253.23594 290.68302 258.68945 283.74805 262.69336 C 276.7567 266.72982 269.94257 267.61901 263.30273 265.36328 C 256.63035 263.05117 250.96549 257.86534 246.31055 249.80273 C 241.7207 241.85289 240.09389 234.40912 241.42773 227.47461 C 242.81796 220.50755 246.92389 215.05599 253.74609 211.11719 C 258.04521 208.63509 262.32091 207.38354 266.57422 207.36523 z M 737.98438 223.87305 C 740.53636 223.86206 743.07974 224.29394 745.61523 225.16992 C 752.344 227.44948 757.98763 232.53623 762.54492 240.42969 C 767.16732 248.43591 768.81236 255.90533 767.47852 262.83984 C 766.20106 269.7418 762.09317 275.19531 755.1582 279.19922 C 748.16685 283.23568 741.35272 284.12683 734.71289 281.87109 C 728.04051 279.55898 722.37565 274.3712 717.7207 266.30859 C 713.13086 258.35875 711.50405 250.91693 712.83789 243.98242 C 714.22811 237.01536 718.33404 231.56185 725.15625 227.62305 C 729.45537 225.14095 733.73107 223.89135 737.98438 223.87305 z M 100.41797 247.01562 A 490 490 0 0 0 91.736328 261.17773 C 102.40262 260.2049 112.78418 261.71177 122.87891 265.69922 C 129.09151 268.12643 134.60242 271.48461 139.41016 275.77539 C 144.27427 280.03362 148.44661 285.18003 151.92969 291.21289 C 157.69141 301.19248 160.05535 310.69044 159.02148 319.70703 C 158.01145 328.63469 153.74998 336.09489 146.23438 342.08789 L 110.29688 279.8418 L 98.201172 286.82422 L 104.59766 297.90234 C 98.797168 295.5379 93.096353 294.58222 87.494141 295.03516 C 81.975194 295.42356 76.373946 297.24041 70.689453 300.46484 A 490 490 0 0 0 53.181641 341.72656 C 54.346351 346.94178 56.469597 352.23787 59.574219 357.61523 C 66.084635 368.89161 74.390318 376.31034 84.492188 379.875 C 94.617887 383.35073 104.53084 382.29036 114.22852 376.69141 C 120.03585 373.33854 124.52383 369.39368 127.69336 364.85742 C 130.88672 360.23223 132.92047 354.77304 133.79688 348.47852 L 141.31641 361.50195 C 156.90802 352.04908 166.71367 340.44895 170.73047 326.70312 C 174.74727 312.9573 172.47526 298.67023 163.91406 283.8418 C 159.91016 276.90683 154.90892 270.8498 148.91016 265.66797 C 142.96777 260.45359 136.28593 256.30472 128.86719 253.2207 C 119.65725 249.41547 110.17451 247.34852 100.41797 247.01562 z M 569.73828 263.47461 C 567.31665 263.4535 564.87691 263.5374 562.42188 263.72852 C 549.38473 264.71522 536.89045 268.65951 524.9375 275.56055 C 514.28133 281.71289 505.29546 289.4577 497.98047 298.79297 C 490.63292 308.07186 485.38915 318.39028 482.25 329.75 C 479.2149 340.8993 478.46678 352.2315 480.00391 363.74805 C 481.54103 375.2646 485.27083 386.15452 491.19531 396.41602 C 497.34766 407.07219 504.99976 415.96197 514.14844 423.08398 C 523.26456 430.14962 533.46411 435.12284 544.75 438.00391 C 556.03589 440.88497 567.36015 441.48817 578.72266 439.81445 C 590.11772 438.19711 601.03029 434.3776 611.46094 428.35547 C 620.03098 423.40755 627.61356 417.07443 634.20898 409.35742 C 640.89334 401.66424 646.18208 393.04977 650.07227 383.51172 L 637.04102 378.51758 C 633.81402 386.46993 629.37651 393.69407 623.72852 400.1875 C 618.16946 406.70476 611.75178 412.0625 604.47852 416.26172 C 595.62656 421.3724 586.41676 424.62249 576.8457 426.01367 C 567.30719 427.46124 557.88364 426.96332 548.57812 424.51758 C 538.98198 422.08928 530.28708 417.90023 522.49219 411.95117 C 514.75368 405.96956 508.29687 398.49597 503.12109 389.53125 C 496.83854 378.64955 493.49152 367.12462 493.08203 354.95703 C 492.69637 342.70051 495.26914 331.14092 500.80078 320.2793 C 504.13011 313.54586 508.45958 307.43768 513.78906 301.95508 C 519.08599 296.41609 525.2037 291.64648 532.13867 287.64258 C 542.06188 281.91341 552.36147 278.59689 563.04102 277.69336 C 573.74439 276.7009 584.16103 278.20447 594.28906 282.20508 C 600.50167 284.63229 606.01258 287.99047 610.82031 292.28125 C 615.68443 296.53948 619.85677 301.68589 623.33984 307.71875 C 629.10156 317.69834 631.4655 327.1963 630.43164 336.21289 C 629.42161 345.14055 625.16014 352.60074 617.64453 358.59375 L 581.70703 296.34766 L 569.61133 303.33008 L 576.00781 314.41016 C 570.20732 312.04571 564.50651 311.09004 558.9043 311.54297 C 553.26953 311.93952 547.54952 313.81315 541.74219 317.16602 C 532.10089 322.73242 526.27023 330.79797 524.25 341.36133 C 522.22977 351.92469 524.47396 362.84472 530.98438 374.12109 C 537.49479 385.39747 545.80047 392.81815 555.90234 396.38281 C 566.02804 399.85854 575.94099 398.79622 585.63867 393.19727 C 591.446 389.8444 595.93399 385.89954 599.10352 381.36328 C 602.29687 376.73809 604.33063 371.2789 605.20703 364.98438 L 612.72656 378.00781 C 628.31817 368.55494 638.12383 356.95676 642.14062 343.21094 C 646.15742 329.46511 643.88542 315.17804 635.32422 300.34961 C 631.32031 293.41464 626.31908 287.35566 620.32031 282.17383 C 614.37793 276.95945 607.69609 272.81058 600.27734 269.72656 C 590.41091 265.65009 580.23201 263.56608 569.73828 263.47461 z M 93.369141 307.36523 C 95.921126 307.35425 98.464506 307.78808 101 308.66406 C 107.72876 310.94363 113.3724 316.03037 117.92969 323.92383 C 122.55208 331.93005 124.19712 339.39947 122.86328 346.33398 C 121.58582 353.23594 117.47794 358.68945 110.54297 362.69336 C 103.55162 366.72982 96.737487 367.61901 90.097656 365.36328 C 83.425273 363.05117 77.760417 357.86534 73.105469 349.80273 C 68.515625 341.85289 66.888815 334.40912 68.222656 327.47461 C 69.612879 320.50755 73.71881 315.05599 80.541016 311.11719 C 84.840133 308.63509 89.115832 307.38354 93.369141 307.36523 z M 963.72656 323.33203 C 959.28189 330.43492 955.92131 338.07334 953.66016 346.25586 C 950.62505 357.40515 949.87694 368.73931 951.41406 380.25586 C 952.95119 391.77241 956.68099 402.66038 962.60547 412.92188 C 968.75781 423.57805 976.40992 432.46783 985.55859 439.58984 C 989.22984 442.43532 993.08037 444.93476 997.10352 447.10156 A 490 490 0 0 0 994.92969 429.20117 C 994.58873 428.95014 994.23992 428.71467 993.90234 428.45703 C 986.16384 422.47542 979.70703 415.00183 974.53125 406.03711 C 968.2487 395.15541 964.90168 383.63048 964.49219 371.46289 C 964.14631 360.47055 966.18786 350.04223 970.60156 340.17188 A 490 490 0 0 0 963.72656 323.33203 z M 564.7793 323.87305 C 567.33128 323.86206 569.87466 324.29394 572.41016 325.16992 C 579.13892 327.44948 584.78255 332.53623 589.33984 340.42969 C 593.96224 348.43591 595.60728 355.90533 594.27344 362.83984 C 592.99598 369.7418 588.88809 375.19531 581.95312 379.19922 C 574.96177 383.23568 568.14764 384.12683 561.50781 381.87109 C 554.83543 379.55898 549.17057 374.3712 544.51562 366.30859 C 539.92578 358.35875 538.29897 350.91693 539.63281 343.98242 C 541.02304 337.01536 545.12897 331.56185 551.95117 327.62305 C 556.25029 325.14095 560.52599 323.89135 564.7793 323.87305 z M 165.63086 362.01172 C 162.40386 369.96407 157.96635 377.18626 152.31836 383.67969 C 146.7593 390.19695 140.34162 395.55664 133.06836 399.75586 C 124.21641 404.86654 115.00661 408.11663 105.43555 409.50781 C 95.897037 410.95538 86.473481 410.45551 77.167969 408.00977 C 67.571825 405.58147 58.876919 401.39437 51.082031 395.44531 C 46.841752 392.16772 43.000133 388.42521 39.529297 384.25195 A 490 490 0 0 0 35.453125 400.2168 C 37.766655 402.472 40.19279 404.59457 42.738281 406.57617 C 51.854408 413.64181 62.053955 418.61503 73.339844 421.49609 C 84.625733 424.37716 95.949989 424.98231 107.3125 423.30859 C 118.70756 421.69125 129.62014 417.87174 140.05078 411.84961 C 148.62082 406.90169 156.2034 400.56858 162.79883 392.85156 C 169.48319 385.15838 174.77193 376.54196 178.66211 367.00391 L 165.63086 362.01172 z M 396.5332 363.47461 C 394.11157 363.4535 391.67183 363.5374 389.2168 363.72852 C 376.17965 364.71522 363.68538 368.65951 351.73242 375.56055 C 341.07625 381.71289 332.09038 389.4577 324.77539 398.79297 C 317.42785 408.07186 312.18407 418.39028 309.04492 429.75 C 306.00982 440.8993 305.2617 452.2315 306.79883 463.74805 C 308.33596 475.2646 312.06576 486.15452 317.99023 496.41602 C 324.14258 507.07219 331.79468 515.96197 340.94336 523.08398 C 350.05949 530.14962 360.25903 535.12284 371.54492 538.00391 C 382.83081 540.88497 394.15507 541.48817 405.51758 539.81445 C 416.91264 538.19711 427.82521 534.3776 438.25586 528.35547 C 446.8259 523.40755 454.40848 517.07443 461.00391 509.35742 C 467.68827 501.66424 472.97701 493.04977 476.86719 483.51172 L 463.83594 478.51758 C 460.60894 486.46993 456.17143 493.69407 450.52344 500.1875 C 444.96438 506.70476 438.5467 512.0625 431.27344 516.26172 C 422.42149 521.3724 413.21169 524.62249 403.64062 526.01367 C 394.10212 527.46124 384.67856 526.96332 375.37305 524.51758 C 365.7769 522.08928 357.082 517.90023 349.28711 511.95117 C 341.5486 505.96956 335.0918 498.49597 329.91602 489.53125 C 323.63346 478.64955 320.28644 467.12462 319.87695 454.95703 C 319.49129 442.70051 322.06406 431.14092 327.5957 420.2793 C 330.92503 413.54586 335.2545 407.43768 340.58398 401.95508 C 345.88092 396.41609 351.99862 391.64648 358.93359 387.64258 C 368.8568 381.91341 379.15639 378.59689 389.83594 377.69336 C 400.53931 376.7009 410.95595 378.20447 421.08398 382.20508 C 427.29659 384.63229 432.8075 387.99047 437.61523 392.28125 C 442.47935 396.53948 446.65169 401.68589 450.13477 407.71875 C 455.89648 417.69834 458.26042 427.1963 457.22656 436.21289 C 456.21653 445.14055 451.95506 452.60074 444.43945 458.59375 L 408.50195 396.34766 L 396.40625 403.33008 L 402.80273 414.41016 C 397.00225 412.04571 391.30143 411.09004 385.69922 411.54297 C 380.06445 411.93952 374.34444 413.81315 368.53711 417.16602 C 358.89581 422.73242 353.06515 430.79797 351.04492 441.36133 C 349.02469 451.92469 351.26888 462.84472 357.7793 474.12109 C 364.28971 485.39747 372.5954 492.81815 382.69727 496.38281 C 392.82297 499.85854 402.73591 498.79622 412.43359 493.19727 C 418.24093 489.8444 422.72891 485.89954 425.89844 481.36328 C 429.0918 476.73809 431.12555 471.2789 432.00195 464.98438 L 439.52148 478.00781 C 455.11309 468.55494 464.91875 456.95676 468.93555 443.21094 C 472.95235 429.46511 470.68034 415.17804 462.11914 400.34961 C 458.11523 393.41464 453.114 387.35566 447.11523 382.17383 C 441.17285 376.95945 434.49101 372.81058 427.07227 369.72656 C 417.20583 365.65009 407.02694 363.56608 396.5332 363.47461 z M 867.94336 379.98047 C 865.52173 379.95936 863.08199 380.04522 860.62695 380.23633 C 847.5898 381.22303 835.09553 385.16536 823.14258 392.06641 C 812.48641 398.21875 803.50054 405.96356 796.18555 415.29883 C 788.838 424.57771 783.59422 434.89614 780.45508 446.25586 C 777.41997 457.40515 776.67186 468.73931 778.20898 480.25586 C 779.74611 491.77241 783.47591 502.66038 789.40039 512.92188 C 795.55273 523.57805 803.20484 532.46783 812.35352 539.58984 C 821.46964 546.65548 831.66919 551.6287 842.95508 554.50977 C 854.24097 557.39083 865.56522 557.99403 876.92773 556.32031 C 888.3228 554.70297 899.23537 550.88346 909.66602 544.86133 C 918.23606 539.91341 925.81864 533.58029 932.41406 525.86328 C 939.09842 518.1701 944.38716 509.55563 948.27734 500.01758 L 935.24609 495.02344 C 932.0191 502.97579 927.58159 510.19993 921.93359 516.69336 C 916.37453 523.21062 909.95685 528.56836 902.68359 532.76758 C 893.83164 537.87826 884.62184 541.12835 875.05078 542.51953 C 865.51227 543.9671 856.08872 543.46918 846.7832 541.02344 C 837.18706 538.59514 828.49215 534.40609 820.69727 528.45703 C 812.95876 522.47542 806.50195 515.00183 801.32617 506.03711 C 795.04362 495.15541 791.6966 483.63048 791.28711 471.46289 C 790.90145 459.20637 793.47422 447.64874 799.00586 436.78711 C 802.33518 430.05367 806.66466 423.9455 811.99414 418.46289 C 817.29107 412.9239 823.40878 408.15234 830.34375 404.14844 C 840.26696 398.41927 850.56655 395.10275 861.24609 394.19922 C 871.94947 393.20675 882.3661 394.71033 892.49414 398.71094 C 898.70675 401.13815 904.21766 404.49828 909.02539 408.78906 C 913.88951 413.04729 918.06185 418.19175 921.54492 424.22461 C 927.30664 434.2042 929.67058 443.70216 928.63672 452.71875 C 927.62669 461.64641 923.36522 469.1066 915.84961 475.09961 L 879.91211 412.85547 L 867.81641 419.83789 L 874.21289 430.91602 C 868.4124 428.55157 862.71159 427.59589 857.10938 428.04883 C 851.47461 428.44538 845.7546 430.32096 839.94727 433.67383 C 830.30597 439.24023 824.47531 447.30383 822.45508 457.86719 C 820.43485 468.43055 822.67904 479.35058 829.18945 490.62695 C 835.69987 501.90333 844.00555 509.32401 854.10742 512.88867 C 864.23312 516.3644 874.14607 515.30208 883.84375 509.70312 C 889.65108 506.35026 894.13907 502.4054 897.30859 497.86914 C 900.50195 493.24395 902.53571 487.78476 903.41211 481.49023 L 910.93164 494.51562 C 926.52325 485.06275 936.3289 473.46262 940.3457 459.7168 C 944.3625 445.97097 942.09049 431.6839 933.5293 416.85547 C 929.52539 409.9205 924.52415 403.86152 918.52539 398.67969 C 912.58301 393.4653 905.90117 389.31644 898.48242 386.23242 C 888.61599 382.15595 878.43709 380.07194 867.94336 379.98047 z M 391.57422 423.87305 C 394.1262 423.86206 396.66958 424.29394 399.20508 425.16992 C 405.93384 427.44948 411.57747 432.53623 416.13477 440.42969 C 420.75716 448.43591 422.4022 455.90533 421.06836 462.83984 C 419.7909 469.7418 415.68302 475.19531 408.74805 479.19922 C 401.7567 483.23568 394.94257 484.12683 388.30273 481.87109 C 381.63035 479.55898 375.96549 474.3712 371.31055 466.30859 C 366.7207 458.35875 365.09389 450.91693 366.42773 443.98242 C 367.81796 437.01536 371.92389 431.56185 378.74609 427.62305 C 383.04521 425.14095 387.32091 423.89135 391.57422 423.87305 z M 862.98438 440.37891 C 865.53636 440.36792 868.07974 440.7998 870.61523 441.67578 C 877.344 443.95534 882.98763 449.04209 887.54492 456.93555 C 892.16732 464.94177 893.81236 472.41315 892.47852 479.34766 C 891.20106 486.24961 887.09317 491.70117 880.1582 495.70508 C 873.16685 499.74154 866.35272 500.63269 859.71289 498.37695 C 853.04051 496.06484 847.37565 490.87706 842.7207 482.81445 C 838.13086 474.86461 836.50405 467.42279 837.83789 460.48828 C 839.22811 453.52122 843.33404 448.06771 850.15625 444.12891 C 854.45537 441.64681 858.73107 440.39721 862.98438 440.37891 z M 223.32812 463.47461 C 220.90649 463.4535 218.46676 463.5374 216.01172 463.72852 C 202.97457 464.71522 190.4803 468.65951 178.52734 475.56055 C 167.87117 481.71289 158.88531 489.4577 151.57031 498.79297 C 144.22277 508.07186 138.97899 518.39028 135.83984 529.75 C 132.80474 540.8993 132.05662 552.2315 133.59375 563.74805 C 135.13088 575.2646 138.86068 586.15452 144.78516 596.41602 C 150.9375 607.07219 158.5896 615.96197 167.73828 623.08398 C 176.85441 630.14962 187.05395 635.12284 198.33984 638.00391 C 209.62573 640.88497 220.94999 641.48817 232.3125 639.81445 C 243.70756 638.19711 254.62014 634.3776 265.05078 628.35547 C 273.62082 623.40755 281.2034 617.07443 287.79883 609.35742 C 294.48319 601.66424 299.77193 593.04977 303.66211 583.51172 L 290.63086 578.51758 C 287.40386 586.46993 282.96635 593.69407 277.31836 600.1875 C 271.7593 606.70476 265.34162 612.0625 258.06836 616.26172 C 249.21641 621.3724 240.00661 624.62249 230.43555 626.01367 C 220.89704 627.46124 211.47348 626.96332 202.16797 624.51758 C 192.57182 622.08928 183.87692 617.90023 176.08203 611.95117 C 168.34353 605.96956 161.88672 598.49597 156.71094 589.53125 C 150.42839 578.64955 147.08136 567.12462 146.67188 554.95703 C 146.28621 542.70051 148.85899 531.14092 154.39062 520.2793 C 157.71995 513.54586 162.04942 507.43768 167.37891 501.95508 C 172.67584 496.41609 178.79355 491.64648 185.72852 487.64258 C 195.65172 481.91341 205.95132 478.59689 216.63086 477.69336 C 227.33423 476.7009 237.75087 478.20447 247.87891 482.20508 C 254.09151 484.63229 259.60242 487.99047 264.41016 492.28125 C 269.27427 496.53948 273.44661 501.68589 276.92969 507.71875 C 282.69141 517.69834 285.05535 527.1963 284.02148 536.21289 C 283.01145 545.14055 278.74998 552.60074 271.23438 558.59375 L 235.29688 496.34766 L 223.20117 503.33008 L 229.59766 514.41016 C 223.79717 512.04571 218.09635 511.09004 212.49414 511.54297 C 206.85938 511.93952 201.13936 513.81315 195.33203 517.16602 C 185.69073 522.73242 179.86007 530.79797 177.83984 541.36133 C 175.81961 551.92469 178.0638 562.84472 184.57422 574.12109 C 191.08464 585.39747 199.39032 592.81815 209.49219 596.38281 C 219.61789 599.85854 229.53084 598.79622 239.22852 593.19727 C 245.03585 589.8444 249.52383 585.89954 252.69336 581.36328 C 255.88672 576.73809 257.92047 571.2789 258.79688 564.98438 L 266.31641 578.00781 C 281.90802 568.55494 291.71367 556.95676 295.73047 543.21094 C 299.74727 529.46511 297.47526 515.17804 288.91406 500.34961 C 284.91016 493.41464 279.90892 487.35566 273.91016 482.17383 C 267.96777 476.95945 261.28593 472.81058 253.86719 469.72656 C 244.00075 465.65009 233.82186 463.56608 223.32812 463.47461 z M 694.73828 479.98047 C 692.31665 479.95936 689.87691 480.04522 687.42188 480.23633 C 674.38473 481.22303 661.89045 485.16536 649.9375 492.06641 C 639.28133 498.21875 630.29546 505.96356 622.98047 515.29883 C 615.63292 524.57771 610.38915 534.89614 607.25 546.25586 C 604.2149 557.40515 603.46678 568.73931 605.00391 580.25586 C 606.54103 591.77241 610.27083 602.66038 616.19531 612.92188 C 622.34766 623.57805 629.99976 632.46783 639.14844 639.58984 C 648.26456 646.65548 658.46411 651.6287 669.75 654.50977 C 681.03589 657.39083 692.36015 657.99403 703.72266 656.32031 C 715.11772 654.70297 726.03029 650.88346 736.46094 644.86133 C 745.03098 639.91341 752.61356 633.58029 759.20898 625.86328 C 765.89334 618.1701 771.18208 609.55563 775.07227 600.01758 L 762.04102 595.02344 C 758.81402 602.97579 754.37651 610.19993 748.72852 616.69336 C 743.16946 623.21062 736.75178 628.56836 729.47852 632.76758 C 720.62656 637.87826 711.41676 641.12835 701.8457 642.51953 C 692.30719 643.9671 682.88364 643.46918 673.57812 641.02344 C 663.98198 638.59514 655.28708 634.40609 647.49219 628.45703 C 639.75368 622.47542 633.29688 615.00183 628.12109 606.03711 C 621.83854 595.15541 618.49152 583.63048 618.08203 571.46289 C 617.69637 559.20637 620.26914 547.64874 625.80078 536.78711 C 629.13011 530.05367 633.45958 523.9455 638.78906 518.46289 C 644.08599 512.9239 650.2037 508.15234 657.13867 504.14844 C 667.06188 498.41927 677.36147 495.10275 688.04102 494.19922 C 698.74439 493.20675 709.16103 494.71033 719.28906 498.71094 C 725.50167 501.13815 731.01258 504.49828 735.82031 508.78906 C 740.68443 513.04729 744.85677 518.19175 748.33984 524.22461 C 754.10156 534.2042 756.4655 543.70216 755.43164 552.71875 C 754.42161 561.64641 750.16014 569.1066 742.64453 575.09961 L 706.70703 512.85547 L 694.61133 519.83789 L 701.00781 530.91602 C 695.20732 528.55157 689.50651 527.59589 683.9043 528.04883 C 678.26953 528.44538 672.54952 530.32096 666.74219 533.67383 C 657.10089 539.24023 651.27023 547.30383 649.25 557.86719 C 647.22977 568.43055 649.47396 579.35058 655.98438 590.62695 C 662.49479 601.90333 670.80047 609.32401 680.90234 612.88867 C 691.02804 616.3644 700.94099 615.30208 710.63867 609.70312 C 716.446 606.35026 720.93399 602.4054 724.10352 597.86914 C 727.29687 593.24395 729.33063 587.78476 730.20703 581.49023 L 737.72656 594.51562 C 753.31817 585.06275 763.12383 573.46262 767.14062 559.7168 C 771.15742 545.97097 768.88542 531.6839 760.32422 516.85547 C 756.32031 509.9205 751.31908 503.86152 745.32031 498.67969 C 739.37793 493.4653 732.69609 489.31644 725.27734 486.23242 C 715.41091 482.15595 705.23201 480.07194 694.73828 479.98047 z M 218.36914 523.87305 C 220.92113 523.86206 223.46451 524.29394 226 525.16992 C 232.72876 527.44948 238.3724 532.53623 242.92969 540.42969 C 247.55208 548.43591 249.19712 555.90533 247.86328 562.83984 C 246.58582 569.7418 242.47794 575.19531 235.54297 579.19922 C 228.55162 583.23568 221.73749 584.12683 215.09766 581.87109 C 208.42527 579.55898 202.76042 574.3712 198.10547 566.30859 C 193.51563 558.35875 191.88881 550.91693 193.22266 543.98242 C 194.61288 537.01536 198.71881 531.56185 205.54102 527.62305 C 209.84013 525.14095 214.11583 523.89135 218.36914 523.87305 z M 689.7793 540.37891 C 692.33128 540.36792 694.87466 540.7998 697.41016 541.67578 C 704.13892 543.95534 709.78255 549.04209 714.33984 556.93555 C 718.96224 564.94177 720.60728 572.41315 719.27344 579.34766 C 717.99598 586.24961 713.88809 591.70117 706.95312 595.70508 C 699.96177 599.74154 693.14764 600.63269 686.50781 598.37695 C 679.83543 596.06484 674.17057 590.87706 669.51562 582.81445 C 664.92578 574.86461 663.29897 567.42279 664.63281 560.48828 C 666.02304 553.52122 670.12897 548.06771 676.95117 544.12891 C 681.25029 541.64681 685.52599 540.39721 689.7793 540.37891 z M 50.123047 563.47461 C 47.701416 563.4535 45.261678 563.5374 42.806641 563.72852 C 36.987124 564.16896 31.277314 565.20336 25.673828 566.82227 A 490 490 0 0 0 27.390625 580.95898 C 32.638018 579.24448 37.981856 578.15394 43.425781 577.69336 C 54.129154 576.7009 64.545792 578.20447 74.673828 582.20508 C 80.886434 584.63229 86.397345 587.99047 91.205078 592.28125 C 96.069194 596.53948 100.24154 601.68589 103.72461 607.71875 C 109.48633 617.69834 111.85027 627.1963 110.81641 636.21289 C 109.80637 645.14055 105.5449 652.60074 98.029297 658.59375 L 62.091797 596.34766 L 49.996094 603.33008 L 56.392578 614.41016 C 50.59209 612.04571 44.891275 611.09004 39.289062 611.54297 C 37.208947 611.68936 35.117304 612.03862 33.013672 612.58789 A 490 490 0 0 0 35.982422 625.81445 C 41.626524 623.46469 47.230253 623.2474 52.794922 625.16992 C 59.523687 627.44948 65.167318 632.53623 69.724609 640.42969 C 74.347005 648.43591 75.992045 655.90533 74.658203 662.83984 C 73.380744 669.7418 69.27286 675.19531 62.337891 679.19922 C 59.200428 681.01063 56.099874 682.18428 53.033203 682.72852 A 490 490 0 0 0 58.464844 696.62305 C 60.998294 695.78229 63.518544 694.64347 66.023438 693.19727 C 71.830769 689.8444 76.318753 685.89954 79.488281 681.36328 C 82.681639 676.73809 84.715396 671.2789 85.591797 664.98438 L 93.111328 678.00781 C 108.70294 668.55494 118.50859 656.95676 122.52539 643.21094 C 126.54219 629.46511 124.27018 615.17804 115.70898 600.34961 C 111.70508 593.41464 106.70384 587.35566 100.70508 582.17383 C 94.762696 576.95945 88.080853 572.81058 80.662109 569.72656 C 70.795676 565.65009 60.616779 563.56608 50.123047 563.47461 z M 521.5332 579.98047 C 519.11157 579.95936 516.67183 580.04522 514.2168 580.23633 C 501.17965 581.22303 488.68538 585.16536 476.73242 592.06641 C 466.07625 598.21875 457.09038 605.96356 449.77539 615.29883 C 442.42785 624.57771 437.18407 634.89614 434.04492 646.25586 C 431.00982 657.40515 430.2617 668.73931 431.79883 680.25586 C 433.33596 691.77241 437.06576 702.66038 442.99023 712.92188 C 449.14258 723.57805 456.79468 732.46783 465.94336 739.58984 C 475.05949 746.65548 485.25903 751.6287 496.54492 754.50977 C 507.83081 757.39083 519.15507 757.99403 530.51758 756.32031 C 541.91264 754.70297 552.82521 750.88346 563.25586 744.86133 C 571.8259 739.91341 579.40848 733.58029 586.00391 725.86328 C 592.68827 718.1701 597.97701 709.55563 601.86719 700.01758 L 588.83594 695.02344 C 585.60894 702.97579 581.17143 710.19993 575.52344 716.69336 C 569.96438 723.21062 563.5467 728.56836 556.27344 732.76758 C 547.42149 737.87826 538.21169 741.12835 528.64062 742.51953 C 519.10212 743.9671 509.67856 743.46918 500.37305 741.02344 C 490.7769 738.59514 482.082 734.40609 474.28711 728.45703 C 466.5486 722.47542 460.0918 715.00183 454.91602 706.03711 C 448.63346 695.15541 445.28644 683.63048 444.87695 671.46289 C 444.49129 659.20637 447.06406 647.64874 452.5957 636.78711 C 455.92503 630.05367 460.2545 623.9455 465.58398 618.46289 C 470.88092 612.9239 476.99862 608.15234 483.93359 604.14844 C 493.8568 598.41927 504.15639 595.10275 514.83594 594.19922 C 525.53931 593.20675 535.95595 594.71033 546.08398 598.71094 C 552.29659 601.13815 557.8075 604.49828 562.61523 608.78906 C 567.47935 613.04729 571.65169 618.19175 575.13477 624.22461 C 580.89648 634.2042 583.26042 643.70216 582.22656 652.71875 C 581.21653 661.64641 576.95506 669.1066 569.43945 675.09961 L 533.50195 612.85547 L 521.40625 619.83789 L 527.80273 630.91602 C 522.00225 628.55157 516.30143 627.59589 510.69922 628.04883 C 505.06445 628.44538 499.34444 630.32096 493.53711 633.67383 C 483.89581 639.24023 478.06515 647.30383 476.04492 657.86719 C 474.02469 668.43055 476.26888 679.35058 482.7793 690.62695 C 489.28971 701.90333 497.5954 709.32401 507.69727 712.88867 C 517.82297 716.3644 527.73591 715.30208 537.43359 709.70312 C 543.24093 706.35026 547.72891 702.4054 550.89844 697.86914 C 554.0918 693.24395 556.12555 687.78476 557.00195 681.49023 L 564.52148 694.51562 C 580.11309 685.06275 589.91875 673.46262 593.93555 659.7168 C 597.95235 645.97097 595.68034 631.6839 587.11914 616.85547 C 583.11523 609.9205 578.114 603.86152 572.11523 598.67969 C 566.17285 593.4653 559.49101 589.31644 552.07227 586.23242 C 542.20583 582.15595 532.02694 580.07194 521.5332 579.98047 z M 992.94336 596.48633 C 990.52173 596.46522 988.08199 596.55108 985.62695 596.74219 C 972.5898 597.72889 960.09553 601.67318 948.14258 608.57422 C 937.48641 614.72656 928.50054 622.46942 921.18555 631.80469 C 913.838 641.08357 908.59422 651.40396 905.45508 662.76367 C 902.41997 673.91297 901.67186 685.24517 903.20898 696.76172 C 904.74611 708.27827 908.47591 719.16819 914.40039 729.42969 C 920.40596 739.83164 927.84443 748.54371 936.70508 755.57812 A 490 490 0 0 0 943.73242 743.36328 C 936.86522 737.66316 931.05455 730.73471 926.32617 722.54492 C 920.04362 711.66322 916.6966 700.13829 916.28711 687.9707 C 915.90145 675.71418 918.47422 664.1546 924.00586 653.29297 C 927.33518 646.55953 931.66466 640.45136 936.99414 634.96875 C 942.29107 629.42976 948.40878 624.6582 955.34375 620.6543 C 965.26696 614.92513 975.56655 611.60861 986.24609 610.70508 C 988.15966 610.52764 990.06381 610.43386 991.95898 610.41602 A 490 490 0 0 0 994.17188 596.51562 C 993.76237 596.50595 993.35382 596.48991 992.94336 596.48633 z M 516.57422 640.37891 C 519.1262 640.36792 521.66958 640.7998 524.20508 641.67578 C 530.93384 643.95534 536.57747 649.04209 541.13477 656.93555 C 545.75716 664.94177 547.4022 672.41315 546.06836 679.34766 C 544.7909 686.24961 540.68302 691.70117 533.74805 695.70508 C 526.7567 699.74154 519.94257 700.63269 513.30273 698.37695 C 506.63035 696.06484 500.96549 690.87706 496.31055 682.81445 C 491.7207 674.86461 490.09389 667.42279 491.42773 660.48828 C 492.81796 653.52122 496.92389 648.06771 503.74609 644.12891 C 508.04521 641.64681 512.32091 640.39721 516.57422 640.37891 z M 983.25781 644.49805 C 982.87492 644.51583 982.49135 644.52381 982.10938 644.55469 C 976.47461 644.95124 970.7546 646.82682 964.94727 650.17969 C 955.30597 655.74609 949.47531 663.80969 947.45508 674.37305 C 945.43485 684.9364 947.67904 695.85644 954.18945 707.13281 C 955.46943 709.3498 956.82143 711.41313 958.24023 713.33203 A 490 490 0 0 0 965.87695 695.80859 C 962.71985 689.16978 961.70245 682.8972 962.83789 676.99414 C 964.22811 670.02708 968.33404 664.57357 975.15625 660.63477 C 976.59761 659.8026 978.03645 659.11773 979.47266 658.5625 A 490 490 0 0 0 983.25781 644.49805 z M 117.42578 678.51758 C 114.19879 686.46993 109.76127 693.69407 104.11328 700.1875 C 98.554222 706.70476 92.136541 712.0625 84.863281 716.26172 C 80.087383 719.01908 75.203976 721.21598 70.21875 722.89062 A 490 490 0 0 0 76.099609 735.64062 C 81.464714 733.74401 86.71403 731.31824 91.845703 728.35547 C 100.41575 723.40755 107.99832 717.07443 114.59375 709.35742 C 121.27811 701.66424 126.56685 693.04977 130.45703 683.51172 L 117.42578 678.51758 z M 348.32812 679.98047 C 345.90649 679.95936 343.46676 680.04522 341.01172 680.23633 C 327.97457 681.22303 315.4803 685.16536 303.52734 692.06641 C 292.87117 698.21875 283.88531 705.96356 276.57031 715.29883 C 269.22277 724.57771 263.97899 734.89614 260.83984 746.25586 C 257.80474 757.40515 257.05662 768.73931 258.59375 780.25586 C 260.13088 791.77241 263.86068 802.66038 269.78516 812.92188 C 275.9375 823.57805 283.5896 832.46783 292.73828 839.58984 C 301.85441 846.65548 312.05395 851.6287 323.33984 854.50977 C 334.62573 857.39083 345.94999 857.99403 357.3125 856.32031 C 368.70756 854.70297 379.62014 850.88346 390.05078 844.86133 C 398.62082 839.91341 406.2034 833.58029 412.79883 825.86328 C 419.48319 818.1701 424.77193 809.55563 428.66211 800.01758 L 415.63086 795.02344 C 412.40386 802.97579 407.96635 810.19993 402.31836 816.69336 C 396.7593 823.21062 390.34162 828.56836 383.06836 832.76758 C 374.21641 837.87826 365.00661 841.12835 355.43555 842.51953 C 345.89704 843.9671 336.47348 843.46918 327.16797 841.02344 C 317.57182 838.59514 308.87692 834.40609 301.08203 828.45703 C 293.34353 822.47542 286.88672 815.00183 281.71094 806.03711 C 275.42839 795.15541 272.08136 783.63048 271.67188 771.46289 C 271.28621 759.20637 273.85899 747.64874 279.39062 736.78711 C 282.71995 730.05367 287.04942 723.9455 292.37891 718.46289 C 297.67584 712.9239 303.79355 708.15234 310.72852 704.14844 C 320.65172 698.41927 330.95132 695.10275 341.63086 694.19922 C 352.33423 693.20675 362.75087 694.71033 372.87891 698.71094 C 379.09151 701.13815 384.60242 704.49828 389.41016 708.78906 C 394.27427 713.04729 398.44661 718.19175 401.92969 724.22461 C 407.69141 734.2042 410.05535 743.70216 409.02148 752.71875 C 408.01145 761.64641 403.74998 769.1066 396.23438 775.09961 L 360.29688 712.85547 L 348.20117 719.83789 L 354.59766 730.91602 C 348.79717 728.55157 343.09635 727.59589 337.49414 728.04883 C 331.85938 728.44538 326.13936 730.32096 320.33203 733.67383 C 310.69073 739.24023 304.86007 747.30383 302.83984 757.86719 C 300.81961 768.43055 303.0638 779.35058 309.57422 790.62695 C 316.08464 801.90333 324.39032 809.32401 334.49219 812.88867 C 344.61789 816.3644 354.53084 815.30208 364.22852 809.70312 C 370.03585 806.35026 374.52383 802.4054 377.69336 797.86914 C 380.88672 793.24395 382.92047 787.78476 383.79688 781.49023 L 391.31641 794.51562 C 406.90802 785.06275 416.71367 773.46262 420.73047 759.7168 C 424.74727 745.97097 422.47526 731.6839 413.91406 716.85547 C 409.91016 709.9205 404.90892 703.86152 398.91016 698.67969 C 392.96777 693.4653 386.28593 689.31644 378.86719 686.23242 C 369.00075 682.15595 358.82186 680.07194 348.32812 679.98047 z M 819.73828 696.48633 C 817.31665 696.46522 814.87691 696.55108 812.42188 696.74219 C 799.38473 697.72889 786.89045 701.67318 774.9375 708.57422 C 764.28133 714.72656 755.29546 722.46942 747.98047 731.80469 C 740.63292 741.08357 735.38915 751.40396 732.25 762.76367 C 729.2149 773.91297 728.46678 785.24517 730.00391 796.76172 C 731.54103 808.27827 735.27083 819.16819 741.19531 829.42969 C 747.34766 840.08586 754.99976 848.97369 764.14844 856.0957 C 773.26456 863.16134 783.46411 868.13456 794.75 871.01562 C 806.03589 873.89669 817.36015 874.49989 828.72266 872.82617 C 835.6176 871.84755 842.3351 870.05812 848.87695 867.4668 A 490 490 0 0 0 896.33398 815.0918 L 887.04102 811.53125 C 883.81402 819.4836 879.37651 826.70579 873.72852 833.19922 C 868.16946 839.71648 861.75178 845.07422 854.47852 849.27344 C 845.62656 854.38411 836.41676 857.63616 826.8457 859.02734 C 817.30719 860.47491 807.88364 859.97504 798.57812 857.5293 C 788.98198 855.101 780.28708 850.91195 772.49219 844.96289 C 764.75368 838.98128 758.29688 831.50964 753.12109 822.54492 C 746.83854 811.66322 743.49152 800.13829 743.08203 787.9707 C 742.69637 775.71418 745.26914 764.1546 750.80078 753.29297 C 754.13011 746.55953 758.45958 740.45136 763.78906 734.96875 C 769.08599 729.42976 775.2037 724.6582 782.13867 720.6543 C 792.06188 714.92513 802.36147 711.60861 813.04102 710.70508 C 823.74439 709.71261 834.16103 711.21619 844.28906 715.2168 C 850.50167 717.64401 856.01258 721.00414 860.82031 725.29492 C 865.68443 729.55315 869.85677 734.69761 873.33984 740.73047 C 879.10156 750.71006 881.4655 760.20802 880.43164 769.22461 C 879.42161 778.15227 875.16014 785.61442 867.64453 791.60742 L 831.70703 729.36133 L 819.61133 736.34375 L 826.00781 747.42188 C 820.20732 745.05743 814.50651 744.10175 808.9043 744.55469 C 803.26953 744.95124 797.54952 746.82682 791.74219 750.17969 C 782.10089 755.74609 776.27023 763.80969 774.25 774.37305 C 772.22977 784.9364 774.47396 795.85644 780.98438 807.13281 C 787.49479 818.40918 795.80047 825.82987 805.90234 829.39453 C 816.02804 832.87026 825.94099 831.8099 835.63867 826.21094 C 841.446 822.85807 845.93399 818.91321 849.10352 814.37695 C 852.29687 809.75176 854.33063 804.29062 855.20703 797.99609 L 862.72656 811.02148 C 878.31817 801.56861 888.12383 789.96848 892.14062 776.22266 C 896.15742 762.47683 893.88542 748.18976 885.32422 733.36133 C 881.32031 726.42636 876.31908 720.36738 870.32031 715.18555 C 864.37793 709.97116 857.69609 705.8223 850.27734 702.73828 C 840.41091 698.66181 830.23201 696.5778 819.73828 696.48633 z M 343.36914 740.37891 C 345.92113 740.36792 348.46451 740.7998 351 741.67578 C 357.72876 743.95534 363.3724 749.04209 367.92969 756.93555 C 372.55208 764.94177 374.19712 772.41315 372.86328 779.34766 C 371.58582 786.24961 367.47794 791.70117 360.54297 795.70508 C 353.55162 799.74154 346.73749 800.63269 340.09766 798.37695 C 333.42527 796.06484 327.76042 790.87706 323.10547 782.81445 C 318.51562 774.86461 316.88881 767.42279 318.22266 760.48828 C 319.61288 753.52122 323.71881 748.06771 330.54102 744.12891 C 334.84013 741.64681 339.11583 740.39721 343.36914 740.37891 z M 814.7793 756.88477 C 817.33128 756.87378 819.87466 757.30566 822.41016 758.18164 C 829.13892 760.4612 834.78255 765.54795 839.33984 773.44141 C 843.96224 781.44763 845.60728 788.91901 844.27344 795.85352 C 842.99598 802.75547 838.88809 808.20898 831.95312 812.21289 C 824.96177 816.24935 818.14764 817.13855 811.50781 814.88281 C 804.83543 812.5707 799.17057 807.38292 794.51562 799.32031 C 789.92578 791.37047 788.29897 783.92865 789.63281 776.99414 C 791.02304 770.02708 795.12897 764.57357 801.95117 760.63477 C 806.25029 758.15267 810.52599 756.90307 814.7793 756.88477 z M 175.12305 779.98047 C 172.70142 779.95936 170.26168 780.04522 167.80664 780.23633 C 154.76949 781.22303 142.27522 785.16536 130.32227 792.06641 C 125.60344 794.79082 121.21403 797.83112 117.15039 801.17969 A 490 490 0 0 0 125.35938 812.6582 C 129.08719 809.51559 133.1417 806.67823 137.52344 804.14844 C 147.44665 798.41927 157.74624 795.10275 168.42578 794.19922 C 179.12915 793.20675 189.54579 794.71033 199.67383 798.71094 C 205.88643 801.13815 211.39734 804.49828 216.20508 808.78906 C 221.06919 813.04729 225.24154 818.19175 228.72461 824.22461 C 234.48633 834.2042 236.85027 843.70216 235.81641 852.71875 C 234.80637 861.64641 230.5449 869.1066 223.0293 875.09961 L 187.0918 812.85547 L 174.99609 819.83789 L 181.39258 830.91602 C 175.59209 828.55157 169.89127 827.59589 164.28906 828.04883 C 158.6543 828.44538 152.93428 830.32096 147.12695 833.67383 C 146.24368 834.18378 145.40329 834.72154 144.58398 835.27344 A 490 490 0 0 0 154.1875 846.20703 C 155.16545 845.47451 156.21004 844.77894 157.33594 844.12891 C 164.21452 840.15755 171.0336 839.33984 177.79492 841.67578 C 184.52369 843.95534 190.16732 849.04209 194.72461 856.93555 C 199.34701 864.94177 200.99204 872.41315 199.6582 879.34766 C 199.13879 882.15397 198.14222 884.71576 196.6875 887.04297 A 490 490 0 0 0 206.51562 894.51367 C 208.55613 890.66339 209.91856 886.32561 210.5918 881.49023 L 218.11133 894.51562 C 233.70294 885.06275 243.50859 873.46262 247.52539 859.7168 C 251.54219 845.97097 249.27018 831.6839 240.70898 816.85547 C 236.70508 809.9205 231.70384 803.86152 225.70508 798.67969 C 219.7627 793.4653 213.08085 789.31644 205.66211 786.23242 C 195.79568 782.15595 185.61678 780.07194 175.12305 779.98047 z M 646.5332 796.48633 C 644.11157 796.46522 641.67183 796.55108 639.2168 796.74219 C 626.17965 797.72889 613.68538 801.67318 601.73242 808.57422 C 591.07625 814.72656 582.09038 822.46942 574.77539 831.80469 C 567.42785 841.08357 562.18407 851.40396 559.04492 862.76367 C 556.00982 873.91297 555.2617 885.24517 556.79883 896.76172 C 558.33596 908.27827 562.06576 919.16819 567.99023 929.42969 C 574.14258 940.08586 581.79468 948.97369 590.94336 956.0957 C 600.05949 963.16134 610.25903 968.13456 621.54492 971.01562 C 632.83081 973.89669 644.15507 974.49989 655.51758 972.82617 C 666.91264 971.20883 677.82521 967.38932 688.25586 961.36719 C 696.8259 956.41927 704.40848 950.08811 711.00391 942.37109 C 717.68827 934.67791 722.97701 926.06149 726.86719 916.52344 L 713.83594 911.53125 C 710.60894 919.4836 706.17143 926.70579 700.52344 933.19922 C 694.96438 939.71648 688.5467 945.07422 681.27344 949.27344 C 672.42149 954.38411 663.21169 957.63616 653.64062 959.02734 C 644.10212 960.47491 634.67856 959.97504 625.37305 957.5293 C 615.7769 955.101 607.082 950.91195 599.28711 944.96289 C 591.5486 938.98128 585.0918 931.50964 579.91602 922.54492 C 573.63346 911.66322 570.28644 900.13829 569.87695 887.9707 C 569.49129 875.71418 572.06406 864.1546 577.5957 853.29297 C 580.92503 846.55953 585.2545 840.45136 590.58398 834.96875 C 595.88092 829.42976 601.99862 824.6582 608.93359 820.6543 C 618.8568 814.92513 629.15639 811.60861 639.83594 810.70508 C 650.53931 809.71261 660.95595 811.21619 671.08398 815.2168 C 677.29659 817.64401 682.8075 821.00414 687.61523 825.29492 C 692.47935 829.55315 696.65169 834.69761 700.13477 840.73047 C 705.89648 850.71006 708.26042 860.20802 707.22656 869.22461 C 706.21653 878.15227 701.95506 885.61442 694.43945 891.60742 L 658.50195 829.36133 L 646.40625 836.34375 L 652.80273 847.42188 C 647.00225 845.05743 641.30143 844.10175 635.69922 844.55469 C 630.06445 844.95124 624.34444 846.82682 618.53711 850.17969 C 608.89581 855.74609 603.06515 863.80969 601.04492 874.37305 C 599.02469 884.9364 601.26888 895.85644 607.7793 907.13281 C 614.28971 918.40918 622.5954 925.82987 632.69727 929.39453 C 642.82297 932.87026 652.73591 931.8099 662.43359 926.21094 C 668.24093 922.85807 672.72891 918.91321 675.89844 914.37695 C 679.0918 909.75176 681.12555 904.29062 682.00195 897.99609 L 689.52148 911.02148 C 705.11309 901.56861 714.91875 889.96848 718.93555 876.22266 C 722.95235 862.47683 720.68034 848.18976 712.11914 833.36133 C 708.11523 826.42636 703.114 820.36738 697.11523 815.18555 C 691.17285 809.97116 684.49101 805.8223 677.07227 802.73828 C 667.20583 798.66181 657.02694 796.5778 646.5332 796.48633 z M 641.57422 856.88477 C 644.1262 856.87378 646.66958 857.30566 649.20508 858.18164 C 655.93384 860.4612 661.57747 865.54795 666.13477 873.44141 C 670.75716 881.44763 672.4022 888.91901 671.06836 895.85352 C 669.7909 902.75547 665.68302 908.20898 658.74805 912.21289 C 651.7567 916.24935 644.94257 917.13855 638.30273 914.88281 C 631.63035 912.5707 625.96549 907.38292 621.31055 899.32031 C 616.7207 891.37047 615.09389 883.92865 616.42773 876.99414 C 617.81796 870.02708 621.92389 864.57357 628.74609 860.63477 C 633.04521 858.15267 637.32091 856.90307 641.57422 856.88477 z M 242.42578 895.02344 C 239.69908 901.74291 236.0978 907.93739 231.64258 913.61523 A 490 490 0 0 0 243.29102 921.29883 C 248.25088 914.80248 252.3173 907.71567 255.45703 900.01758 L 242.42578 895.02344 z M 473.32812 896.48633 C 470.90649 896.46522 468.46676 896.55108 466.01172 896.74219 C 452.97457 897.72889 440.4803 901.67318 428.52734 908.57422 C 417.87117 914.72656 408.88531 922.46942 401.57031 931.80469 C 394.22277 941.08357 388.97899 951.40396 385.83984 962.76367 C 383.92296 969.80523 382.92123 976.91937 382.82812 984.10742 A 490 490 0 0 0 396.66602 987.64062 C 396.33663 975.50692 398.9088 964.05679 404.39062 953.29297 C 407.71995 946.55953 412.04942 940.45136 417.37891 934.96875 C 422.67584 929.42976 428.79355 924.6582 435.72852 920.6543 C 445.65172 914.92513 455.95132 911.60861 466.63086 910.70508 C 477.33423 909.71261 487.75087 911.21619 497.87891 915.2168 C 504.09151 917.64401 509.60242 921.00414 514.41016 925.29492 C 519.27427 929.55315 523.44661 934.69761 526.92969 940.73047 C 532.69141 950.71006 535.05535 960.20802 534.02148 969.22461 C 533.01145 978.15227 528.74998 985.61442 521.23438 991.60742 L 485.29688 929.36133 L 473.20117 936.34375 L 479.59766 947.42188 C 473.79717 945.05743 468.09635 944.10175 462.49414 944.55469 C 456.85938 944.95124 451.13936 946.82682 445.33203 950.17969 C 435.69073 955.74609 429.86007 963.80969 427.83984 974.37305 C 426.58929 980.91193 426.97592 987.58829 428.99414 994.40039 A 490 490 0 0 0 446.90625 997.10742 C 443.24673 989.9861 442.0134 983.28094 443.22266 976.99414 C 444.61288 970.02708 448.71881 964.57357 455.54102 960.63477 C 462.4196 956.66341 469.23868 955.8457 476 958.18164 C 482.72876 960.4612 488.3724 965.54795 492.92969 973.44141 C 497.55208 981.44763 499.19712 988.91901 497.86328 995.85352 C 497.51249 997.74881 496.93951 999.53027 496.16211 1001.207 A 490 490 0 0 0 508.08984 1001.8047 C 508.37211 1000.5685 508.61471 999.30443 508.79688 997.99609 L 511.08203 1001.9531 A 490 490 0 0 0 512 1002 A 490 490 0 0 0 529.39258 1001.3848 C 537.53718 993.99834 542.98667 985.61217 545.73047 976.22266 C 549.74727 962.47683 547.47526 948.18976 538.91406 933.36133 C 534.91016 926.42636 529.90892 920.36738 523.91016 915.18555 C 517.96777 909.97116 511.28593 905.8223 503.86719 902.73828 C 494.00075 898.66181 483.82186 896.5778 473.32812 896.48633 z "
       transform="translate(0,28.36218)"
       id="text1052" />
    <g
       id="g1028"
       transform="matrix(11.870333,0,0,11.870333,252.48133,264.57071)" />
    <g
       id="g1030"
       transform="matrix(11.870333,0,0,11.870333,252.48133,264.57071)" />
    <g
       id="g1032"
       transform="matrix(11.870333,0,0,11.870333,252.48133,264.57071)" />
    <g
       id="g1034"
       transform="matrix(11.870333,0,0,11.870333,252.48133,264.57071)" />
    <g
       id="g1036"
       transform="matrix(11.870333,0,0,11.870333,252.48133,264.57071)" />
    <g
       id="g1038"
       transform="matrix(11.870333,0,0,11.870333,252.48133,264.57071)" />
    <g
       id="g1040"
       transform="matrix(11.870333,0,0,11.870333,252.48133,264.57071)" />
    <g
       id="g1042"
       transform="matrix(11.870333,0,0,11.870333,252.48133,264.57071)" />
    <g
       id="g1044"
       transform="matrix(11.870333,0,0,11.870333,252.48133,264.57071)" />
    <g
       id="g1046"
       transform="matrix(11.870333,0,0,11.870333,252.48133,264.57071)" />
    <g
       id="g1048"
       transform="matrix(11.870333,0,0,11.870333,252.48133,264.57071)" />
    <g
       id="g1050"
       transform="matrix(11.870333,0,0,11.870333,252.48133,264.57071)" />
    <g
       id="g1052"
       transform="matrix(11.870333,0,0,11.870333,252.48133,264.57071)" />
    <g
       id="g1054"
       transform="matrix(11.870333,0,0,11.870333,252.48133,264.57071)" />
    <g
       id="g1056"
       transform="matrix(11.870333,0,0,11.870333,252.48133,264.57071)" />
    <circle
       r="487.5127"
       cy="540.36218"
       cx="512"
       id="circle1191"
       style="color:#000000;display:inline;overflow:visible;visibility:visible;fill:none;fill-opacity:1;fill-rule:nonzero;stroke:url(#linearGradient1199);stroke-width:4.9749999;stroke-miterlimit:4;stroke-dasharray:none;marker:none;enable-background:accumulate" />
    <path
       style="opacity:1;fill:url(#linearGradient1048);fill-opacity:1;fill-rule:evenodd;stroke:none;stroke-width:50;stroke-linecap:round;stroke-linejoin:round;stroke-miterlimit:4;stroke-dasharray:none;stroke-opacity:0.9626168;paint-order:stroke markers fill"
       d="M 471.20312 311.55664 C 466.31041 311.65165 461.11742 312.38526 455.43164 314.00977 C 425.1075 322.6738 420.0655 345.47296 395.36523 365.08203 C 370.66497 384.69111 347.316 384.43119 332 412 C 316.684 439.5688 329.24064 459.25646 325.64062 490.58789 C 322.04061 521.91933 305.34573 538.24422 314.00977 568.56836 C 322.6738 598.8925 345.47296 603.9345 365.08203 628.63477 C 384.69111 653.33503 384.43119 676.684 412 692 C 439.5688 707.316 459.25646 694.75936 490.58789 698.35938 C 521.91933 701.95939 538.24422 718.65427 568.56836 709.99023 C 598.8925 701.3262 603.9345 678.52704 628.63477 658.91797 C 653.33503 639.30889 676.684 639.56881 692 612 C 707.316 584.4312 694.75936 564.74354 698.35938 533.41211 C 701.95939 502.08067 718.65427 485.75578 709.99023 455.43164 C 701.3262 425.1075 678.52704 420.0655 658.91797 395.36523 C 639.30889 370.66497 639.56881 347.316 612 332 C 584.4312 316.684 564.74354 329.24064 533.41211 325.64062 C 507.95532 322.71561 492.40489 311.14495 471.20312 311.55664 z M 517.69727 404.87891 C 521.14343 404.84857 524.55646 404.9764 527.93555 405.26172 C 541.53576 406.38054 553.87035 409.81467 564.9375 415.56641 C 576.06603 421.21183 585.6734 429.06387 593.75977 439.11914 C 601.84613 449.17442 607.74218 461.11825 611.44922 474.95312 C 614.14525 485.01485 615.51441 494.48798 615.55859 503.37305 C 615.58031 512.17426 614.32492 520.06103 611.78906 527.03125 C 609.31459 533.89516 605.57907 539.7471 600.58594 544.58984 C 595.65419 549.32628 589.49969 552.68307 582.12109 554.66016 C 578.51564 555.62623 574.94396 556.04598 571.4043 555.91602 C 567.94848 555.76359 564.71478 555.10033 561.70508 553.92969 C 558.67291 552.6752 555.98182 551.01531 553.63086 548.94922 C 551.25743 546.79928 549.47624 544.17642 548.28711 541.08008 L 547.28125 541.34961 C 546.30561 548.44098 543.48083 554.50045 538.80664 559.52734 C 534.19383 564.44792 528.15581 567.90865 520.69336 569.9082 C 514.15324 571.66062 507.86253 571.99747 501.82227 570.91992 C 495.75954 569.75853 490.16983 567.34754 485.05469 563.68555 C 479.93954 560.02355 475.45799 555.20306 471.60938 549.22461 C 467.73829 543.16231 464.73592 536.14717 462.60156 528.18164 C 460.55707 520.5515 459.72848 513.27004 460.11719 506.33594 C 460.58974 499.37937 462.14919 493.11985 464.79297 487.55859 C 467.41428 481.91349 471.07143 477.11542 475.76367 473.16211 C 480.43345 469.12495 485.9949 466.24167 492.45117 464.51172 C 495.80508 463.61304 499.14562 463.16663 502.47266 463.17383 C 505.88354 463.15856 509.14391 463.58873 512.25391 464.46289 C 515.34144 465.25321 518.18476 466.46854 520.78125 468.10938 C 523.46158 469.72774 525.74782 471.72125 527.64062 474.08984 L 528.64648 473.82031 L 524.53516 458.47461 L 543.52734 453.38672 L 563.30859 527.21484 C 564.40947 531.32338 566.44003 534.37452 569.40039 536.36719 C 572.4446 538.33739 576.39855 538.67027 581.26172 537.36719 C 585.03487 536.35618 588.17026 534.3022 590.66602 531.20703 C 593.24562 528.0894 595.13597 524.07914 596.33789 519.17383 C 597.51735 514.18467 597.89215 508.37754 597.46484 501.75195 C 597.09892 495.02006 595.82773 487.58635 593.64844 479.45312 C 590.59294 468.04983 585.71064 458.21486 579.00195 449.94727 C 572.37712 441.6572 564.43363 435.15748 555.17383 430.44922 C 545.91403 425.74096 535.59269 422.9366 524.20703 422.0332 C 512.82137 421.1298 500.88198 422.35165 488.38867 425.69922 C 476.1469 428.97939 465.46432 434.22233 456.3418 441.42969 C 447.21927 448.63705 439.951 457.2351 434.53906 467.22266 C 429.18851 477.1039 425.84674 488.10842 424.51367 500.23828 C 423.26445 512.34568 424.40433 524.98239 427.93164 538.14648 C 431.75102 552.4006 437.35509 564.42349 444.74219 574.2168 C 452.21313 583.98763 460.88829 591.54788 470.76953 596.89844 C 480.73462 602.22653 491.59925 605.38205 503.36523 606.36328 C 515.21507 607.32204 527.47181 606.1054 540.13281 602.71289 C 544.3252 601.58954 548.43055 600.30932 552.44922 598.87305 C 556.5742 597.49816 560.41425 596.06585 563.96875 594.57422 C 567.6071 593.06012 570.83407 591.52047 573.65039 589.95703 C 576.55055 588.37113 578.88323 586.84825 580.64844 585.38672 L 584.89453 601.23242 C 579.87732 604.64374 573.86792 607.87333 566.86523 610.91797 C 559.86255 613.96261 552.29339 616.57461 544.16016 618.75391 C 528.81602 622.86535 514.02895 624.35581 499.79688 623.22656 C 485.64864 622.07484 472.64535 618.32371 460.78906 611.97461 C 449.01662 605.60305 438.74916 596.62786 429.98438 585.04688 C 421.19713 573.38205 414.53441 559.07982 409.99609 542.14258 C 405.79478 526.46305 404.47983 511.49299 406.05078 497.23242 C 407.70559 482.94939 411.87785 470.01408 418.56836 458.42578 C 425.32025 446.73117 434.39418 436.66068 445.79102 428.21484 C 457.18785 419.76901 470.51706 413.50304 485.77734 409.41406 C 496.71947 406.48213 507.35878 404.96991 517.69727 404.87891 z M 508.03711 479.99023 C 505.51647 479.96355 502.91874 480.30926 500.24609 481.02539 C 491.77747 483.29455 486.02706 488.16017 482.99414 495.62305 C 479.93875 503.00208 479.89374 512.22507 482.85938 523.29297 C 485.80254 534.27702 490.46521 542.28402 496.8457 547.31445 C 503.20373 552.26104 510.53306 553.62266 518.83398 551.39844 C 523.11022 550.25262 526.79589 548.41172 529.89062 545.875 C 532.96289 543.25443 535.31082 540.10951 536.93359 536.43945 C 538.5339 532.68555 539.42047 528.44807 539.59375 523.72852 C 539.76703 519.00896 539.13515 513.96586 537.69727 508.59961 C 536.25938 503.23335 534.29597 498.59254 531.80859 494.67578 C 529.3826 490.6527 526.50783 487.46756 523.18359 485.12305 C 519.92073 482.67222 516.35682 481.11142 512.49219 480.43945 C 511.03453 480.15602 509.54949 480.00625 508.03711 479.99023 z "
       transform="translate(0,28.36218)"
       id="path1040" />
  </g>
</svg>
