<?xml version="1.0" encoding="UTF-8" standalone="no"?>
<!-- Created with Inkscape (http://www.inkscape.org/) -->

<svg
   xmlns:dc="http://purl.org/dc/elements/1.1/"
   xmlns:cc="http://creativecommons.org/ns#"
   xmlns:rdf="http://www.w3.org/1999/02/22-rdf-syntax-ns#"
   xmlns:svg="http://www.w3.org/2000/svg"
   xmlns="http://www.w3.org/2000/svg"
   xmlns:xlink="http://www.w3.org/1999/xlink"
   xmlns:sodipodi="http://sodipodi.sourceforge.net/DTD/sodipodi-0.dtd"
   xmlns:inkscape="http://www.inkscape.org/namespaces/inkscape"
   width="1024"
   height="1024"
   viewBox="0 0 270.93333 270.93334"
   version="1.1"
   id="svg8"
   inkscape:version="0.92.4 (5da689c313, 2019-01-14)"
   sodipodi:docname="utilities-system-monitor.svg">
  <defs
     id="defs2">
    <linearGradient
       inkscape:collect="always"
       id="linearGradient869">
      <stop
         style="stop-color:#ffffff;stop-opacity:0"
         offset="0"
         id="stop865" />
      <stop
         style="stop-color:#26a2d2;stop-opacity:0.63529414"
         offset="1"
         id="stop867" />
    </linearGradient>
    <linearGradient
       inkscape:collect="always"
       id="linearGradient1145">
      <stop
         style="stop-color:#23292f;stop-opacity:1"
         offset="0"
         id="stop1141" />
      <stop
         style="stop-color:#012413;stop-opacity:1"
         offset="1"
         id="stop1143" />
    </linearGradient>
    <linearGradient
       id="linearGradient1137"
       inkscape:collect="always">
      <stop
         id="stop1133"
         offset="0"
         style="stop-color:#d0e1e7;stop-opacity:0.98617512" />
      <stop
         id="stop1135"
         offset="1"
         style="stop-color:#6b6666;stop-opacity:1" />
    </linearGradient>
    <linearGradient
       inkscape:collect="always"
       id="linearGradient892">
      <stop
         style="stop-color:#1e1e1e;stop-opacity:1"
         offset="0"
         id="stop888" />
      <stop
         style="stop-color:#000101;stop-opacity:1"
         offset="1"
         id="stop890" />
    </linearGradient>
    <mask
       maskUnits="userSpaceOnUse"
       id="mask1423">
      <g
         id="g1427"
         transform="matrix(0.39801054,0,0,0.39801054,-65.23909,-35.182402)">
        <path
           style="fill:#f3f5f6"
           inkscape:connector-curvature="0"
           id="path1425"
           d="M 777.6,216.5 H 511 l -14.4,33 -13.6,40 -12,46.7 -8.7,43.3 -7.3,44.7 -4.7,46 -1.3,24 c 0,7.6 6,13.7 13.3,13.7 h 66 c 7.2,0 13,5.8 13,13 v 18.7 43.3 31 l 1.7,33 3.3,39 4.3,40 4,25.3 5.3,31.3 2.9,16 h 214.7 c 15.9,0 29,-13.1 29,-29 v -524 c 0.1,-16 -12.9,-29 -28.9,-29 z" />
      </g>
    </mask>
    <linearGradient
       gradientTransform="matrix(0.26458333,0,0,0.26458333,-186.10792,29.929567)"
       y2="798.46222"
       x2="375.13599"
       y1="216.4622"
       x1="375.13599"
       gradientUnits="userSpaceOnUse"
       id="SVGID_1_">
      <stop
         id="stop60"
         style="stop-color:#1FD4FF"
         offset="0" />
      <stop
         id="stop62"
         style="stop-color:#1F74F4"
         offset="1" />
    </linearGradient>
    <linearGradient
       inkscape:collect="always"
       xlink:href="#linearGradient1137"
       id="linearGradient894"
       x1="132.29167"
       y1="42.999985"
       x2="132.29167"
       y2="275.83331"
       gradientUnits="userSpaceOnUse"
       gradientTransform="translate(-5.0862633e-7,2.5988932e-5)" />
    <filter
       inkscape:collect="always"
       style="color-interpolation-filters:sRGB"
       id="filter942"
       x="-0.011553325"
       width="1.0231066"
       y="-0.012482603"
       height="1.0249652">
      <feGaussianBlur
         inkscape:collect="always"
         stdDeviation="1.1196871"
         id="feGaussianBlur944" />
    </filter>
    <linearGradient
       id="linearGradient868">
      <stop
         id="stop864"
         offset="0"
         style="stop-color:#cecece;stop-opacity:1" />
      <stop
         id="stop866"
         offset="1"
         style="stop-color:#b3b3b3;stop-opacity:1" />
    </linearGradient>
    <linearGradient
       inkscape:collect="always"
       xlink:href="#linearGradient892"
       id="linearGradient1131"
       gradientUnits="userSpaceOnUse"
       x1="132.29167"
       y1="42.999985"
       x2="132.29167"
       y2="275.83331"
       gradientTransform="matrix(0.97427824,0,0,0.97427824,3.4844419,4.1549261)" />
    <linearGradient
       inkscape:collect="always"
       xlink:href="#linearGradient1145"
       id="linearGradient1147"
       x1="127"
       y1="69.458313"
       x2="127"
       y2="254.66666"
       gradientUnits="userSpaceOnUse" />
    <linearGradient
       inkscape:collect="always"
       xlink:href="#linearGradient869"
       id="linearGradient871"
       x1="47.625"
       y1="69.458313"
       x2="47.625"
       y2="254.66666"
       gradientUnits="userSpaceOnUse" />
    <filter
       inkscape:collect="always"
       style="color-interpolation-filters:sRGB"
       id="filter956"
       x="-0.02844873"
       width="1.0568975"
       y="-0.049008554"
       height="1.0980171">
      <feGaussianBlur
         inkscape:collect="always"
         stdDeviation="2.32299"
         id="feGaussianBlur958" />
    </filter>
  </defs>
  <sodipodi:namedview
     id="base"
     pagecolor="#ffffff"
     bordercolor="#666666"
     borderopacity="1.0"
     inkscape:pageopacity="0.0"
     inkscape:pageshadow="2"
     inkscape:zoom="0.76629168"
     inkscape:cx="512.00001"
     inkscape:cy="511.99999"
     inkscape:document-units="mm"
     inkscape:current-layer="g844"
     showgrid="true"
     showguides="true"
     inkscape:pagecheckerboard="true"
     units="px"
     inkscape:window-width="1920"
     inkscape:window-height="955"
     inkscape:window-x="0"
     inkscape:window-y="25"
     inkscape:window-maximized="1">
    <inkscape:grid
       type="xygrid"
       id="grid815" />
  </sodipodi:namedview>
  <metadata
     id="metadata5">
    <rdf:RDF>
      <cc:Work
         rdf:about="">
        <dc:format>image/svg+xml</dc:format>
        <dc:type
           rdf:resource="http://purl.org/dc/dcmitype/StillImage" />
        <dc:title />
      </cc:Work>
    </rdf:RDF>
  </metadata>
  <g
     inkscape:label="Layer 1"
     inkscape:groupmode="layer"
     id="layer1"
     transform="translate(0,-26.06665)">
    <g
       id="g844">
      <rect
         rx="11.4"
         y="51.334358"
         x="16.404167"
         height="220.39792"
         width="238.125"
         id="rect1383"
         style="opacity:1;fill:url(#linearGradient894);fill-opacity:1;fill-rule:evenodd;stroke:none;stroke-width:20.83175087;stroke-linejoin:round;stroke-miterlimit:4;stroke-dasharray:none;stroke-opacity:0;paint-order:stroke markers fill" />
      <rect
         style="opacity:0.2;fill:none;fill-opacity:1;fill-rule:evenodd;stroke:#ffffff;stroke-width:6.40469646;stroke-linecap:round;stroke-linejoin:round;stroke-miterlimit:4;stroke-dasharray:none;stroke-opacity:1;paint-order:markers fill stroke;filter:url(#filter942)"
         id="rect932"
         width="232.59531"
         height="215.27954"
         x="19.169022"
         y="53.893551"
         rx="11.135269" />
      <rect
         style="opacity:1;fill:url(#linearGradient1131);fill-opacity:1;fill-rule:evenodd;stroke:none;stroke-width:20.29592133;stroke-linejoin:round;stroke-miterlimit:4;stroke-dasharray:none;stroke-opacity:0;paint-order:stroke markers fill"
         id="rect1129"
         width="232"
         height="214.72888"
         x="19.466667"
         y="54.168877"
         rx="11.106771" />
      <rect
         style="opacity:1;fill:url(#linearGradient1147);fill-opacity:1;fill-rule:evenodd;stroke:url(#linearGradient871);stroke-width:0.25;stroke-linecap:round;stroke-linejoin:round;stroke-miterlimit:4;stroke-dasharray:none;stroke-opacity:1;paint-order:markers fill stroke"
         id="rect1139"
         width="206.375"
         height="185.20834"
         x="31.75"
         y="69.458313" />
      <text
         xml:space="preserve"
         style="font-style:normal;font-weight:normal;font-size:10.58333302px;line-height:1.25;font-family:sans-serif;letter-spacing:0px;word-spacing:0px;fill:#000000;fill-opacity:1;stroke:none;stroke-width:0.26458332"
         x="52.916664"
         y="95.916649"
         id="text1170"><tspan
           sodipodi:role="line"
           id="tspan1168"
           x="52.916664"
           y="105.28042"
           style="stroke-width:0.26458332" /></text>
      <g
         id="Capa_1_86_"
         transform="matrix(4.0959123,0,0,4.0959123,76.498409,90.70205)" />
      <g
         id="g1182"
         transform="matrix(4.0959123,0,0,4.0959123,76.498409,90.70205)" />
      <g
         id="g1184"
         transform="matrix(4.0959123,0,0,4.0959123,76.498409,90.70205)" />
      <g
         id="g1186"
         transform="matrix(4.0959123,0,0,4.0959123,76.498409,90.70205)" />
      <g
         id="g1188"
         transform="matrix(4.0959123,0,0,4.0959123,76.498409,90.70205)" />
      <g
         id="g1190"
         transform="matrix(4.0959123,0,0,4.0959123,76.498409,90.70205)" />
      <g
         id="g1192"
         transform="matrix(4.0959123,0,0,4.0959123,76.498409,90.70205)" />
      <g
         id="g1194"
         transform="matrix(4.0959123,0,0,4.0959123,76.498409,90.70205)" />
      <g
         id="g1196"
         transform="matrix(4.0959123,0,0,4.0959123,76.498409,90.70205)" />
      <g
         id="g1198"
         transform="matrix(4.0959123,0,0,4.0959123,76.498409,90.70205)" />
      <g
         id="g1200"
         transform="matrix(4.0959123,0,0,4.0959123,76.498409,90.70205)" />
      <g
         id="g1202"
         transform="matrix(4.0959123,0,0,4.0959123,76.498409,90.70205)" />
      <g
         id="g1204"
         transform="matrix(4.0959123,0,0,4.0959123,76.498409,90.70205)" />
      <g
         id="g1206"
         transform="matrix(4.0959123,0,0,4.0959123,76.498409,90.70205)" />
      <g
         id="g1208"
         transform="matrix(4.0959123,0,0,4.0959123,76.498409,90.70205)" />
      <g
         id="g1210"
         transform="matrix(4.0959123,0,0,4.0959123,76.498409,90.70205)" />
      <path
         id="path841"
         class="shp46"
         d="m 79.316786,192.71949 c 0.230569,0.003 0.581921,-0.0225 1.008255,-0.0963 0.691398,-0.12728 1.382644,-0.36284 2.03359,-0.72601 0.985139,-0.55305 1.780113,-1.35957 2.315815,-2.46015 0.259278,-0.5355 1.457622,-2.89225 1.745757,-3.46746 0.356931,-0.73196 2.644155,-8.38235 2.258371,-8.05968 -0.409378,0.006 -0.645672,0.0269 -0.604938,0.21836 0.08045,0.3521 0.167154,0.70878 0.270482,1.08344 0.07971,0.27667 -2.050795,5.57127 -1.756939,6.25093 0.172148,0.40303 0.627786,-2.25869 2.315658,-2.25869 1.572865,0 1.647756,1.14083 3.168695,2.77676 0.558706,0.59344 2.044867,2.19526 2.286897,2.44886 0.541774,0.5815 0.817976,0.86382 1.031195,1.05404 0.236174,0.20753 0.409055,0.31095 0.662644,0.40924 0.432084,0.17306 0.564796,0.23584 0.731633,0.31673 0.927378,0.47206 2.154449,0.864 3.974899,1.30764 0.84105,0.20227 1.2387,0.28767 3.42761,0.77193 3.0708,0.67397 3.80227,1.01389 6.04322,2.74778 0.70893,0.55307 1.62473,1.52078 2.14308,3.01299 0.0855,0.2363 0.76025,3.90605 1.11779,4.19975 1.26728,0.16675 1.55534,-1.33141 2.12,-5.80129 0.39153,-3.11674 0.66811,-6.42881 0.66811,-8.08821 0,-1.41148 0.94504,-14.54041 2.81126,-39.55977 0.0278,-0.3804 0.0278,-0.3804 0.0571,-0.76049 0.1336,-1.79728 0.55873,-6.44041 1.30197,-11.05519 0.68548,-4.28037 3.40468,-4.63175 4.10182,1.63583 0.69691,6.26806 0.96768,1.55572 0.25929,-3.45635 -1.36553,-9.67803 -2.70784,-28.13025 -2.56935,-28.8619 0.0575,-0.33983 0.13904,-0.57609 0.1327,-0.57609 -0.58186,0.006 -0.54743,0.0744 -0.49536,0.19717 0.41457,1.03126 2.93227,35.88456 2.93227,36.48932 0,1.61306 5.05783,67.36194 5.57655,73.44555 0.0865,1.03095 0.36859,1.97626 0.75458,2.33297 0.48389,0.44953 1.05422,0.16738 1.25003,-0.41486 0.11607,-0.33426 0.16763,-0.85812 0.16763,-1.59531 0,-1.1467 0.1391,-3.87761 0.41493,-8.53224 0.009,-0.23612 0.0266,-0.48381 0.0459,-0.74325 0.0284,-0.42625 0.0508,-0.86393 0.0863,-1.42915 0.0402,-0.70185 0.0624,-1.07677 0.0796,-1.38185 0.0697,-1.08304 0.1092,-1.82032 0.14985,-2.48302 0.0975,-1.68233 0.14429,-2.63281 0.14429,-2.97848 0,-1.51499 0.79486,-3.38749 2.27521,-4.91981 0.68563,-0.70293 1.66514,-1.02532 3.00746,-1.08871 0.54729,-0.0205 1.04256,-0.006 1.9355,0.0455 0.78334,0.0446 0.98507,0.0509 1.30795,0.0509 0.67378,0 1.94145,0.23617 4.34344,0.76618 3.41612,0.76039 4.1651,0.91007 4.81041,0.91007 0.5933,0.0339 1.0883,0.0794 1.18666,0.0858 1.60151,0.13302 2.79992,0.1395 4.05549,-0.0795 1.98223,-0.34579 3.56053,-1.22679 4.60866,-2.78249 0.97366,-1.44608 1.84367,-3.42188 2.84618,-6.25037 0.33386,-0.92725 1.35403,-3.95792 1.4918,-4.36688 0.52443,-1.49219 0.90462,-2.43145 1.2445,-3.00697 1.13488,-1.93001 1.5841,-2.65 2.44286,-3.79137 2.15996,-2.88551 4.41218,-4.54464 6.77485,-4.54464 3.85367,0 7.3447,4.01464 9.71862,10.00661 0.24141,0.61027 1.04798,2.68441 1.20364,3.0761 1.80331,4.5685 3.23174,7.02229 5.86435,9.41312 3.94675,3.57761 8.77395,3.53151 11.52195,-0.0791 0.35711,-0.47197 0.73148,-1.00767 1.15783,-1.6473 0.28797,-0.44354 0.54152,-0.83499 1.0309,-1.6015 2.51205,-3.9575 3.63549,-5.31146 4.70127,-5.31146 1.43478,0 2.11423,0.37462 3.08797,1.46901 0.0263,0.0269 0.4606,0.53 0.6046,0.67981 -0.0346,-0.0402 1.5675,1.81444 2.24113,2.52916 1.20434,1.26732 2.49434,2.43079 4.03288,3.56597 2.78211,2.06816 7.09714,3.70432 9.3209,4.19931 2.22397,0.48986 2.81734,-0.2418 3.11669,-1.73964 0.29948,-1.49776 -1.16381,-2.07396 -2.54064,-2.07396 -3.59496,0 -6.68275,0.57021 -9.21164,-1.30764 -1.48068,-1.10007 -2.72486,-2.21797 -3.88294,-3.43925 -0.65101,-0.68588 -2.24681,-2.52881 -2.22375,-2.51142 -0.13268,-0.14382 -0.5645,-0.63424 -0.59906,-0.67431 -1.17502,-1.31359 -2.14295,-1.84904 -3.94612,-1.84904 -1.69947,0 -2.82291,1.35378 -5.67456,5.84115 -0.48396,0.76643 -0.73738,1.15231 -1.02003,1.58433 -0.41398,0.62797 -0.77143,1.14088 -1.11737,1.59 -2.30999,3.036 -6.34784,3.07644 -9.82763,-0.0799 -2.47168,-2.24086 -3.81971,-4.55692 -5.56517,-8.98097 -0.15063,-0.38047 -0.9564,-2.45997 -1.20415,-3.07638 -2.53416,-6.38886 -6.3137,-10.73266 -10.78967,-10.73266 -2.81726,0 -5.34072,1.86065 -7.69704,5.00626 -0.89291,1.18682 -1.35953,1.92988 -2.51733,3.90006 -0.38562,0.66272 -0.78904,1.64754 -1.33652,3.20914 -0.14377,0.41443 -1.16353,3.44462 -1.4863,4.36068 -0.97345,2.7423 -1.81462,4.64926 -2.71912,5.99119 -0.85312,1.27306 -2.15458,1.99324 -3.84811,2.29279 -1.13508,0.19767 -2.25245,0.19767 -3.76814,0.0694 -0.091,-0.005 -0.58738,-0.0511 -0.70807,-0.0633 -1.0831,-0.026 -1.90693,-0.1975 -4.87379,-0.85269 -2.77122,-0.61647 -4.04996,-0.85268 -4.85043,-0.85268 -0.28853,0 -0.48418,-0.003 -1.23854,-0.0503 -0.92763,-0.057 -1.45762,-0.0735 -2.05664,-0.0452 -1.61344,0.0729 -2.8577,0.48966 -3.77939,1.44025 -1.68778,1.73979 -2.60397,3.73296 -2.60397,5.55356 0,0.54717 0.0509,-0.15562 -0.46085,8.37039 -0.006,0.25924 -0.0273,0.50696 -0.04,0.74298 -0.2824,4.68954 -0.42053,7.42004 -0.42053,8.60118 0,0.61649 -0.04,1.03709 -0.10345,1.22724 0.0337,-0.11045 0.38021,-0.28241 0.62232,-0.063 -0.0507,-0.0449 -0.19762,-7.18413 0.4032,-14.0107 0.27666,-3.12813 1.80906,-8.54343 1.80906,-9.20568 -2.83458,5.12111 -4.49909,0.24756 -4.51657,0 -0.51253,-6.01446 -3.48536,-50.15989 -3.65817,-51.71555 -0.7889,-7.24744 -2.42524,-35.45835 -3.01857,-36.92155 -0.29379,-0.72016 -0.80102,-1.14064 -1.37149,-0.58769 -0.23574,0.23059 -0.36261,0.60494 -0.46658,1.19255 -0.14989,0.80645 -0.24171,2.0508 -0.24171,2.9668 0,0.31684 -0.29946,4.4649 -0.89293,12.50116 -0.34567,4.62592 -1.83777,24.59308 -1.97031,26.39063 -0.0271,0.38023 -0.0271,0.38023 -0.0572,0.76049 -1.88387,25.19781 -2.81705,38.18302 -2.81705,39.64623 0,1.60129 -0.51278,3.36423 -0.89882,6.43467 -0.17332,1.3597 -0.1272,2.74815 -0.29369,3.66981 -0.009,0.10134 -0.0269,1.5439 -0.0458,1.64185 -0.0911,0.48968 -0.18483,0.8756 -0.25928,1.12334 0.42647,0.0337 0.53,0.079 0.59929,0.13954 -0.0345,-0.0268 0.77768,-5.13869 0.50692,-5.91057 -0.28807,-0.82367 1.16359,-3.80235 -0.21895,-1.54978 -1.3827,2.25821 -3.10499,0.58745 -3.57746,0.21904 -2.37928,-1.84362 -3.26649,-2.25259 -6.504,-2.9613 -2.17764,-0.48381 -2.5752,-0.57031 -3.39909,-0.77164 -1.745387,-0.42078 -2.903415,-0.78942 -3.732845,-1.20984 -0.191754,-0.0976 -0.351425,-0.17324 -0.513035,-0.23641 -0.443328,-0.17904 -0.500923,-0.21313 -0.638937,-0.32844 -0.174358,-0.15552 -0.432255,-0.42055 -0.951089,-0.97345 -0.241665,-0.2536 -1.728015,-1.855 -2.281015,-2.45434 -1.722508,-1.84326 -2.817085,-4.02065 -3.46229,-6.29066 -0.09156,-0.31679 -0.190984,-0.72012 -0.253489,-1.01395 -0.02163,-0.0974 -0.150672,-0.88155 -0.674104,-0.88155 -0.524084,0 -0.454835,3.03621 -2.206325,6.4868 -0.311007,0.6052 -0.582016,1.25011 -0.939009,1.97032 -0.276658,0.56469 -1.474814,2.92633 -1.739854,3.46815 -0.432004,0.88116 -1.06002,1.52073 -1.84922,1.96427 -0.529987,0.29375 -1.10025,0.48973 -1.676357,0.59325 -0.674119,0.0792 -0.748955,0.0792 -0.789289,0.0792 -0.0034,0 -42.16377,0.57616 -41.84692,0.57616 z"
         inkscape:connector-curvature="0"
         style="fill:#00ff67;stroke-width:0.57608533;fill-opacity:1" />
      <path
         style="fill:#00ff67;stroke-width:0.57608533;fill-opacity:1;filter:url(#filter956)"
         inkscape:connector-curvature="0"
         d="m 79.316786,192.71949 c 0.230569,0.003 0.581921,-0.0225 1.008255,-0.0963 0.691398,-0.12728 1.382644,-0.36284 2.03359,-0.72601 0.985139,-0.55305 1.780113,-1.35957 2.315815,-2.46015 0.259278,-0.5355 1.457622,-2.89225 1.745757,-3.46746 0.356931,-0.73196 2.644155,-8.38235 2.258371,-8.05968 -0.409378,0.006 -0.645672,0.0269 -0.604938,0.21836 0.08045,0.3521 0.167154,0.70878 0.270482,1.08344 0.07971,0.27667 -2.050795,5.57127 -1.756939,6.25093 0.172148,0.40303 0.627786,-2.25869 2.315658,-2.25869 1.572865,0 1.647756,1.14083 3.168695,2.77676 0.558706,0.59344 2.044867,2.19526 2.286897,2.44886 0.541774,0.5815 0.817976,0.86382 1.031195,1.05404 0.236174,0.20753 0.409055,0.31095 0.662644,0.40924 0.432084,0.17306 0.564796,0.23584 0.731633,0.31673 0.927378,0.47206 2.154449,0.864 3.974899,1.30764 0.84105,0.20227 1.2387,0.28767 3.42761,0.77193 3.0708,0.67397 3.80227,1.01389 6.04322,2.74778 0.70893,0.55307 1.62473,1.52078 2.14308,3.01299 0.0855,0.2363 0.76025,3.90605 1.11779,4.19975 1.26728,0.16675 1.55534,-1.33141 2.12,-5.80129 0.39153,-3.11674 0.66811,-6.42881 0.66811,-8.08821 0,-1.41148 0.94504,-14.54041 2.81126,-39.55977 0.0278,-0.3804 0.0278,-0.3804 0.0571,-0.76049 0.1336,-1.79728 0.55873,-6.44041 1.30197,-11.05519 0.68548,-4.28037 3.40468,-4.63175 4.10182,1.63583 0.69691,6.26806 0.96768,1.55572 0.25929,-3.45635 -1.36553,-9.67803 -2.70784,-28.13025 -2.56935,-28.8619 0.0575,-0.33983 0.13904,-0.57609 0.1327,-0.57609 -0.58186,0.006 -0.54743,0.0744 -0.49536,0.19717 0.41457,1.03126 2.93227,35.88456 2.93227,36.48932 0,1.61306 5.05783,67.36194 5.57655,73.44555 0.0865,1.03095 0.36859,1.97626 0.75458,2.33297 0.48389,0.44953 1.05422,0.16738 1.25003,-0.41486 0.11607,-0.33426 0.16763,-0.85812 0.16763,-1.59531 0,-1.1467 0.1391,-3.87761 0.41493,-8.53224 0.009,-0.23612 0.0266,-0.48381 0.0459,-0.74325 0.0284,-0.42625 0.0508,-0.86393 0.0863,-1.42915 0.0402,-0.70185 0.0624,-1.07677 0.0796,-1.38185 0.0697,-1.08304 0.1092,-1.82032 0.14985,-2.48302 0.0975,-1.68233 0.14429,-2.63281 0.14429,-2.97848 0,-1.51499 0.79486,-3.38749 2.27521,-4.91981 0.68563,-0.70293 1.66514,-1.02532 3.00746,-1.08871 0.54729,-0.0205 1.04256,-0.006 1.9355,0.0455 0.78334,0.0446 0.98507,0.0509 1.30795,0.0509 0.67378,0 1.94145,0.23617 4.34344,0.76618 3.41612,0.76039 4.1651,0.91007 4.81041,0.91007 0.5933,0.0339 1.0883,0.0794 1.18666,0.0858 1.60151,0.13302 2.79992,0.1395 4.05549,-0.0795 1.98223,-0.34579 3.56053,-1.22679 4.60866,-2.78249 0.97366,-1.44608 1.84367,-3.42188 2.84618,-6.25037 0.33386,-0.92725 1.35403,-3.95792 1.4918,-4.36688 0.52443,-1.49219 0.90462,-2.43145 1.2445,-3.00697 1.13488,-1.93001 1.5841,-2.65 2.44286,-3.79137 2.15996,-2.88551 4.41218,-4.54464 6.77485,-4.54464 3.85367,0 7.3447,4.01464 9.71862,10.00661 0.24141,0.61027 1.04798,2.68441 1.20364,3.0761 1.80331,4.5685 3.23174,7.02229 5.86435,9.41312 3.94675,3.57761 8.77395,3.53151 11.52195,-0.0791 0.35711,-0.47197 0.73148,-1.00767 1.15783,-1.6473 0.28797,-0.44354 0.54152,-0.83499 1.0309,-1.6015 2.51205,-3.9575 3.63549,-5.31146 4.70127,-5.31146 1.43478,0 2.11423,0.37462 3.08797,1.46901 0.0263,0.0269 0.4606,0.53 0.6046,0.67981 -0.0346,-0.0402 1.5675,1.81444 2.24113,2.52916 1.20434,1.26732 2.49434,2.43079 4.03288,3.56597 2.78211,2.06816 7.09714,3.70432 9.3209,4.19931 2.22397,0.48986 2.81734,-0.2418 3.11669,-1.73964 0.29948,-1.49776 -1.16381,-2.07396 -2.54064,-2.07396 -3.59496,0 -6.68275,0.57021 -9.21164,-1.30764 -1.48068,-1.10007 -2.72486,-2.21797 -3.88294,-3.43925 -0.65101,-0.68588 -2.24681,-2.52881 -2.22375,-2.51142 -0.13268,-0.14382 -0.5645,-0.63424 -0.59906,-0.67431 -1.17502,-1.31359 -2.14295,-1.84904 -3.94612,-1.84904 -1.69947,0 -2.82291,1.35378 -5.67456,5.84115 -0.48396,0.76643 -0.73738,1.15231 -1.02003,1.58433 -0.41398,0.62797 -0.77143,1.14088 -1.11737,1.59 -2.30999,3.036 -6.34784,3.07644 -9.82763,-0.0799 -2.47168,-2.24086 -3.81971,-4.55692 -5.56517,-8.98097 -0.15063,-0.38047 -0.9564,-2.45997 -1.20415,-3.07638 -2.53416,-6.38886 -6.3137,-10.73266 -10.78967,-10.73266 -2.81726,0 -5.34072,1.86065 -7.69704,5.00626 -0.89291,1.18682 -1.35953,1.92988 -2.51733,3.90006 -0.38562,0.66272 -0.78904,1.64754 -1.33652,3.20914 -0.14377,0.41443 -1.16353,3.44462 -1.4863,4.36068 -0.97345,2.7423 -1.81462,4.64926 -2.71912,5.99119 -0.85312,1.27306 -2.15458,1.99324 -3.84811,2.29279 -1.13508,0.19767 -2.25245,0.19767 -3.76814,0.0694 -0.091,-0.005 -0.58738,-0.0511 -0.70807,-0.0633 -1.0831,-0.026 -1.90693,-0.1975 -4.87379,-0.85269 -2.77122,-0.61647 -4.04996,-0.85268 -4.85043,-0.85268 -0.28853,0 -0.48418,-0.003 -1.23854,-0.0503 -0.92763,-0.057 -1.45762,-0.0735 -2.05664,-0.0452 -1.61344,0.0729 -2.8577,0.48966 -3.77939,1.44025 -1.68778,1.73979 -2.60397,3.73296 -2.60397,5.55356 0,0.54717 0.0509,-0.15562 -0.46085,8.37039 -0.006,0.25924 -0.0273,0.50696 -0.04,0.74298 -0.2824,4.68954 -0.42053,7.42004 -0.42053,8.60118 0,0.61649 -0.04,1.03709 -0.10345,1.22724 0.0337,-0.11045 0.38021,-0.28241 0.62232,-0.063 -0.0507,-0.0449 -0.19762,-7.18413 0.4032,-14.0107 0.27666,-3.12813 1.80906,-8.54343 1.80906,-9.20568 -2.83458,5.12111 -4.49909,0.24756 -4.51657,0 -0.51253,-6.01446 -3.48536,-50.15989 -3.65817,-51.71555 -0.7889,-7.24744 -2.42524,-35.45835 -3.01857,-36.92155 -0.29379,-0.72016 -0.80102,-1.14064 -1.37149,-0.58769 -0.23574,0.23059 -0.36261,0.60494 -0.46658,1.19255 -0.14989,0.80645 -0.24171,2.0508 -0.24171,2.9668 0,0.31684 -0.29946,4.4649 -0.89293,12.50116 -0.34567,4.62592 -1.83777,24.59308 -1.97031,26.39063 -0.0271,0.38023 -0.0271,0.38023 -0.0572,0.76049 -1.88387,25.19781 -2.81705,38.18302 -2.81705,39.64623 0,1.60129 -0.51278,3.36423 -0.89882,6.43467 -0.17332,1.3597 -0.1272,2.74815 -0.29369,3.66981 -0.009,0.10134 -0.0269,1.5439 -0.0458,1.64185 -0.0911,0.48968 -0.18483,0.8756 -0.25928,1.12334 0.42647,0.0337 0.53,0.079 0.59929,0.13954 -0.0345,-0.0268 0.77768,-5.13869 0.50692,-5.91057 -0.28807,-0.82367 1.16359,-3.80235 -0.21895,-1.54978 -1.3827,2.25821 -3.10499,0.58745 -3.57746,0.21904 -2.37928,-1.84362 -3.26649,-2.25259 -6.504,-2.9613 -2.17764,-0.48381 -2.5752,-0.57031 -3.39909,-0.77164 -1.745387,-0.42078 -2.903415,-0.78942 -3.732845,-1.20984 -0.191754,-0.0976 -0.351425,-0.17324 -0.513035,-0.23641 -0.443328,-0.17904 -0.500923,-0.21313 -0.638937,-0.32844 -0.174358,-0.15552 -0.432255,-0.42055 -0.951089,-0.97345 -0.241665,-0.2536 -1.728015,-1.855 -2.281015,-2.45434 -1.722508,-1.84326 -2.817085,-4.02065 -3.46229,-6.29066 -0.09156,-0.31679 -0.190984,-0.72012 -0.253489,-1.01395 -0.02163,-0.0974 -0.150672,-0.88155 -0.674104,-0.88155 -0.524084,0 -0.454835,3.03621 -2.206325,6.4868 -0.311007,0.6052 -0.582016,1.25011 -0.939009,1.97032 -0.276658,0.56469 -1.474814,2.92633 -1.739854,3.46815 -0.432004,0.88116 -1.06002,1.52073 -1.84922,1.96427 -0.529987,0.29375 -1.10025,0.48973 -1.676357,0.59325 -0.674119,0.0792 -0.748955,0.0792 -0.789289,0.0792 -0.0034,0 -42.16377,0.57616 -41.84692,0.57616 z"
         class="shp46"
         id="path942" />
    </g>
  </g>
</svg>
