<?xml version="1.0" encoding="UTF-8" standalone="no"?>
<!-- Created with Inkscape (http://www.inkscape.org/) -->

<svg
   xmlns:dc="http://purl.org/dc/elements/1.1/"
   xmlns:cc="http://creativecommons.org/ns#"
   xmlns:rdf="http://www.w3.org/1999/02/22-rdf-syntax-ns#"
   xmlns:svg="http://www.w3.org/2000/svg"
   xmlns="http://www.w3.org/2000/svg"
   xmlns:xlink="http://www.w3.org/1999/xlink"
   xmlns:sodipodi="http://sodipodi.sourceforge.net/DTD/sodipodi-0.dtd"
   xmlns:inkscape="http://www.inkscape.org/namespaces/inkscape"
   width="1024"
   height="1024"
   id="svg2"
   version="1.1"
   inkscape:version="0.92.4 (5da689c313, 2019-01-14)"
   sodipodi:docname="email.svg">
  <defs
     id="defs4">
    <linearGradient
       inkscape:collect="always"
       id="linearGradient1018">
      <stop
         id="stop1016"
         offset="0"
         style="stop-color:#5193e3;stop-opacity:1" />
      <stop
         id="stop1014"
         offset="1"
         style="stop-color:#5158e3;stop-opacity:1;" />
    </linearGradient>
    <linearGradient
       id="linearGradient1725"
       inkscape:collect="always">
      <stop
         style="stop-color:#007bff;stop-opacity:1"
         offset="0"
         id="stop1723" />
      <stop
         style="stop-color:#00b8ff;stop-opacity:1"
         offset="1"
         id="stop1721" />
    </linearGradient>
    <linearGradient
       id="linearGradient1717"
       inkscape:collect="always">
      <stop
         style="stop-color:#007bff;stop-opacity:1"
         offset="0"
         id="stop1715" />
      <stop
         style="stop-color:#00b8ff;stop-opacity:1"
         offset="1"
         id="stop1713" />
    </linearGradient>
    <linearGradient
       id="linearGradient1024">
      <stop
         id="stop1018"
         offset="0"
         style="stop-color:#d618a1;stop-opacity:1" />
      <stop
         style="stop-color:#f52834;stop-opacity:1;"
         offset="0.46946779"
         id="stop1020" />
      <stop
         id="stop1022"
         offset="1"
         style="stop-color:#e41249;stop-opacity:1;" />
    </linearGradient>
    <linearGradient
       id="linearGradient860">
      <stop
         id="stop854"
         offset="0"
         style="stop-color:#5158e3;stop-opacity:1" />
      <stop
         style="stop-color:#8551fb;stop-opacity:1"
         offset="0.5"
         id="stop856" />
      <stop
         id="stop858"
         offset="1"
         style="stop-color:#642edb;stop-opacity:1" />
    </linearGradient>
    <linearGradient
       id="linearGradient855">
      <stop
         style="stop-color:#ffffff;stop-opacity:1"
         offset="0"
         id="stop851" />
      <stop
         style="stop-color:#d7d7d7;stop-opacity:1"
         offset="1"
         id="stop853" />
    </linearGradient>
    <linearGradient
       id="linearGradient848">
      <stop
         id="stop844"
         offset="0"
         style="stop-color:#ffffff;stop-opacity:1" />
      <stop
         id="stop846"
         offset="1"
         style="stop-color:#d7d7d7;stop-opacity:1" />
    </linearGradient>
    <inkscape:perspective
       sodipodi:type="inkscape:persp3d"
       inkscape:vp_x="13.534465 : 111.04854 : 1"
       inkscape:vp_y="0 : 1000 : 0"
       inkscape:vp_z="213.53447 : 111.04854 : 1"
       inkscape:persp3d-origin="113.53447 : 77.71521 : 1"
       id="perspective3135" />
    <linearGradient
       id="linearGradient4829">
      <stop
         style="stop-color:#f4fbfc;stop-opacity:1;"
         offset="0"
         id="stop4831" />
      <stop
         style="stop-color:#d6d6d6;stop-opacity:1;"
         offset="1"
         id="stop4833" />
    </linearGradient>
    <clipPath
       clipPathUnits="userSpaceOnUse"
       id="clipPath4282">
      <rect
         style="color:#000000;display:inline;overflow:visible;visibility:visible;fill:#4d4d4d;fill-opacity:1;fill-rule:nonzero;stroke:none;stroke-width:9.13434315;marker:none;enable-background:accumulate"
         id="rect4284"
         width="246.875"
         height="234.375"
         x="462.5"
         y="1646.1122"
         ry="17"
         rx="17" />
    </clipPath>
    <linearGradient
       inkscape:collect="always"
       xlink:href="#linearGradient5423"
       id="linearGradient5429"
       x1="408.66196"
       y1="44.604382"
       x2="408.66196"
       y2="562.04968"
       gradientUnits="userSpaceOnUse" />
    <linearGradient
       id="linearGradient5423">
      <stop
         style="stop-color:#ff8876;stop-opacity:1;"
         offset="0"
         id="stop5425" />
      <stop
         id="stop19693"
         offset="0.5"
         style="stop-color:#f52834;stop-opacity:1;" />
      <stop
         style="stop-color:#e41249;stop-opacity:1;"
         offset="1"
         id="stop5427" />
    </linearGradient>
    <linearGradient
       inkscape:collect="always"
       xlink:href="#linearGradient3986"
       id="linearGradient3992"
       x1="78.5625"
       y1="993.6615"
       x2="120.28125"
       y2="993.6615"
       gradientUnits="userSpaceOnUse" />
    <linearGradient
       inkscape:collect="always"
       id="linearGradient3986">
      <stop
         style="stop-color:#000000;stop-opacity:1;"
         offset="0"
         id="stop3988" />
      <stop
         style="stop-color:#000000;stop-opacity:0;"
         offset="1"
         id="stop3990" />
    </linearGradient>
    <linearGradient
       inkscape:collect="always"
       xlink:href="#linearGradient5423-1"
       id="linearGradient5473-2"
       x1="99.036476"
       y1="-0.50471628"
       x2="99.036476"
       y2="199.83986"
       gradientUnits="userSpaceOnUse" />
    <linearGradient
       id="linearGradient5423-1">
      <stop
         style="stop-color:#51b9db;stop-opacity:1;"
         offset="0"
         id="stop5425-2" />
      <stop
         style="stop-color:#2fabd4;stop-opacity:1;"
         offset="1"
         id="stop5427-3" />
    </linearGradient>
    <linearGradient
       y2="199.83986"
       x2="99.036476"
       y1="-0.50471628"
       x1="99.036476"
       gradientUnits="userSpaceOnUse"
       id="linearGradient4119"
       xlink:href="#linearGradient5423-1"
       inkscape:collect="always" />
    <linearGradient
       inkscape:collect="always"
       xlink:href="#linearGradient4829"
       id="linearGradient4159"
       x1="100"
       y1="852.36218"
       x2="100"
       y2="1052.3622"
       gradientUnits="userSpaceOnUse" />
    <filter
       style="color-interpolation-filters:sRGB"
       inkscape:label="Drop Shadow"
       id="filter1053">
      <feFlood
         flood-opacity="0.294118"
         flood-color="rgb(0,0,0)"
         result="flood"
         id="feFlood1042" />
      <feComposite
         in="flood"
         in2="SourceGraphic"
         operator="in"
         result="composite1"
         id="feComposite1044" />
      <feGaussianBlur
         in="composite1"
         stdDeviation="3"
         result="blur"
         id="feGaussianBlur1047" />
      <feOffset
         dx="0"
         dy="3"
         result="offset"
         id="feOffset1049" />
      <feComposite
         in="SourceGraphic"
         in2="offset"
         operator="over"
         result="composite2"
         id="feComposite1051" />
    </filter>
    <linearGradient
       id="linearGradient940">
      <stop
         id="stop936"
         offset="0"
         style="stop-color:#f6f7f7;stop-opacity:1" />
      <stop
         id="stop938"
         offset="1"
         style="stop-color:#dce7f0;stop-opacity:1" />
    </linearGradient>
    <filter
       style="color-interpolation-filters:sRGB;"
       inkscape:label="Drop Shadow"
       id="filter973">
      <feFlood
         flood-opacity="0.294118"
         flood-color="rgb(0,0,0)"
         result="flood"
         id="feFlood963" />
      <feComposite
         in="flood"
         in2="SourceGraphic"
         operator="in"
         result="composite1"
         id="feComposite965" />
      <feGaussianBlur
         in="composite1"
         stdDeviation="3"
         result="blur"
         id="feGaussianBlur967" />
      <feOffset
         dx="0"
         dy="3"
         result="offset"
         id="feOffset969" />
      <feComposite
         in="SourceGraphic"
         in2="offset"
         operator="over"
         result="composite2"
         id="feComposite971" />
    </filter>
    <linearGradient
       inkscape:collect="always"
       id="linearGradient1197">
      <stop
         style="stop-color:#ffffff;stop-opacity:0.58823532"
         offset="0"
         id="stop1193" />
      <stop
         style="stop-color:#ffffff;stop-opacity:0"
         offset="1"
         id="stop1195" />
    </linearGradient>
    <linearGradient
       y2="203.06541"
       x2="489.3934"
       y1="203.06541"
       x1="20.20047"
       gradientUnits="userSpaceOnUse"
       id="grd1">
      <stop
         offset="0"
         stop-color="#e8efee"
         id="stop1195-3" />
      <stop
         style="stop-color:#f3f7f6;stop-opacity:1;"
         id="stop996"
         stop-color="#ffffff"
         offset="0.5" />
      <stop
         offset="1"
         stop-color="#ffffff"
         id="stop1193-6" />
    </linearGradient>
    <linearGradient
       inkscape:collect="always"
       xlink:href="#linearGradient848"
       id="linearGradient930"
       x1="-120"
       y1="232.36218"
       x2="3023.51"
       y2="1520.4004"
       gradientUnits="userSpaceOnUse"
       gradientTransform="rotate(-30,-440.35682,1675.2671)" />
    <linearGradient
       id="0">
      <stop
         id="stop1646"
         stop-color="#124da4" />
      <stop
         id="stop1648"
         stop-color="#2896ff"
         offset="1" />
    </linearGradient>
    <linearGradient
       gradientUnits="userSpaceOnUse"
       y2="473.20001"
       x2="317.98001"
       y1="569.02002"
       x1="317.89999"
       id="1"
       xlink:href="#linearGradient1725"
       gradientTransform="matrix(9.6490339,0,0,9.6490339,-2550.6058,-4479.6662)" />
    <linearGradient
       gradientUnits="userSpaceOnUse"
       y2="473.57999"
       x2="204.7"
       y1="573.23999"
       x1="205.03"
       id="2"
       xlink:href="#linearGradient1717"
       gradientTransform="matrix(9.5487718,0,0,9.5487718,-1448.9358,-4445.2903)" />
    <linearGradient
       inkscape:collect="always"
       xlink:href="#linearGradient1197"
       id="linearGradient1199-6"
       x1="540.14288"
       y1="29.770346"
       x2="540.14288"
       y2="1054.9744"
       gradientUnits="userSpaceOnUse"
       gradientTransform="matrix(0.99492386,0,0,0.99492386,2.5990744,2.7429586)" />
    <linearGradient
       id="linearGradient860-5">
      <stop
         id="stop854-6"
         offset="0"
         style="stop-color:#ff7896;stop-opacity:1" />
      <stop
         style="stop-color:#f52869;stop-opacity:1"
         offset="0.5"
         id="stop856-2" />
      <stop
         id="stop858-9"
         offset="1"
         style="stop-color:#e41249;stop-opacity:1;" />
    </linearGradient>
    <filter
       style="color-interpolation-filters:sRGB;"
       inkscape:label="Drop Shadow"
       id="filter2069">
      <feFlood
         flood-opacity="0.294118"
         flood-color="rgb(0,0,0)"
         result="flood"
         id="feFlood2059" />
      <feComposite
         in="flood"
         in2="SourceGraphic"
         operator="in"
         result="composite1"
         id="feComposite2061" />
      <feGaussianBlur
         in="composite1"
         stdDeviation="5"
         result="blur"
         id="feGaussianBlur2063" />
      <feOffset
         dx="0"
         dy="10"
         result="offset"
         id="feOffset2065" />
      <feComposite
         in="offset"
         in2="SourceGraphic"
         operator="out"
         result="composite2"
         id="feComposite2067" />
    </filter>
    <linearGradient
       inkscape:collect="always"
       xlink:href="#linearGradient1018"
       id="linearGradient1020"
       x1="500"
       y1="52.362179"
       x2="520"
       y2="1052.3622"
       gradientUnits="userSpaceOnUse" />
  </defs>
  <sodipodi:namedview
     id="base"
     pagecolor="#ffffff"
     bordercolor="#666666"
     borderopacity="1.0"
     inkscape:pageopacity="0.0"
     inkscape:pageshadow="2"
     inkscape:zoom="0.71875"
     inkscape:cx="171.75264"
     inkscape:cy="576.05699"
     inkscape:document-units="px"
     inkscape:current-layer="layer1"
     showgrid="true"
     inkscape:window-width="1920"
     inkscape:window-height="1029"
     inkscape:window-x="0"
     inkscape:window-y="25"
     inkscape:window-maximized="1"
     inkscape:snap-from-guide="true"
     showguides="true"
     inkscape:guide-bbox="true"
     inkscape:pagecheckerboard="true">
    <sodipodi:guide
       position="200,0"
       orientation="-200,0"
       id="guide3766"
       inkscape:locked="false" />
    <sodipodi:guide
       position="0,200"
       orientation="200,0"
       id="guide3127"
       inkscape:locked="false" />
    <sodipodi:guide
       position="0,-2.6171874e-06"
       orientation="0,100"
       id="guide3129"
       inkscape:locked="false" />
    <sodipodi:guide
       position="100,-2.6171874e-06"
       orientation="-200,0"
       id="guide3131"
       inkscape:locked="false" />
    <sodipodi:guide
       position="100,200"
       orientation="0,-100"
       id="guide3133"
       inkscape:locked="false" />
    <inkscape:grid
       type="xygrid"
       id="grid847" />
  </sodipodi:namedview>
  <metadata
     id="metadata7">
    <rdf:RDF>
      <cc:Work
         rdf:about="">
        <dc:format>image/svg+xml</dc:format>
        <dc:type
           rdf:resource="http://purl.org/dc/dcmitype/StillImage" />
        <dc:title />
      </cc:Work>
    </rdf:RDF>
  </metadata>
  <g
     inkscape:label="Layer 1"
     inkscape:groupmode="layer"
     id="layer1"
     transform="translate(0,-28.36218)">
    <circle
       style="color:#000000;display:inline;overflow:visible;visibility:visible;fill:url(#linearGradient1020);fill-opacity:1;fill-rule:nonzero;stroke:none;stroke-width:83.31562042;stroke-miterlimit:4;stroke-dasharray:none;stroke-opacity:1;marker:none;paint-order:stroke markers fill;enable-background:accumulate"
       id="path4188-6"
       cx="512"
       cy="540.36218"
       r="490" />
    <path
       style="font-style:normal;font-weight:normal;font-size:40px;line-height:1.25;font-family:sans-serif;letter-spacing:0px;word-spacing:0px;opacity:0.05;fill:url(#linearGradient930);fill-opacity:1;stroke:none;stroke-width:1"
       d="m 529.03516,50.77322 c -1.2383,8.04646 -1.3139,16.18571 -0.2149,24.41992 1.5372,11.51655 5.267,22.40647 11.19149,32.66797 6.15231,10.65617 13.8044,19.54399 22.95311,26.66601 9.1161,7.06564 19.3157,12.03886 30.6015,14.91992 11.2859,2.88107 22.61019,3.48622 33.97269,1.8125 11.39511,-1.61734 22.30761,-5.43685 32.7383,-11.45898 8.57001,-4.94792 16.15261,-11.28103 22.748,-18.99805 6.68441,-7.69318 11.97311,-16.3096 15.8633,-25.84765 l -13.03119,-4.99219 c -3.22701,7.95235 -7.66451,15.17454 -13.3125,21.66797 -5.5591,6.51726 -11.97681,11.87695 -19.25,16.07617 -8.85201,5.11068 -18.06181,8.36077 -27.63281,9.75195 -9.53859,1.44757 -18.96209,0.9477 -28.26759,-1.49804 -9.5962,-2.4283 -18.29111,-6.6154 -26.086,-12.56446 -7.7385,-5.98161 -14.19531,-13.4552 -19.37111,-22.41992 -6.2825,-10.8817 -9.6295,-22.40663 -10.03899,-34.57422 -0.1605,-5.09932 0.19869,-10.07572 1.0625,-14.93359 a 490,490 0 0 0 -13.9258,-0.69531 z m 43.81449,3.33593 c -1.60169,10.15799 0.70781,20.64335 6.9511,31.45703 6.51041,11.27638 14.8161,18.69511 24.91801,22.25977 10.1257,3.47573 20.03859,2.41537 29.7363,-3.18359 5.8074,-3.35287 10.2953,-7.29773 13.4649,-11.83399 3.1933,-4.62519 5.2271,-10.08438 6.1035,-16.3789 l 7.5195,13.02343 c 5.5244,-3.34934 10.30759,-6.97303 14.3789,-10.86132 a 490,490 0 0 0 -32.4238,-10.3086 c 0.098,2.0429 -0.032,4.04445 -0.4082,6.00195 -1.2775,6.90196 -5.3854,12.35547 -12.3203,16.35938 -6.9914,4.03646 -13.8055,4.92565 -20.4453,2.66992 -6.6724,-2.31211 -12.3373,-7.49794 -16.9922,-15.56055 -4.3669,-7.56367 -6.0461,-14.66791 -5.0508,-21.3125 A 490,490 0 0 0 572.84965,54.10915 Z M 445.34966,74.9197 c -2.4217,-0.0211 -4.8614,0.0628 -7.3165,0.25391 -13.03711,0.9867 -25.53141,4.93099 -37.48431,11.83203 -10.6562,6.15234 -19.6421,13.8952 -26.95709,23.23047 -7.34751,9.27888 -12.59131,19.59927 -15.73041,30.95898 -3.0351,11.1493 -3.7833,22.4815 -2.2461,33.99805 1.5371,11.51655 5.2669,22.40647 11.1914,32.66797 6.1523,10.65617 13.8044,19.54399 22.9531,26.66601 9.1161,7.06564 19.3157,12.03886 30.6016,14.91992 11.28591,2.88107 22.6101,3.48622 33.9726,1.8125 11.39511,-1.61734 22.30771,-5.43685 32.7383,-11.45898 8.5701,-4.94792 16.1526,-11.28103 22.748,-18.99805 6.6844,-7.69318 11.9732,-16.3096 15.8633,-25.84765 l -13.0312,-4.99219 c -3.227,7.95235 -7.6645,15.17454 -13.3125,21.66797 -5.5591,6.51726 -11.9767,11.87695 -19.25,16.07617 -8.852,5.11068 -18.0618,8.36077 -27.6328,9.75195 -9.5385,1.44757 -18.9621,0.9477 -28.2676,-1.49804 -9.5961,-2.4283 -18.291,-6.6154 -26.0859,-12.56446 -7.7385,-5.98161 -14.1954,-13.4552 -19.3711,-22.41992 -6.2826,-10.8817 -9.6296,-22.40663 -10.0391,-34.57422 -0.3857,-12.25652 2.1871,-23.81611 7.7188,-34.67773 3.3293,-6.73344 7.6587,-12.84162 12.9882,-18.32422 5.297,-5.53899 11.4147,-10.31055 18.3496,-14.31445 9.9232,-5.72917 20.2228,-9.04569 30.9024,-9.94922 10.7034,-0.99247 21.12,0.51306 31.248,4.51367 6.2126,2.42721 11.7236,5.78539 16.5313,10.07617 4.8641,4.25823 9.0364,9.40464 12.5195,15.4375 5.7617,9.97959 8.1257,19.47755 7.0918,28.49414 -1.01,8.92766 -5.2715,16.38786 -12.7871,22.38086 l -35.9375,-62.24609 -12.0957,6.98242 6.3965,11.07812 c -5.8005,-2.36444 -11.5013,-3.32012 -17.1035,-2.86718 -5.6348,0.39655 -11.3548,2.27213 -17.1621,5.625 -9.6413,5.5664 -15.472,13.63195 -17.4922,24.19531 -2.0203,10.56336 0.2239,21.48339 6.7343,32.75976 6.5105,11.27638 14.8161,18.69511 24.918,22.25977 10.1257,3.47573 20.0387,2.41536 29.7363,-3.18359 5.8074,-3.35287 10.2954,-7.29773 13.4649,-11.83399 3.1933,-4.62519 5.2271,-10.08438 6.1035,-16.3789 l 7.5195,13.02343 c 15.5916,-9.45287 25.3973,-21.053 29.4141,-34.79883 4.0168,-13.74582 1.7448,-28.03289 -6.8164,-42.86132 -4.0039,-6.93497 -9.0051,-12.992 -15.0039,-18.17383 -5.9424,-5.21438 -12.6242,-9.36325 -20.043,-12.44727 -9.8664,-4.07646 -20.0453,-6.16048 -30.53899,-6.25195 z m -4.959,60.39648 c 2.5519,-0.011 5.0953,0.42285 7.6308,1.29883 6.7288,2.27957 12.3724,7.36631 16.9297,15.25977 4.6224,8.00622 6.2674,15.47564 4.9336,22.41015 -1.2775,6.90196 -5.3853,12.35547 -12.3203,16.35938 -6.9914,4.03646 -13.8055,4.92565 -20.4453,2.66992 -6.6724,-2.31211 -12.3373,-7.49794 -16.9922,-15.56055 -4.5898,-7.94984 -6.2167,-15.39361 -4.8828,-22.32812 1.3902,-6.96706 5.4961,-12.41862 12.3183,-16.35742 4.2992,-2.4821 8.5749,-3.73365 12.8282,-3.75196 z m 387.28317,29.40235 c -1.64449,8.87902 -1.8642,17.8717 -0.64845,26.98047 1.53714,11.51655 5.26693,22.40647 11.19142,32.66797 6.15233,10.65617 13.80444,19.54595 22.95311,26.66796 9.11614,7.06564 19.31569,12.03886 30.60157,14.91993 9.40665,2.40133 18.84092,3.21405 28.30079,2.45117 a 490,490 0 0 0 -9.80665,-13.71289 c -4.9197,-0.21603 -9.80975,-0.94825 -14.66601,-2.22461 -9.59615,-2.4283 -18.29105,-6.61735 -26.08595,-12.56641 -7.73849,-5.98161 -14.1953,-13.4552 -19.37108,-22.41992 -6.28256,-10.8817 -9.62957,-22.40663 -10.03906,-34.57422 -0.0703,-2.23449 -0.0385,-4.44468 0.0879,-6.63281 A 490,490 0 0 0 827.67385,164.71853 Z M 272.14456,174.9197 c -2.4217,-0.0211 -4.8614,0.0628 -7.3164,0.25391 -13.0372,0.9867 -25.5315,4.93099 -37.4844,11.83203 -10.6562,6.15234 -19.642,13.8952 -26.957,23.23047 -7.3476,9.27888 -12.5914,19.59927 -15.7305,30.95898 -3.0351,11.1493 -3.7832,22.4815 -2.2461,33.99805 1.53709,11.51655 5.2669,22.40647 11.1914,32.66797 6.1523,10.65617 13.80439,19.54399 22.9531,26.66601 9.1162,7.06564 19.3157,12.03886 30.6016,14.91992 11.2859,2.88107 22.6101,3.48622 33.9726,1.8125 11.3951,-1.61734 22.3077,-5.43685 32.7383,-11.45898 8.5701,-4.94792 16.1527,-11.28103 22.7481,-18.99805 6.6843,-7.69318 11.9731,-16.3096 15.8633,-25.84765 l -13.0313,-4.99219 c -3.227,7.95235 -7.6645,15.17454 -13.3125,21.66797 -5.5591,6.51726 -11.9767,11.87695 -19.25,16.07617 -8.8519,5.11068 -18.0617,8.36077 -27.6328,9.75195 -9.5385,1.44757 -18.9621,0.9477 -28.2676,-1.49804 -9.5961,-2.4283 -18.291,-6.6154 -26.0859,-12.56446 -7.7385,-5.98161 -14.1953,-13.4552 -19.3711,-22.41992 -6.2826,-10.8817 -9.6296,-22.40663 -10.0391,-34.57422 -0.3856,-12.25652 2.1871,-23.81611 7.7188,-34.67773 3.3293,-6.73344 7.6588,-12.84162 12.9882,-18.32422 5.297,-5.53899 11.4147,-10.31055 18.3497,-14.31445 9.9232,-5.72917 20.2228,-9.04569 30.9023,-9.94922 10.7034,-0.99247 21.12,0.51306 31.248,4.51367 6.2127,2.42721 11.7236,5.78539 16.5313,10.07617 4.8641,4.25823 9.0365,9.40464 12.5195,15.4375 5.7617,9.97959 8.1257,19.47755 7.0918,28.49414 -1.01,8.92766 -5.2715,16.38786 -12.7871,22.38086 l -35.9375,-62.24609 -12.0957,6.98242 6.3965,11.07812 c -5.8005,-2.36444 -11.5013,-3.32012 -17.1035,-2.86718 -5.6348,0.39655 -11.3548,2.27213 -17.1621,5.625 -9.6413,5.5664 -15.472,13.63195 -17.4922,24.19531 -2.0202,10.56336 0.224,21.48339 6.7344,32.75976 6.5104,11.27638 14.8161,18.69511 24.9179,22.25977 10.1257,3.47573 20.0387,2.41536 29.7364,-3.18359 5.8073,-3.35287 10.2953,-7.29773 13.4648,-11.83399 3.1934,-4.62519 5.2271,-10.08438 6.1035,-16.3789 l 7.5195,13.02343 c 15.5917,-9.45287 25.3973,-21.053 29.4141,-34.79883 4.0168,-13.74582 1.7448,-28.03289 -6.8164,-42.86132 -4.0039,-6.93497 -9.0051,-12.992 -15.0039,-18.17383 -5.9424,-5.21438 -12.6242,-9.36325 -20.043,-12.44727 -9.8664,-4.07647 -20.0453,-6.16048 -30.539,-6.25195 z m 471.4101,16.50586 c -2.4216,-0.0211 -4.8613,0.0628 -7.31641,0.25391 -13.0371,0.9867 -25.53139,4.93099 -37.4844,11.83203 -10.6561,6.15234 -19.642,13.89715 -26.95699,23.23242 -7.34751,9.27889 -12.59131,19.59731 -15.73051,30.95703 -3.03509,11.1493 -3.7832,22.4815 -2.24609,33.99805 1.5372,11.51655 5.267,22.40647 11.19149,32.66797 6.1523,10.65617 13.8044,19.54595 22.9531,26.66796 9.1161,7.06564 19.31571,12.03886 30.6015,14.91993 11.28591,2.88106 22.6102,3.48426 33.9727,1.81054 11.3951,-1.61734 22.30761,-5.43685 32.73829,-11.45898 8.57005,-4.94792 16.15263,-11.28104 22.74804,-18.99805 6.68436,-7.69318 11.97311,-16.30765 15.86328,-25.8457 l -13.03125,-4.99414 c -3.22698,7.95235 -7.66449,15.17649 -13.3125,21.66992 -5.55906,6.51726 -11.97673,11.875 -19.24995,16.07422 -8.85201,5.11068 -18.0618,8.36077 -27.63281,9.75195 -9.53859,1.44757 -18.96209,0.94965 -28.26759,-1.49609 -9.5962,-2.4283 -18.29111,-6.61735 -26.086,-12.56641 -7.73851,-5.98161 -14.19531,-13.4552 -19.37111,-22.41992 -6.2825,-10.8817 -9.6295,-22.40663 -10.03899,-34.57422 -0.38571,-12.25652 2.1871,-23.81611 7.7187,-34.67773 3.32939,-6.73344 7.6588,-12.84162 12.9883,-18.32422 5.2969,-5.53899 11.41459,-10.3086 18.3496,-14.3125 9.9232,-5.72917 20.2228,-9.04569 30.9024,-9.94922 10.70329,-0.99246 21.11999,0.51111 31.248,4.51172 6.21259,2.42721 11.72353,5.78539 16.53126,10.07617 4.86412,4.25823 9.03646,9.40464 12.51953,15.4375 5.76172,9.97959 8.12566,19.47755 7.0918,28.49414 -1.01003,8.92766 -5.2715,16.38785 -12.78711,22.38086 l -35.93748,-62.24609 -12.0957,6.98242 6.39649,11.08008 c -5.8005,-2.36445 -11.50129,-3.32012 -17.10359,-2.86719 -5.6347,0.39655 -11.35471,2.27018 -17.1621,5.62305 -9.6413,5.5664 -15.4719,13.63195 -17.49221,24.19531 -2.0202,10.56336 0.22401,21.48339 6.7344,32.75976 6.51041,11.27638 14.8161,18.69706 24.91801,22.26172 10.1257,3.47573 20.03859,2.41341 29.7363,-3.18554 5.8074,-3.35287 10.2953,-7.29773 13.4649,-11.83399 3.19329,-4.62519 5.22709,-10.08438 6.10348,-16.3789 l 7.51953,13.02343 c 15.59161,-9.45287 25.39726,-21.05105 29.41405,-34.79687 4.01681,-13.74583 1.74479,-28.0329 -6.8164,-42.86133 -4.00391,-6.93497 -9.00514,-12.99395 -15.00391,-18.17578 -5.94238,-5.21438 -12.62422,-9.36325 -20.04296,-12.44727 -9.8664,-4.07647 -20.0453,-6.16048 -30.53909,-6.25195 z m -476.3691,43.89062 c 2.552,-0.011 5.0954,0.42285 7.6308,1.29883 6.7288,2.27957 12.3724,7.36631 16.9297,15.25977 4.6224,8.00622 6.2675,15.47564 4.9336,22.41015 -1.2774,6.90196 -5.3853,12.35547 -12.3203,16.35938 -6.9913,4.03646 -13.8055,4.92565 -20.4453,2.66992 -6.6724,-2.31211 -12.3372,-7.49794 -16.9922,-15.56055 -4.5898,-7.94984 -6.2166,-15.39361 -4.8828,-22.32812 1.3902,-6.96706 5.4962,-12.41862 12.3184,-16.35742 4.2991,-2.4821 8.5748,-3.73365 12.8281,-3.75196 z m 471.4101,16.50782 c 2.55199,-0.011 5.09539,0.42089 7.63089,1.29687 6.72881,2.27956 12.3724,7.36631 16.92971,15.25977 4.6224,8.00622 6.2674,15.47564 4.93359,22.41015 -1.27749,6.90196 -5.38539,12.35547 -12.32029,16.35938 -6.99141,4.03646 -13.80551,4.92761 -20.44531,2.67187 -6.67239,-2.31211 -12.33729,-7.49989 -16.99219,-15.5625 -4.5899,-7.94984 -6.2167,-15.39166 -4.88281,-22.32617 1.39021,-6.96706 5.49611,-12.42057 12.31831,-16.35937 4.2991,-2.4821 8.57479,-3.7317 12.8281,-3.75 z m -637.56641,23.14257 a 490,490 0 0 0 -8.681595,14.16211 c 10.666295,-0.97283 21.047895,0.53404 31.142595,4.52149 6.2126,2.42721 11.7235,5.78539 16.5312,10.07617 4.8641,4.25823 9.0365,9.40464 12.5196,15.4375 5.7617,9.97959 8.1256,19.47755 7.0917,28.49414 -1.01,8.92766 -5.2714,16.38786 -12.7871,22.38086 l -35.9374,-62.24609 -12.095795,6.98242 6.396495,11.07812 c -5.800495,-2.36444 -11.501295,-3.32012 -17.103495,-2.86718 -5.5189,0.3884 -11.1202,2.20525 -16.8047,5.42968 a 490,490 0 0 0 -17.5078,41.26172 c 1.1647,5.21522 3.288,10.51131 6.3926,15.88867 6.5104,11.27638 14.8161,18.69511 24.918,22.25977 10.1257,3.47573 20.038595,2.41536 29.736295,-3.18359 5.8073,-3.35287 10.2953,-7.29773 13.4648,-11.83399 3.1934,-4.62519 5.2271,-10.08438 6.1035,-16.3789 l 7.5196,13.02343 c 15.5916,-9.45287 25.3972,-21.053 29.414,-34.79883 4.0168,-13.74582 1.7448,-28.03289 -6.8164,-42.86132 -4.0039,-6.93497 -9.0051,-12.992 -15.0039,-18.17383 -5.9424,-5.21438 -12.6242,-9.36325 -20.0429,-12.44727 -9.21,-3.80523 -18.6927,-5.87218 -28.4493,-6.20508 z m 469.3204,16.45899 c -2.4217,-0.0211 -4.8614,0.0628 -7.3165,0.25391 -13.0371,0.9867 -25.5314,4.93099 -37.4843,11.83203 -10.6562,6.15234 -19.6421,13.89715 -26.9571,23.23242 -7.3475,9.27889 -12.5913,19.59731 -15.7304,30.95703 -3.0351,11.1493 -3.7833,22.4815 -2.2461,33.99805 1.5371,11.51655 5.2669,22.40647 11.1914,32.66797 6.1523,10.65617 13.8044,19.54595 22.9531,26.66796 9.1161,7.06564 19.3157,12.03886 30.6016,14.91993 11.2859,2.88106 22.6101,3.48426 33.9726,1.81054 11.39511,-1.61734 22.3077,-5.43685 32.7383,-11.45898 8.5701,-4.94792 16.1526,-11.28104 22.748,-18.99805 6.6844,-7.69318 11.9732,-16.30765 15.8633,-25.8457 l -13.0312,-4.99414 c -3.227,7.95235 -7.6645,15.17649 -13.3125,21.66992 -5.5591,6.51726 -11.9767,11.875 -19.25,16.07422 -8.852,5.11068 -18.0618,8.36077 -27.6328,9.75195 -9.5385,1.44757 -18.9621,0.94965 -28.2676,-1.49609 -9.5961,-2.4283 -18.291,-6.61735 -26.0859,-12.56641 -7.7385,-5.98161 -14.1954,-13.4552 -19.3711,-22.41992 -6.2826,-10.8817 -9.6296,-22.40663 -10.0391,-34.57422 -0.3857,-12.25652 2.1871,-23.81611 7.7188,-34.67773 3.3293,-6.73344 7.6587,-12.84162 12.9882,-18.32422 5.297,-5.53899 11.4147,-10.3086 18.3496,-14.3125 9.9232,-5.72917 20.2228,-9.04569 30.9024,-9.94922 10.7034,-0.99246 21.12,0.51111 31.248,4.51172 6.2126,2.42721 11.7236,5.78539 16.5313,10.07617 4.8641,4.25823 9.0364,9.40464 12.5195,15.4375 5.7617,9.97959 8.1257,19.47755 7.0918,28.49414 -1.01,8.92766 -5.2715,16.38785 -12.7871,22.38086 l -35.9375,-62.24609 -12.0957,6.98242 6.3965,11.08008 c -5.8005,-2.36445 -11.5013,-3.32012 -17.1035,-2.86719 -5.6348,0.39655 -11.3548,2.27018 -17.1621,5.62305 -9.6413,5.5664 -15.472,13.63195 -17.4922,24.19531 -2.0203,10.56336 0.2239,21.48339 6.7343,32.75976 6.5105,11.27638 14.8161,18.69706 24.918,22.26172 10.1257,3.47573 20.0387,2.41341 29.7363,-3.18554 5.8074,-3.35287 10.2954,-7.29773 13.4649,-11.83399 3.1933,-4.62519 5.2271,-10.08438 6.1035,-16.3789 l 7.5195,13.02343 c 15.5916,-9.45287 25.3973,-21.05105 29.4141,-34.79687 4.0168,-13.74583 1.7448,-28.0329 -6.8164,-42.86133 -4.0039,-6.93497 -9.0051,-12.99395 -15.0039,-18.17578 -5.9424,-5.21438 -12.6242,-9.36325 -20.043,-12.44727 -9.8664,-4.07647 -20.0453,-6.16048 -30.539,-6.25195 z M 93.980455,335.31618 c 2.552,-0.011 5.0954,0.42285 7.630905,1.29883 6.7287,2.27957 12.3724,7.36631 16.9297,15.25977 4.62229,8.00622 6.2674,15.47564 4.9336,22.41015 -1.2775,6.90196 -5.3854,12.35547 -12.3204,16.35938 -6.9913,4.03646 -13.805405,4.92565 -20.445305,2.66992 -6.6724,-2.31211 -12.3372,-7.49794 -16.9922,-15.56055 -4.5898,-7.94984 -6.2166,-15.39361 -4.8828,-22.32812 1.3902,-6.96706 5.4962,-12.41862 12.3184,-16.35742 4.2991,-2.4821 8.5748,-3.73365 12.8281,-3.75196 z m 870.357435,15.9668 c -4.44467,7.10289 -7.80525,14.74131 -10.06641,22.92383 -3.03511,11.14929 -3.78322,22.48345 -2.24609,34 1.53713,11.51655 5.26693,22.40452 11.19141,32.66602 6.15234,10.65617 13.80445,19.54595 22.95312,26.66796 3.67125,2.84548 7.52178,5.34492 11.54493,7.51172 a 490,490 0 0 0 -2.17383,-17.90039 c -0.34096,-0.25103 -0.68977,-0.4865 -1.02735,-0.74414 -7.7385,-5.98161 -14.19531,-13.4552 -19.37109,-22.41992 -6.28255,-10.8817 -9.62957,-22.40663 -10.03906,-34.57422 -0.34588,-10.99234 1.69567,-21.42066 6.10937,-31.29101 a 490,490 0 0 0 -6.875,-16.83985 z M 565.39066,351.824 c 2.5519,-0.011 5.0953,0.42089 7.6308,1.29687 6.7288,2.27956 12.3724,7.36631 16.9297,15.25977 4.6224,8.00622 6.2674,15.47564 4.9336,22.41015 -1.2774,6.90196 -5.3853,12.35547 -12.3203,16.35938 -6.9914,4.03646 -13.8055,4.92761 -20.4453,2.67187 -6.6724,-2.31211 -12.3373,-7.49989 -16.9922,-15.5625 -4.5898,-7.94984 -6.2167,-15.39166 -4.8828,-22.32617 1.3902,-6.96706 5.4961,-12.42057 12.3183,-16.35937 4.2992,-2.4821 8.5749,-3.7317 12.8282,-3.75 z m -399.1485,38.13867 c -3.227,7.95235 -7.6645,15.17454 -13.3125,21.66797 -5.559,6.51726 -11.9767,11.87695 -19.25,16.07617 -8.8519,5.11068 -18.0617,8.36077 -27.6328,9.75195 -9.538505,1.44757 -18.962005,0.9477 -28.267605,-1.49804 -9.5961,-2.4283 -18.291,-6.6154 -26.0859,-12.56446 -4.2403,-3.27759 -8.0819,-7.0201 -11.5527,-11.19336 a 490,490 0 0 0 -4.0762,15.96485 c 2.3135,2.2552 4.7397,4.37777 7.2852,6.35937 9.1161,7.06564 19.3156,12.03886 30.6015,14.91992 11.2859,2.88107 22.6102,3.48622 33.972705,1.8125 11.395,-1.61734 22.3076,-5.43685 32.7383,-11.45898 8.57,-4.94792 16.1526,-11.28103 22.748,-18.99805 6.6844,-7.69318 11.9731,-16.3096 15.8633,-25.84765 z m 230.9024,1.46289 c -2.4217,-0.0211 -4.8614,0.0628 -7.3164,0.25391 -13.0372,0.9867 -25.5315,4.93099 -37.4844,11.83203 -10.6562,6.15234 -19.642,13.89715 -26.957,23.23242 -7.3476,9.27889 -12.5914,19.59731 -15.7305,30.95703 -3.0351,11.1493 -3.7832,22.4815 -2.2461,33.99805 1.5371,11.51655 5.2669,22.40647 11.1914,32.66797 6.1523,10.65617 13.8044,19.54595 22.9531,26.66796 9.1162,7.06564 19.3157,12.03886 30.6016,14.91993 11.2859,2.88106 22.6101,3.48426 33.9726,1.81054 11.3951,-1.61734 22.3077,-5.43685 32.7383,-11.45898 8.5701,-4.94792 16.1527,-11.28104 22.7481,-18.99805 6.6843,-7.69318 11.9731,-16.30765 15.8633,-25.8457 l -13.0313,-4.99414 c -3.227,7.95235 -7.6645,15.17649 -13.3125,21.66992 -5.5591,6.51726 -11.9767,11.875 -19.25,16.07422 -8.8519,5.11068 -18.0617,8.36077 -27.6328,9.75195 -9.5385,1.44757 -18.9621,0.94965 -28.2676,-1.49609 -9.5961,-2.4283 -18.291,-6.61735 -26.0859,-12.56641 -7.7385,-5.98161 -14.1953,-13.4552 -19.3711,-22.41992 -6.2826,-10.8817 -9.6296,-22.40663 -10.0391,-34.57422 -0.3856,-12.25652 2.1871,-23.81611 7.7188,-34.67773 3.3293,-6.73344 7.6588,-12.84162 12.9882,-18.32422 5.297,-5.53899 11.4147,-10.3086 18.3497,-14.3125 9.9232,-5.72917 20.2228,-9.04569 30.9023,-9.94922 10.7034,-0.99246 21.12,0.51111 31.248,4.51172 6.2127,2.42721 11.7236,5.78539 16.5313,10.07617 4.8641,4.25823 9.0365,9.40464 12.5195,15.4375 5.7617,9.97959 8.1257,19.47755 7.0918,28.49414 -1.01,8.92766 -5.2715,16.38785 -12.7871,22.38086 l -35.9375,-62.24609 -12.0957,6.98242 6.3965,11.08008 c -5.8005,-2.36445 -11.5013,-3.32012 -17.1035,-2.86719 -5.6348,0.39655 -11.3548,2.27018 -17.1621,5.62305 -9.6413,5.5664 -15.472,13.63195 -17.4922,24.19531 -2.0202,10.56336 0.224,21.48339 6.7344,32.75976 6.5104,11.27638 14.8161,18.69706 24.9179,22.26172 10.1257,3.47573 20.0387,2.41341 29.7364,-3.18554 5.8073,-3.35287 10.2953,-7.29773 13.4648,-11.83399 3.1934,-4.62519 5.2271,-10.08438 6.1035,-16.3789 l 7.5195,13.02343 c 15.5917,-9.45287 25.3973,-21.05105 29.4141,-34.79687 4.0168,-13.74583 1.7448,-28.0329 -6.8164,-42.86133 -4.0039,-6.93497 -9.0051,-12.99395 -15.0039,-18.17578 -5.9424,-5.21438 -12.6242,-9.36325 -20.043,-12.44727 -9.8664,-4.07647 -20.0453,-6.16048 -30.539,-6.25195 z m 471.41013,16.50586 c -2.42163,-0.0211 -4.86138,0.0648 -7.31642,0.25586 -13.03714,0.9867 -25.53142,4.92903 -37.48436,11.83008 -10.65617,6.15234 -19.64204,13.89715 -26.95704,23.23242 -7.34754,9.27888 -12.59132,19.59731 -15.73046,30.95703 -3.03516,11.14929 -3.78325,22.48345 -2.24605,34 1.53707,11.51655 5.26687,22.40452 11.19136,32.66602 6.15233,10.65617 13.80444,19.54595 22.95312,26.66796 9.11613,7.06564 19.31567,12.03886 30.60157,14.91993 11.28588,2.88106 22.61014,3.48426 33.97264,1.81054 11.39507,-1.61734 22.30764,-5.43685 32.73829,-11.45898 8.57005,-4.94792 16.15263,-11.28104 22.74804,-18.99805 6.68436,-7.69318 11.97311,-16.30765 15.86328,-25.8457 l -13.03125,-4.99414 c -3.22698,7.95235 -7.66449,15.17649 -13.3125,21.66992 -5.55906,6.51726 -11.97673,11.875 -19.25,16.07422 -8.85195,5.11068 -18.06174,8.36077 -27.6328,9.75195 -9.53851,1.44757 -18.96206,0.94965 -28.26758,-1.49609 -9.59614,-2.4283 -18.29105,-6.61735 -26.08593,-12.56641 -7.73851,-5.98161 -14.19532,-13.4552 -19.3711,-22.41992 -6.28255,-10.8817 -9.62957,-22.40663 -10.03906,-34.57422 -0.38566,-12.25652 2.18711,-23.81415 7.71875,-34.67578 3.32932,-6.73344 7.6588,-12.84161 12.98828,-18.32422 5.29693,-5.53899 11.41464,-10.31055 18.34961,-14.31445 9.92321,-5.72917 20.2228,-9.04569 30.90234,-9.94922 10.70338,-0.99247 21.12001,0.51111 31.24805,4.51172 6.21261,2.42721 11.72352,5.78734 16.53125,10.07812 4.86412,4.25823 9.03646,9.40269 12.51953,15.43555 5.76172,9.97959 8.12566,19.47755 7.0918,28.49414 -1.01003,8.92766 -5.2715,16.38785 -12.78711,22.38086 l -35.9375,-62.24414 -12.09571,6.98242 6.39649,11.07813 c -5.80049,-2.36445 -11.50131,-3.32013 -17.10352,-2.86719 -5.63476,0.39655 -11.35477,2.27213 -17.16211,5.625 -9.6413,5.5664 -15.47195,13.63 -17.49218,24.19336 -2.02024,10.56336 0.22396,21.48339 6.73436,32.75976 6.51042,11.27638 14.8161,18.69706 24.91797,22.26172 10.1257,3.47573 20.03865,2.41341 29.73633,-3.18555 5.80733,-3.35286 10.29532,-7.29772 13.46484,-11.83398 3.19336,-4.62519 5.22712,-10.08438 6.10352,-16.37891 l 7.51953,13.02539 c 15.59161,-9.45287 25.39726,-21.053 29.41406,-34.79882 4.0168,-13.74583 1.74479,-28.0329 -6.8164,-42.86133 -4.00391,-6.93497 -9.00515,-12.99395 -15.00391,-18.17578 -5.94238,-5.21439 -12.62422,-9.36325 -20.04297,-12.44727 -9.86643,-4.07647 -20.04533,-6.16048 -30.53905,-6.25195 z M 392.18556,451.824 c 2.552,-0.011 5.09539,0.42089 7.6308,1.29687 6.7288,2.27956 12.3724,7.36631 16.9297,15.25977 4.6224,8.00622 6.2675,15.47564 4.9336,22.41015 -1.2774,6.90196 -5.3853,12.35547 -12.3203,16.35938 -6.9913,4.03646 -13.8055,4.92761 -20.4453,2.67187 -6.6724,-2.31211 -12.3372,-7.49989 -16.9922,-15.5625 -4.5898,-7.94984 -6.2166,-15.39166 -4.8828,-22.32617 1.3902,-6.96706 5.4962,-12.42057 12.3184,-16.35937 4.2991,-2.4821 8.5748,-3.7317 12.8281,-3.75 z m 471.41014,16.50586 c 2.55198,-0.011 5.09536,0.42089 7.63085,1.29687 6.72878,2.27956 12.3724,7.36631 16.9297,15.25977 4.6224,8.00622 6.26743,15.4776 4.93359,22.41211 -1.27746,6.90195 -5.38535,12.35351 -12.32032,16.35742 -6.99135,4.03646 -13.80548,4.92761 -20.4453,2.67187 -6.67238,-2.31211 -12.33724,-7.49989 -16.9922,-15.5625 -4.58983,-7.94984 -6.21664,-15.39166 -4.8828,-22.32617 1.39022,-6.96706 5.49615,-12.42057 12.31836,-16.35937 4.29911,-2.4821 8.57482,-3.7317 12.82812,-3.75 z m -639.65625,23.0957 c -2.4216,-0.0211 -4.8614,0.0628 -7.31639,0.25391 -13.03721,0.9867 -25.53141,4.93099 -37.48441,11.83203 -10.65619,6.15234 -19.642,13.89715 -26.957,23.23242 -7.3476,9.27889 -12.59129,19.59731 -15.7305,30.95703 -3.0351,11.1493 -3.7832,22.4815 -2.24609,33.99805 1.53709,11.51655 5.26699,22.40647 11.19139,32.66797 6.1524,10.65617 13.80451,19.54595 22.95321,26.66796 9.11609,7.06564 19.31559,12.03886 30.60149,14.91993 11.2859,2.88106 22.6102,3.48426 33.9727,1.81054 11.395,-1.61734 22.3076,-5.43685 32.7383,-11.45898 8.57001,-4.94792 16.1526,-11.28104 22.74801,-18.99805 6.6844,-7.69318 11.97309,-16.30765 15.8633,-25.8457 l -13.0313,-4.99414 c -3.227,7.95235 -7.6645,15.17649 -13.3125,21.66992 -5.559,6.51726 -11.9767,11.875 -19.25,16.07422 -8.8519,5.11068 -18.0617,8.36077 -27.6328,9.75195 -9.5385,1.44757 -18.96201,0.94965 -28.2676,-1.49609 -9.5961,-2.4283 -18.291,-6.61735 -26.0859,-12.56641 -7.73851,-5.98161 -14.1953,-13.4552 -19.3711,-22.41992 -6.2825,-10.8817 -9.6296,-22.40663 -10.0391,-34.57422 -0.3856,-12.25652 2.1872,-23.81611 7.7188,-34.67773 3.3293,-6.73344 7.6588,-12.84162 12.9883,-18.32422 5.2969,-5.53899 11.4146,-10.3086 18.3496,-14.3125 9.9232,-5.72917 20.2228,-9.04569 30.9023,-9.94922 10.7034,-0.99246 21.12,0.51111 31.2481,4.51172 6.21259,2.42721 11.72349,5.78539 16.53119,10.07617 4.8641,4.25823 9.0365,9.40464 12.51961,15.4375 5.7617,9.97959 8.12559,19.47755 7.0917,28.49414 -1.01,8.92766 -5.27141,16.38785 -12.7871,22.38086 l -35.9375,-62.24609 -12.0957,6.98242 6.3965,11.08008 c -5.8005,-2.36445 -11.5013,-3.32012 -17.1035,-2.86719 -5.6348,0.39655 -11.3548,2.27018 -17.1621,5.62305 -9.6413,5.5664 -15.472,13.63195 -17.4922,24.19531 -2.0202,10.56336 0.224,21.48339 6.7344,32.75976 6.5104,11.27638 14.8161,18.69706 24.918,22.26172 10.1257,3.47573 20.0386,2.41341 29.7363,-3.18554 5.8073,-3.35287 10.2953,-7.29773 13.4648,-11.83399 3.1934,-4.62519 5.2271,-10.08438 6.1035,-16.3789 l 7.5196,13.02343 c 15.5916,-9.45287 25.3972,-21.05105 29.414,-34.79687 4.0168,-13.74583 1.7448,-28.0329 -6.8164,-42.86133 -4.0039,-6.93497 -9.0051,-12.99395 -15.0039,-18.17578 -5.9424,-5.21438 -12.6242,-9.36325 -20.0429,-12.44727 -9.8665,-4.07647 -20.0454,-6.16048 -30.53911,-6.25195 z m 471.4102,16.50586 c -2.4217,-0.0211 -4.8614,0.0648 -7.3165,0.25586 -13.0371,0.9867 -25.5314,4.92903 -37.4843,11.83008 -10.6562,6.15234 -19.6421,13.89715 -26.9571,23.23242 -7.3475,9.27888 -12.5913,19.59731 -15.7304,30.95703 -3.0351,11.14929 -3.7833,22.48345 -2.2461,34 1.5371,11.51655 5.2669,22.40452 11.1914,32.66602 6.1523,10.65617 13.8044,19.54595 22.9531,26.66796 9.1161,7.06564 19.3157,12.03886 30.6016,14.91993 11.2859,2.88106 22.6101,3.48426 33.9726,1.81054 11.3951,-1.61734 22.3077,-5.43685 32.7383,-11.45898 8.5701,-4.94792 16.1526,-11.28104 22.7481,-18.99805 6.6843,-7.69318 11.9731,-16.30765 15.8632,-25.8457 l -13.0312,-4.99414 c -3.227,7.95235 -7.6645,15.17649 -13.3125,21.66992 -5.5591,6.51726 -11.9767,11.875 -19.25,16.07422 -8.852,5.11068 -18.0618,8.36077 -27.6328,9.75195 -9.5385,1.44757 -18.9621,0.94965 -28.2676,-1.49609 -9.5961,-2.4283 -18.291,-6.61735 -26.0859,-12.56641 -7.7385,-5.98161 -14.1954,-13.4552 -19.3711,-22.41992 -6.2826,-10.8817 -9.6296,-22.40663 -10.0391,-34.57422 -0.3857,-12.25652 2.1871,-23.81415 7.7188,-34.67578 3.3293,-6.73344 7.6587,-12.84161 12.9882,-18.32422 5.297,-5.53899 11.4147,-10.31055 18.3496,-14.31445 9.9232,-5.72917 20.2228,-9.04569 30.9024,-9.94922 10.7034,-0.99247 21.12,0.51111 31.248,4.51172 6.2126,2.42721 11.7236,5.78734 16.5313,10.07812 4.8641,4.25823 9.0364,9.40269 12.5195,15.43555 5.7617,9.97959 8.1257,19.47755 7.0918,28.49414 -1.01,8.92766 -5.2715,16.38785 -12.7871,22.38086 l -35.9375,-62.24414 -12.0957,6.98242 6.3965,11.07813 c -5.8005,-2.36445 -11.5013,-3.32013 -17.1035,-2.86719 -5.6348,0.39655 -11.3548,2.27213 -17.1621,5.625 -9.6413,5.5664 -15.472,13.63 -17.4922,24.19336 -2.0203,10.56336 0.2239,21.48339 6.7343,32.75976 6.5105,11.27638 14.8161,18.69706 24.918,22.26172 10.1257,3.47573 20.0387,2.41341 29.7363,-3.18555 5.8074,-3.35286 10.2954,-7.29772 13.4649,-11.83398 3.1933,-4.62519 5.2271,-10.08438 6.1035,-16.37891 l 7.5195,13.02539 c 15.5916,-9.45287 25.3973,-21.053 29.4141,-34.79882 4.0168,-13.74583 1.7448,-28.0329 -6.8164,-42.86133 -4.0039,-6.93497 -9.0051,-12.99395 -15.0039,-18.17578 -5.9424,-5.21439 -12.6242,-9.36325 -20.043,-12.44727 -9.8664,-4.07647 -20.0453,-6.16048 -30.539,-6.25195 z M 218.98045,551.824 c 2.552,-0.011 5.0954,0.42089 7.6309,1.29687 6.7287,2.27956 12.3724,7.36631 16.9297,15.25977 4.6223,8.00622 6.2674,15.47564 4.9336,22.41015 -1.2775,6.90196 -5.3854,12.35547 -12.3204,16.35938 -6.9913,4.03646 -13.8054,4.92761 -20.4453,2.67187 -6.6724,-2.31211 -12.3372,-7.49989 -16.9922,-15.5625 -4.5898,-7.94984 -6.2166,-15.39166 -4.8828,-22.32617 1.3902,-6.96706 5.4962,-12.42057 12.3184,-16.35937 4.2991,-2.4821 8.5748,-3.7317 12.8281,-3.75 z m 471.4102,16.50586 c 2.5519,-0.011 5.0953,0.42089 7.6308,1.29687 6.7288,2.27956 12.3724,7.36631 16.9297,15.25977 4.6224,8.00622 6.2674,15.4776 4.9336,22.41211 -1.2774,6.90195 -5.3853,12.35351 -12.3203,16.35742 -6.9914,4.03646 -13.8055,4.92761 -20.4453,2.67187 -6.6724,-2.31211 -12.3373,-7.49989 -16.9922,-15.5625 -4.5898,-7.94984 -6.2167,-15.39166 -4.8828,-22.32617 1.3902,-6.96706 5.4961,-12.42057 12.3183,-16.35937 4.2992,-2.4821 8.5749,-3.7317 12.8282,-3.75 z m -639.656295,23.0957 c -2.4216,-0.0211 -4.8614,0.0628 -7.3164,0.25391 -5.8195,0.44044 -11.5293,1.47484 -17.1328,3.09375 a 490,490 0 0 0 1.7168,14.13671 c 5.2474,-1.7145 10.5912,-2.80504 16.0352,-3.26562 10.7033,-0.99246 21.12,0.51111 31.248,4.51172 6.2126,2.42721 11.7235,5.78539 16.5312,10.07617 4.8642,4.25823 9.036495,9.40464 12.519595,15.4375 5.7617,9.97959 8.1256,19.47755 7.0918,28.49414 -1.0101,8.92766 -5.2715,16.38785 -12.787095,22.38086 l -35.9375,-62.24609 -12.0957,6.98242 6.3964,11.08008 c -5.8004,-2.36445 -11.5013,-3.32012 -17.1035,-2.86719 -2.0801,0.14639 -4.1717,0.49565 -6.2754,1.04492 a 490,490 0 0 0 2.9688,13.22656 c 5.6441,-2.34976 11.2478,-2.56705 16.8125,-0.64453 6.7288,2.27956 12.3724,7.36631 16.9297,15.25977 4.6224,8.00622 6.2674,15.47564 4.9336,22.41015 -1.2775,6.90196 -5.3854,12.35547 -12.3203,16.35938 -3.1375,1.81141 -6.2381,2.98506 -9.3047,3.5293 a 490,490 0 0 0 5.4316,13.89453 c 2.5335,-0.84076 5.0537,-1.97958 7.5586,-3.42578 5.8073,-3.35287 10.2953,-7.29773 13.4649,-11.83399 3.1933,-4.62519 5.2271,-10.08438 6.1035,-16.3789 l 7.5195,13.02343 c 15.591595,-9.45287 25.397295,-21.05105 29.414095,-34.79687 4.0168,-13.74583 1.7447,-28.0329 -6.8165,-42.86133 -4.0039,-6.93497 -9.0051,-12.99395 -15.0039,-18.17578 -5.942295,-5.21438 -12.624195,-9.36325 -20.042895,-12.44727 -9.8665,-4.07647 -20.0454,-6.16048 -30.5391,-6.25195 z m 471.410195,16.50586 c -2.4217,-0.0211 -4.8614,0.0648 -7.3164,0.25586 -13.0372,0.9867 -25.5315,4.92903 -37.4844,11.83008 -10.6562,6.15234 -19.642,13.89715 -26.957,23.23242 -7.3476,9.27888 -12.5914,19.59731 -15.7305,30.95703 -3.0351,11.14929 -3.7832,22.48345 -2.2461,34 1.5371,11.51655 5.2669,22.40452 11.1914,32.66602 6.1523,10.65617 13.8044,19.54595 22.9531,26.66796 9.1162,7.06564 19.3157,12.03886 30.6016,14.91993 11.2859,2.88106 22.6101,3.48426 33.9726,1.81054 11.3951,-1.61734 22.3077,-5.43685 32.7383,-11.45898 8.5701,-4.94792 16.1527,-11.28104 22.7481,-18.99805 6.6843,-7.69318 11.9731,-16.30765 15.8633,-25.8457 l -13.0313,-4.99414 c -3.227,7.95235 -7.6645,15.17649 -13.3125,21.66992 -5.5591,6.51726 -11.9767,11.875 -19.25,16.07422 -8.8519,5.11068 -18.0617,8.36077 -27.6328,9.75195 -9.5385,1.44757 -18.9621,0.94965 -28.2676,-1.49609 -9.5961,-2.4283 -18.291,-6.61735 -26.0859,-12.56641 -7.7385,-5.98161 -14.1953,-13.4552 -19.3711,-22.41992 -6.2826,-10.8817 -9.6296,-22.40663 -10.0391,-34.57422 -0.3856,-12.25652 2.1871,-23.81415 7.7188,-34.67578 3.3293,-6.73344 7.6588,-12.84161 12.9882,-18.32422 5.297,-5.53899 11.4147,-10.31055 18.3497,-14.31445 9.9232,-5.72917 20.2228,-9.04569 30.9023,-9.94922 10.7034,-0.99247 21.12,0.51111 31.248,4.51172 6.2127,2.42721 11.7236,5.78734 16.5313,10.07812 4.8641,4.25823 9.0365,9.40269 12.5195,15.43555 5.7617,9.97959 8.1257,19.47755 7.0918,28.49414 -1.01,8.92766 -5.2715,16.38785 -12.7871,22.38086 l -35.9375,-62.24414 -12.0957,6.98242 6.3965,11.07813 c -5.8005,-2.36445 -11.5013,-3.32013 -17.1035,-2.86719 -5.6348,0.39655 -11.3548,2.27213 -17.1621,5.625 -9.6413,5.5664 -15.472,13.63 -17.4922,24.19336 -2.0202,10.56336 0.224,21.48339 6.7344,32.75976 6.5104,11.27638 14.8161,18.69706 24.9179,22.26172 10.1257,3.47573 20.0387,2.41341 29.7364,-3.18555 5.8073,-3.35286 10.2953,-7.29772 13.4648,-11.83398 3.1934,-4.62519 5.2271,-10.08438 6.1035,-16.37891 l 7.5195,13.02539 c 15.5917,-9.45287 25.3973,-21.053 29.4141,-34.79882 4.0168,-13.74583 1.7448,-28.0329 -6.8164,-42.86133 -4.0039,-6.93497 -9.0051,-12.99395 -15.0039,-18.17578 -5.9424,-5.21439 -12.6242,-9.36325 -20.043,-12.44727 -9.8664,-4.07647 -20.0453,-6.16048 -30.539,-6.25195 z m 471.41013,16.50586 c -2.42163,-0.0211 -4.86137,0.0648 -7.31641,0.25586 -13.03715,0.9867 -25.53142,4.93099 -37.48437,11.83203 -10.65617,6.15234 -19.64204,13.8952 -26.95703,23.23047 -7.34755,9.27888 -12.59133,19.59927 -15.73047,30.95898 -3.03511,11.1493 -3.78322,22.4815 -2.2461,33.99805 1.53713,11.51655 5.26693,22.40647 11.19141,32.66797 6.00557,10.40195 13.44404,19.11402 22.30469,26.14843 a 490,490 0 0 0 7.02734,-12.21484 c -6.8672,-5.70012 -12.67787,-12.62857 -17.40625,-20.81836 -6.28255,-10.8817 -9.62957,-22.40663 -10.03906,-34.57422 -0.38566,-12.25652 2.18711,-23.8161 7.71875,-34.67773 3.32932,-6.73344 7.6588,-12.84161 12.98828,-18.32422 5.29693,-5.53899 11.41464,-10.31055 18.34961,-14.31445 9.92321,-5.72917 20.2228,-9.04569 30.90234,-9.94922 1.91357,-0.17744 3.81772,-0.27122 5.71289,-0.28906 a 490,490 0 0 0 2.2129,-13.9004 c -0.40951,-0.01 -0.81806,-0.0257 -1.22852,-0.0293 z m -476.36913,43.89258 c 2.552,-0.011 5.0954,0.42089 7.6308,1.29687 6.7288,2.27956 12.3724,7.36631 16.9297,15.25977 4.6224,8.00622 6.2675,15.4776 4.9336,22.41211 -1.2774,6.90195 -5.3853,12.35351 -12.3203,16.35742 -6.9913,4.03646 -13.8055,4.92761 -20.4453,2.67187 -6.6724,-2.31211 -12.3372,-7.49989 -16.9922,-15.5625 -4.5898,-7.94984 -6.2166,-15.39166 -4.8828,-22.32617 1.3902,-6.96706 5.4962,-12.42057 12.3184,-16.35937 4.2991,-2.4821 8.5748,-3.7317 12.8281,-3.75 z m 466.68358,4.11914 c -0.38289,0.0178 -0.76646,0.0258 -1.14843,0.0566 -5.63477,0.39655 -11.35478,2.27213 -17.16211,5.625 -9.6413,5.5664 -15.47196,13.63 -17.49219,24.19336 -2.02023,10.56335 0.22396,21.48339 6.73437,32.75976 1.27998,2.21699 2.63198,4.28032 4.05078,6.19922 a 490,490 0 0 0 7.63672,-17.52344 c -3.1571,-6.63881 -4.1745,-12.91139 -3.03906,-18.81445 1.39022,-6.96706 5.49616,-12.42057 12.31836,-16.35937 1.44136,-0.83217 2.8802,-1.51704 4.31641,-2.07227 a 490,490 0 0 0 3.78515,-14.06445 z m -865.83198,34.01953 c -3.227,7.95235 -7.6646,15.17649 -13.3125,21.66992 -5.559095,6.51726 -11.976795,11.875 -19.249995,16.07422 -4.7759,2.75736 -9.6594,4.95426 -14.6446,6.6289 a 490,490 0 0 0 5.8809,12.75 c 5.3651,-1.89661 10.6144,-4.32238 15.7461,-7.28515 8.569995,-4.94792 16.152595,-11.28104 22.747995,-18.99805 6.6844,-7.69318 11.9731,-16.30765 15.8633,-25.8457 z m 230.9023,1.46289 c -2.4216,-0.0211 -4.8614,0.0648 -7.3164,0.25586 -13.0372,0.9867 -25.5314,4.92903 -37.4844,11.83008 -10.6562,6.15234 -19.642,13.89715 -26.957,23.23242 -7.3476,9.27888 -12.5913,19.59731 -15.7305,30.95703 -3.0351,11.14929 -3.7832,22.48345 -2.2461,34 1.5371,11.51655 5.267,22.40452 11.1914,32.66602 6.1524,10.65617 13.8045,19.54595 22.9532,26.66796 9.1161,7.06564 19.3156,12.03886 30.6015,14.91993 11.2859,2.88106 22.6102,3.48426 33.9727,1.81054 11.395,-1.61734 22.3076,-5.43685 32.7383,-11.45898 8.57,-4.94792 16.1526,-11.28104 22.748,-18.99805 6.6844,-7.69318 11.9731,-16.30765 15.8633,-25.8457 l -13.0313,-4.99414 c -3.227,7.95235 -7.6645,15.17649 -13.3125,21.66992 -5.559,6.51726 -11.9767,11.875 -19.25,16.07422 -8.8519,5.11068 -18.0617,8.36077 -27.6328,9.75195 -9.5385,1.44757 -18.962,0.94965 -28.2676,-1.49609 -9.5961,-2.4283 -18.291,-6.61735 -26.0859,-12.56641 -7.7385,-5.98161 -14.1953,-13.4552 -19.3711,-22.41992 -6.2825,-10.8817 -9.6296,-22.40663 -10.0391,-34.57422 -0.3856,-12.25652 2.1872,-23.81415 7.7188,-34.67578 3.3293,-6.73344 7.6588,-12.84161 12.9883,-18.32422 5.2969,-5.53899 11.4146,-10.31055 18.3496,-14.31445 9.9232,-5.72917 20.2228,-9.04569 30.9023,-9.94922 10.7034,-0.99247 21.12,0.51111 31.2481,4.51172 6.2126,2.42721 11.7235,5.78734 16.5312,10.07812 4.8641,4.25823 9.0365,9.40269 12.5196,15.43555 5.7617,9.97959 8.1256,19.47755 7.0917,28.49414 -1.01,8.92766 -5.2714,16.38785 -12.7871,22.38086 l -35.9375,-62.24414 -12.0957,6.98242 6.3965,11.07813 c -5.8005,-2.36445 -11.5013,-3.32013 -17.1035,-2.86719 -5.6348,0.39655 -11.3548,2.27213 -17.1621,5.625 -9.6413,5.5664 -15.472,13.63 -17.4922,24.19336 -2.0202,10.56336 0.224,21.48339 6.7344,32.75976 6.5104,11.27638 14.8161,18.69706 24.918,22.26172 10.1257,3.47573 20.0386,2.41341 29.7363,-3.18555 5.8073,-3.35286 10.2953,-7.29772 13.4648,-11.83398 3.1934,-4.62519 5.2271,-10.08438 6.1035,-16.37891 l 7.5196,13.02539 c 15.5916,-9.45287 25.3972,-21.053 29.414,-34.79882 4.0168,-13.74583 1.7448,-28.0329 -6.8164,-42.86133 -4.0039,-6.93497 -9.0051,-12.99395 -15.0039,-18.17578 -5.9424,-5.21439 -12.6242,-9.36325 -20.0429,-12.44727 -9.8665,-4.07647 -20.0454,-6.16048 -30.5391,-6.25195 z m 471.41015,16.50586 c -2.42163,-0.0211 -4.86137,0.0648 -7.3164,0.25586 -13.03715,0.9867 -25.53143,4.93099 -37.48435,11.83203 -10.6562,6.15234 -19.6421,13.8952 -26.9571,23.23047 -7.3475,9.27888 -12.5913,19.59927 -15.7304,30.95898 -3.0351,11.1493 -3.7833,22.4815 -2.2461,33.99805 1.5371,11.51655 5.2669,22.40647 11.1914,32.66797 6.1523,10.65617 13.8044,19.544 22.9531,26.66601 9.1161,7.06564 19.31568,12.03886 30.60157,14.91992 11.28589,2.88107 22.61015,3.48427 33.97266,1.81055 6.89494,-0.97862 13.61244,-2.76805 20.15429,-5.35937 a 490,490 0 0 0 47.45703,-52.375 l -9.29296,-3.56055 c -3.227,7.95235 -7.66451,15.17454 -13.3125,21.66797 -5.55906,6.51726 -11.97674,11.875 -19.25,16.07422 -8.85196,5.11067 -18.06176,8.36272 -27.63282,9.7539 -9.53851,1.44757 -18.96206,0.9477 -28.26758,-1.49804 -9.59614,-2.4283 -18.29104,-6.61735 -26.08589,-12.56641 -7.7385,-5.98161 -14.19529,-13.45325 -19.37109,-22.41797 -6.2826,-10.8817 -9.6296,-22.40663 -10.0391,-34.57422 -0.3857,-12.25652 2.18709,-23.8161 7.71879,-34.67773 3.32931,-6.73344 7.65881,-12.84161 12.9882,-18.32422 5.29701,-5.53899 11.41471,-10.31055 18.34965,-14.31445 9.92321,-5.72917 20.2228,-9.04569 30.90234,-9.94922 10.70337,-0.99247 21.12002,0.51111 31.24804,4.51172 6.21261,2.42721 11.72352,5.78734 16.53125,10.07812 4.86412,4.25823 9.03646,9.40269 12.51953,15.43555 5.76172,9.97959 8.12567,19.47755 7.09181,28.49414 -1.01004,8.92766 -5.2715,16.38981 -12.78711,22.38281 l -35.9375,-62.24609 -12.0957,6.98242 6.39648,11.07813 c -5.80049,-2.36445 -11.5013,-3.32013 -17.10352,-2.86719 -5.63476,0.39655 -11.35477,2.27213 -17.1621,5.625 -9.6413,5.5664 -15.47196,13.63 -17.49217,24.19336 -2.02029,10.56335 0.2239,21.48339 6.73435,32.75976 6.51042,11.27637 14.81609,18.69706 24.91796,22.26172 10.1257,3.47573 20.03865,2.41537 29.73633,-3.18359 5.80733,-3.35287 10.29532,-7.29773 13.46485,-11.83399 3.19335,-4.62519 5.22711,-10.08633 6.10351,-16.38086 l 7.51953,13.02539 c 15.59161,-9.45287 25.39728,-21.053 29.41406,-34.79882 4.0168,-13.74583 1.7448,-28.0329 -6.8164,-42.86133 -4.00391,-6.93497 -9.00514,-12.99395 -15.00391,-18.17578 -5.94238,-5.21439 -12.62422,-9.36325 -20.04297,-12.44727 -9.86643,-4.07647 -20.04533,-6.16048 -30.53906,-6.25195 z m -476.36915,43.89258 c 2.552,-0.011 5.0954,0.42089 7.6309,1.29687 6.7287,2.27956 12.3724,7.36631 16.9297,15.25977 4.6223,8.00622 6.2674,15.4776 4.9336,22.41211 -1.2775,6.90195 -5.3854,12.35351 -12.3204,16.35742 -6.9913,4.03646 -13.8054,4.92761 -20.4453,2.67187 -6.6724,-2.31211 -12.3372,-7.49989 -16.9922,-15.5625 -4.5898,-7.94984 -6.2166,-15.39166 -4.8828,-22.32617 1.3903,-6.96706 5.4962,-12.42057 12.3184,-16.35937 4.2991,-2.4821 8.5748,-3.7317 12.8281,-3.75 z m 471.41017,16.50586 c 2.55198,-0.011 5.09536,0.42089 7.63086,1.29687 6.72876,2.27956 12.37239,7.36631 16.92968,15.25977 4.6224,8.00622 6.26744,15.4776 4.9336,22.41211 -1.27746,6.90195 -5.38535,12.35546 -12.32032,16.35937 -6.99135,4.03646 -13.80548,4.92566 -20.44531,2.66992 -6.67238,-2.31211 -12.33724,-7.49989 -16.99219,-15.5625 -4.58984,-7.94984 -6.21665,-15.39166 -4.88281,-22.32617 1.39023,-6.96706 5.49616,-12.42057 12.31836,-16.35937 4.29912,-2.4821 8.57482,-3.7317 12.82813,-3.75 z m -639.65627,23.0957 c -2.4216,-0.0211 -4.8613,0.0648 -7.3164,0.25586 -13.0371,0.9867 -25.5314,4.92903 -37.4844,11.83008 -4.7188,2.72441 -9.1082,5.76471 -13.1718,9.11328 a 490,490 0 0 0 8.209,11.47851 c 3.7278,-3.14261 7.7823,-5.97997 12.164,-8.50976 9.9232,-5.72917 20.2228,-9.04569 30.9024,-9.94922 10.7033,-0.99247 21.12,0.51111 31.248,4.51172 6.2126,2.42721 11.7235,5.78734 16.5312,10.07812 4.8642,4.25823 9.0365,9.40269 12.5196,15.43555 5.7617,9.97959 8.1256,19.47755 7.0918,28.49414 -1.0101,8.92766 -5.2715,16.38785 -12.7871,22.38086 l -35.9375,-62.24414 -12.0957,6.98242 6.3964,11.07813 c -5.8004,-2.36445 -11.5013,-3.32013 -17.1035,-2.86719 -5.6347,0.39655 -11.3548,2.27213 -17.1621,5.625 -0.8832,0.50995 -1.7236,1.04771 -2.543,1.59961 a 490,490 0 0 0 9.6036,10.93359 c 0.9779,-0.73252 2.0225,-1.42809 3.1484,-2.07812 6.8786,-3.97136 13.6977,-4.78907 20.459,-2.45313 6.7288,2.27956 12.3724,7.36631 16.9297,15.25977 4.6224,8.00622 6.2674,15.4776 4.9336,22.41211 -0.5194,2.80631 -1.516,5.3681 -2.9707,7.69531 a 490,490 0 0 0 9.8281,7.4707 c 2.0405,-3.85028 3.4029,-8.18806 4.0762,-13.02344 l 7.5195,13.02539 c 15.5916,-9.45287 25.3973,-21.053 29.4141,-34.79882 4.0168,-13.74583 1.7447,-28.0329 -6.8165,-42.86133 -4.0039,-6.93497 -9.0051,-12.99395 -15.0039,-18.17578 -5.9423,-5.21439 -12.6242,-9.36325 -20.0429,-12.44727 -9.8665,-4.07647 -20.0453,-6.16048 -30.5391,-6.25195 z m 471.4102,16.50586 c -2.4217,-0.0211 -4.8614,0.0648 -7.3164,0.25586 -13.0372,0.9867 -25.5315,4.93099 -37.4844,11.83203 -10.6562,6.15234 -19.642,13.8952 -26.957,23.23047 -7.3476,9.27888 -12.5914,19.59927 -15.7305,30.95898 -3.0351,11.1493 -3.7832,22.4815 -2.2461,33.99805 1.5371,11.51653 5.2669,22.40643 11.1914,32.66797 6.1523,10.6562 13.8044,19.544 22.9531,26.6661 9.1162,7.0656 19.3157,12.0388 30.6016,14.9199 11.2859,2.88096 22.6101,3.48416 33.9726,1.81046 11.3951,-1.61726 22.3077,-5.43676 32.7383,-11.45896 8.5701,-4.9479 16.1527,-11.279 22.7481,-18.9961 6.6843,-7.6931 11.9731,-16.3096 15.8633,-25.84764 l -13.0313,-4.9922 c -3.227,7.9524 -7.6645,15.17454 -13.3125,21.66804 -5.5591,6.5172 -11.9767,11.875 -19.25,16.0742 -8.8519,5.1107 -18.0617,8.3627 -27.6328,9.7539 -9.5385,1.4476 -18.9621,0.9477 -28.2676,-1.498 -9.5961,-2.4283 -18.291,-6.6174 -26.0859,-12.5665 -7.7385,-5.9816 -14.1953,-13.4532 -19.3711,-22.4179 -6.2826,-10.88174 -9.6296,-22.4067 -10.0391,-34.57429 -0.3856,-12.25652 2.1871,-23.8161 7.7188,-34.67773 3.3293,-6.73344 7.6588,-12.84161 12.9882,-18.32422 5.297,-5.53899 11.4147,-10.31055 18.3497,-14.31445 9.9232,-5.72917 20.2228,-9.04569 30.9023,-9.94922 10.7034,-0.99247 21.12,0.51111 31.248,4.51172 6.2127,2.42721 11.7236,5.78734 16.5313,10.07812 4.8641,4.25823 9.0365,9.40269 12.5195,15.43555 5.7617,9.97959 8.1257,19.47755 7.0918,28.49414 -1.01,8.92766 -5.2715,16.38981 -12.7871,22.38281 l -35.9375,-62.24609 -12.0957,6.98242 6.3965,11.07813 c -5.8005,-2.36445 -11.5013,-3.32013 -17.1035,-2.86719 -5.6348,0.39655 -11.3548,2.27213 -17.1621,5.625 -9.6413,5.5664 -15.472,13.63 -17.4922,24.19336 -2.0202,10.56335 0.224,21.48339 6.7344,32.7598 6.5104,11.2763 14.8161,18.69704 24.9179,22.26174 10.1257,3.4757 20.0387,2.4154 29.7364,-3.1836 5.8073,-3.3529 10.2953,-7.29774 13.4648,-11.83404 3.1934,-4.6252 5.2271,-10.0863 6.1035,-16.38086 l 7.5195,13.02536 c 15.5917,-9.4528 25.3973,-21.05297 29.4141,-34.79879 4.0168,-13.74583 1.7448,-28.0329 -6.8164,-42.86133 -4.0039,-6.93497 -9.0051,-12.99395 -15.0039,-18.17578 -5.9424,-5.21439 -12.6242,-9.36325 -20.043,-12.44727 -9.8664,-4.07647 -20.0453,-6.16048 -30.539,-6.25195 z m -4.959,60.39844 c 2.552,-0.011 5.0954,0.42089 7.6308,1.29687 6.7288,2.27956 12.3724,7.36631 16.9297,15.25977 4.6224,8.00622 6.2675,15.4776 4.9336,22.41211 -1.2774,6.90193 -5.3853,12.35543 -12.3203,16.35933 -6.9913,4.0365 -13.8055,4.9257 -20.4453,2.67 -6.6724,-2.3121 -12.3372,-7.4999 -16.9922,-15.56254 -4.5898,-7.94984 -6.2166,-15.39166 -4.8828,-22.32617 1.3902,-6.96706 5.4962,-12.42057 12.3184,-16.35937 4.2991,-2.4821 8.5748,-3.7317 12.8281,-3.75 z m -399.1484,38.13867 c -2.7267,6.71951 -6.328,12.91391 -10.7833,18.59181 a 490,490 0 0 0 11.6485,7.68364 c 4.9599,-6.49644 9.0263,-13.58324 12.166,-21.28131 z m 230.9023,1.46289 c -2.4216,-0.0211 -4.8614,0.0648 -7.3164,0.25586 -13.0372,0.9867 -25.5314,4.93096 -37.4844,11.83206 -10.6562,6.1523 -19.642,13.89524 -26.957,23.23044 -7.3476,9.2789 -12.5913,19.5993 -15.7305,30.959 -1.9169,7.0416 -2.9186,14.15566 -3.0117,21.34376 a 490,490 0 0 0 13.8379,3.5332 c -0.3294,-12.1337 2.2428,-23.58386 7.7246,-34.34766 3.3293,-6.7334 7.6588,-12.8416 12.9883,-18.3242 5.2969,-5.539 11.4146,-10.3105 18.3496,-14.3144 9.9232,-5.72924 20.2228,-9.04574 30.9023,-9.94934 10.7034,-0.9924 21.12,0.5111 31.2481,4.5118 6.2126,2.4272 11.7235,5.78734 16.53121,10.07814 4.8641,4.2582 9.03649,9.4027 12.5196,15.4355 5.7617,9.9796 8.12559,19.4776 7.0917,28.4942 -1.01,8.92756 -5.27141,16.38976 -12.7871,22.38276 l -35.9375,-62.24606 -12.09571,6.9824 6.3965,11.0781 c -5.8005,-2.3644 -11.5013,-3.3201 -17.1035,-2.8672 -5.63479,0.3966 -11.3548,2.2722 -17.1621,5.625 -9.6413,5.5664 -15.47199,13.63 -17.4922,24.19336 -1.2505,6.5389 -0.8639,13.2152 1.1543,20.0273 a 490,490 0 0 0 17.9121,2.7071 c -3.6595,-7.1213 -4.8928,-13.8265 -3.6836,-20.1133 1.3903,-6.96706 5.4962,-12.42056 12.3184,-16.35936 6.8786,-3.9713 13.6976,-4.789 20.459,-2.4531 6.7287,2.2796 12.3724,7.3663 16.9297,15.25976 4.6223,8.0062 6.2674,15.4776 4.9336,22.4121 -0.3508,1.8953 -0.92379,3.6767 -1.7012,5.3535 a 490,490 0 0 0 11.9277,0.5977 c 0.2823,-1.2362 0.5249,-2.5003 0.707,-3.8087 l 2.2852,3.9571 a 490,490 0 0 0 0.918,0.047 490,490 0 0 0 17.3925,-0.6152 c 8.1447,-7.3865 13.5941,-15.7727 16.3379,-25.1622 4.0168,-13.74576 1.7448,-28.03286 -6.8164,-42.86126 -4.0039,-6.935 -9.0051,-12.99404 -15.0039,-18.17584 -5.9424,-5.2144 -12.6242,-9.3632 -20.0429,-12.4473 -9.8665,-4.07644 -20.0454,-6.16045 -30.5391,-6.25192 z"
       id="text1052"
       inkscape:connector-curvature="0" />
    <g
       id="g1028"
       transform="matrix(11.870333,0,0,11.870333,252.48133,264.57071)" />
    <g
       id="g1030"
       transform="matrix(11.870333,0,0,11.870333,252.48133,264.57071)" />
    <g
       id="g1032"
       transform="matrix(11.870333,0,0,11.870333,252.48133,264.57071)" />
    <g
       id="g1034"
       transform="matrix(11.870333,0,0,11.870333,252.48133,264.57071)" />
    <g
       id="g1036"
       transform="matrix(11.870333,0,0,11.870333,252.48133,264.57071)" />
    <g
       id="g1038"
       transform="matrix(11.870333,0,0,11.870333,252.48133,264.57071)" />
    <g
       id="g1040"
       transform="matrix(11.870333,0,0,11.870333,252.48133,264.57071)" />
    <g
       id="g1042"
       transform="matrix(11.870333,0,0,11.870333,252.48133,264.57071)" />
    <g
       id="g1044"
       transform="matrix(11.870333,0,0,11.870333,252.48133,264.57071)" />
    <g
       id="g1046"
       transform="matrix(11.870333,0,0,11.870333,252.48133,264.57071)" />
    <g
       id="g1048"
       transform="matrix(11.870333,0,0,11.870333,252.48133,264.57071)" />
    <g
       id="g1050"
       transform="matrix(11.870333,0,0,11.870333,252.48133,264.57071)" />
    <g
       id="g1052"
       transform="matrix(11.870333,0,0,11.870333,252.48133,264.57071)" />
    <g
       id="g1054"
       transform="matrix(11.870333,0,0,11.870333,252.48133,264.57071)" />
    <g
       id="g1056"
       transform="matrix(11.870333,0,0,11.870333,252.48133,264.57071)" />
    <g
       id="g1860"
       transform="translate(58,86.36218)">
      <path
         d="M 708,908 H 200 C 89.5,908 0,818.5 0,708 V 200 C 0,89.5 89.5,0 200,0 h 508 c 110.5,0 200,89.5 200,200 v 508 c 0,110.5 -89.5,200 -200,200 z"
         class="st0"
         id="BG_11_"
         inkscape:connector-curvature="0"
         style="fill:url(#BG_1_)" />
      <g
         id="Plane">
        <linearGradient
           y2="800.92407"
           x2="465.2515"
           y1="142.3918"
           x1="377.94501"
           gradientUnits="userSpaceOnUse"
           id="Body_1_">
          <stop
             id="stop1761"
             style="stop-color:#FFFFFF"
             offset="0" />
          <stop
             id="stop1763"
             style="stop-color:#DAE5F5"
             offset="1" />
        </linearGradient>
        <path
           d="m 751.6,711.5 -288,-599.6 c -3.9,-8 -15.3,-8 -19.2,0 l -288,599.6 c -4,8.3 3.8,16.1 12.1,12.2 L 385.1,623.5 c 1.7,-0.8 3.6,-0.9 5.2,-0.3 2,0.7 3.7,2.2 4.4,4.3 L 449,784.4 c 1.7,4.7 8.3,4.7 10,0 l 54.2,-156.8 c 0.8,-2.1 2.4,-3.7 4.4,-4.3 1.7,-0.6 3.5,-0.5 5.2,0.3 l 216.6,100.2 c 8.4,3.9 16.2,-4 12.2,-12.3 z"
           class="st1"
           id="Body"
           inkscape:connector-curvature="0"
           style="fill:url(#Body_1_)" />
        <linearGradient
           y2="756.83221"
           x2="236.3949"
           y1="142.93159"
           x1="490.2027"
           gradientUnits="userSpaceOnUse"
           id="Left_wing_1_">
          <stop
             id="stop1767"
             style="stop-color:#DAE5F2"
             offset="0" />
          <stop
             id="stop1769"
             style="stop-color:#D5E2F1"
             offset="0.2396" />
          <stop
             id="stop1771"
             style="stop-color:#C7D9EE"
             offset="0.5219" />
          <stop
             id="stop1773"
             style="stop-color:#AFCBE9"
             offset="0.8246" />
          <stop
             id="stop1775"
             style="stop-color:#9EC0E6"
             offset="1" />
        </linearGradient>
        <path
           d="m 454,105.9 c -3.8,0 -7.6,2 -9.6,6 l -288,599.6 c -4,8.3 3.8,16.1 12.1,12.2 L 385.1,623.5 c 1.7,-0.8 3.6,-0.9 5.2,-0.3 L 446,118.5 c 0.4,-3.7 4.8,-6.5 8,-6.5 z"
           class="st2"
           id="Left_wing"
           inkscape:connector-curvature="0"
           style="fill:url(#Left_wing_1_)" />
        <linearGradient
           y2="778.39801"
           x2="453.996"
           y1="120.1084"
           x1="453.996"
           gradientUnits="userSpaceOnUse"
           id="Center_1_">
          <stop
             id="stop1779"
             style="stop-color:#FAFCFF"
             offset="0" />
          <stop
             id="stop1781"
             style="stop-color:#CEDCF2"
             offset="1" />
        </linearGradient>
        <path
           d="m 517.7,623.2 c -2,0.7 -3.7,2.2 -4.4,4.3 L 459,784.4 c -1.7,4.7 -8.3,4.7 -10,0 L 394.8,627.6 c -0.8,-2.1 -2.5,-3.7 -4.4,-4.3 l 55.7,-505.6 c 0.8,-7.4 15.1,-7.4 15.9,0 z"
           class="st3"
           id="Center"
           inkscape:connector-curvature="0"
           style="fill:url(#Center_1_)" />
        <linearGradient
           y2="785.66193"
           x2="490.18951"
           y1="125.3789"
           x1="454.26611"
           gradientUnits="userSpaceOnUse"
           id="Center_shadow_1_">
          <stop
             id="stop1785"
             style="stop-color:#D0DEF2"
             offset="0" />
          <stop
             id="stop1787"
             style="stop-color:#72A0DC"
             offset="1" />
        </linearGradient>
        <path
           d="m 461.9,117.6 c -0.4,-3.7 -5.1,-5.5 -7.9,-5.5 v 675.8 c 2.1,0 4.2,-1.2 5,-3.5 l 54.2,-156.8 c 0.8,-2.1 2.4,-3.7 4.4,-4.3 z"
           class="st4"
           id="Center_shadow"
           inkscape:connector-curvature="0"
           style="fill:url(#Center_shadow_1_)" />
        <linearGradient
           gradientTransform="matrix(-1,0,0,1,-2547.8867,0)"
           y2="616.90039"
           x2="-3038.3787"
           y1="119.9964"
           x1="-3038.3787"
           gradientUnits="userSpaceOnUse"
           id="Right_fold_1_">
          <stop
             id="stop1791"
             style="stop-color:#FFFFFF"
             offset="0" />
          <stop
             id="stop1793"
             style="stop-color:#EBF0FF"
             offset="1" />
        </linearGradient>
        <path
           d="m 461.6,115.1 54.3,509 c 0.5,-0.4 1.1,-0.6 1.7,-0.8 0.5,-0.2 1.1,-0.3 1.7,-0.3 L 464.2,114.9 c -0.1,-0.8 -0.5,-1 -1.4,-0.9 -0.9,0 -1.2,0.3 -1.2,1.1 z"
           class="st5"
           id="Right_fold"
           inkscape:connector-curvature="0"
           style="fill:url(#Right_fold_1_)" />
        <linearGradient
           y2="616.90308"
           x2="417.5025"
           y1="120.0052"
           x1="417.5025"
           gradientUnits="userSpaceOnUse"
           id="Left_fold_1_">
          <stop
             id="stop1797"
             style="stop-color:#FFFFFF"
             offset="0" />
          <stop
             id="stop1799"
             style="stop-color:#EBF0FF"
             offset="1" />
        </linearGradient>
        <path
           d="m 446.4,115.1 -54.3,509 c -0.5,-0.4 -1.1,-0.6 -1.7,-0.8 -0.5,-0.2 -1.1,-0.3 -1.7,-0.3 l 55.1,-508.1 c 0.1,-0.8 0.5,-1 1.4,-0.9 0.9,0.1 1.2,0.4 1.2,1.1 z"
           class="st6"
           id="Left_fold"
           inkscape:connector-curvature="0"
           style="fill:url(#Left_fold_1_)" />
        <g
           id="Nose">
          <path
             id="path1803"
             d="m 446.7,124.3 c 5.9,8.7 7.3,25.1 7.3,35.6 0,-10.5 1.4,-26.9 7.3,-35.6 z"
             class="st7"
             inkscape:connector-curvature="0"
             style="fill:#ffffff" />
          <circle
             id="circle1805"
             r="10.6"
             cy="116.5"
             cx="454"
             class="st7"
             style="fill:#ffffff" />
        </g>
        <linearGradient
           y2="778.46033"
           x2="453.99591"
           y1="124.5308"
           x1="453.99591"
           gradientUnits="userSpaceOnUse"
           id="SVGID_1_">
          <stop
             id="stop1808"
             style="stop-color:#FFFFFF"
             offset="0" />
          <stop
             id="stop1810"
             style="stop-color:#CEDCF2"
             offset="1" />
        </linearGradient>
        <path
           id="path1813"
           d="m 454.1,787.9 1.7,-669.6 c 0,-1 -0.8,-1.8 -1.8,-1.8 -1,0 -1.8,0.8 -1.8,1.8 l 1.7,669.6 z"
           class="st8"
           inkscape:connector-curvature="0"
           style="fill:url(#SVGID_1_)" />
      </g>
    </g>
    <circle
       r="487.5127"
       cy="540.36218"
       cx="512"
       id="circle1191-3"
       style="color:#000000;display:inline;overflow:visible;visibility:visible;fill:none;fill-opacity:1;fill-rule:nonzero;stroke:url(#linearGradient1199-6);stroke-width:4.9749999;stroke-miterlimit:4;stroke-dasharray:none;marker:none;enable-background:accumulate" />
    <g
       transform="translate(58,86.36218)"
       id="g2033"
       style="filter:url(#filter2069)">
      <path
         style="fill:url(#BG_1_)"
         inkscape:connector-curvature="0"
         id="path1961"
         class="st0"
         d="M 708,908 H 200 C 89.5,908 0,818.5 0,708 V 200 C 0,89.5 89.5,0 200,0 h 508 c 110.5,0 200,89.5 200,200 v 508 c 0,110.5 -89.5,200 -200,200 z" />
      <g
         id="g2031">
        <linearGradient
           id="linearGradient1967"
           gradientUnits="userSpaceOnUse"
           x1="377.94501"
           y1="142.3918"
           x2="465.2515"
           y2="800.92407">
          <stop
             offset="0"
             style="stop-color:#FFFFFF"
             id="stop1963" />
          <stop
             offset="1"
             style="stop-color:#DAE5F5"
             id="stop1965" />
        </linearGradient>
        <path
           style="fill:url(#Body_1_)"
           inkscape:connector-curvature="0"
           id="path1969"
           class="st1"
           d="m 751.6,711.5 -288,-599.6 c -3.9,-8 -15.3,-8 -19.2,0 l -288,599.6 c -4,8.3 3.8,16.1 12.1,12.2 L 385.1,623.5 c 1.7,-0.8 3.6,-0.9 5.2,-0.3 2,0.7 3.7,2.2 4.4,4.3 L 449,784.4 c 1.7,4.7 8.3,4.7 10,0 l 54.2,-156.8 c 0.8,-2.1 2.4,-3.7 4.4,-4.3 1.7,-0.6 3.5,-0.5 5.2,0.3 l 216.6,100.2 c 8.4,3.9 16.2,-4 12.2,-12.3 z" />
        <linearGradient
           id="linearGradient1981"
           gradientUnits="userSpaceOnUse"
           x1="490.2027"
           y1="142.93159"
           x2="236.3949"
           y2="756.83221">
          <stop
             offset="0"
             style="stop-color:#DAE5F2"
             id="stop1971" />
          <stop
             offset="0.2396"
             style="stop-color:#D5E2F1"
             id="stop1973" />
          <stop
             offset="0.5219"
             style="stop-color:#C7D9EE"
             id="stop1975" />
          <stop
             offset="0.8246"
             style="stop-color:#AFCBE9"
             id="stop1977" />
          <stop
             offset="1"
             style="stop-color:#9EC0E6"
             id="stop1979" />
        </linearGradient>
        <path
           style="fill:url(#Left_wing_1_)"
           inkscape:connector-curvature="0"
           id="path1983"
           class="st2"
           d="m 454,105.9 c -3.8,0 -7.6,2 -9.6,6 l -288,599.6 c -4,8.3 3.8,16.1 12.1,12.2 L 385.1,623.5 c 1.7,-0.8 3.6,-0.9 5.2,-0.3 L 446,118.5 c 0.4,-3.7 4.8,-6.5 8,-6.5 z" />
        <linearGradient
           id="linearGradient1989"
           gradientUnits="userSpaceOnUse"
           x1="453.996"
           y1="120.1084"
           x2="453.996"
           y2="778.39801">
          <stop
             offset="0"
             style="stop-color:#FAFCFF"
             id="stop1985" />
          <stop
             offset="1"
             style="stop-color:#CEDCF2"
             id="stop1987" />
        </linearGradient>
        <path
           style="fill:url(#Center_1_)"
           inkscape:connector-curvature="0"
           id="path1991"
           class="st3"
           d="m 517.7,623.2 c -2,0.7 -3.7,2.2 -4.4,4.3 L 459,784.4 c -1.7,4.7 -8.3,4.7 -10,0 L 394.8,627.6 c -0.8,-2.1 -2.5,-3.7 -4.4,-4.3 l 55.7,-505.6 c 0.8,-7.4 15.1,-7.4 15.9,0 z" />
        <linearGradient
           id="linearGradient1997"
           gradientUnits="userSpaceOnUse"
           x1="454.26611"
           y1="125.3789"
           x2="490.18951"
           y2="785.66193">
          <stop
             offset="0"
             style="stop-color:#D0DEF2"
             id="stop1993" />
          <stop
             offset="1"
             style="stop-color:#72A0DC"
             id="stop1995" />
        </linearGradient>
        <path
           style="fill:url(#Center_shadow_1_)"
           inkscape:connector-curvature="0"
           id="path1999"
           class="st4"
           d="m 461.9,117.6 c -0.4,-3.7 -5.1,-5.5 -7.9,-5.5 v 675.8 c 2.1,0 4.2,-1.2 5,-3.5 l 54.2,-156.8 c 0.8,-2.1 2.4,-3.7 4.4,-4.3 z" />
        <linearGradient
           id="linearGradient2005"
           gradientUnits="userSpaceOnUse"
           x1="-3038.3787"
           y1="119.9964"
           x2="-3038.3787"
           y2="616.90039"
           gradientTransform="matrix(-1,0,0,1,-2547.8867,0)">
          <stop
             offset="0"
             style="stop-color:#FFFFFF"
             id="stop2001" />
          <stop
             offset="1"
             style="stop-color:#EBF0FF"
             id="stop2003" />
        </linearGradient>
        <path
           style="fill:url(#Right_fold_1_)"
           inkscape:connector-curvature="0"
           id="path2007"
           class="st5"
           d="m 461.6,115.1 54.3,509 c 0.5,-0.4 1.1,-0.6 1.7,-0.8 0.5,-0.2 1.1,-0.3 1.7,-0.3 L 464.2,114.9 c -0.1,-0.8 -0.5,-1 -1.4,-0.9 -0.9,0 -1.2,0.3 -1.2,1.1 z" />
        <linearGradient
           id="linearGradient2013"
           gradientUnits="userSpaceOnUse"
           x1="417.5025"
           y1="120.0052"
           x2="417.5025"
           y2="616.90308">
          <stop
             offset="0"
             style="stop-color:#FFFFFF"
             id="stop2009" />
          <stop
             offset="1"
             style="stop-color:#EBF0FF"
             id="stop2011" />
        </linearGradient>
        <path
           style="fill:url(#Left_fold_1_)"
           inkscape:connector-curvature="0"
           id="path2015"
           class="st6"
           d="m 446.4,115.1 -54.3,509 c -0.5,-0.4 -1.1,-0.6 -1.7,-0.8 -0.5,-0.2 -1.1,-0.3 -1.7,-0.3 l 55.1,-508.1 c 0.1,-0.8 0.5,-1 1.4,-0.9 0.9,0.1 1.2,0.4 1.2,1.1 z" />
        <g
           id="g2021">
          <path
             style="fill:#ffffff"
             inkscape:connector-curvature="0"
             class="st7"
             d="m 446.7,124.3 c 5.9,8.7 7.3,25.1 7.3,35.6 0,-10.5 1.4,-26.9 7.3,-35.6 z"
             id="path2017" />
          <circle
             style="fill:#ffffff"
             class="st7"
             cx="454"
             cy="116.5"
             r="10.6"
             id="circle2019" />
        </g>
        <linearGradient
           id="linearGradient2027"
           gradientUnits="userSpaceOnUse"
           x1="453.99591"
           y1="124.5308"
           x2="453.99591"
           y2="778.46033">
          <stop
             offset="0"
             style="stop-color:#FFFFFF"
             id="stop2023" />
          <stop
             offset="1"
             style="stop-color:#CEDCF2"
             id="stop2025" />
        </linearGradient>
        <path
           style="fill:url(#SVGID_1_)"
           inkscape:connector-curvature="0"
           class="st8"
           d="m 454.1,787.9 1.7,-669.6 c 0,-1 -0.8,-1.8 -1.8,-1.8 -1,0 -1.8,0.8 -1.8,1.8 l 1.7,669.6 z"
           id="path2029" />
      </g>
    </g>
  </g>
  <style
     id="style1753"
     type="text/css">
	.st0{fill:url(#BG_1_);}
	.st1{fill:url(#Body_1_);}
	.st2{fill:url(#Left_wing_1_);}
	.st3{fill:url(#Center_1_);}
	.st4{fill:url(#Center_shadow_1_);}
	.st5{fill:url(#Right_fold_1_);}
	.st6{fill:url(#Left_fold_1_);}
	.st7{fill:#FFFFFF;}
	.st8{fill:url(#SVGID_1_);}
</style>
</svg>
