<?xml version="1.0" encoding="UTF-8" standalone="no"?>
<!-- Generator: flash2svg, http://dissentgraphics.com/tools/flash2svg -->

<svg
   xmlns:osb="http://www.openswatchbook.org/uri/2009/osb"
   xmlns:dc="http://purl.org/dc/elements/1.1/"
   xmlns:cc="http://creativecommons.org/ns#"
   xmlns:rdf="http://www.w3.org/1999/02/22-rdf-syntax-ns#"
   xmlns:svg="http://www.w3.org/2000/svg"
   xmlns="http://www.w3.org/2000/svg"
   xmlns:xlink="http://www.w3.org/1999/xlink"
   xmlns:sodipodi="http://sodipodi.sourceforge.net/DTD/sodipodi-0.dtd"
   xmlns:inkscape="http://www.inkscape.org/namespaces/inkscape"
   id="Gimp"
   image-rendering="optimizeSpeed"
   version="1.1"
   style="background-color:#ffffff"
   x="0px"
   y="0px"
   width="1024px"
   height="1024px"
   viewBox="0 0 1024 1024"
   enable-background="new 0 0 1024 1024"
   sodipodi:docname="gimp (another copy).svg"
   inkscape:version="0.92.4 (5da689c313, 2019-01-14)">
  <metadata
     id="metadata58">
    <rdf:RDF>
      <cc:Work
         rdf:about="">
        <dc:format>image/svg+xml</dc:format>
        <dc:type
           rdf:resource="http://purl.org/dc/dcmitype/StillImage" />
        <dc:title />
      </cc:Work>
    </rdf:RDF>
  </metadata>
  <sodipodi:namedview
     pagecolor="#ffffff"
     bordercolor="#666666"
     borderopacity="1"
     objecttolerance="10"
     gridtolerance="10"
     guidetolerance="10"
     inkscape:pageopacity="0"
     inkscape:pageshadow="2"
     inkscape:window-width="1920"
     inkscape:window-height="946"
     id="namedview56"
     showgrid="true"
     inkscape:zoom="0.69824219"
     inkscape:cx="237.73986"
     inkscape:cy="498.39441"
     inkscape:window-x="0"
     inkscape:window-y="25"
     inkscape:window-maximized="1"
     inkscape:current-layer="Gimp"
     inkscape:pagecheckerboard="true">
    <inkscape:grid
       type="xygrid"
       id="grid868" />
  </sodipodi:namedview>
  <defs
     transform="matrix(1 0 0 1 0 0) "
     id="defs2">
    <linearGradient
       id="linearGradient1158"
       gradientUnits="userSpaceOnUse"
       x1="27.5"
       y1="7.333"
       x2="27.5"
       y2="48.752"
       spreadMethod="reflect"
       gradientTransform="matrix(11.945463,0,0,11.945463,-90.813337,-107.26611)">
      <stop
         offset="0"
         style="stop-color:#040000;stop-opacity:1"
         id="stop1154" />
      <stop
         offset="1"
         style="stop-color:#cccccc;stop-opacity:1"
         id="stop1156" />
    </linearGradient>
    <linearGradient
       id="linearGradient947"
       gradientUnits="userSpaceOnUse"
       x1="33"
       y1="7.333"
       x2="33"
       y2="48.752"
       spreadMethod="reflect"
       gradientTransform="matrix(11.945463,0,0,11.945463,-90.813337,-107.26611)">
      <stop
         offset="0"
         style="stop-color:#1aaaff;stop-opacity:1"
         id="stop943" />
      <stop
         offset="1"
         style="stop-color:#c84bff;stop-opacity:1"
         id="stop945" />
    </linearGradient>
    <linearGradient
       id="linear0"
       gradientUnits="userSpaceOnUse"
       x1="27.5"
       y1="7.333"
       x2="27.5"
       y2="48.752"
       spreadMethod="reflect"
       gradientTransform="matrix(11.945463,0,0,11.945463,-90.813337,-107.26611)">
      <stop
         offset="0"
         style="stop-color:#ffffff;stop-opacity:0.93562233"
         id="stop912" />
      <stop
         offset="1"
         style="stop-color:#ffffff;stop-opacity:1"
         id="stop914" />
    </linearGradient>
    <linearGradient
       inkscape:collect="always"
       id="linearGradient2681">
      <stop
         style="stop-color:#ac9393;stop-opacity:1"
         offset="0"
         id="stop2677" />
      <stop
         id="stop2685"
         offset="0.49006578"
         style="stop-color:#7a6565;stop-opacity:1;" />
      <stop
         id="stop2683"
         offset="0.88264573"
         style="stop-color:#ac9393;stop-opacity:1" />
      <stop
         style="stop-color:#483737;stop-opacity:1"
         offset="1"
         id="stop2679" />
    </linearGradient>
    <linearGradient
       id="linearGradient2293"
       osb:paint="solid">
      <stop
         style="stop-color:#bcb8a9;stop-opacity:1;"
         offset="0"
         id="stop2291" />
    </linearGradient>
    <linearGradient
       id="linearGradient4657">
      <stop
         id="stop4653"
         offset="0"
         style="stop-color:#ffffff;stop-opacity:1" />
      <stop
         id="stop4655"
         offset="1"
         style="stop-color:#ffffff;stop-opacity:0;" />
    </linearGradient>
    <radialGradient
       inkscape:collect="always"
       xlink:href="#linear0"
       id="radialGradient2675"
       cx="511.5"
       cy="512.5"
       fx="511.5"
       fy="512.5"
       r="470.5"
       gradientTransform="matrix(0.85015941,0,0,0.85015941,77.143461,76.293312)"
       gradientUnits="userSpaceOnUse"
       spreadMethod="pad" />
    <linearGradient
       gradientTransform="matrix(11.945463,0,0,11.945463,-90.813337,-107.26611)"
       spreadMethod="reflect"
       y2="48.752"
       x2="27.5"
       y1="7.333"
       x1="27.5"
       gradientUnits="userSpaceOnUse"
       id="linear0-3">
      <stop
         id="stop836"
         style="stop-color:#ffffff;stop-opacity:1"
         offset="0" />
      <stop
         id="stop838"
         style="stop-color:#cccccc;stop-opacity:1"
         offset="1" />
    </linearGradient>
    <linearGradient
       gradientTransform="matrix(12.878558,0,0,12.878558,244.62944,222.96474)"
       spreadMethod="reflect"
       y2="48.752"
       x2="7"
       y1="7.333"
       x1="7"
       gradientUnits="userSpaceOnUse"
       id="linear1">
      <stop
         id="stop841"
         style="stop-color:rgb(10.196078%,42.745098%,100%);stop-opacity:1;"
         offset="0" />
      <stop
         id="stop843"
         style="stop-color:rgb(78.431373%,13.333333%,100%);stop-opacity:1;"
         offset="1" />
    </linearGradient>
    <linearGradient
       gradientTransform="matrix(11.945463,0,0,11.945463,-90.813337,-107.26611)"
       spreadMethod="reflect"
       y2="48.751999"
       x2="32"
       y1="7.3330002"
       x1="32"
       gradientUnits="userSpaceOnUse"
       id="linear2">
      <stop
         id="stop846"
         style="stop-color:#ffffff;stop-opacity:1"
         offset="0" />
      <stop
         id="stop848"
         style="stop-color:#e6e6e6;stop-opacity:1"
         offset="1" />
    </linearGradient>
    <linearGradient
       gradientTransform="matrix(11.945463,0,0,11.945463,-90.813337,-107.26611)"
       spreadMethod="reflect"
       y2="48.751999"
       x2="20.5"
       y1="7.3330002"
       x1="20.5"
       gradientUnits="userSpaceOnUse"
       id="linear3">
      <stop
         id="stop851"
         style="stop-color:rgb(10.196078%,42.745098%,100%);stop-opacity:1;"
         offset="0" />
      <stop
         id="stop853"
         style="stop-color:rgb(78.431373%,13.333333%,100%);stop-opacity:1;"
         offset="1" />
    </linearGradient>
    <linearGradient
       gradientTransform="matrix(7.8125,0,0,7.8125,126.27344,148.10156)"
       spreadMethod="reflect"
       y2="56.285"
       x2="48.512"
       y1="39"
       x1="48.512"
       gradientUnits="userSpaceOnUse"
       id="linear4">
      <stop
         id="stop856"
         style="stop-color:rgb(42.745098%,78.039216%,100%);stop-opacity:1;"
         offset="0" />
      <stop
         id="stop858"
         style="stop-color:rgb(90.196078%,67.058824%,100%);stop-opacity:1;"
         offset="1" />
    </linearGradient>
    <linearGradient
       gradientTransform="matrix(11.945463,0,0,11.945463,-90.813337,-107.26611)"
       spreadMethod="reflect"
       y2="48.752"
       x2="33"
       y1="7.333"
       x1="33"
       gradientUnits="userSpaceOnUse"
       id="linear5">
      <stop
         id="stop861"
         style="stop-color:#1a8cff;stop-opacity:1"
         offset="0" />
      <stop
         id="stop863"
         style="stop-color:#0048d8;stop-opacity:1"
         offset="1" />
    </linearGradient>
    <radialGradient
       inkscape:collect="always"
       xlink:href="#linearGradient4657"
       id="radialGradient6921"
       cx="100"
       cy="82.38073"
       fx="100"
       fy="82.38073"
       r="100"
       gradientUnits="userSpaceOnUse"
       gradientTransform="matrix(4.705,0,0,3.533613,-1487.8889,208.01875)" />
    <filter
       style="color-interpolation-filters:sRGB;"
       inkscape:label="Drop Shadow"
       id="filter1152">
      <feFlood
         flood-opacity="1"
         flood-color="rgb(0,0,0)"
         result="flood"
         id="feFlood1142" />
      <feComposite
         in="flood"
         in2="SourceGraphic"
         operator="out"
         result="composite1"
         id="feComposite1144" />
      <feGaussianBlur
         in="composite1"
         stdDeviation="2.6"
         result="blur"
         id="feGaussianBlur1146" />
      <feOffset
         dx="0"
         dy="-3.7"
         result="offset"
         id="feOffset1148" />
      <feComposite
         in="SourceGraphic"
         in2="offset"
         operator="in"
         result="composite2"
         id="feComposite1150" />
    </filter>
    <filter
       style="color-interpolation-filters:sRGB;"
       inkscape:label="Drop Shadow"
       id="filter1232">
      <feFlood
         flood-opacity="0.294118"
         flood-color="rgb(0,0,0)"
         result="flood"
         id="feFlood1222" />
      <feComposite
         in="SourceGraphic"
         in2="flood"
         operator="in"
         result="composite1"
         id="feComposite1224" />
      <feGaussianBlur
         in="composite1"
         stdDeviation="3"
         result="blur"
         id="feGaussianBlur1226" />
      <feOffset
         dx="0"
         dy="3"
         result="offset"
         id="feOffset1228" />
      <feComposite
         in="SourceGraphic"
         in2="offset"
         operator="over"
         result="composite2"
         id="feComposite1230" />
    </filter>
    <linearGradient
       inkscape:collect="always"
       xlink:href="#linear4"
       id="linearGradient883"
       gradientUnits="userSpaceOnUse"
       gradientTransform="matrix(0.83007813,0,0,0.83007813,87,87)"
       x1="520.03137"
       y1="2.0078433"
       x2="520.03137"
       y2="1026.0078"
       spreadMethod="pad" />
    <radialGradient
       inkscape:collect="always"
       xlink:href="#linearGradient2681"
       id="radialGradient941"
       gradientUnits="userSpaceOnUse"
       gradientTransform="translate(1200.3601,92.877572)"
       cx="511.5"
       cy="512.5"
       fx="511.5"
       fy="512.5"
       r="470.5" />
    <linearGradient
       inkscape:collect="always"
       xlink:href="#linear1"
       id="linearGradient950"
       x1="520"
       y1="264"
       x2="520"
       y2="764"
       gradientUnits="userSpaceOnUse"
       spreadMethod="pad"
       gradientTransform="translate(-1.9327824e-5,-20.000007)" />
    <linearGradient
       gradientTransform="translate(-1e-5)"
       inkscape:collect="always"
       xlink:href="#linearGradient940"
       id="linearGradient850"
       x1="520"
       y1="24"
       x2="520"
       y2="1004"
       gradientUnits="userSpaceOnUse" />
    <linearGradient
       id="linearGradient940">
      <stop
         id="stop936"
         offset="0"
         style="stop-color:#f6f7f7;stop-opacity:1" />
      <stop
         id="stop938"
         offset="1"
         style="stop-color:#dce7f0;stop-opacity:1" />
    </linearGradient>
    <filter
       inkscape:collect="always"
       style="color-interpolation-filters:sRGB"
       id="filter906"
       x="-0.035999998"
       width="1.072"
       y="-0.035999998"
       height="1.072">
      <feGaussianBlur
         inkscape:collect="always"
         stdDeviation="13.928347"
         id="feGaussianBlur908" />
    </filter>
  </defs>
  <circle
     style="color:#000000;display:inline;overflow:visible;visibility:visible;opacity:0.2;fill:url(#radialGradient6921);fill-opacity:1;fill-rule:nonzero;stroke:none;stroke-width:42.97708511;marker:none;enable-background:accumulate"
     id="path4188-6-4"
     cx="-1017.3889"
     cy="602.09998"
     r="470.5" />
  <circle
     r="490"
     cy="512"
     cx="512"
     id="circle842"
     style="opacity:1;fill:url(#linearGradient850);fill-opacity:1;fill-rule:evenodd;stroke:none;stroke-width:18.71105576;stroke-linecap:round;stroke-linejoin:round;stroke-miterlimit:4;stroke-dasharray:none;stroke-opacity:1;paint-order:stroke markers fill" />
  <circle
     style="opacity:0.15;fill:none;fill-opacity:1;fill-rule:evenodd;stroke:#2faff1;stroke-width:21.44400024;stroke-linecap:round;stroke-linejoin:round;stroke-miterlimit:4;stroke-dasharray:none;stroke-opacity:1;paint-order:stroke markers fill;filter:url(#filter906)"
     id="circle896"
     cx="512"
     cy="512"
     r="464.27823" />
  <path
     inkscape:connector-curvature="0"
     style="fill:url(#linearGradient883);fill-opacity:1;stroke-width:0.90042377;opacity:0.78"
     d="m 906.07046,349.29343 q -7.74364,-18.77383 -17.46825,-36.78231 c -3.6467,-6.79819 -7.51851,-13.55138 -11.61545,-20.16949 C 859.38347,263.7982 837.90837,236.83051 812.56144,211.48358 729.58739,128.50953 629.37023,87 512,87 394.62977,87 294.45763,128.50953 211.48358,211.48358 128.50953,294.45763 87,394.62977 87,512 87,629.37023 128.50953,729.58739 211.48358,812.56144 294.45763,895.53549 394.62977,937 512,937 629.37023,937 729.58739,895.53549 812.56144,812.56144 858.25794,766.81991 891.39352,715.85593 911.92318,659.71451 928.62609,613.92797 937,564.71981 937,512 c 0,-40.42903 -4.90734,-78.8321 -14.76692,-115.20922 -1.12558,-4.09692 -2.29608,-8.19386 -3.51166,-12.24576 -3.69176,-11.97564 -7.92375,-23.72616 -12.65096,-35.25159 z"
     id="path881" />
  <path
     inkscape:connector-curvature="0"
     style="opacity:0.26000001;fill:url(#radialGradient2675);fill-opacity:1;stroke-width:0.84482241"
     d="m 693.75583,156.91769 c -7.3498,-3.67507 -15.0797,-7.30789 -23.02087,-10.72951 -7.26529,-3.16816 -14.48833,-6.08287 -21.8803,-8.78637 -35.56616,-13.30629 -71.17458,-21.41679 -106.82517,-24.20477 -58.6292,-4.73112 -117.38516,4.56216 -176.47898,27.87984 -19.81058,7.85704 -38.56518,16.81238 -56.2638,26.95051 -34.89029,20.0228 -65.55656,44.48101 -91.66096,73.24793 Q 174.034,289.09347 146.19783,353.25934 c -17.10725,39.41195 -27.75176,78.95064 -31.97569,117.98241 -0.38019,3.75955 -0.71813,7.26565 -1.01381,10.77175 -3.12578,38.52487 -0.16893,76.66956 8.65921,114.89873 4.81539,20.74091 11.19362,41.18612 19.21921,61.54685 23.40107,59.0968 56.81292,108.47791 100.15124,147.93211 26.56902,24.20478 56.77067,44.64998 90.64715,61.50461 0.12675,0.0425 0.21126,0.0842 0.29568,0.12676 2.61892,1.3095 5.15333,2.5345 7.30755,3.50606 4.13951,1.98538 7.81441,3.67507 11.48931,5.28026 0.92931,0.38019 1.6051,0.71812 2.32323,1.01381 7.98333,3.46389 15.96667,6.63201 23.5699,9.46227 1.98529,0.71813 3.80166,1.39401 5.57569,2.02763 16.09351,5.66045 32.27145,10.26483 48.0692,13.77097 6.67392,1.43626 13.34793,2.74576 19.85284,3.844 0.80255,0.16901 1.64735,0.25343 2.28098,0.38019 9.84195,1.56302 19.5994,2.74576 29.35685,3.54831 58.96714,4.60446 117.59635,-4.6888 176.43673,-27.92204 20.57097,-8.11052 39.95911,-17.44601 58.12234,-28.00656 29.65254,-17.19257 56.13704,-37.59555 79.49585,-61.25116 3.50589,-3.54834 6.92736,-7.18118 10.34882,-10.89849 7.09628,-7.8148 13.93922,-16.00978 20.48638,-24.58495 16.93832,-22.09265 31.72234,-46.55087 44.43656,-73.24794 2.19647,-4.64664 4.35077,-9.37775 6.46274,-14.23561 0.21118,-0.50691 0.46461,-1.05606 0.67588,-1.56296 0.12667,-0.25346 0.21118,-0.50691 0.33785,-0.76036 2.36548,-5.57597 4.60421,-11.19417 6.84293,-16.89687 9.84196,-25.89445 17.02274,-52.08461 21.41569,-78.61269 0.59137,-3.71731 1.18274,-7.73032 1.77411,-11.74333 0.7603,-6.2096 1.47843,-12.54593 1.98529,-19.09347 0.0842,-1.22503 0.21118,-2.66125 0.33794,-4.18198 1.09824,-16.30547 1.09824,-32.69543 0.0842,-49.33885 -0.38019,-5.40701 -0.84481,-10.89849 -1.43618,-16.55894 -0.16901,-1.56296 -0.38019,-3.25264 -0.59137,-4.94233 -1.68961,-13.85544 -4.18176,-27.75312 -7.56098,-41.98872 -4.6042,-19.55814 -10.85568,-39.49645 -18.7546,-59.47699 C 859.63225,306.62397 826.30489,257.36959 782.71314,217.6197 766.87305,203.17288 749.47021,189.90883 730.7156,177.9543 719.01546,170.43519 706.80802,163.50748 693.75586,156.91769 Z"
     id="path2673" />
  <path
     sodipodi:type="star"
     style="opacity:1;fill:url(#linearGradient950);fill-opacity:1;fill-rule:evenodd;stroke:none;stroke-width:2.46389484;stroke-linecap:butt;stroke-linejoin:round;stroke-miterlimit:4;stroke-dasharray:none;stroke-opacity:1;paint-order:stroke fill markers"
     id="path937"
     sodipodi:sides="5"
     sodipodi:cx="513.04254"
     sodipodi:cy="512.34021"
     sodipodi:r1="260.76221"
     sodipodi:r2="130.3811"
     sodipodi:arg1="0.92729522"
     sodipodi:arg2="1.5556137"
     inkscape:flatsided="false"
     inkscape:rounded="0.36"
     inkscape:randomized="0"
     d="m 669.49987,720.94998 c -49.871,37.40325 -92.14632,-79.19012 -154.47788,-78.24369 -62.33156,0.94642 -101.04756,118.76954 -152.03115,82.89764 -50.98359,-35.87189 46.8395,-112.10744 26.67788,-171.09582 -20.16162,-58.98838 -144.18196,-59.40013 -125.82056,-118.97344 18.36141,-59.5733 121.09472,9.90391 170.96571,-27.49934 49.871,-37.40325 11.93822,-155.48084 74.26978,-156.42727 62.33156,-0.94643 28.00115,118.22839 78.98474,154.10029 50.98359,35.8719 151.56018,-36.69231 171.7218,22.29607 20.16162,58.98837 -103.78905,63.16525 -122.15046,122.73855 -18.36141,59.57331 81.73113,132.80375 31.86014,170.20701 z"
     inkscape:transform-center-x="1.2233621"
     inkscape:transform-center-y="-23.734215" />
  <path
     id="path939"
     d="m 1925.6504,187.712 c -8.6452,-4.3228 -17.7375,-8.59591 -27.0783,-12.62059 -8.5458,-3.72655 -17.0419,-7.15498 -25.7367,-10.33497 -41.8347,-15.65152 -83.7191,-25.19149 -125.6531,-28.47086 -68.9626,-5.56498 -138.0743,5.36624 -207.5834,32.79366 -23.3022,9.24185 -45.3623,19.77557 -66.1803,31.70054 -41.0397,23.55182 -77.1109,52.32079 -107.8162,86.15788 q -51.2748,56.2461 -84.0171,131.72121 c -20.1224,46.3583 -32.643,92.86568 -37.6114,138.7768 -0.4472,4.42217 -0.8447,8.54622 -1.1925,12.67027 -3.6767,45.31488 -0.1987,90.18257 10.1854,135.14963 5.6641,24.3965 13.1665,48.44518 22.6066,72.39449 27.5255,69.51261 66.8262,127.59714 117.8029,174.00514 31.2518,28.47087 66.7765,52.5195 106.6237,72.3448 0.1491,0.05 0.2485,0.099 0.3478,0.1491 3.0805,1.5403 6.0616,2.9812 8.5955,4.124 4.8691,2.3353 9.1917,4.3228 13.5143,6.2109 1.0931,0.4472 1.888,0.8447 2.7327,1.1925 9.3904,4.0744 18.7808,7.8009 27.7241,11.13 2.3352,0.8447 4.4717,1.6397 6.5584,2.385 18.93,6.6581 37.9593,12.074 56.5414,16.1981 7.8502,1.6894 15.7005,3.2297 23.3519,4.5215 0.944,0.1988 1.9377,0.2981 2.683,0.4472 11.5766,1.8385 23.0538,3.2297 34.531,4.1737 69.3601,5.416 138.3227,-5.5152 207.5337,-32.8433 24.1966,-9.54 47.0019,-20.5209 68.3664,-32.9427 34.8788,-20.22277 66.0312,-44.22178 93.507,-72.04669 4.1238,-4.17374 8.1483,-8.44686 12.1728,-12.81935 8.347,-9.19216 16.396,-18.8315 24.0971,-28.91805 19.9237,-25.98648 37.3134,-54.75546 52.2685,-86.15788 2.5836,-5.46561 5.1176,-11.03058 7.6018,-16.74464 0.2484,-0.59625 0.5465,-1.24219 0.795,-1.83843 0.149,-0.29813 0.2484,-0.59625 0.3974,-0.89438 2.7824,-6.55873 5.4157,-13.16714 8.049,-19.87494 11.5766,-30.45835 20.023,-61.26452 25.1902,-92.46818 0.6956,-4.37248 1.3912,-9.09279 2.0868,-13.81309 0.8943,-7.30404 1.739,-14.75715 2.3352,-22.45869 0.099,-1.44094 0.2484,-3.1303 0.3975,-4.91905 1.2918,-19.17931 1.2918,-38.45801 0.099,-58.03483 -0.4472,-6.35999 -0.9937,-12.81934 -1.6893,-19.47745 -0.1988,-1.83843 -0.4472,-3.82592 -0.6956,-5.81342 -1.9874,-16.29746 -4.9188,-32.6446 -8.8936,-49.38923 -5.4157,-23.00526 -12.769,-46.45769 -22.0601,-69.95981 -27.3764,-69.31388 -66.5777,-127.24934 -117.8525,-174.00515 -18.6319,-16.99307 -39.102,-32.59491 -61.1621,-46.65643 -13.7623,-8.84435 -28.1213,-16.99307 -43.4739,-24.74431 z"
     style="opacity:0.26000001;fill:url(#radialGradient941);fill-opacity:1;stroke-width:0.99372238"
     inkscape:connector-curvature="0" />
</svg>
