<?xml version="1.0" encoding="UTF-8" standalone="no"?>
<!-- Created with Inkscape (http://www.inkscape.org/) -->

<svg
   xmlns:dc="http://purl.org/dc/elements/1.1/"
   xmlns:cc="http://creativecommons.org/ns#"
   xmlns:rdf="http://www.w3.org/1999/02/22-rdf-syntax-ns#"
   xmlns:svg="http://www.w3.org/2000/svg"
   xmlns="http://www.w3.org/2000/svg"
   xmlns:xlink="http://www.w3.org/1999/xlink"
   xmlns:sodipodi="http://sodipodi.sourceforge.net/DTD/sodipodi-0.dtd"
   xmlns:inkscape="http://www.inkscape.org/namespaces/inkscape"
   width="1024"
   height="1024"
   viewBox="0 0 270.93333 270.93334"
   version="1.1"
   id="svg8"
   inkscape:version="0.92.4 (5da689c313, 2019-01-14)"
   sodipodi:docname="system-software-update.svg">
  <defs
     id="defs2">
    <linearGradient
       id="linearGradient1070"
       inkscape:collect="always">
      <stop
         id="stop1066"
         offset="0"
         style="stop-color:#333333;stop-opacity:1" />
      <stop
         id="stop1068"
         offset="1"
         style="stop-color:#1a1a1a;stop-opacity:1" />
    </linearGradient>
    <linearGradient
       inkscape:collect="always"
       id="linearGradient892">
      <stop
         style="stop-color:#1a1a1a;stop-opacity:1"
         offset="0"
         id="stop888" />
      <stop
         style="stop-color:#1a1a1a;stop-opacity:1"
         offset="1"
         id="stop890" />
    </linearGradient>
    <mask
       maskUnits="userSpaceOnUse"
       id="mask1423">
      <g
         id="g1427"
         transform="matrix(0.39801054,0,0,0.39801054,-65.23909,-35.182402)">
        <path
           style="fill:#f3f5f6"
           inkscape:connector-curvature="0"
           id="path1425"
           d="M 777.6,216.5 H 511 l -14.4,33 -13.6,40 -12,46.7 -8.7,43.3 -7.3,44.7 -4.7,46 -1.3,24 c 0,7.6 6,13.7 13.3,13.7 h 66 c 7.2,0 13,5.8 13,13 v 18.7 43.3 31 l 1.7,33 3.3,39 4.3,40 4,25.3 5.3,31.3 2.9,16 h 214.7 c 15.9,0 29,-13.1 29,-29 v -524 c 0.1,-16 -12.9,-29 -28.9,-29 z" />
      </g>
    </mask>
    <linearGradient
       gradientTransform="matrix(0.26458333,0,0,0.26458333,-186.10792,29.929567)"
       y2="798.46222"
       x2="375.13599"
       y1="216.4622"
       x1="375.13599"
       gradientUnits="userSpaceOnUse"
       id="SVGID_1_">
      <stop
         id="stop60"
         style="stop-color:#1FD4FF"
         offset="0" />
      <stop
         id="stop62"
         style="stop-color:#1F74F4"
         offset="1" />
    </linearGradient>
    <linearGradient
       inkscape:collect="always"
       xlink:href="#linearGradient892"
       id="linearGradient894"
       x1="132.29164"
       y1="50.937485"
       x2="132.29167"
       y2="270.54166"
       gradientUnits="userSpaceOnUse"
       gradientTransform="translate(3.0118002e-5,-1.7985027e-6)" />
    <linearGradient
       id="linearGradient868">
      <stop
         id="stop864"
         offset="0"
         style="stop-color:#cecece;stop-opacity:1" />
      <stop
         id="stop866"
         offset="1"
         style="stop-color:#b3b3b3;stop-opacity:1" />
    </linearGradient>
    <linearGradient
       inkscape:collect="always"
       xlink:href="#linearGradient1070"
       id="linearGradient1115"
       gradientUnits="userSpaceOnUse"
       x1="132.29167"
       y1="48.291649"
       x2="132.29167"
       y2="132.95831" />
    <filter
       inkscape:collect="always"
       style="color-interpolation-filters:sRGB"
       id="filter980"
       x="-0.011553325"
       width="1.0231066"
       y="-0.012482603"
       height="1.0249652">
      <feGaussianBlur
         inkscape:collect="always"
         stdDeviation="1.1196871"
         id="feGaussianBlur982" />
    </filter>
  </defs>
  <sodipodi:namedview
     id="base"
     pagecolor="#ffffff"
     bordercolor="#666666"
     borderopacity="1.0"
     inkscape:pageopacity="0.0"
     inkscape:pageshadow="2"
     inkscape:zoom="0.86334249"
     inkscape:cx="512"
     inkscape:cy="509.10429"
     inkscape:document-units="mm"
     inkscape:current-layer="g844"
     showgrid="true"
     showguides="true"
     inkscape:pagecheckerboard="true"
     units="px"
     inkscape:window-width="1920"
     inkscape:window-height="961"
     inkscape:window-x="0"
     inkscape:window-y="25"
     inkscape:window-maximized="1">
    <inkscape:grid
       type="xygrid"
       id="grid815" />
  </sodipodi:namedview>
  <metadata
     id="metadata5">
    <rdf:RDF>
      <cc:Work
         rdf:about="">
        <dc:format>image/svg+xml</dc:format>
        <dc:type
           rdf:resource="http://purl.org/dc/dcmitype/StillImage" />
        <dc:title></dc:title>
      </cc:Work>
    </rdf:RDF>
  </metadata>
  <g
     inkscape:label="Layer 1"
     inkscape:groupmode="layer"
     id="layer1"
     transform="translate(0,-26.06665)">
    <g
       id="g844">
      <rect
         rx="11.4"
         y="51.334358"
         x="16.404167"
         height="220.39792"
         width="238.125"
         id="rect1383"
         style="opacity:1;fill:url(#linearGradient894);fill-opacity:1;fill-rule:evenodd;stroke:none;stroke-width:20.83175087;stroke-linejoin:round;stroke-miterlimit:4;stroke-dasharray:none;stroke-opacity:0;paint-order:stroke markers fill" />
      <path
         style="opacity:1;fill:url(#linearGradient1115);fill-opacity:1;fill-rule:evenodd;stroke:none;stroke-width:20.83175087;stroke-linejoin:round;stroke-miterlimit:4;stroke-dasharray:none;stroke-opacity:0;paint-order:stroke markers fill"
         d="m 27.803988,51.334358 c -6.3156,0 -11.399822,5.08422 -11.399822,11.399821 V 106.49998 H 254.52916 V 62.734179 c 0,-6.315601 -5.08422,-11.399821 -11.39982,-11.399821 z"
         id="rect1113"
         inkscape:connector-curvature="0" />
      <rect
         style="opacity:0.1;fill:none;fill-opacity:1;fill-rule:evenodd;stroke:#ffffff;stroke-width:3;stroke-linecap:round;stroke-linejoin:round;stroke-miterlimit:4;stroke-dasharray:none;stroke-opacity:1;paint-order:markers fill stroke;filter:url(#filter980)"
         id="rect932"
         width="232.59531"
         height="215.27954"
         x="19.169022"
         y="53.893551"
         rx="11.135269" />
      <circle
         style="opacity:1;fill:#666666;fill-opacity:1;fill-rule:evenodd;stroke:none;stroke-width:0.75;stroke-linecap:round;stroke-linejoin:round;stroke-miterlimit:4;stroke-dasharray:none;stroke-opacity:1;paint-order:markers fill stroke"
         id="path1086"
         cx="51.407288"
         cy="79.06144"
         r="14.365623" />
      <g
         id="g885"
         transform="matrix(2.1154096,0,0,2.1154096,-124.80649,-212.45413)"
         style="stroke:none;stroke-opacity:1;fill:#666666;fill-opacity:1">
        <path
           id="path853"
           d="m 104.33954,189.29941 c 0,-7.77902 6.44784,-18.55528 18.55667,-18.55528 4.87274,0 9.02477,2.03123 12.04129,4.54752 l -4.16856,-0.10611 h -0.0634 c -1.36426,-0.0165 -2.48322,1.07487 -2.50114,2.43913 -0.0165,1.36288 1.07487,2.48323 2.43913,2.49976 l 9.40235,0.23702 c 0.84887,0.23014 1.757,-0.011 2.38125,-0.63251 0.62288,-0.62012 0.86955,-1.52549 0.6463,-2.37712 l -0.23977,-9.41889 c -0.0331,-1.33945 -1.13,-2.40743 -2.46945,-2.40743 h -0.0634 c -1.36426,0.0345 -2.44051,1.16857 -2.40605,2.53145 l 0.0841,3.31694 c -4.22094,-3.56499 -9.55808,-5.53696 -15.08263,-5.56865 -14.05461,0 -23.49555,12.14878 -23.49555,23.49417 0,1.36426 1.10518,2.46945 2.46944,2.46945 1.36426,0 2.46944,-1.10519 2.46944,-2.46945 z m 0,0"
           inkscape:connector-curvature="0"
           style="fill:#666666;stroke-width:0.35277778;stroke:none;stroke-opacity:1;fill-opacity:1" />
        <path
           id="path855"
           d="m 144.20343,186.82997 c -1.36425,0 -2.46944,1.10656 -2.46944,2.46944 0,7.78041 -6.44784,18.55666 -18.55666,18.55666 -4.87275,0 -9.02477,-2.03122 -12.0413,-4.54752 l 4.16856,0.10611 c 1.36426,0.0345 2.49839,-1.04318 2.53284,-2.40744 0.0345,-1.36425 -1.04318,-2.497 -2.40743,-2.53145 l -9.40374,-0.2384 c -0.84887,-0.22876 -1.75562,0.0124 -2.37987,0.63389 -0.62287,0.62012 -0.86954,1.52549 -0.6463,2.37574 l 0.23978,9.42027 c 0.0331,1.33946 1.12999,2.40743 2.46944,2.40606 h 0.0634 c 1.36426,-0.0345 2.44051,-1.1672 2.40606,-2.53146 l -0.0841,-3.31556 c 4.22093,3.56499 9.55807,5.53558 15.08263,5.56865 14.05461,0 23.49555,-12.14878 23.49555,-23.49555 0,-1.36288 -1.10519,-2.46944 -2.46945,-2.46944 z m 0,0"
           inkscape:connector-curvature="0"
           style="fill:#666666;stroke-width:0.35277778;stroke:none;stroke-opacity:1;fill-opacity:1" />
      </g>
      <circle
         r="14.365623"
         cy="79.06144"
         cx="93.740608"
         id="circle887"
         style="opacity:1;fill:#666666;fill-opacity:1;fill-rule:evenodd;stroke:none;stroke-width:0.75;stroke-linecap:round;stroke-linejoin:round;stroke-miterlimit:4;stroke-dasharray:none;stroke-opacity:1;paint-order:markers fill stroke" />
      <circle
         style="opacity:1;fill:#666666;fill-opacity:1;fill-rule:evenodd;stroke:none;stroke-width:0.75;stroke-linecap:round;stroke-linejoin:round;stroke-miterlimit:4;stroke-dasharray:none;stroke-opacity:1;paint-order:markers fill stroke"
         id="circle889"
         cx="136.07393"
         cy="79.06144"
         r="14.365623" />
    </g>
  </g>
</svg>
