<?xml version="1.0" encoding="UTF-8" standalone="no"?>
<!-- Created with Inkscape (http://www.inkscape.org/) -->

<svg
   xmlns:dc="http://purl.org/dc/elements/1.1/"
   xmlns:cc="http://creativecommons.org/ns#"
   xmlns:rdf="http://www.w3.org/1999/02/22-rdf-syntax-ns#"
   xmlns:svg="http://www.w3.org/2000/svg"
   xmlns="http://www.w3.org/2000/svg"
   xmlns:xlink="http://www.w3.org/1999/xlink"
   xmlns:sodipodi="http://sodipodi.sourceforge.net/DTD/sodipodi-0.dtd"
   xmlns:inkscape="http://www.inkscape.org/namespaces/inkscape"
   width="1024"
   height="1024"
   viewBox="0 0 270.93333 270.93334"
   version="1.1"
   id="svg8"
   inkscape:version="0.92.4 (5da689c313, 2019-01-14)"
   sodipodi:docname="calendar.svg">
  <defs
     id="defs2">
    <linearGradient
       id="linearGradient912"
       inkscape:collect="always">
      <stop
         id="stop908"
         offset="0"
         style="stop-color:#f85015;stop-opacity:1" />
      <stop
         id="stop910"
         offset="1"
         style="stop-color:#ee3009;stop-opacity:1" />
    </linearGradient>
    <mask
       maskUnits="userSpaceOnUse"
       id="mask1423">
      <g
         id="g1427"
         transform="matrix(0.39801054,0,0,0.39801054,-65.23909,-35.182402)">
        <path
           style="fill:#f3f5f6"
           inkscape:connector-curvature="0"
           id="path1425"
           d="M 777.6,216.5 H 511 l -14.4,33 -13.6,40 -12,46.7 -8.7,43.3 -7.3,44.7 -4.7,46 -1.3,24 c 0,7.6 6,13.7 13.3,13.7 h 66 c 7.2,0 13,5.8 13,13 v 18.7 43.3 31 l 1.7,33 3.3,39 4.3,40 4,25.3 5.3,31.3 2.9,16 h 214.7 c 15.9,0 29,-13.1 29,-29 v -524 c 0.1,-16 -12.9,-29 -28.9,-29 z" />
      </g>
    </mask>
    <linearGradient
       gradientTransform="matrix(0.26458333,0,0,0.26458333,-186.10792,29.929567)"
       y2="798.46222"
       x2="375.13599"
       y1="216.4622"
       x1="375.13599"
       gradientUnits="userSpaceOnUse"
       id="SVGID_1_">
      <stop
         id="stop60"
         style="stop-color:#1FD4FF"
         offset="0" />
      <stop
         id="stop62"
         style="stop-color:#1F74F4"
         offset="1" />
    </linearGradient>
    <linearGradient
       inkscape:collect="always"
       xlink:href="#linearGradient940"
       id="linearGradient894"
       x1="137.58331"
       y1="117.08331"
       x2="137.58331"
       y2="334.04166"
       gradientUnits="userSpaceOnUse"
       gradientTransform="translate(2.1279714e-5)" />
    <filter
       inkscape:collect="always"
       style="color-interpolation-filters:sRGB"
       id="filter864"
       x="-0.011553324"
       width="1.0231066"
       y="-0.012482603"
       height="1.0249652">
      <feGaussianBlur
         inkscape:collect="always"
         stdDeviation="1.1358682"
         id="feGaussianBlur866" />
    </filter>
    <linearGradient
       id="linearGradient940">
      <stop
         id="stop936"
         offset="0"
         style="stop-color:#f6f7f7;stop-opacity:1" />
      <stop
         id="stop938"
         offset="1"
         style="stop-color:#dce7f0;stop-opacity:1" />
    </linearGradient>
    <filter
       style="color-interpolation-filters:sRGB"
       inkscape:label="Drop Shadow"
       id="filter1338">
      <feFlood
         flood-opacity="0.294118"
         flood-color="rgb(0,0,0)"
         result="flood"
         id="feFlood1328" />
      <feComposite
         in="flood"
         in2="SourceGraphic"
         operator="in"
         result="composite1"
         id="feComposite1330" />
      <feGaussianBlur
         in="composite1"
         stdDeviation="3"
         result="blur"
         id="feGaussianBlur1332" />
      <feOffset
         dx="0"
         dy="3"
         result="offset"
         id="feOffset1334" />
      <feComposite
         in="SourceGraphic"
         in2="offset"
         operator="over"
         result="composite2"
         id="feComposite1336" />
    </filter>
    <filter
       style="color-interpolation-filters:sRGB;"
       inkscape:label="Drop Shadow"
       id="filter1068">
      <feFlood
         flood-opacity="0.498039"
         flood-color="rgb(0,0,0)"
         result="flood"
         id="feFlood1058" />
      <feComposite
         in="flood"
         in2="SourceGraphic"
         operator="in"
         result="composite1"
         id="feComposite1060" />
      <feGaussianBlur
         in="composite1"
         stdDeviation="2"
         result="blur"
         id="feGaussianBlur1062" />
      <feOffset
         dx="0"
         dy="4"
         result="offset"
         id="feOffset1064" />
      <feComposite
         in="SourceGraphic"
         in2="offset"
         operator="over"
         result="composite2"
         id="feComposite1066" />
    </filter>
    <linearGradient
       inkscape:collect="always"
       xlink:href="#linearGradient912"
       id="linearGradient1112"
       gradientUnits="userSpaceOnUse"
       gradientTransform="matrix(3.7795276,0,0,3.7795276,7.433071e-5,-98.519631)"
       x1="132.29164"
       y1="48.291653"
       x2="132.29164"
       y2="122.37498" />
  </defs>
  <sodipodi:namedview
     id="base"
     pagecolor="#ffffff"
     bordercolor="#666666"
     borderopacity="1.0"
     inkscape:pageopacity="0.0"
     inkscape:pageshadow="2"
     inkscape:zoom="0.703125"
     inkscape:cx="612.97778"
     inkscape:cy="484.97777"
     inkscape:document-units="mm"
     inkscape:current-layer="g844"
     showgrid="true"
     showguides="true"
     inkscape:pagecheckerboard="true"
     units="px"
     inkscape:window-width="1920"
     inkscape:window-height="1055"
     inkscape:window-x="0"
     inkscape:window-y="25"
     inkscape:window-maximized="1">
    <inkscape:grid
       type="xygrid"
       id="grid815" />
  </sodipodi:namedview>
  <metadata
     id="metadata5">
    <rdf:RDF>
      <cc:Work
         rdf:about="">
        <dc:format>image/svg+xml</dc:format>
        <dc:type
           rdf:resource="http://purl.org/dc/dcmitype/StillImage" />
        <dc:title />
      </cc:Work>
    </rdf:RDF>
  </metadata>
  <g
     inkscape:label="Layer 1"
     inkscape:groupmode="layer"
     id="layer1"
     transform="translate(0,-26.06665)">
    <g
       id="g844">
      <rect
         rx="11.4"
         y="51.334358"
         x="16.404167"
         height="220.39792"
         width="238.125"
         id="rect1383"
         style="opacity:1;fill:url(#linearGradient894);fill-opacity:1;fill-rule:evenodd;stroke:none;stroke-width:20.83175087;stroke-linejoin:round;stroke-miterlimit:4;stroke-dasharray:none;stroke-opacity:0;paint-order:stroke markers fill" />
      <g
         id="txt"
         transform="matrix(0.2635498,0,0,0.2635498,8.2716254,52.607419)">
        <g
           id="drawingObject">
          <path
             id="path1"
             d="m 696.639,393.763 30.641,-53.41 -5.65,-29.046 -225.373,43.839 5.65,29.045 193.907,-37.718 c -19.085,32.462 -34.667,62.846 -46.962,91.475 -14.438,37.698 -23.722,66.02 -28.226,84.48 -6.699,27.261 -10.605,54.537 -11.611,82.366 0.286,37.346 1.693,66.1 4.219,86.263 l 33.887,-6.591 c -5.748,-41.029 -6.565,-79.667 -2.399,-115.646 2.92,-23.735 9.701,-56.315 20.344,-97.741 9.343,-29.45 19.958,-55.239 31.573,-77.316 z M 457.783,457.25 c -3.191,-16.405 -8.706,-30.405 -16.76,-41.678 -8.002,-11.003 -17.572,-20.027 -28.876,-26.481 -11.52,-6.133 -24.288,-10.069 -38.251,-11.54 -13.963,-1.471 -28.635,-0.85 -43.965,2.132 -18.825,3.662 -34.655,9.812 -47.706,18.77 -13.051,8.958 -23.21,19.866 -30.478,32.724 -7.268,12.857 -11.481,27.074 -13.071,43.293 -1.59,16.219 -0.551,33.043 3.492,50.958 l 31.466,-6.121 c -2.832,-13.126 -4.163,-25.707 -3.454,-37.846 0.44,-12.088 3.024,-23.197 7.7,-33.597 4.46,-10.078 11.384,-18.961 20.558,-26.328 9.226,-7.098 21.074,-12.193 35.328,-14.966 10.488,-2.04 21.022,-2.415 31.01,-1.287 10.041,1.396 19.268,4.347 27.732,9.12 8.465,4.773 15.578,11.205 21.338,19.295 6.029,8.038 10.116,17.57 12.366,29.135 2.668,13.716 2.602,26.289 -0.251,37.451 -3.122,11.213 -8.448,22.577 -15.978,34.089 -7.799,11.566 -17.047,22.854 -27.527,33.546 l -62.78,64.685 c -10.107,11.177 -18.66,23.168 -26.032,35.488 -7.321,12.589 -12.228,26.103 -15.313,40.38 -3.032,14.546 -3.277,30.503 -0.198,47.768 l 230.752,-44.885 -5.65,-29.046 -194.714,37.875 c -0.367,-11.931 2.651,-23.682 8.783,-35.202 6.185,-11.252 13.551,-22.174 22.418,-32.552 l 82.762,-83.924 c 8.867,-10.377 16.449,-21.621 22.581,-33.141 6.402,-11.573 10.712,-23.855 13.199,-36.899 2.487,-13.044 2.344,-26.693 -0.481,-41.216 z"
             inkscape:connector-curvature="0"
             style="fill:#333333;fill-opacity:1" />
        </g>
      </g>
      <path
         style="opacity:1;fill:url(#linearGradient1112);fill-opacity:1;fill-rule:evenodd;stroke:none;stroke-width:78.73417664;stroke-linejoin:round;stroke-miterlimit:4;stroke-dasharray:none;stroke-opacity:0;paint-order:stroke markers fill"
         d="M 105.08594 95.5 C 81.215953 95.5 62 114.71595 62 138.58594 L 62 344 L 962 344 L 962 138.58594 C 962 114.71595 942.78405 95.5 918.91406 95.5 L 105.08594 95.5 z M 390.96875 162.10938 C 400.53125 162.10938 409.15625 163.73438 416.84375 166.98438 C 424.59375 170.23437 431.15625 174.89063 436.53125 180.95312 C 441.90625 187.01562 446.03125 194.35938 448.90625 202.98438 C 451.84375 211.60937 453.3125 221.29688 453.3125 232.04688 C 453.3125 242.79687 451.84375 252.48438 448.90625 261.10938 C 446.03125 269.73437 441.90625 277.07813 436.53125 283.14062 C 431.15625 289.14062 424.59375 293.76563 416.84375 297.01562 C 409.15625 300.26562 400.53125 301.89063 390.96875 301.89062 C 381.40625 301.89062 372.75 300.26562 365 297.01562 C 357.3125 293.76563 350.78125 289.14062 345.40625 283.14062 C 340.03125 277.07813 335.875 269.73437 332.9375 261.10938 C 330.0625 252.48438 328.625 242.79687 328.625 232.04688 C 328.625 221.29688 330.0625 211.60937 332.9375 202.98438 C 335.875 194.35938 340.03125 187.01562 345.40625 180.95312 C 350.78125 174.89063 357.3125 170.23437 365 166.98438 C 372.75 163.73438 381.40625 162.10938 390.96875 162.10938 z M 530.1875 162.10938 C 537.5625 162.10938 544.40625 163.20313 550.71875 165.39062 C 557.09375 167.51562 562.75 170.54688 567.6875 174.48438 C 572.625 178.35937 576.6875 183.07813 579.875 188.64062 C 583.125 194.14062 585.28125 200.26563 586.34375 207.01562 L 569.28125 207.01562 C 568.21875 202.57813 566.46875 198.57812 564.03125 195.01562 C 561.65625 191.39063 558.75 188.29687 555.3125 185.73438 C 551.9375 183.17188 548.09375 181.20312 543.78125 179.82812 C 539.53125 178.39063 535 177.67187 530.1875 177.67188 C 523.5625 177.67187 517.5625 178.95313 512.1875 181.51562 C 506.8125 184.07812 502.21875 187.73438 498.40625 192.48438 C 494.65625 197.23437 491.75 202.95313 489.6875 209.64062 C 487.625 216.26562 486.59375 223.70313 486.59375 231.95312 C 486.59375 240.26562 487.59375 247.76563 489.59375 254.45312 C 491.65625 261.14062 494.59375 266.85938 498.40625 271.60938 C 502.21875 276.29687 506.8125 279.92188 512.1875 282.48438 C 517.5625 285.04687 523.59375 286.32812 530.28125 286.32812 C 535.21875 286.32812 539.8125 285.76562 544.0625 284.64062 C 548.3125 283.45313 552.09375 281.73437 555.40625 279.48438 C 558.71875 277.23438 561.53125 274.51562 563.84375 271.32812 C 566.21875 268.07813 568.03125 264.39062 569.28125 260.26562 L 586.34375 260.26562 C 583.21875 273.70312 576.84375 284.01563 567.21875 291.20312 C 557.59375 298.32812 545.25 301.89062 530.1875 301.89062 C 520.875 301.89062 512.4375 300.26562 504.875 297.01562 C 497.375 293.70313 490.96875 289.01562 485.65625 282.95312 C 480.40625 276.89063 476.34375 269.54687 473.46875 260.92188 C 470.65625 252.29688 469.25 242.64062 469.25 231.95312 C 469.25 221.32813 470.6875 211.73437 473.5625 203.17188 C 476.4375 194.54688 480.53125 187.20312 485.84375 181.14062 C 491.15625 175.01563 497.5625 170.32812 505.0625 167.07812 C 512.5625 163.76563 520.9375 162.10938 530.1875 162.10938 z M 591.3125 164.35938 L 695.375 164.35938 L 695.375 179.54688 L 651.78125 179.54688 L 651.78125 299.64062 L 634.90625 299.64062 L 634.90625 179.54688 L 591.3125 179.54688 L 591.3125 164.35938 z M 390.96875 177.67188 C 384.03125 177.67187 377.78125 178.95313 372.21875 181.51562 C 366.71875 184.01562 362 187.64063 358.0625 192.39062 C 354.1875 197.07812 351.1875 202.79688 349.0625 209.54688 C 347 216.23437 345.96875 223.73438 345.96875 232.04688 C 345.96875 240.35937 347 247.85938 349.0625 254.54688 C 351.1875 261.23437 354.1875 266.95313 358.0625 271.70312 C 362 276.39062 366.71875 280.01563 372.21875 282.57812 C 377.78125 285.07812 384.03125 286.32812 390.96875 286.32812 C 397.90625 286.32812 404.125 285.07812 409.625 282.57812 C 415.1875 280.01563 419.90625 276.39062 423.78125 271.70312 C 427.71875 266.95313 430.71875 261.23437 432.78125 254.54688 C 434.90625 247.85938 435.96875 240.35937 435.96875 232.04688 C 435.96875 223.73438 434.90625 216.23437 432.78125 209.54688 C 430.71875 202.79688 427.71875 197.07812 423.78125 192.39062 C 419.90625 187.64063 415.1875 184.01562 409.625 181.51562 C 404.125 178.95313 397.90625 177.67187 390.96875 177.67188 z "
         id="rect1110"
         transform="matrix(0.26458333,0,0,0.26458333,0,26.06665)" />
      <rect
         style="opacity:0.2;fill:none;fill-opacity:1;fill-rule:evenodd;stroke:#ffffff;stroke-width:2.9998053;stroke-linecap:butt;stroke-linejoin:round;stroke-miterlimit:4;stroke-dasharray:none;stroke-opacity:1;paint-order:stroke fill markers;filter:url(#filter864)"
         id="rect932"
         width="235.95665"
         height="218.39064"
         x="17.48835"
         y="52.338001"
         rx="11.29619"
         transform="matrix(0.98639735,0,0,0.98639735,1.8427061,2.1972807)" />
    </g>
  </g>
</svg>
