<?xml version="1.0" encoding="UTF-8" standalone="no"?>
<!-- Generator: flash2svg, http://dissentgraphics.com/tools/flash2svg -->

<svg
   xmlns:dc="http://purl.org/dc/elements/1.1/"
   xmlns:cc="http://creativecommons.org/ns#"
   xmlns:rdf="http://www.w3.org/1999/02/22-rdf-syntax-ns#"
   xmlns:svg="http://www.w3.org/2000/svg"
   xmlns="http://www.w3.org/2000/svg"
   xmlns:xlink="http://www.w3.org/1999/xlink"
   xmlns:sodipodi="http://sodipodi.sourceforge.net/DTD/sodipodi-0.dtd"
   xmlns:inkscape="http://www.inkscape.org/namespaces/inkscape"
   id="Calculator"
   image-rendering="optimizeSpeed"
   version="1.1"
   style="background-color:#FFFFFF"
   x="0px"
   y="0px"
   width="1024px"
   height="1024px"
   viewBox="0 0 1024 1024"
   enable-background="new 0 0 1024 1024"
   sodipodi:docname="firefox.svg"
   inkscape:export-filename="/home/unc/OSX/calculator-app.png"
   inkscape:export-xdpi="4.5"
   inkscape:export-ydpi="4.5"
   inkscape:version="0.92.4 (5da689c313, 2019-01-14)">
  <metadata
     id="metadata33">
    <rdf:RDF>
      <cc:Work
         rdf:about="">
        <dc:format>image/svg+xml</dc:format>
        <dc:type
           rdf:resource="http://purl.org/dc/dcmitype/StillImage" />
        <dc:title />
      </cc:Work>
    </rdf:RDF>
  </metadata>
  <sodipodi:namedview
     pagecolor="#ffffff"
     bordercolor="#666666"
     borderopacity="1"
     objecttolerance="10"
     gridtolerance="10"
     guidetolerance="10"
     inkscape:pageopacity="0"
     inkscape:pageshadow="2"
     inkscape:window-width="1920"
     inkscape:window-height="1055"
     id="namedview31"
     showgrid="true"
     inkscape:pagecheckerboard="true"
     inkscape:zoom="0.79980469"
     inkscape:cx="510.12454"
     inkscape:cy="512"
     inkscape:window-x="0"
     inkscape:window-y="25"
     inkscape:window-maximized="1"
     inkscape:current-layer="g903">
    <inkscape:grid
       type="xygrid"
       id="grid845" />
  </sodipodi:namedview>
  <defs
     transform="matrix(1 0 0 1 0 0) "
     id="defs2">
    <linearGradient
       id="linearGradient1047">
      <stop
         style="stop-color:#faffff;stop-opacity:1"
         offset="0"
         id="stop1043" />
      <stop
         style="stop-color:#fac393;stop-opacity:1"
         offset="1"
         id="stop1045" />
    </linearGradient>
    <linearGradient
       id="linearGradient884">
      <stop
         id="stop880"
         offset="0"
         style="stop-color:#ffffff;stop-opacity:1" />
      <stop
         id="stop882"
         offset="1"
         style="stop-color:#fff8f1;stop-opacity:1" />
    </linearGradient>
    <linearGradient
       id="linearGradient988">
      <stop
         style="stop-color:#1a1a1a;stop-opacity:1"
         offset="0"
         id="stop984" />
      <stop
         style="stop-color:#333333;stop-opacity:1"
         offset="1"
         id="stop986" />
    </linearGradient>
    <linearGradient
       id="linearGradient915">
      <stop
         style="stop-color:#ffffff;stop-opacity:0"
         offset="0"
         id="stop911" />
      <stop
         style="stop-color:#fff8f1;stop-opacity:1"
         offset="1"
         id="stop913" />
    </linearGradient>
    <linearGradient
       id="linearGradient909"
       inkscape:collect="always">
      <stop
         id="stop905"
         offset="0"
         style="stop-color:#ffffff;stop-opacity:0.94009215" />
      <stop
         id="stop907"
         offset="1"
         style="stop-color:#dce7f0;stop-opacity:0;" />
    </linearGradient>
    <linearGradient
       inkscape:collect="always"
       id="linearGradient875">
      <stop
         style="stop-color:#ffffff;stop-opacity:1"
         offset="0"
         id="stop871" />
      <stop
         style="stop-color:#dce7f0;stop-opacity:0;"
         offset="1"
         id="stop873" />
    </linearGradient>
    <linearGradient
       id="linearGradient869">
      <stop
         style="stop-color:#f6f7f7;stop-opacity:1"
         offset="0"
         id="stop865" />
      <stop
         style="stop-color:#dce7f0;stop-opacity:0.58823532"
         offset="1"
         id="stop867" />
    </linearGradient>
    <linearGradient
       id="linearGradient842"
       inkscape:collect="always">
      <stop
         id="stop836"
         offset="0"
         style="stop-color:#ff9300;stop-opacity:1" />
      <stop
         id="stop840"
         offset="1"
         style="stop-color:#ff6d00;stop-opacity:1" />
    </linearGradient>
    <linearGradient
       inkscape:collect="always"
       xlink:href="#linearGradient842"
       id="linearGradient843"
       x1="520"
       y1="4"
       x2="520.03137"
       y2="1026.0078"
       gradientUnits="userSpaceOnUse"
       gradientTransform="matrix(0.95703125,0,0,0.95703125,22,22)" />
    <linearGradient
       inkscape:collect="always"
       xlink:href="#linearGradient842"
       id="linearGradient854"
       gradientUnits="userSpaceOnUse"
       gradientTransform="matrix(0.99682199,0,0,0.99682199,1.57728,1.5773)"
       x1="520.0755"
       y1="2.430424"
       x2="520.0755"
       y2="1025.6824" />
    <linearGradient
       id="linearGradient4657">
      <stop
         id="stop4653"
         offset="0"
         style="stop-color:#ffffff;stop-opacity:1" />
      <stop
         id="stop4655"
         offset="1"
         style="stop-color:#ffffff;stop-opacity:0;" />
    </linearGradient>
    <filter
       style="color-interpolation-filters:sRGB"
       inkscape:label="Drop Shadow"
       id="filter983">
      <feFlood
         flood-opacity="0.294118"
         flood-color="rgb(0,0,0)"
         result="flood"
         id="feFlood973" />
      <feComposite
         in="flood"
         in2="SourceGraphic"
         operator="in"
         result="composite1"
         id="feComposite975" />
      <feGaussianBlur
         in="composite1"
         stdDeviation="3"
         result="blur"
         id="feGaussianBlur977" />
      <feOffset
         dx="0"
         dy="3"
         result="offset"
         id="feOffset979" />
      <feComposite
         in="SourceGraphic"
         in2="offset"
         operator="over"
         result="composite2"
         id="feComposite981" />
    </filter>
    <linearGradient
       id="linearGradient940">
      <stop
         id="stop936"
         offset="0"
         style="stop-color:#f6f7f7;stop-opacity:1" />
      <stop
         id="stop938"
         offset="1"
         style="stop-color:#dce7f0;stop-opacity:1" />
    </linearGradient>
    <filter
       style="color-interpolation-filters:sRGB;"
       inkscape:label="Drop Shadow"
       id="filter915">
      <feFlood
         flood-opacity="0.294118"
         flood-color="rgb(0,0,0)"
         result="flood"
         id="feFlood905" />
      <feComposite
         in="flood"
         in2="SourceGraphic"
         operator="in"
         result="composite1"
         id="feComposite907" />
      <feGaussianBlur
         in="composite1"
         stdDeviation="3"
         result="blur"
         id="feGaussianBlur909" />
      <feOffset
         dx="0"
         dy="3"
         result="offset"
         id="feOffset911" />
      <feComposite
         in="SourceGraphic"
         in2="offset"
         operator="over"
         result="composite2"
         id="feComposite913" />
    </filter>
    <linearGradient
       inkscape:collect="always"
       xlink:href="#linearGradient1197"
       id="linearGradient1199"
       x1="540.14288"
       y1="29.770346"
       x2="540.14288"
       y2="1054.9744"
       gradientUnits="userSpaceOnUse"
       gradientTransform="matrix(0.99492386,0,0,0.99492386,2.598992,-25.61923)" />
    <linearGradient
       inkscape:collect="always"
       id="linearGradient1197">
      <stop
         style="stop-color:#ffffff;stop-opacity:0.58823532"
         offset="0"
         id="stop1193" />
      <stop
         style="stop-color:#ff6f00;stop-opacity:1"
         offset="1"
         id="stop1195" />
    </linearGradient>
    <linearGradient
       inkscape:collect="always"
       xlink:href="#linearGradient909"
       id="linearGradient846"
       gradientUnits="userSpaceOnUse"
       gradientTransform="matrix(0.79449146,0,0,0.79449146,105.18061,105.18063)"
       x1="144.51933"
       y1="426.46069"
       x2="144.51933"
       y2="552.32733" />
    <linearGradient
       inkscape:collect="always"
       xlink:href="#linearGradient842"
       id="linearGradient850"
       gradientUnits="userSpaceOnUse"
       gradientTransform="matrix(0.45021183,0,0,0.45021183,281.469,281.46902)"
       x1="529.81946"
       y1="-571.88416"
       x2="485.39597"
       y2="1604.8689" />
    <linearGradient
       inkscape:collect="always"
       xlink:href="#linearGradient884"
       id="linearGradient863"
       x1="161.42223"
       y1="715.28888"
       x2="214.31111"
       y2="550.84442"
       gradientUnits="userSpaceOnUse"
       gradientTransform="matrix(1.1366835,0,0,1.1366835,-15.725135,-109.81916)" />
    <linearGradient
       inkscape:collect="always"
       xlink:href="#linearGradient875"
       id="linearGradient879"
       gradientUnits="userSpaceOnUse"
       gradientTransform="matrix(0.79449146,0,0,0.79449146,105.18062,105.18063)"
       x1="748.67938"
       y1="602.67401"
       x2="-56.867344"
       y2="753.71405" />
    <linearGradient
       inkscape:collect="always"
       xlink:href="#linearGradient875"
       id="linearGradient925"
       gradientUnits="userSpaceOnUse"
       gradientTransform="matrix(0.79449146,0,0,0.79449146,105.18062,105.18063)"
       x1="748.67938"
       y1="602.67401"
       x2="68.999329"
       y2="376.11401" />
    <linearGradient
       inkscape:collect="always"
       xlink:href="#linearGradient909"
       id="linearGradient927"
       gradientUnits="userSpaceOnUse"
       gradientTransform="matrix(0.79449146,0,0,0.79449146,105.18061,92.5196)"
       x1="144.51933"
       y1="426.46069"
       x2="144.51933"
       y2="552.32733" />
    <linearGradient
       inkscape:collect="always"
       xlink:href="#linearGradient915"
       id="linearGradient929"
       gradientUnits="userSpaceOnUse"
       gradientTransform="translate(5.6888889,-66.844445)"
       x1="161.42223"
       y1="715.28888"
       x2="214.31111"
       y2="550.84442" />
    <linearGradient
       inkscape:collect="always"
       xlink:href="#linearGradient1047"
       id="linearGradient982"
       gradientUnits="userSpaceOnUse"
       gradientTransform="matrix(0.31779658,0,0,0.31779658,349.27222,349.27224)"
       x1="537.22345"
       y1="46.343357"
       x2="537.22345"
       y2="1053.2767" />
    <filter
       style="color-interpolation-filters:sRGB;"
       inkscape:label="Drop Shadow"
       id="filter985">
      <feFlood
         flood-opacity="0.294118"
         flood-color="rgb(0,0,0)"
         result="flood"
         id="feFlood975" />
      <feComposite
         in="flood"
         in2="SourceGraphic"
         operator="in"
         result="composite1"
         id="feComposite977" />
      <feGaussianBlur
         in="composite1"
         stdDeviation="3"
         result="blur"
         id="feGaussianBlur979" />
      <feOffset
         dx="0"
         dy="3"
         result="offset"
         id="feOffset981" />
      <feComposite
         in="offset"
         in2="SourceGraphic"
         operator="out"
         result="composite2"
         id="feComposite983" />
    </filter>
    <filter
       style="color-interpolation-filters:sRGB;"
       inkscape:label="Drop Shadow"
       id="filter1237">
      <feFlood
         flood-opacity="0.294118"
         flood-color="rgb(0,0,0)"
         result="flood"
         id="feFlood1227" />
      <feComposite
         in="flood"
         in2="SourceGraphic"
         operator="in"
         result="composite1"
         id="feComposite1229" />
      <feGaussianBlur
         in="composite1"
         stdDeviation="3"
         result="blur"
         id="feGaussianBlur1231" />
      <feOffset
         dx="0"
         dy="3"
         result="offset"
         id="feOffset1233" />
      <feComposite
         in="offset"
         in2="SourceGraphic"
         operator="out"
         result="composite2"
         id="feComposite1235" />
    </filter>
    <filter
       inkscape:collect="always"
       style="color-interpolation-filters:sRGB"
       id="filter1239"
       x="-0.72"
       width="2.44"
       y="-0.72"
       height="2.44">
      <feGaussianBlur
         inkscape:collect="always"
         stdDeviation="48"
         id="feGaussianBlur1241" />
    </filter>
    <filter
       style="color-interpolation-filters:sRGB;"
       inkscape:label="Drop Shadow"
       id="filter1471">
      <feFlood
         flood-opacity="0.294118"
         flood-color="rgb(232,183,140)"
         result="flood"
         id="feFlood1461" />
      <feComposite
         in="flood"
         in2="SourceGraphic"
         operator="out"
         result="composite1"
         id="feComposite1463" />
      <feGaussianBlur
         in="composite1"
         stdDeviation="5"
         result="blur"
         id="feGaussianBlur1465" />
      <feOffset
         dx="3"
         dy="-20"
         result="offset"
         id="feOffset1467" />
      <feComposite
         in="offset"
         in2="SourceGraphic"
         operator="atop"
         result="composite2"
         id="feComposite1469" />
    </filter>
    <filter
       inkscape:collect="always"
       style="color-interpolation-filters:sRGB"
       id="filter1645"
       x="-0.36"
       width="1.72"
       y="-0.36"
       height="1.72">
      <feGaussianBlur
         inkscape:collect="always"
         stdDeviation="27.704288"
         id="feGaussianBlur1647" />
      <feBlend
         inkscape:collect="always"
         mode="overlay"
         in2="BackgroundImage"
         id="feBlend1649" />
    </filter>
    <linearGradient
       inkscape:collect="always"
       xlink:href="#linearGradient884"
       id="linearGradient1711"
       gradientUnits="userSpaceOnUse"
       gradientTransform="matrix(1.1366835,0,0,1.1366835,21.784024,-184.83748)"
       x1="161.42223"
       y1="715.28888"
       x2="214.31111"
       y2="550.84442" />
    <filter
       inkscape:collect="always"
       style="color-interpolation-filters:sRGB"
       id="filter1737"
       x="-0.1248"
       width="1.2496"
       y="-0.1248"
       height="1.2496">
      <feGaussianBlur
         inkscape:collect="always"
         stdDeviation="9.6041531"
         id="feGaussianBlur1739" />
      <feBlend
         inkscape:collect="always"
         mode="overlay"
         in2="BackgroundImage"
         id="feBlend1741" />
    </filter>
  </defs>
  <path
     id="path"
     d="m 966.34006,324.4089 q -8.92796,-21.64513 -20.13987,-42.40784 c -4.20442,-7.83792 -8.66839,-15.62395 -13.39192,-23.25424 -20.29556,-32.9089 -45.05509,-64.00106 -74.27861,-93.22458 C 762.86546,69.858051 647.32097,22 512,22 376.67903,22 261.18644,69.858051 165.52224,165.52224 69.858051,261.18644 22,376.67903 22,512 22,647.32097 69.858051,762.86546 165.52224,858.52966 261.18644,954.19386 376.67903,1002 512,1002 647.32097,1002 762.86546,954.19386 858.52966,858.52966 911.21504,805.79237 949.41841,747.0339 973.0879,682.30614 992.34537,629.51695 1002,572.78284 1002,512 c 0,-46.61229 -5.65787,-90.88877 -17.02539,-132.82945 -1.29773,-4.72351 -2.64725,-9.44704 -4.04874,-14.11864 -4.25638,-13.80721 -9.13561,-27.35487 -14.58581,-40.64301 z"
     style="fill:url(#linearGradient843);fill-opacity:1;stroke-width:1.03813565"
     inkscape:connector-curvature="0" />
  <path
     inkscape:connector-curvature="0"
     style="fill:url(#linearGradient854);fill-opacity:1;stroke-width:0.996822"
     d="m 968.2455,392.38138 c -1.0966,-4.33619 -2.3426,-8.97141 -3.6385,-13.55679 -0.9968,-3.38919 -1.9936,-6.82823 -3.1399,-10.46663 -1.595,-5.13363 -3.3892,-10.46663 -5.2832,-15.79962 -6.4295,-18.19201 -14.105,-35.93544 -23.0764,-53.47951 -3.7879,-7.37648 -7.9248,-14.90249 -12.2609,-22.32882 C 900.6111,242.35966 875.1921,209.76358 844.7392,179.31066 772.36992,106.94138 688.08861,63.03138 591.89529,47.68032 575.69692,45.08858 559.19952,43.2943 542.00434,42.34732 532.33517,41.79907 522.21743,41.50002 512,41.50002 c -9.32028,0 -18.54089,0.24921 -27.81133,0.74762 -117.97389,6.08061 -219.59989,51.7849 -304.87802,137.06302 Q 41.5,317.12131 41.5,512.00001 c 0,129.93576 45.9535,240.88205 137.81065,332.73921 56.5198,56.46996 120.1669,95.59522 190.49269,117.17642 36.63321,11.21424 74.56229,17.79324 114.38533,19.88664 0.14952,0 0.2492,0 0.39873,0 8.47298,0.4485 16.54724,0.6977 24.42213,0.6977 1.19619,0 2.09333,0 2.99047,0 10.26727,0 20.43485,-0.299 30.00434,-0.7974 2.49206,-0.1495 4.73491,-0.2991 6.92791,-0.4486 20.13581,-1.4454 39.77321,-4.0371 58.51346,-7.6755 7.92473,-1.5451 15.74978,-3.2895 23.32563,-5.1337 80.54323,-20.23544 151.66647,-61.40419 213.96786,-123.70556 48.4455,-48.44556 84.1318,-102.17427 107.0088,-161.28581 18.3914,-47.49857 28.559,-98.48602 30.453,-153.01218 0.1993,-6.03078 0.299,-12.21108 0.299,-18.44122 0,-0.64792 0,-1.34571 0,-1.99364 0,-0.34889 0,-0.64794 0,-0.99682 -0.1994,-40.52081 -4.9343,-79.24735 -14.2545,-116.62817 z"
     id="path852" />
  <circle
     style="opacity:0.6;fill:#ffffff;fill-opacity:1;fill-rule:evenodd;stroke:none;stroke-width:106.25;stroke-linecap:round;stroke-linejoin:round;stroke-miterlimit:4;stroke-dasharray:none;stroke-opacity:0.29411765;paint-order:stroke fill markers;filter:url(#filter985)"
     id="path937"
     cx="512"
     cy="512"
     r="425" />
  <g
     id="g903"
     style="opacity:0.85"
     transform="matrix(1.1333333,0,0,1.1333333,-68.26665,-68.26665)">
    <path
       id="path877"
       d="m 875.63882,416.66103 c -0.87402,-3.45605 -1.86711,-7.15043 -2.89998,-10.80509 -0.79447,-2.70127 -1.58895,-5.44226 -2.50257,-8.34217 -1.27127,-4.09162 -2.70127,-8.34214 -4.21084,-12.59267 -5.12447,-14.49947 -11.24204,-28.64143 -18.39246,-42.62447 -3.01905,-5.87924 -6.31627,-11.87766 -9.77224,-17.79663 -16.12819,-27.40995 -36.38775,-53.38982 -60.65946,-77.66154 -57.68009,-57.68009 -124.85435,-92.67743 -201.52276,-104.9126 -12.9105,-2.06568 -26.05933,-3.49576 -39.76432,-4.25052 -7.70656,-0.43698 -15.77064,-0.67533 -23.91419,-0.67533 -7.4285,0 -14.77754,0.19863 -22.16632,0.59587 -94.02806,4.8464 -175.02646,41.27383 -242.99522,109.24258 Q 137,356.67692 137,512 c 0,103.56199 36.62606,191.98889 109.83846,265.20128 45.04766,45.00794 95.77596,76.19173 151.82732,93.39248 29.19757,8.93802 59.42797,14.18165 91.1679,15.85014 0.11918,0 0.19862,0 0.31782,0 6.75317,0.35747 13.18854,0.55609 19.46502,0.55609 0.95339,0 1.66844,0 2.38348,0 8.18326,0 16.28708,-0.2383 23.91419,-0.63555 1.98624,-0.11916 3.77384,-0.23838 5.52172,-0.35754 16.04873,-1.15201 31.70021,-3.21767 46.63666,-6.11757 6.3162,-1.23147 12.55296,-2.62181 18.59109,-4.09169 64.19492,-16.12813 120.88189,-48.94063 170.53762,-98.59635 38.61225,-38.61228 67.0551,-81.43538 85.28863,-128.54873 C 877.1483,610.79504 885.25213,570.1568 886.7617,526.69812 886.92053,521.89143 887,516.96558 887,512 c 0,-0.5164 0,-1.07257 0,-1.58898 0,-0.27807 0,-0.51642 0,-0.79448 -0.15893,-32.29608 -3.93276,-63.16208 -11.36118,-92.95551 z"
       style="opacity:0.9;fill:url(#linearGradient879);fill-opacity:1;stroke-width:0.79449147"
       inkscape:connector-curvature="0" />
    <path
       inkscape:connector-curvature="0"
       style="opacity:1;fill:url(#linearGradient846);fill-opacity:1;stroke-width:0.79449147"
       d="m 875.63881,416.66103 c -0.874,-3.45605 -1.8671,-7.15043 -2.9,-10.80509 -0.7944,-2.70127 -1.5889,-5.44226 -2.5025,-8.34217 -1.2713,-4.09162 -2.7013,-8.34214 -4.2109,-12.59267 -5.1245,-14.49947 -11.242,-28.64143 -18.3924,-42.62447 -3.0191,-5.87924 -6.3163,-11.87766 -9.7723,-17.79663 -16.1282,-27.40995 -36.3877,-53.38982 -60.6594,-77.66154 -57.6801,-57.68009 -124.8544,-92.67743 -201.52281,-104.9126 -12.9105,-2.06568 -26.05933,-3.49576 -39.76432,-4.25052 -7.70656,-0.43698 -15.77064,-0.67533 -23.91419,-0.67533 -7.4285,0 -14.77754,0.19863 -22.16632,0.59587 -94.02806,4.8464 -175.02646,41.27383 -242.99522,109.24258 Q 136.99999,356.67692 136.99999,512 c 0,103.56199 36.62606,191.98889 109.83846,265.20128 45.04766,45.00794 95.77596,76.19173 151.82732,93.39248 29.19757,8.93802 59.42797,14.18165 91.1679,15.85014 0.11918,0 0.19862,0 0.31782,0 6.75317,0.35747 13.18854,0.55609 19.46502,0.55609 0.95339,0 1.66844,0 2.38348,0 8.18326,0 16.28708,-0.2383 23.91419,-0.63555 1.98624,-0.11916 3.77384,-0.23838 5.52172,-0.35754 16.04873,-1.15201 31.70021,-3.21767 46.63666,-6.11757 6.3162,-1.23147 12.55295,-2.62181 18.59105,-4.09169 64.195,-16.12813 120.8819,-48.94063 170.5377,-98.59635 38.6122,-38.61228 67.0551,-81.43538 85.2886,-128.54873 14.6584,-37.85752 22.7622,-78.49576 24.2718,-121.95444 0.1588,-4.80669 0.2383,-9.73254 0.2383,-14.69812 0,-0.5164 0,-1.07257 0,-1.58898 0,-0.27807 0,-0.51642 0,-0.79448 -0.159,-32.29608 -3.9328,-63.16208 -11.3612,-92.95551 z"
       id="path844" />
    <circle
       r="92.347626"
       cy="481.56424"
       cx="232.52863"
       id="circle1493"
       style="opacity:0.38999999;fill:#ff6f00;fill-opacity:1;fill-rule:evenodd;stroke:none;stroke-width:13.22388935;stroke-linecap:round;stroke-linejoin:round;stroke-miterlimit:4;stroke-dasharray:none;stroke-opacity:1;paint-order:stroke markers fill;filter:url(#filter1645)"
       transform="matrix(0.79622417,0,0,0.79622417,54.858931,197.12557)" />
    <circle
       r="92.347626"
       cy="481.56424"
       cx="232.52863"
       id="path855"
       style="opacity:1;fill:url(#linearGradient863);fill-opacity:1;fill-rule:evenodd;stroke:none;stroke-width:13.22388935;stroke-linecap:round;stroke-linejoin:round;stroke-miterlimit:4;stroke-dasharray:none;stroke-opacity:1;paint-order:stroke markers fill" />
    <circle
       style="opacity:0.5;fill:url(#linearGradient1711);fill-opacity:1;fill-rule:evenodd;stroke:none;stroke-width:13.22388935;stroke-linecap:round;stroke-linejoin:round;stroke-miterlimit:4;stroke-dasharray:none;stroke-opacity:1;paint-order:stroke markers fill;filter:url(#filter1737)"
       id="circle1243"
       cx="270.03778"
       cy="406.54593"
       r="92.347626" />
  </g>
  <circle
     r="487.5127"
     cy="512"
     cx="512"
     id="circle1191"
     style="color:#000000;display:inline;overflow:visible;visibility:visible;fill:none;fill-opacity:1;fill-rule:nonzero;stroke:url(#linearGradient1199);stroke-width:4.9749999;stroke-miterlimit:4;stroke-dasharray:none;marker:none;enable-background:accumulate" />
  <path
     inkscape:connector-curvature="0"
     style="fill:url(#linearGradient850);fill-opacity:1;stroke-width:0.45021182"
     d="m 718.062,457.97458 c -0.4953,-1.95843 -1.058,-4.05191 -1.6433,-6.12288 -0.4502,-1.53072 -0.9004,-3.08395 -1.4182,-4.72723 -0.7203,-2.31859 -1.5307,-4.72722 -2.3861,-7.13585 -2.9039,-8.21637 -6.3705,-16.23014 -10.4224,-24.15387 -1.7108,-3.33157 -3.5792,-6.73067 -5.5376,-10.08475 -9.1393,-15.53231 -20.6197,-30.25424 -34.3737,-44.00821 -32.6854,-32.68538 -70.7508,-52.51721 -114.1962,-59.45047 -7.316,-1.17056 -14.767,-1.98093 -22.5331,-2.40863 C 521.1843,299.63507 516.6147,299.5 512,299.5 c -4.2095,0 -8.3739,0.11256 -12.5609,0.33766 -53.2826,2.74629 -99.1817,23.3885 -137.6973,61.90413 Q 299.5,423.98358 299.5,512 c 0,58.68512 20.7548,108.7937 62.2418,150.28072 25.527,25.5045 54.273,43.17531 86.0355,52.92241 16.5453,5.06488 33.6758,8.03626 51.6618,8.98174 0.068,0 0.1125,0 0.1801,0 3.8268,0.20257 7.4735,0.31512 11.0302,0.31512 0.5402,0 0.9454,0 1.3506,0 4.6372,0 9.2294,-0.13505 13.5514,-0.36015 1.1255,-0.0675 2.1385,-0.13508 3.1289,-0.20261 9.0943,-0.65281 17.9635,-1.82335 26.4275,-3.46662 3.5792,-0.69784 7.1133,-1.4857 10.5349,-2.31863 36.3772,-9.13927 68.4998,-27.73302 96.638,-55.87126 21.8803,-21.8803 37.9979,-46.14672 48.3302,-72.84428 8.3065,-21.4526 12.8986,-44.48093 13.7541,-69.10752 0.09,-2.72379 0.135,-5.51511 0.135,-8.32893 0,-0.29263 0,-0.60779 0,-0.90043 0,-0.15757 0,-0.29263 0,-0.4502 -0.09,-18.30111 -2.2286,-35.79185 -6.438,-52.67478 z"
     id="path848" />
  <path
     inkscape:connector-curvature="0"
     style="fill:url(#linearGradient982);fill-opacity:1;stroke-width:0.31779659;opacity:0.6;filter:url(#filter1237)"
     d="m 657.45552,473.86441 c -0.34962,-1.38242 -0.74682,-2.86018 -1.15998,-4.32204 -0.31779,-1.0805 -0.63557,-2.1769 -1.00108,-3.33686 -0.50845,-1.63666 -1.08049,-3.33687 -1.68431,-5.03708 -2.04981,-5.79979 -4.49682,-11.45656 -7.35698,-17.04979 -1.20763,-2.35169 -2.5265,-4.75106 -3.9089,-7.11864 -6.45127,-10.96399 -14.55508,-21.35594 -24.26379,-31.06462 -23.07204,-23.07203 -49.94174,-37.07097 -80.60908,-41.96504 -5.16423,-0.82628 -10.42376,-1.3983 -15.90571,-1.70021 C 518.48303,362.09534 515.25743,362 512,362 c -2.97141,0 -5.911,0.0795 -8.86652,0.23835 -37.61124,1.93855 -70.01061,16.50952 -97.19809,43.69703 Q 362,449.87076 362,512 c 0,41.42479 14.65044,76.79555 43.93538,106.08051 18.01907,18.00317 38.31035,30.47668 60.73094,37.35699 11.67903,3.57521 23.77115,5.67265 36.46715,6.34005 0.048,0 0.0794,0 0.12713,0 2.70128,0.14299 5.27542,0.22244 7.78603,0.22244 0.38131,0 0.66734,0 0.95336,0 3.27332,0 6.51487,-0.0953 9.5657,-0.25422 0.79446,-0.0476 1.50952,-0.0953 2.20863,-0.14302 6.41952,-0.46081 12.68012,-1.28707 18.65471,-2.44703 2.5265,-0.49259 5.02115,-1.04873 7.4364,-1.63668 25.67802,-6.45125 48.3528,-19.57625 68.21505,-39.43853 15.44492,-15.44492 26.82205,-32.57416 34.11544,-51.4195 5.86342,-15.14301 9.10489,-31.3983 9.70879,-48.78178 0.0635,-1.92267 0.0953,-3.89301 0.0953,-5.87924 0,-0.20656 0,-0.42903 0,-0.6356 0,-0.11122 0,-0.20656 0,-0.31779 -0.0635,-12.91842 -1.57313,-25.26482 -4.54447,-37.18219 z"
     id="path1225" />
  <g
     style="opacity:0.95"
     id="g923"
     transform="translate(969.96118,-29.727697)">
    <path
       inkscape:connector-curvature="0"
       style="opacity:1;fill:url(#linearGradient925);fill-opacity:1;stroke-width:0.79449147"
       d="m 875.63882,416.66103 c -0.87402,-3.45605 -1.86711,-7.15043 -2.89998,-10.80509 -0.79447,-2.70127 -1.58895,-5.44226 -2.50257,-8.34217 -1.27127,-4.09162 -2.70127,-8.34214 -4.21084,-12.59267 -5.12447,-14.49947 -11.24204,-28.64143 -18.39246,-42.62447 -3.01905,-5.87924 -6.31627,-11.87766 -9.77224,-17.79663 -16.12819,-27.40995 -36.38775,-53.38982 -60.65946,-77.66154 -57.68009,-57.68009 -124.85435,-92.67743 -201.52276,-104.9126 -12.9105,-2.06568 -26.05933,-3.49576 -39.76432,-4.25052 -7.70656,-0.43698 -15.77064,-0.67533 -23.91419,-0.67533 -7.4285,0 -14.77754,0.19863 -22.16632,0.59587 -94.02806,4.8464 -175.02646,41.27383 -242.99522,109.24258 Q 137,356.67692 137,512 c 0,103.56199 36.62606,191.98889 109.83846,265.20128 45.04766,45.00794 95.77596,76.19173 151.82732,93.39248 29.19757,8.93802 59.42797,14.18165 91.1679,15.85014 0.11918,0 0.19862,0 0.31782,0 6.75317,0.35747 13.18854,0.55609 19.46502,0.55609 0.95339,0 1.66844,0 2.38348,0 8.18326,0 16.28708,-0.2383 23.91419,-0.63555 1.98624,-0.11916 3.77384,-0.23838 5.52172,-0.35754 16.04873,-1.15201 31.70021,-3.21767 46.63666,-6.11757 6.3162,-1.23147 12.55296,-2.62181 18.59109,-4.09169 64.19492,-16.12813 120.88189,-48.94063 170.53762,-98.59635 38.61225,-38.61228 67.0551,-81.43538 85.28863,-128.54873 C 877.1483,610.79504 885.25213,570.1568 886.7617,526.69812 886.92053,521.89143 887,516.96558 887,512 c 0,-0.5164 0,-1.07257 0,-1.58898 0,-0.27807 0,-0.51642 0,-0.79448 -0.15893,-32.29608 -3.93276,-63.16208 -11.36118,-92.95551 z"
       id="path917" />
    <path
       id="path919"
       d="m 875.63881,404 c -0.874,-3.45605 -1.8671,-7.15043 -2.9,-10.80509 -0.7944,-2.70127 -1.5889,-5.44226 -2.5025,-8.34217 -1.2713,-4.09162 -2.7013,-8.34214 -4.2109,-12.59267 -5.1245,-14.49947 -11.242,-28.64143 -18.3924,-42.62447 -3.0191,-5.87924 -6.3163,-11.87766 -9.7723,-17.79663 -16.1282,-27.40995 -36.3877,-53.38982 -60.6594,-77.66154 C 719.52121,176.49734 652.34691,141.5 575.6785,129.26483 c -12.9105,-2.06568 -26.05933,-3.49576 -39.76432,-4.25052 -7.70656,-0.43698 -15.77064,-0.67533 -23.91419,-0.67533 -7.4285,0 -14.77754,0.19863 -22.16632,0.59587 -94.02806,4.8464 -175.02646,41.27383 -242.99522,109.24258 Q 136.99999,344.01589 136.99999,499.33897 c 0,103.56199 36.62606,191.98889 109.83846,265.20128 45.04766,45.00794 95.77596,76.19173 151.82732,93.39248 29.19757,8.93802 59.42797,14.18165 91.1679,15.85014 0.11918,0 0.19862,0 0.31782,0 6.75317,0.35747 13.18854,0.55609 19.46502,0.55609 0.95339,0 1.66844,0 2.38348,0 8.18326,0 16.28708,-0.2383 23.91419,-0.63555 1.98624,-0.11916 3.77384,-0.23838 5.52172,-0.35754 16.04873,-1.15201 31.70021,-3.21767 46.63666,-6.11757 6.3162,-1.23147 12.55295,-2.62181 18.59105,-4.09169 64.195,-16.12813 120.8819,-48.94063 170.5377,-98.59635 38.6122,-38.61228 67.0551,-81.43538 85.2886,-128.54873 14.6584,-37.85752 22.7622,-78.49576 24.2718,-121.95444 0.1588,-4.80669 0.2383,-9.73254 0.2383,-14.69812 0,-0.5164 0,-1.07257 0,-1.58898 0,-0.27807 0,-0.51642 0,-0.79448 -0.159,-32.29608 -3.9328,-63.16208 -11.3612,-92.95551 z"
       style="opacity:1;fill:url(#linearGradient927);fill-opacity:1;stroke-width:0.79449147"
       inkscape:connector-curvature="0" />
    <circle
       style="opacity:1;fill:url(#linearGradient929);fill-opacity:1;fill-rule:evenodd;stroke:none;stroke-width:11.63374615;stroke-linecap:round;stroke-linejoin:round;stroke-miterlimit:4;stroke-dasharray:none;stroke-opacity:1;paint-order:stroke markers fill"
       id="circle921"
       cx="224.0907"
       cy="453.42645"
       r="81.243034" />
  </g>
  <path
     id="path980"
     d="m 657.45552,473.86441 c -0.34962,-1.38242 -0.74682,-2.86018 -1.15998,-4.32204 -0.31779,-1.0805 -0.63557,-2.1769 -1.00108,-3.33686 -0.50845,-1.63666 -1.08049,-3.33687 -1.68431,-5.03708 -2.04981,-5.79979 -4.49682,-11.45656 -7.35698,-17.04979 -1.20763,-2.35169 -2.5265,-4.75106 -3.9089,-7.11864 -6.45127,-10.96399 -14.55508,-21.35594 -24.26379,-31.06462 -23.07204,-23.07203 -49.94174,-37.07097 -80.60908,-41.96504 -5.16423,-0.82628 -10.42376,-1.3983 -15.90571,-1.70021 C 518.48303,362.09534 515.25743,362 512,362 c -2.97141,0 -5.911,0.0795 -8.86652,0.23835 -37.61124,1.93855 -70.01061,16.50952 -97.19809,43.69703 Q 362,449.87076 362,512 c 0,41.42479 14.65044,76.79555 43.93538,106.08051 18.01907,18.00317 38.31035,30.47668 60.73094,37.35699 11.67903,3.57521 23.77115,5.67265 36.46715,6.34005 0.048,0 0.0794,0 0.12713,0 2.70128,0.14299 5.27542,0.22244 7.78603,0.22244 0.38131,0 0.66734,0 0.95336,0 3.27332,0 6.51487,-0.0953 9.5657,-0.25422 0.79446,-0.0476 1.50952,-0.0953 2.20863,-0.14302 6.41952,-0.46081 12.68012,-1.28707 18.65471,-2.44703 2.5265,-0.49259 5.02115,-1.04873 7.4364,-1.63668 25.67802,-6.45125 48.3528,-19.57625 68.21505,-39.43853 15.44492,-15.44492 26.82205,-32.57416 34.11544,-51.4195 5.86342,-15.14301 9.10489,-31.3983 9.70879,-48.78178 0.0635,-1.92267 0.0953,-3.89301 0.0953,-5.87924 0,-0.20656 0,-0.42903 0,-0.6356 0,-0.11122 0,-0.20656 0,-0.31779 -0.0635,-12.91842 -1.57313,-25.26482 -4.54447,-37.18219 z"
     style="fill:url(#linearGradient982);fill-opacity:1;stroke-width:0.31779659;opacity:0.95"
     inkscape:connector-curvature="0" />
  <rect
     style="opacity:0.6;fill:#ffffff;fill-opacity:1;fill-rule:evenodd;stroke:none;stroke-width:20;stroke-linecap:round;stroke-linejoin:round;stroke-miterlimit:4;stroke-dasharray:none;stroke-opacity:0.29411765;paint-order:stroke fill markers;filter:url(#filter1239)"
     id="rect987"
     width="160"
     height="160"
     x="760"
     y="424"
     rx="583.55902" />
</svg>
