<?xml version="1.0" encoding="UTF-8" standalone="no"?>
<!-- Generator: flash2svg, http://dissentgraphics.com/tools/flash2svg -->

<svg
   xmlns:dc="http://purl.org/dc/elements/1.1/"
   xmlns:cc="http://creativecommons.org/ns#"
   xmlns:rdf="http://www.w3.org/1999/02/22-rdf-syntax-ns#"
   xmlns:svg="http://www.w3.org/2000/svg"
   xmlns="http://www.w3.org/2000/svg"
   xmlns:xlink="http://www.w3.org/1999/xlink"
   xmlns:sodipodi="http://sodipodi.sourceforge.net/DTD/sodipodi-0.dtd"
   xmlns:inkscape="http://www.inkscape.org/namespaces/inkscape"
   id="VirtualBox"
   image-rendering="optimizeSpeed"
   version="1.1"
   style="background-color:#ffffff"
   x="0px"
   y="0px"
   width="1024px"
   height="1024px"
   viewBox="0 0 1024 1024"
   enable-background="new 0 0 1024 1024"
   sodipodi:docname="org.gnome.PowerStats.svg"
   inkscape:version="0.92.4 (5da689c313, 2019-01-14)">
  <metadata
     id="metadata20">
    <rdf:RDF>
      <cc:Work
         rdf:about="">
        <dc:format>image/svg+xml</dc:format>
        <dc:type
           rdf:resource="http://purl.org/dc/dcmitype/StillImage" />
        <dc:title />
      </cc:Work>
    </rdf:RDF>
  </metadata>
  <sodipodi:namedview
     pagecolor="#ffffff"
     bordercolor="#666666"
     borderopacity="1"
     objecttolerance="10"
     gridtolerance="10"
     guidetolerance="10"
     inkscape:pageopacity="0"
     inkscape:pageshadow="2"
     inkscape:window-width="1920"
     inkscape:window-height="1006"
     id="namedview18"
     showgrid="true"
     inkscape:pagecheckerboard="true"
     inkscape:zoom="0.75097656"
     inkscape:cx="510.0026"
     inkscape:cy="508.671"
     inkscape:window-x="0"
     inkscape:window-y="0"
     inkscape:window-maximized="1"
     inkscape:current-layer="VirtualBox">
    <inkscape:grid
       type="xygrid"
       id="grid828" />
  </sodipodi:namedview>
  <defs
     transform="matrix(1 0 0 1 0 0) "
     id="defs2">
    <linearGradient
       inkscape:collect="always"
       id="linearGradient854">
      <stop
         style="stop-color:#ffffff;stop-opacity:1;"
         offset="0"
         id="stop850" />
      <stop
         style="stop-color:#d7d7d7;stop-opacity:1"
         offset="1"
         id="stop852" />
    </linearGradient>
    <linearGradient
       inkscape:collect="always"
       id="linearGradient834">
      <stop
         id="stop832"
         offset="0"
         style="stop-color:#4d4d4d;stop-opacity:1" />
      <stop
         id="stop830"
         offset="1"
         style="stop-color:#1a1a1a;stop-opacity:1" />
    </linearGradient>
    <linearGradient
       inkscape:collect="always"
       xlink:href="#linearGradient854"
       id="linearGradient856"
       x1="567.90002"
       y1="28.9"
       x2="567.90002"
       y2="1062.2715"
       gradientUnits="userSpaceOnUse" />
    <linearGradient
       inkscape:collect="always"
       xlink:href="#linearGradient834"
       id="linearGradient964"
       x1="520.03137"
       y1="-499.95294"
       x2="500"
       y2="1024"
       gradientUnits="userSpaceOnUse"
       gradientTransform="matrix(0.95703125,0,0,0.95703125,22,22)" />
    <linearGradient
       id="linearGradient4657">
      <stop
         id="stop4653"
         offset="0"
         style="stop-color:#ffffff;stop-opacity:1" />
      <stop
         id="stop4655"
         offset="1"
         style="stop-color:#ffffff;stop-opacity:0;" />
    </linearGradient>
    <linearGradient
       inkscape:collect="always"
       xlink:href="#linearGradient854"
       id="linearGradient918"
       gradientUnits="userSpaceOnUse"
       x1="150.79584"
       y1="-98.269257"
       x2="150.79584"
       y2="394.8414" />
    <linearGradient
       inkscape:collect="always"
       xlink:href="#linearGradient854"
       id="linearGradient920"
       gradientUnits="userSpaceOnUse"
       x1="150.79584"
       y1="-98.269257"
       x2="150.79584"
       y2="394.8414" />
    <linearGradient
       inkscape:collect="always"
       xlink:href="#linearGradient854"
       id="linearGradient922"
       gradientUnits="userSpaceOnUse"
       x1="150.79584"
       y1="-98.269257"
       x2="150.79584"
       y2="394.8414" />
    <linearGradient
       inkscape:collect="always"
       xlink:href="#linearGradient854"
       id="linearGradient924"
       gradientUnits="userSpaceOnUse"
       x1="150.79584"
       y1="-98.269257"
       x2="150.79584"
       y2="394.8414" />
    <linearGradient
       inkscape:collect="always"
       xlink:href="#linearGradient854"
       id="linearGradient926"
       gradientUnits="userSpaceOnUse"
       x1="150.79584"
       y1="-98.269257"
       x2="150.79584"
       y2="394.8414" />
    <linearGradient
       inkscape:collect="always"
       xlink:href="#linearGradient854"
       id="linearGradient928"
       gradientUnits="userSpaceOnUse"
       x1="150.79584"
       y1="-98.269257"
       x2="150.79584"
       y2="394.8414" />
    <linearGradient
       inkscape:collect="always"
       xlink:href="#linearGradient854"
       id="linearGradient930"
       gradientUnits="userSpaceOnUse"
       x1="150.79584"
       y1="-98.269257"
       x2="150.79584"
       y2="394.8414" />
    <linearGradient
       inkscape:collect="always"
       xlink:href="#linearGradient854"
       id="linearGradient932"
       gradientUnits="userSpaceOnUse"
       x1="150.79584"
       y1="-98.269257"
       x2="150.79584"
       y2="394.8414" />
    <linearGradient
       inkscape:collect="always"
       xlink:href="#linearGradient854"
       id="linearGradient934"
       gradientUnits="userSpaceOnUse"
       x1="150.79584"
       y1="-98.269257"
       x2="150.79584"
       y2="394.8414" />
    <linearGradient
       inkscape:collect="always"
       xlink:href="#linearGradient854"
       id="linearGradient936"
       gradientUnits="userSpaceOnUse"
       x1="150.79584"
       y1="-98.269257"
       x2="150.79584"
       y2="394.8414" />
    <linearGradient
       inkscape:collect="always"
       xlink:href="#linearGradient854"
       id="linearGradient938"
       gradientUnits="userSpaceOnUse"
       x1="150.79584"
       y1="-98.269257"
       x2="150.79584"
       y2="394.8414" />
    <linearGradient
       inkscape:collect="always"
       xlink:href="#linearGradient854"
       id="linearGradient940"
       gradientUnits="userSpaceOnUse"
       x1="150.79584"
       y1="-98.269257"
       x2="150.79584"
       y2="394.8414" />
    <linearGradient
       inkscape:collect="always"
       xlink:href="#linearGradient854"
       id="linearGradient942"
       gradientUnits="userSpaceOnUse"
       x1="150.79584"
       y1="-98.269257"
       x2="150.79584"
       y2="394.8414" />
    <linearGradient
       inkscape:collect="always"
       xlink:href="#linearGradient854"
       id="linearGradient944"
       gradientUnits="userSpaceOnUse"
       x1="150.79584"
       y1="-98.269257"
       x2="150.79584"
       y2="394.8414" />
    <linearGradient
       inkscape:collect="always"
       xlink:href="#linearGradient854"
       id="linearGradient946"
       gradientUnits="userSpaceOnUse"
       x1="150.79584"
       y1="-98.269257"
       x2="150.79584"
       y2="394.8414" />
    <linearGradient
       id="linearGradient940-3">
      <stop
         id="stop936"
         offset="0"
         style="stop-color:#f6f7f7;stop-opacity:1" />
      <stop
         id="stop938"
         offset="1"
         style="stop-color:#dce7f0;stop-opacity:1" />
    </linearGradient>
    <filter
       style="color-interpolation-filters:sRGB"
       inkscape:label="Drop Shadow"
       id="filter1115">
      <feFlood
         flood-opacity="0.196078"
         flood-color="rgb(0,0,0)"
         result="flood"
         id="feFlood1105" />
      <feComposite
         in="flood"
         in2="SourceGraphic"
         operator="in"
         result="composite1"
         id="feComposite1107" />
      <feGaussianBlur
         in="composite1"
         stdDeviation="3"
         result="blur"
         id="feGaussianBlur1109" />
      <feOffset
         dx="0"
         dy="3"
         result="offset"
         id="feOffset1111" />
      <feComposite
         in="SourceGraphic"
         in2="offset"
         operator="over"
         result="composite2"
         id="feComposite1113" />
    </filter>
    <filter
       style="color-interpolation-filters:sRGB;"
       inkscape:label="Drop Shadow"
       id="filter924">
      <feFlood
         flood-opacity="0.294118"
         flood-color="rgb(0,0,0)"
         result="flood"
         id="feFlood914" />
      <feComposite
         in="flood"
         in2="SourceGraphic"
         operator="in"
         result="composite1"
         id="feComposite916" />
      <feGaussianBlur
         in="composite1"
         stdDeviation="3"
         result="blur"
         id="feGaussianBlur918" />
      <feOffset
         dx="0"
         dy="3"
         result="offset"
         id="feOffset920" />
      <feComposite
         in="SourceGraphic"
         in2="offset"
         operator="over"
         result="composite2"
         id="feComposite922" />
    </filter>
    <linearGradient
       inkscape:collect="always"
       xlink:href="#linearGradient1197"
       id="linearGradient1199"
       x1="540.14288"
       y1="29.770346"
       x2="540.14288"
       y2="1054.9744"
       gradientUnits="userSpaceOnUse"
       gradientTransform="matrix(0.99492386,0,0,0.99492386,2.59902,-25.61923)" />
    <linearGradient
       inkscape:collect="always"
       id="linearGradient1197">
      <stop
         style="stop-color:#ffffff;stop-opacity:0.58823532"
         offset="0"
         id="stop1193" />
      <stop
         style="stop-color:#ffffff;stop-opacity:0"
         offset="1"
         id="stop1195" />
    </linearGradient>
    <linearGradient
       inkscape:collect="always"
       xlink:href="#linearGradient940-3"
       id="linearGradient951"
       x1="244"
       y1="-12.0005"
       x2="244"
       y2="507.99951"
       gradientUnits="userSpaceOnUse" />
    <filter
       style="color-interpolation-filters:sRGB;"
       inkscape:label="Drop Shadow"
       id="filter1017">
      <feFlood
         flood-opacity="0.498039"
         flood-color="rgb(0,0,0)"
         result="flood"
         id="feFlood1007" />
      <feComposite
         in="flood"
         in2="SourceGraphic"
         operator="in"
         result="composite1"
         id="feComposite1009" />
      <feGaussianBlur
         in="composite1"
         stdDeviation="30"
         result="blur"
         id="feGaussianBlur1011" />
      <feOffset
         dx="0"
         dy="-15"
         result="offset"
         id="feOffset1013" />
      <feComposite
         in="offset"
         in2="SourceGraphic"
         operator="out"
         result="composite2"
         id="feComposite1015" />
    </filter>
  </defs>
  <path
     id="path"
     d="m 966.34006,324.4089 q -8.92796,-21.64513 -20.13987,-42.40784 c -4.20442,-7.83792 -8.66839,-15.62395 -13.39192,-23.25424 -20.29556,-32.9089 -45.05509,-64.00106 -74.27861,-93.22458 C 762.86546,69.858051 647.32097,22 512,22 376.67903,22 261.18644,69.858051 165.52224,165.52224 69.858051,261.18644 22,376.67903 22,512 22,647.32097 69.858051,762.86546 165.52224,858.52966 261.18644,954.19386 376.67903,1002 512,1002 647.32097,1002 762.86546,954.19386 858.52966,858.52966 911.21504,805.79237 949.41841,747.0339 973.0879,682.30614 992.34537,629.51695 1002,572.78284 1002,512 c 0,-46.61229 -5.65787,-90.88877 -17.02539,-132.82945 -1.29773,-4.72351 -2.64725,-9.44704 -4.04874,-14.11864 -4.25638,-13.80721 -9.13561,-27.35487 -14.58581,-40.64301 z"
     inkscape:connector-curvature="0"
     style="fill:url(#linearGradient964);fill-opacity:1;stroke-width:1.03813565" />
  <g
     style="fill:url(#linearGradient918);fill-opacity:1"
     id="g844"
     transform="matrix(2.0685012,0,0,2.0685012,210.28196,200.30962)" />
  <g
     style="fill:url(#linearGradient920);fill-opacity:1"
     id="g846"
     transform="matrix(2.0685012,0,0,2.0685012,210.28196,200.30962)" />
  <g
     style="fill:url(#linearGradient922);fill-opacity:1"
     id="g848"
     transform="matrix(2.0685012,0,0,2.0685012,210.28196,200.30962)" />
  <g
     style="fill:url(#linearGradient924);fill-opacity:1"
     id="g850"
     transform="matrix(2.0685012,0,0,2.0685012,210.28196,200.30962)" />
  <g
     style="fill:url(#linearGradient926);fill-opacity:1"
     id="g852"
     transform="matrix(2.0685012,0,0,2.0685012,210.28196,200.30962)" />
  <g
     style="fill:url(#linearGradient928);fill-opacity:1"
     id="g854"
     transform="matrix(2.0685012,0,0,2.0685012,210.28196,200.30962)" />
  <g
     style="fill:url(#linearGradient930);fill-opacity:1"
     id="g856"
     transform="matrix(2.0685012,0,0,2.0685012,210.28196,200.30962)" />
  <g
     style="fill:url(#linearGradient932);fill-opacity:1"
     id="g858"
     transform="matrix(2.0685012,0,0,2.0685012,210.28196,200.30962)" />
  <g
     style="fill:url(#linearGradient934);fill-opacity:1"
     id="g860"
     transform="matrix(2.0685012,0,0,2.0685012,210.28196,200.30962)" />
  <g
     style="fill:url(#linearGradient936);fill-opacity:1"
     id="g862"
     transform="matrix(2.0685012,0,0,2.0685012,210.28196,200.30962)" />
  <g
     style="fill:url(#linearGradient938);fill-opacity:1"
     id="g864"
     transform="matrix(2.0685012,0,0,2.0685012,210.28196,200.30962)" />
  <g
     style="fill:url(#linearGradient940);fill-opacity:1"
     id="g866"
     transform="matrix(2.0685012,0,0,2.0685012,210.28196,200.30962)" />
  <g
     style="fill:url(#linearGradient942);fill-opacity:1"
     id="g868"
     transform="matrix(2.0685012,0,0,2.0685012,210.28196,200.30962)" />
  <g
     style="fill:url(#linearGradient944);fill-opacity:1"
     id="g870"
     transform="matrix(2.0685012,0,0,2.0685012,210.28196,200.30962)" />
  <g
     style="fill:url(#linearGradient946);fill-opacity:1"
     id="g872"
     transform="matrix(2.0685012,0,0,2.0685012,210.28196,200.30962)" />
  <circle
     r="487.5127"
     cy="512"
     cx="512"
     id="circle1191"
     style="color:#000000;display:inline;overflow:visible;visibility:visible;fill:none;fill-opacity:1;fill-rule:nonzero;stroke:url(#linearGradient1199);stroke-width:4.9749999;stroke-miterlimit:4;stroke-dasharray:none;marker:none;enable-background:accumulate" />
  <g
     id="g943"
     transform="translate(256,256.0005)"
     style="fill:url(#linearGradient951);fill-opacity:1.0">
    <g
       id="g884"
       transform="translate(1,1)"
       style="fill:url(#linearGradient951);fill-opacity:1.0">
	<g
   id="g882"
   style="fill:url(#linearGradient951);fill-opacity:1.0">
		<g
   id="g880"
   style="fill:url(#linearGradient951);fill-opacity:1.0">
			<path
   id="path876"
   d="m 417.133,135.533 c 0,-14.507 -11.093,-25.6 -25.6,-25.6 h -25.6 V 24.6 c 0,-14.507 -11.093,-25.6 -25.6,-25.6 -14.507,0 -25.6,11.093 -25.6,25.6 v 85.333 H 195.267 V 24.6 c 0,-14.507 -11.093,-25.6 -25.6,-25.6 -14.507,0 -25.6,11.093 -25.6,25.6 v 85.333 h -25.6 c -14.507,0 -25.6,11.093 -25.6,25.6 0,11.491 6.963,20.833 17.067,24.224 v 163.509 c 0,48.64 37.547,89.6 86.187,93.867 v 24.747 c 0,14.507 11.947,26.453 26.453,26.453 h 23.893 v 34.133 c 0,5.12 3.413,8.533 8.533,8.533 5.12,0 8.533,-3.413 8.533,-8.533 v -34.133 h 24.747 c 14.507,0 26.453,-11.947 26.453,-26.453 v -24.747 c 47.787,-5.12 85.333,-45.227 85.333,-93.867 V 159.758 c 10.104,-3.391 17.067,-12.734 17.067,-24.225 z M 331.8,24.6 c 0,-5.12 3.413,-8.533 8.533,-8.533 5.12,0 8.533,3.413 8.533,8.533 v 85.333 H 331.8 Z m -170.667,0 c 0,-4.267 3.413,-8.533 8.533,-8.533 5.12,0 8.533,3.413 8.533,8.533 v 85.333 H 161.132 V 24.6 Z m 221.014,298.667 c 0,42.667 -34.133,76.8 -76.8,76.8 -5.12,0 -8.533,3.413 -8.533,8.533 v 33.28 c 0,5.12 -4.267,9.387 -9.387,9.387 H 221.72 c -5.12,0 -9.387,-4.267 -9.387,-9.387 V 408.6 c 0,-5.12 -3.413,-8.533 -8.533,-8.533 -42.667,0 -76.8,-34.133 -76.8,-76.8 V 161.133 h 255.147 z m 9.386,-179.2 H 118.467 c -5.12,0 -8.533,-3.413 -8.533,-8.533 0,-5.12 3.413,-8.533 8.533,-8.533 h 34.133 34.133 136.533 34.134 34.133 c 5.12,0 8.533,3.413 8.533,8.533 0,5.12 -3.413,8.533 -8.533,8.533 z"
   inkscape:connector-curvature="0"
   style="fill:url(#linearGradient951);fill-opacity:1.0" />

			<path
   id="path878"
   d="m 220.867,280.6 h 47.787 l -45.227,45.227 c -3.413,3.413 -3.413,8.533 0,11.947 1.707,1.707 3.413,2.56 5.973,2.56 2.56,0 4.267,-0.853 5.973,-2.56 l 59.733,-59.733 c 2.56,-2.56 3.413,-5.973 1.707,-9.387 -0.853,-3.413 -4.267,-5.12 -7.68,-5.12 h -47.787 l 45.227,-45.227 c 3.413,-3.413 3.413,-8.533 0,-11.947 -3.413,-3.414 -8.533,-3.413 -11.947,0 l -59.733,59.733 c -2.56,2.56 -2.56,5.973 -1.707,9.387 0.854,3.413 4.267,5.12 7.681,5.12 z"
   inkscape:connector-curvature="0"
   style="fill:url(#linearGradient951);fill-opacity:1.0" />

		</g>

	</g>

</g>
    <g
       id="g886"
       style="fill:url(#linearGradient951);fill-opacity:1.0">
</g>
    <g
       id="g888"
       style="fill:url(#linearGradient951);fill-opacity:1.0">
</g>
    <g
       id="g890"
       style="fill:url(#linearGradient951);fill-opacity:1.0">
</g>
    <g
       id="g892"
       style="fill:url(#linearGradient951);fill-opacity:1.0">
</g>
    <g
       id="g894"
       style="fill:url(#linearGradient951);fill-opacity:1.0">
</g>
    <g
       id="g896"
       style="fill:url(#linearGradient951);fill-opacity:1.0">
</g>
    <g
       id="g898"
       style="fill:url(#linearGradient951);fill-opacity:1.0">
</g>
    <g
       id="g900"
       style="fill:url(#linearGradient951);fill-opacity:1.0">
</g>
    <g
       id="g902"
       style="fill:url(#linearGradient951);fill-opacity:1.0">
</g>
    <g
       id="g904"
       style="fill:url(#linearGradient951);fill-opacity:1.0">
</g>
    <g
       id="g906"
       style="fill:url(#linearGradient951);fill-opacity:1.0">
</g>
    <g
       id="g908"
       style="fill:url(#linearGradient951);fill-opacity:1.0">
</g>
    <g
       id="g910"
       style="fill:url(#linearGradient951);fill-opacity:1.0">
</g>
    <g
       id="g912"
       style="fill:url(#linearGradient951);fill-opacity:1.0">
</g>
    <g
       id="g914"
       style="fill:url(#linearGradient951);fill-opacity:1.0">
</g>
  </g>
  <g
     style="fill:url(#linearGradient951);fill-opacity:1;filter:url(#filter1017)"
     transform="translate(256,256.0005)"
     id="g993">
    <g
       style="fill:url(#linearGradient951);fill-opacity:1.0"
       id="g963">
</g>
    <g
       style="fill:url(#linearGradient951);fill-opacity:1.0"
       id="g965">
</g>
    <g
       style="fill:url(#linearGradient951);fill-opacity:1.0"
       id="g967">
</g>
    <g
       style="fill:url(#linearGradient951);fill-opacity:1.0"
       id="g969">
</g>
    <g
       style="fill:url(#linearGradient951);fill-opacity:1.0"
       id="g971">
</g>
    <g
       style="fill:url(#linearGradient951);fill-opacity:1.0"
       id="g973">
</g>
    <g
       style="fill:url(#linearGradient951);fill-opacity:1.0"
       id="g975">
</g>
    <g
       style="fill:url(#linearGradient951);fill-opacity:1.0"
       id="g977">
</g>
    <g
       style="fill:url(#linearGradient951);fill-opacity:1.0"
       id="g979">
</g>
    <g
       style="fill:url(#linearGradient951);fill-opacity:1.0"
       id="g981">
</g>
    <g
       style="fill:url(#linearGradient951);fill-opacity:1.0"
       id="g983">
</g>
    <g
       style="fill:url(#linearGradient951);fill-opacity:1.0"
       id="g985">
</g>
    <g
       style="fill:url(#linearGradient951);fill-opacity:1.0"
       id="g987">
</g>
    <g
       style="fill:url(#linearGradient951);fill-opacity:1.0"
       id="g989">
</g>
    <g
       style="fill:url(#linearGradient951);fill-opacity:1.0"
       id="g991">
</g>
    <g
       style="fill:url(#linearGradient951);fill-opacity:1.0"
       transform="translate(1,1)"
       id="g961">
	<g
   style="fill:url(#linearGradient951);fill-opacity:1.0"
   id="g959">
		<g
   style="fill:url(#linearGradient951);fill-opacity:1.0"
   id="g957">
			<path
   style="fill:url(#linearGradient951);fill-opacity:1.0"
   inkscape:connector-curvature="0"
   d="m 417.133,135.533 c 0,-14.507 -11.093,-25.6 -25.6,-25.6 h -25.6 V 24.6 c 0,-14.507 -11.093,-25.6 -25.6,-25.6 -14.507,0 -25.6,11.093 -25.6,25.6 v 85.333 H 195.267 V 24.6 c 0,-14.507 -11.093,-25.6 -25.6,-25.6 -14.507,0 -25.6,11.093 -25.6,25.6 v 85.333 h -25.6 c -14.507,0 -25.6,11.093 -25.6,25.6 0,11.491 6.963,20.833 17.067,24.224 v 163.509 c 0,48.64 37.547,89.6 86.187,93.867 v 24.747 c 0,14.507 11.947,26.453 26.453,26.453 h 23.893 v 34.133 c 0,5.12 3.413,8.533 8.533,8.533 5.12,0 8.533,-3.413 8.533,-8.533 v -34.133 h 24.747 c 14.507,0 26.453,-11.947 26.453,-26.453 v -24.747 c 47.787,-5.12 85.333,-45.227 85.333,-93.867 V 159.758 c 10.104,-3.391 17.067,-12.734 17.067,-24.225 z M 331.8,24.6 c 0,-5.12 3.413,-8.533 8.533,-8.533 5.12,0 8.533,3.413 8.533,8.533 v 85.333 H 331.8 Z m -170.667,0 c 0,-4.267 3.413,-8.533 8.533,-8.533 5.12,0 8.533,3.413 8.533,8.533 v 85.333 H 161.132 V 24.6 Z m 221.014,298.667 c 0,42.667 -34.133,76.8 -76.8,76.8 -5.12,0 -8.533,3.413 -8.533,8.533 v 33.28 c 0,5.12 -4.267,9.387 -9.387,9.387 H 221.72 c -5.12,0 -9.387,-4.267 -9.387,-9.387 V 408.6 c 0,-5.12 -3.413,-8.533 -8.533,-8.533 -42.667,0 -76.8,-34.133 -76.8,-76.8 V 161.133 h 255.147 z m 9.386,-179.2 H 118.467 c -5.12,0 -8.533,-3.413 -8.533,-8.533 0,-5.12 3.413,-8.533 8.533,-8.533 h 34.133 34.133 136.533 34.134 34.133 c 5.12,0 8.533,3.413 8.533,8.533 0,5.12 -3.413,8.533 -8.533,8.533 z"
   id="path953" />

			<path
   style="fill:url(#linearGradient951);fill-opacity:1.0"
   inkscape:connector-curvature="0"
   d="m 220.867,280.6 h 47.787 l -45.227,45.227 c -3.413,3.413 -3.413,8.533 0,11.947 1.707,1.707 3.413,2.56 5.973,2.56 2.56,0 4.267,-0.853 5.973,-2.56 l 59.733,-59.733 c 2.56,-2.56 3.413,-5.973 1.707,-9.387 -0.853,-3.413 -4.267,-5.12 -7.68,-5.12 h -47.787 l 45.227,-45.227 c 3.413,-3.413 3.413,-8.533 0,-11.947 -3.413,-3.414 -8.533,-3.413 -11.947,0 l -59.733,59.733 c -2.56,2.56 -2.56,5.973 -1.707,9.387 0.854,3.413 4.267,5.12 7.681,5.12 z"
   id="path955" />

		</g>

	</g>

</g>
  </g>
</svg>
