<?xml version="1.0" encoding="UTF-8" standalone="no"?>
<!-- Generator: flash2svg, http://dissentgraphics.com/tools/flash2svg -->

<svg
   xmlns:dc="http://purl.org/dc/elements/1.1/"
   xmlns:cc="http://creativecommons.org/ns#"
   xmlns:rdf="http://www.w3.org/1999/02/22-rdf-syntax-ns#"
   xmlns:svg="http://www.w3.org/2000/svg"
   xmlns="http://www.w3.org/2000/svg"
   xmlns:xlink="http://www.w3.org/1999/xlink"
   xmlns:sodipodi="http://sodipodi.sourceforge.net/DTD/sodipodi-0.dtd"
   xmlns:inkscape="http://www.inkscape.org/namespaces/inkscape"
   id="SimpleNote"
   image-rendering="optimizeSpeed"
   version="1.1"
   style="background-color:#ffffff"
   x="0px"
   y="0px"
   width="1024px"
   height="1024px"
   viewBox="0 0 1024 1024"
   enable-background="new 0 0 1024 1024"
   sodipodi:docname="pomidor.svg"
   inkscape:version="0.92.4 (5da689c313, 2019-01-14)">
  <metadata
     id="metadata42">
    <rdf:RDF>
      <cc:Work
         rdf:about="">
        <dc:format>image/svg+xml</dc:format>
        <dc:type
           rdf:resource="http://purl.org/dc/dcmitype/StillImage" />
        <dc:title />
      </cc:Work>
    </rdf:RDF>
  </metadata>
  <sodipodi:namedview
     pagecolor="#ffffff"
     bordercolor="#666666"
     borderopacity="1"
     objecttolerance="10"
     gridtolerance="10"
     guidetolerance="10"
     inkscape:pageopacity="0"
     inkscape:pageshadow="2"
     inkscape:window-width="1920"
     inkscape:window-height="955"
     id="namedview40"
     showgrid="true"
     inkscape:pagecheckerboard="true"
     inkscape:zoom="0.70392157"
     inkscape:cx="512"
     inkscape:cy="512"
     inkscape:window-x="0"
     inkscape:window-y="25"
     inkscape:window-maximized="1"
     inkscape:current-layer="SimpleNote">
    <inkscape:grid
       type="xygrid"
       id="grid857" />
  </sodipodi:namedview>
  <defs
     transform="matrix(1 0 0 1 0 0) "
     id="defs2">
    <linearGradient
       inkscape:collect="always"
       id="linearGradient989">
      <stop
         style="stop-color:#111111;stop-opacity:1"
         offset="0"
         id="stop985" />
      <stop
         id="stop993"
         offset="0.54901963"
         style="stop-color:#4c4c4c;stop-opacity:1;" />
      <stop
         style="stop-color:#888888;stop-opacity:1"
         offset="1"
         id="stop987" />
    </linearGradient>
    <linearGradient
       id="linearGradient873"
       inkscape:collect="always">
      <stop
         id="stop869"
         offset="0"
         style="stop-color:#cdcdcd;stop-opacity:1" />
      <stop
         style="stop-color:#faf8f6;stop-opacity:1"
         offset="0.5"
         id="stop905" />
      <stop
         id="stop871"
         offset="1"
         style="stop-color:#f1f0e9;stop-opacity:1" />
    </linearGradient>
    <linearGradient
       inkscape:collect="always"
       id="linearGradient853">
      <stop
         style="stop-color:#ffffff;stop-opacity:1;"
         offset="0"
         id="stop849" />
      <stop
         style="stop-color:#d7d7d7;stop-opacity:1"
         offset="1"
         id="stop851" />
    </linearGradient>
    <linearGradient
       inkscape:collect="always"
       xlink:href="#linearGradient853"
       id="linearGradient855"
       x1="520"
       y1="4"
       x2="519.31427"
       y2="1024"
       gradientUnits="userSpaceOnUse" />
    <linearGradient
       inkscape:collect="always"
       xlink:href="#linearGradient873"
       id="linearGradient903"
       x1="1021.9921"
       y1="2.0078433"
       x2="-2.0078433"
       y2="1026.0078"
       gradientUnits="userSpaceOnUse"
       gradientTransform="matrix(0.99682199,0,0,0.99682199,1.5772792,1.5772789)" />
    <filter
       inkscape:collect="always"
       style="color-interpolation-filters:sRGB"
       id="filter981"
       x="-0.035863112"
       width="1.0717262"
       y="-0.036137937"
       height="1.0722759">
      <feGaussianBlur
         inkscape:collect="always"
         stdDeviation="0.75453"
         id="feGaussianBlur983" />
    </filter>
    <linearGradient
       inkscape:collect="always"
       xlink:href="#linearGradient989"
       id="linearGradient991"
       x1="23.683001"
       y1="-25.544123"
       x2="25.655422"
       y2="75.049385"
       gradientUnits="userSpaceOnUse" />
    <linearGradient
       inkscape:collect="always"
       xlink:href="#linearGradient989"
       id="linearGradient883"
       gradientUnits="userSpaceOnUse"
       x1="23.683001"
       y1="-25.544123"
       x2="25.655422"
       y2="75.049385" />
    <linearGradient
       inkscape:collect="always"
       xlink:href="#linearGradient989"
       id="linearGradient885"
       gradientUnits="userSpaceOnUse"
       x1="23.683001"
       y1="-25.544123"
       x2="25.655422"
       y2="75.049385" />
    <linearGradient
       inkscape:collect="always"
       xlink:href="#linearGradient989"
       id="linearGradient887"
       gradientUnits="userSpaceOnUse"
       x1="23.683001"
       y1="-25.544123"
       x2="25.655422"
       y2="75.049385" />
    <linearGradient
       inkscape:collect="always"
       xlink:href="#linearGradient989"
       id="linearGradient889"
       gradientUnits="userSpaceOnUse"
       x1="23.683001"
       y1="-25.544123"
       x2="25.655422"
       y2="75.049385" />
    <linearGradient
       inkscape:collect="always"
       xlink:href="#linearGradient989"
       id="linearGradient891"
       gradientUnits="userSpaceOnUse"
       x1="23.683001"
       y1="-25.544123"
       x2="25.655422"
       y2="75.049385" />
    <linearGradient
       inkscape:collect="always"
       xlink:href="#linearGradient989"
       id="linearGradient893"
       gradientUnits="userSpaceOnUse"
       x1="23.683001"
       y1="-25.544123"
       x2="25.655422"
       y2="75.049385" />
    <linearGradient
       inkscape:collect="always"
       xlink:href="#linearGradient989"
       id="linearGradient895"
       gradientUnits="userSpaceOnUse"
       x1="23.683001"
       y1="-25.544123"
       x2="25.655422"
       y2="75.049385" />
    <linearGradient
       inkscape:collect="always"
       xlink:href="#linearGradient989"
       id="linearGradient897"
       gradientUnits="userSpaceOnUse"
       x1="23.683001"
       y1="-25.544123"
       x2="25.655422"
       y2="75.049385" />
    <linearGradient
       inkscape:collect="always"
       xlink:href="#linearGradient989"
       id="linearGradient899"
       gradientUnits="userSpaceOnUse"
       x1="23.683001"
       y1="-25.544123"
       x2="25.655422"
       y2="75.049385" />
    <linearGradient
       inkscape:collect="always"
       xlink:href="#linearGradient989"
       id="linearGradient901"
       gradientUnits="userSpaceOnUse"
       x1="23.683001"
       y1="-25.544123"
       x2="25.655422"
       y2="75.049385" />
    <linearGradient
       inkscape:collect="always"
       xlink:href="#linearGradient989"
       id="linearGradient904"
       gradientUnits="userSpaceOnUse"
       x1="23.683001"
       y1="-25.544123"
       x2="25.655422"
       y2="75.049385" />
    <linearGradient
       inkscape:collect="always"
       xlink:href="#linearGradient989"
       id="linearGradient906"
       gradientUnits="userSpaceOnUse"
       x1="23.683001"
       y1="-25.544123"
       x2="25.655422"
       y2="75.049385" />
    <linearGradient
       inkscape:collect="always"
       xlink:href="#linearGradient989"
       id="linearGradient908"
       gradientUnits="userSpaceOnUse"
       x1="23.683001"
       y1="-25.544123"
       x2="25.655422"
       y2="75.049385" />
    <linearGradient
       inkscape:collect="always"
       xlink:href="#linearGradient989"
       id="linearGradient910"
       gradientUnits="userSpaceOnUse"
       x1="23.683001"
       y1="-25.544123"
       x2="25.655422"
       y2="75.049385" />
    <linearGradient
       inkscape:collect="always"
       xlink:href="#linearGradient989"
       id="linearGradient912"
       gradientUnits="userSpaceOnUse"
       x1="23.683001"
       y1="-25.544123"
       x2="25.655422"
       y2="75.049385" />
    <linearGradient
       inkscape:collect="always"
       xlink:href="#linearGradient989"
       id="linearGradient914"
       gradientUnits="userSpaceOnUse"
       x1="23.683001"
       y1="-25.544123"
       x2="25.655422"
       y2="75.049385" />
    <linearGradient
       inkscape:collect="always"
       xlink:href="#linearGradient989"
       id="linearGradient916"
       gradientUnits="userSpaceOnUse"
       x1="23.683001"
       y1="-25.544123"
       x2="25.655422"
       y2="75.049385" />
    <linearGradient
       inkscape:collect="always"
       xlink:href="#linearGradient989"
       id="linearGradient918"
       gradientUnits="userSpaceOnUse"
       x1="23.683001"
       y1="-25.544123"
       x2="25.655422"
       y2="75.049385" />
    <linearGradient
       inkscape:collect="always"
       xlink:href="#linearGradient989"
       id="linearGradient920"
       gradientUnits="userSpaceOnUse"
       x1="23.683001"
       y1="-25.544123"
       x2="25.655422"
       y2="75.049385" />
    <linearGradient
       inkscape:collect="always"
       xlink:href="#linearGradient989"
       id="linearGradient922"
       gradientUnits="userSpaceOnUse"
       x1="23.683001"
       y1="-25.544123"
       x2="25.655422"
       y2="75.049385" />
    <linearGradient
       inkscape:collect="always"
       xlink:href="#linearGradient989"
       id="linearGradient924"
       gradientUnits="userSpaceOnUse"
       x1="23.683001"
       y1="-25.544123"
       x2="25.655422"
       y2="75.049385" />
    <linearGradient
       inkscape:collect="always"
       xlink:href="#linearGradient989"
       id="linearGradient926"
       gradientUnits="userSpaceOnUse"
       x1="23.683001"
       y1="-25.544123"
       x2="25.655422"
       y2="75.049385" />
  </defs>
  <g
     id="shadow"
     transform="matrix(0.95703125,0,0,0.95703125,22,22)">
    <g
       id="shape">
      <path
         id="path"
         d="m 986.739,315.98644 q -9.3288,-22.61695 -21.0441,-44.31186 c -4.3932,-8.18983 -9.0576,-16.32543 -13.9932,-24.29831 C 930.49492,212.98983 904.62373,180.50169 874.08814,149.9661 774.12881,50.00678 653.39661,0 512,0 370.60339,0 249.92542,50.00678 149.9661,149.9661 50.00678,249.92542 0,370.60339 0,512 0,653.39661 50.00678,774.12881 149.9661,874.08814 249.92542,974.04746 370.60339,1024 512,1024 653.39661,1024 774.12881,974.04746 874.08814,874.08814 929.13898,818.98305 969.0576,757.58644 993.7898,689.95254 1013.9119,634.79322 1024,575.51186 1024,512 c 0,-48.70508 -5.9119,-94.96949 -17.7898,-138.79322 -1.356,-4.93559 -2.7661,-9.87119 -4.2305,-14.75254 -4.4475,-14.42712 -9.5458,-28.58305 -15.2407,-42.4678 z"
         style="fill:url(#linearGradient855);fill-opacity:1;stroke-width:1.08474576"
         inkscape:connector-curvature="0" />
    </g>
  </g>
  <path
     id="path1"
     d="m 968.24545,392.38136 c -1.09651,-4.33619 -2.34253,-8.97141 -3.6384,-13.55679 -0.99682,-3.38919 -1.99364,-6.82823 -3.13999,-10.46663 -1.59491,-5.13363 -3.3892,-10.46663 -5.28316,-15.79962 -6.4295,-18.19201 -14.10503,-35.93544 -23.07643,-53.47951 C 929.31955,291.70233 925.18273,284.17632 920.84656,276.75 900.61107,242.35964 875.19211,209.76356 844.7392,179.31064 772.36992,106.94136 688.08861,63.031358 591.89529,47.680298 575.69692,45.088561 559.19952,43.294281 542.00434,42.3473 c -9.66917,-0.548252 -19.78691,-0.847298 -30.00433,-0.847298 -9.32029,0 -18.54089,0.249205 -27.81134,0.747616 C 366.21478,48.328232 264.58878,94.032523 179.31065,179.31064 Q 41.500002,317.12129 41.500002,512 c 0,129.93575 45.953496,240.88204 137.810648,332.7392 56.5198,56.46997 120.1669,95.59522 190.49269,117.17642 36.63321,11.21425 74.56229,17.79327 114.38533,19.8866 0.14952,0 0.2492,0 0.39873,0 8.47298,0.44858 16.54725,0.69778 24.42213,0.69778 1.19619,0 2.09333,0 2.99048,0 10.26726,0 20.43484,-0.29905 30.00433,-0.79745 2.49206,-0.14953 4.73491,-0.29905 6.92791,-0.44858 20.13581,-1.44539 39.77321,-4.03713 58.51346,-7.67553 7.92473,-1.54508 15.74979,-3.28951 23.32564,-5.13363 C 711.31457,948.20932 782.43782,907.04057 844.7392,844.7392 893.18474,796.29364 928.87098,742.56493 951.74804,683.45339 970.13941,635.95482 980.30699,584.96737 982.20095,530.44121 982.40032,524.41043 982.5,518.23013 982.5,512 c 0,-0.64793 0,-1.34572 0,-1.99365 0,-0.34889 0,-0.64793 0,-0.99682 -0.19936,-40.52081 -4.93427,-79.24735 -14.25455,-116.62817 z"
     style="fill:url(#linearGradient903);fill-opacity:1;stroke-width:0.996822"
     inkscape:connector-curvature="0" />
  <g
     transform="matrix(10.139819,0,0,10.139819,256,273.40677)"
     id="g971"
     style="opacity:0.2;filter:url(#filter981)">
    <g
       id="g939">
      <g
         id="g937">
        <g
           id="g935">
          <path
             inkscape:connector-curvature="0"
             d="m 21.66,25.249 c 0,2.189 1.777,3.966 3.966,3.966 1.538,0 2.856,-0.885 3.515,-2.163 l 0.011,0.01 7.239,-13.062 -12.708,7.794 0.012,0.012 c -1.209,0.681 -2.035,1.959 -2.035,3.443 z"
             id="path927" />
          <path
             inkscape:connector-curvature="0"
             d="M 41.604,6.351 C 37.542,2.799 32.291,0.531 26.291,0.192 v 6.027 c 5,0.318 7.945,1.906 10.904,4.384 z"
             id="path929" />
          <path
             inkscape:connector-curvature="0"
             d="m 44.436,23.37 h 6.021 C 50.053,17.37 47.706,12.44 44.061,8.4 l -4.26,4.233 c 2.566,2.94 4.254,6.737 4.635,10.737 z"
             id="path931" />
          <path
             inkscape:connector-curvature="0"
             d="M 44.463,26.37 C 43.826,36.37 35.541,44.303 25.421,44.303 14.886,44.302 6,35.757 6,25.223 6,15.195 14.289,6.99 23.289,6.22 V 0.193 C 10.289,0.972 0,11.91 0,25.249 c 0,13.844 11.42,25.053 25.263,25.053 13.432,0 24.59,-10.933 25.231,-23.933 h -6.031 z"
             id="path933" />
        </g>
      </g>
    </g>
    <g
       id="g941" />
    <g
       id="g943" />
    <g
       id="g945" />
    <g
       id="g947" />
    <g
       id="g949" />
    <g
       id="g951" />
    <g
       id="g953" />
    <g
       id="g955" />
    <g
       id="g957" />
    <g
       id="g959" />
    <g
       id="g961" />
    <g
       id="g963" />
    <g
       id="g965" />
    <g
       id="g967" />
    <g
       id="g969" />
  </g>
  <g
     id="g925"
     transform="matrix(10.139819,0,0,10.139819,255.99999,255.99999)"
     style="fill:url(#linearGradient991);fill-opacity:1">
    <g
       id="g864"
       style="fill:url(#linearGradient895);fill-opacity:1">
      <g
         id="g862"
         style="fill:url(#linearGradient893);fill-opacity:1">
        <g
           id="g860"
           style="fill:url(#linearGradient891);fill-opacity:1">
          <path
             id="path852"
             d="m 21.66,25.249 c 0,2.189 1.777,3.966 3.966,3.966 1.538,0 2.856,-0.885 3.515,-2.163 l 0.011,0.01 7.239,-13.062 -12.708,7.794 0.012,0.012 c -1.209,0.681 -2.035,1.959 -2.035,3.443 z"
             inkscape:connector-curvature="0"
             style="fill:url(#linearGradient883);fill-opacity:1" />
          <path
             id="path854"
             d="M 41.604,6.351 C 37.542,2.799 32.291,0.531 26.291,0.192 v 6.027 c 5,0.318 7.945,1.906 10.904,4.384 z"
             inkscape:connector-curvature="0"
             style="fill:url(#linearGradient885);fill-opacity:1" />
          <path
             id="path856"
             d="m 44.436,23.37 h 6.021 C 50.053,17.37 47.706,12.44 44.061,8.4 l -4.26,4.233 c 2.566,2.94 4.254,6.737 4.635,10.737 z"
             inkscape:connector-curvature="0"
             style="fill:url(#linearGradient887);fill-opacity:1" />
          <path
             id="path858"
             d="M 44.463,26.37 C 43.826,36.37 35.541,44.303 25.421,44.303 14.886,44.302 6,35.757 6,25.223 6,15.195 14.289,6.99 23.289,6.22 V 0.193 C 10.289,0.972 0,11.91 0,25.249 c 0,13.844 11.42,25.053 25.263,25.053 13.432,0 24.59,-10.933 25.231,-23.933 h -6.031 z"
             inkscape:connector-curvature="0"
             style="fill:url(#linearGradient889);fill-opacity:1" />
        </g>
      </g>
    </g>
    <g
       id="g866"
       style="fill:url(#linearGradient897);fill-opacity:1" />
    <g
       id="g868"
       style="fill:url(#linearGradient899);fill-opacity:1" />
    <g
       id="g870"
       style="fill:url(#linearGradient901);fill-opacity:1" />
    <g
       id="g872"
       style="fill:url(#linearGradient904);fill-opacity:1" />
    <g
       id="g874"
       style="fill:url(#linearGradient906);fill-opacity:1" />
    <g
       id="g876"
       style="fill:url(#linearGradient908);fill-opacity:1" />
    <g
       id="g878"
       style="fill:url(#linearGradient910);fill-opacity:1" />
    <g
       id="g880"
       style="fill:url(#linearGradient912);fill-opacity:1" />
    <g
       id="g882"
       style="fill:url(#linearGradient914);fill-opacity:1" />
    <g
       id="g884"
       style="fill:url(#linearGradient916);fill-opacity:1" />
    <g
       id="g886"
       style="fill:url(#linearGradient918);fill-opacity:1" />
    <g
       id="g888"
       style="fill:url(#linearGradient920);fill-opacity:1" />
    <g
       id="g890"
       style="fill:url(#linearGradient922);fill-opacity:1" />
    <g
       id="g892"
       style="fill:url(#linearGradient924);fill-opacity:1" />
    <g
       id="g894"
       style="fill:url(#linearGradient926);fill-opacity:1" />
  </g>
</svg>
