<?xml version="1.0" encoding="UTF-8" standalone="no"?>
<!-- Created with Inkscape (http://www.inkscape.org/) -->

<svg
   xmlns:dc="http://purl.org/dc/elements/1.1/"
   xmlns:cc="http://creativecommons.org/ns#"
   xmlns:rdf="http://www.w3.org/1999/02/22-rdf-syntax-ns#"
   xmlns:svg="http://www.w3.org/2000/svg"
   xmlns="http://www.w3.org/2000/svg"
   xmlns:xlink="http://www.w3.org/1999/xlink"
   xmlns:sodipodi="http://sodipodi.sourceforge.net/DTD/sodipodi-0.dtd"
   xmlns:inkscape="http://www.inkscape.org/namespaces/inkscape"
   width="1024"
   height="1024"
   id="svg2"
   version="1.1"
   inkscape:version="0.92.4 (5da689c313, 2019-01-14)"
   sodipodi:docname="preferences-system-network.svg">
  <defs
     id="defs4">
    <linearGradient
       id="linearGradient1381">
      <stop
         style="stop-color:#f6f7f7;stop-opacity:1"
         offset="0"
         id="stop1377" />
      <stop
         id="stop1383"
         offset="0.51999998"
         style="stop-color:#e9eff3;stop-opacity:0.66935486" />
      <stop
         style="stop-color:#dce7f0;stop-opacity:0.82661289"
         offset="1"
         id="stop1379" />
    </linearGradient>
    <linearGradient
       inkscape:collect="always"
       id="linearGradient1346">
      <stop
         style="stop-color:#00b8ff;stop-opacity:1"
         offset="0"
         id="stop1342" />
      <stop
         style="stop-color:#007bff;stop-opacity:1"
         offset="1"
         id="stop1344" />
    </linearGradient>
    <linearGradient
       id="linearGradient940">
      <stop
         id="stop936"
         offset="0"
         style="stop-color:#f6f7f7;stop-opacity:1" />
      <stop
         id="stop938"
         offset="1"
         style="stop-color:#dce7f0;stop-opacity:1" />
    </linearGradient>
    <linearGradient
       id="linearGradient909">
      <stop
         id="stop905"
         offset="0"
         style="stop-color:#cccccc;stop-opacity:1" />
      <stop
         id="stop907"
         offset="1"
         style="stop-color:#d6d6d6;stop-opacity:1;" />
    </linearGradient>
    <linearGradient
       id="linearGradient894"
       x2="50%"
       x1="50%"
       y2="100%">
      <stop
         id="stop892"
         offset="0"
         stop-color="#1387B8" />
      <stop
         id="stop890"
         offset="0.12721"
         stop-color="#136497" />
      <stop
         id="stop888"
         offset="0.2624"
         stop-color="#144B7E" />
      <stop
         id="stop886"
         offset="0.4189"
         stop-color="#132E62" />
      <stop
         id="stop884"
         offset="0.59305"
         stop-color="#0A1B48" />
      <stop
         id="stop882"
         offset="0.78752"
         stop-color="#051839" />
      <stop
         id="stop880"
         offset="1"
         stop-color="#111D2E" />
    </linearGradient>
    <linearGradient
       id="linearGradient1026">
      <stop
         id="stop1024"
         offset="0"
         style="stop-color:#d7d7d7;stop-opacity:1" />
      <stop
         id="stop1022"
         offset="1"
         style="stop-color:#ffffff;stop-opacity:1" />
    </linearGradient>
    <linearGradient
       id="linearGradient1016">
      <stop
         id="stop1012"
         offset="0"
         style="stop-color:#ffffff;stop-opacity:1" />
      <stop
         id="stop1014"
         offset="1"
         style="stop-color:#d7d7d7;stop-opacity:1" />
    </linearGradient>
    <linearGradient
       id="linearGradient1010">
      <stop
         id="stop1006"
         offset="0"
         style="stop-color:#ffffff;stop-opacity:1" />
      <stop
         id="stop1008"
         offset="1"
         style="stop-color:#d7d7d7;stop-opacity:1" />
    </linearGradient>
    <linearGradient
       id="linearGradient998">
      <stop
         style="stop-color:#d6d6d6;stop-opacity:1;"
         offset="0"
         id="stop996" />
      <stop
         style="stop-color:#f4fbfc;stop-opacity:1;"
         offset="1"
         id="stop994" />
    </linearGradient>
    <linearGradient
       id="linearGradient953">
      <stop
         style="stop-color:#1a1a1a;stop-opacity:1"
         offset="0"
         id="stop951" />
      <stop
         style="stop-color:#333333;stop-opacity:1"
         offset="1"
         id="stop949" />
    </linearGradient>
    <linearGradient
       id="linearGradient849">
      <stop
         id="stop845"
         offset="0"
         style="stop-color:#333333;stop-opacity:1;" />
      <stop
         id="stop847"
         offset="1"
         style="stop-color:#2f4065;stop-opacity:1;" />
    </linearGradient>
    <linearGradient
       id="linearGradient4829">
      <stop
         style="stop-color:#f4fbfc;stop-opacity:1;"
         offset="0"
         id="stop4831" />
      <stop
         style="stop-color:#d6d6d6;stop-opacity:1;"
         offset="1"
         id="stop4833" />
    </linearGradient>
    <clipPath
       clipPathUnits="userSpaceOnUse"
       id="clipPath4282">
      <rect
         style="color:#000000;display:inline;overflow:visible;visibility:visible;fill:#4d4d4d;fill-opacity:1;fill-rule:nonzero;stroke:none;stroke-width:9.13434315;marker:none;enable-background:accumulate"
         id="rect4284"
         width="246.875"
         height="234.375"
         x="462.5"
         y="1646.1122"
         ry="17"
         rx="17" />
    </clipPath>
    <linearGradient
       inkscape:collect="always"
       xlink:href="#linearGradient1346"
       id="linearGradient4835"
       x1="97.551018"
       y1="-3.6734703"
       x2="97.551018"
       y2="204.48979"
       gradientUnits="userSpaceOnUse"
       gradientTransform="matrix(4.9,0,0,4.9,22,50.362184)" />
    <linearGradient
       inkscape:collect="always"
       xlink:href="#linearGradient5423"
       id="linearGradient5429"
       x1="408.66196"
       y1="44.604382"
       x2="408.66196"
       y2="562.04968"
       gradientUnits="userSpaceOnUse" />
    <linearGradient
       id="linearGradient5423">
      <stop
         style="stop-color:#333333;stop-opacity:1;"
         offset="0"
         id="stop5425" />
      <stop
         style="stop-color:#2f4065;stop-opacity:1;"
         offset="1"
         id="stop5427" />
    </linearGradient>
    <clipPath
       clipPathUnits="userSpaceOnUse"
       id="clipPath6245">
      <rect
         style="color:#000000;display:inline;overflow:visible;visibility:visible;opacity:0.85;fill:#ffffff;fill-opacity:1;fill-rule:nonzero;stroke:none;stroke-width:1.5;marker:none;enable-background:accumulate"
         id="rect6247"
         width="300"
         height="259.375"
         x="-901.5625"
         y="792.98718"
         rx="16.46875"
         ry="16.46875" />
    </clipPath>
    <linearGradient
       inkscape:collect="always"
       xlink:href="#linearGradient4829"
       id="linearGradient6392"
       x1="106.6204"
       y1="868.99115"
       x2="106.6204"
       y2="1041.3843"
       gradientUnits="userSpaceOnUse" />
    <linearGradient
       inkscape:collect="always"
       xlink:href="#linearGradient4829"
       id="linearGradient6523"
       x1="142.68672"
       y1="731.52191"
       x2="142.68672"
       y2="1204.222"
       gradientUnits="userSpaceOnUse" />
    <linearGradient
       inkscape:collect="always"
       xlink:href="#linearGradient4829"
       id="linearGradient4515"
       x1="100.61381"
       y1="852.36218"
       x2="100.61381"
       y2="1052.3622"
       gradientUnits="userSpaceOnUse" />
    <linearGradient
       inkscape:collect="always"
       xlink:href="#linearGradient4829"
       id="linearGradient4544"
       x1="42.216808"
       y1="62.831554"
       x2="105.62117"
       y2="62.831554"
       gradientUnits="userSpaceOnUse" />
    <linearGradient
       inkscape:collect="always"
       xlink:href="#linearGradient4829-4"
       id="linearGradient4544-4"
       x1="42.216808"
       y1="62.831554"
       x2="105.62117"
       y2="62.831554"
       gradientUnits="userSpaceOnUse" />
    <linearGradient
       id="linearGradient4829-4">
      <stop
         style="stop-color:#f4fbfc;stop-opacity:1;"
         offset="0"
         id="stop4831-5" />
      <stop
         style="stop-color:#d6d6d6;stop-opacity:1;"
         offset="1"
         id="stop4833-8" />
    </linearGradient>
    <linearGradient
       gradientTransform="rotate(180,100.69968,526.37395)"
       y2="62.831554"
       x2="105.62117"
       y1="62.831554"
       x1="42.216808"
       gradientUnits="userSpaceOnUse"
       id="linearGradient4561"
       xlink:href="#linearGradient4829-4"
       inkscape:collect="always" />
    <linearGradient
       inkscape:collect="always"
       xlink:href="#linearGradient4829"
       id="linearGradient4588"
       x1="64.375336"
       y1="101.32469"
       x2="142.63159"
       y2="101.32469"
       gradientUnits="userSpaceOnUse" />
    <linearGradient
       inkscape:collect="always"
       xlink:href="#linearGradient4829"
       id="linearGradient4595"
       x1="106.21929"
       y1="852.36218"
       x2="106.21929"
       y2="1052.3622"
       gradientUnits="userSpaceOnUse" />
    <linearGradient
       y2="100%"
       x1="50%"
       x2="50%"
       id="a">
      <stop
         stop-color="#1387B8"
         offset="0"
         id="stop871" />
      <stop
         stop-color="#136497"
         offset="0.12721"
         id="stop869" />
      <stop
         stop-color="#144B7E"
         offset="0.2624"
         id="stop867" />
      <stop
         stop-color="#132E62"
         offset="0.4189"
         id="stop865" />
      <stop
         stop-color="#0A1B48"
         offset="0.59305"
         id="stop863" />
      <stop
         stop-color="#051839"
         offset="0.78752"
         id="stop861" />
      <stop
         stop-color="#111D2E"
         offset="1"
         id="stop859" />
    </linearGradient>
    <linearGradient
       y2="232.87497"
       x1="116.68872"
       x2="116.68872"
       id="a-3"
       gradientTransform="matrix(0.99946338,0,0,1.0005369,1186.25,320.72218)"
       y1="0"
       gradientUnits="userSpaceOnUse">
      <stop
         id="stop910"
         offset="0"
         stop-color="#111D2E" />
      <stop
         id="stop912"
         offset=".21248"
         stop-color="#051839" />
      <stop
         id="stop914"
         offset=".40695"
         stop-color="#0A1B48" />
      <stop
         id="stop916"
         offset=".58110"
         stop-color="#132E62" />
      <stop
         id="stop918"
         offset=".73760"
         stop-color="#144B7E" />
      <stop
         id="stop920"
         offset=".87279"
         stop-color="#136497" />
      <stop
         id="stop922"
         offset="1"
         stop-color="#1387B8" />
    </linearGradient>
    <linearGradient
       inkscape:collect="always"
       xlink:href="#linearGradient1346"
       id="linearGradient902"
       x1="520"
       y1="52.362179"
       x2="520"
       y2="1052.3622"
       gradientUnits="userSpaceOnUse"
       gradientTransform="translate(0.49804877,-0.49804884)" />
    <filter
       inkscape:collect="always"
       style="color-interpolation-filters:sRGB"
       id="filter1058"
       x="-0.036"
       width="1.072"
       y="-0.036"
       height="1.072">
      <feGaussianBlur
         inkscape:collect="always"
         stdDeviation="2.55"
         id="feGaussianBlur1060" />
    </filter>
    <clipPath
       clipPathUnits="userSpaceOnUse"
       id="clipPath1121">
      <g
         style="fill:#000000;fill-opacity:0.88479261;stroke:#000000;stroke-width:4;stroke-linecap:square;stroke-linejoin:round;stroke-miterlimit:4;stroke-dasharray:none;stroke-opacity:0.09677417;paint-order:stroke fill markers"
         id="use1123"
         inkscape:label="Clip">
        <g
           style="fill:#000000;fill-opacity:0.88479261;stroke:#000000;stroke-width:4;stroke-linecap:square;stroke-linejoin:round;stroke-miterlimit:4;stroke-dasharray:none;stroke-opacity:0.09677417;paint-order:stroke fill markers"
           id="g1173">
          <circle
             r="175"
             cy="540.36218"
             cx="512"
             id="circle1157"
             style="opacity:1;fill:#000000;fill-opacity:0.88479261;stroke:#000000;stroke-width:4;stroke-linecap:square;stroke-linejoin:round;stroke-miterlimit:4;stroke-dasharray:none;stroke-opacity:0.09677417;paint-order:stroke fill markers" />
          <circle
             style="opacity:1;fill:#000000;fill-opacity:0.88479261;stroke:#000000;stroke-width:4;stroke-linecap:square;stroke-linejoin:round;stroke-miterlimit:4;stroke-dasharray:none;stroke-opacity:0.09677417;paint-order:stroke fill markers"
             id="circle1159"
             cx="226.02777"
             cy="825.61218"
             r="125" />
          <path
             style="fill:#000000;fill-opacity:0.88479261;stroke:#000000;stroke-width:4;stroke-linecap:square;stroke-linejoin:round;stroke-miterlimit:4;stroke-dasharray:none;stroke-opacity:0.09677417;paint-order:stroke fill markers"
             d="m 360,452.36218 -235,300 180,170 315,-245 z"
             id="path1161"
             inkscape:connector-curvature="0" />
          <circle
             r="125"
             cy="540.36218"
             cx="512"
             id="circle1163"
             style="opacity:1;fill:#000000;fill-opacity:0.88479261;stroke:#000000;stroke-width:4;stroke-linecap:square;stroke-linejoin:round;stroke-miterlimit:4;stroke-dasharray:none;stroke-opacity:0.09677417;paint-order:stroke fill markers" />
          <circle
             r="85"
             cy="548.36218"
             cx="512"
             id="circle1165"
             style="opacity:0.3;fill:#000000;fill-opacity:0.88479261;stroke:#000000;stroke-width:4;stroke-linecap:square;stroke-linejoin:round;stroke-miterlimit:4;stroke-dasharray:none;stroke-opacity:0.09677417;paint-order:stroke fill markers;filter:url(#filter1058)" />
          <circle
             style="opacity:1;fill:#000000;fill-opacity:0.88479261;stroke:#000000;stroke-width:4;stroke-linecap:square;stroke-linejoin:round;stroke-miterlimit:4;stroke-dasharray:none;stroke-opacity:0.09677417;paint-order:stroke fill markers"
             id="circle1167"
             cx="512"
             cy="540.36218"
             r="85" />
          <circle
             r="85"
             cy="818.02887"
             cx="235.69446"
             id="circle1169"
             style="opacity:1;fill:#000000;fill-opacity:0.88479261;stroke:#000000;stroke-width:4;stroke-linecap:square;stroke-linejoin:round;stroke-miterlimit:4;stroke-dasharray:none;stroke-opacity:0.09677417;paint-order:stroke fill markers" />
          <circle
             style="opacity:1;fill:#000000;fill-opacity:0.88479261;stroke:#000000;stroke-width:4;stroke-linecap:square;stroke-linejoin:round;stroke-miterlimit:4;stroke-dasharray:none;stroke-opacity:0.09677417;paint-order:stroke fill markers"
             id="circle1171"
             cx="235.69446"
             cy="818.02887"
             r="85" />
        </g>
      </g>
    </clipPath>
    <linearGradient
       y2="174.70815"
       x2="146.52715"
       y1="131.02763"
       x1="123.64119"
       id="w"
       gradientTransform="matrix(4.2811896,0,0,3.5908088,41,42.000008)"
       gradientUnits="userSpaceOnUse">
      <stop
         id="stop847-3"
         offset="0"
         stop-color="#eff7fc" />
      <stop
         id="stop849"
         offset="1"
         stop-color="#fff" />
    </linearGradient>
    <filter
       style="color-interpolation-filters:sRGB;"
       inkscape:label="Drop Shadow"
       id="filter1053">
      <feFlood
         flood-opacity="0.294118"
         flood-color="rgb(0,0,0)"
         result="flood"
         id="feFlood1042" />
      <feComposite
         in="flood"
         in2="SourceGraphic"
         operator="in"
         result="composite1"
         id="feComposite1044" />
      <feGaussianBlur
         in="composite1"
         stdDeviation="3"
         result="blur"
         id="feGaussianBlur1047" />
      <feOffset
         dx="0"
         dy="3"
         result="offset"
         id="feOffset1049" />
      <feComposite
         in="SourceGraphic"
         in2="offset"
         operator="over"
         result="composite2"
         id="feComposite1051" />
    </filter>
    <linearGradient
       inkscape:collect="always"
       xlink:href="#linearGradient940"
       id="linearGradient1272"
       gradientUnits="userSpaceOnUse" />
    <linearGradient
       inkscape:collect="always"
       xlink:href="#linearGradient940"
       id="linearGradient1274"
       gradientUnits="userSpaceOnUse" />
    <linearGradient
       inkscape:collect="always"
       xlink:href="#linearGradient940"
       id="linearGradient1276"
       gradientUnits="userSpaceOnUse" />
    <linearGradient
       inkscape:collect="always"
       xlink:href="#linearGradient940"
       id="linearGradient1278"
       gradientUnits="userSpaceOnUse" />
    <linearGradient
       inkscape:collect="always"
       xlink:href="#linearGradient940"
       id="linearGradient1280"
       gradientUnits="userSpaceOnUse" />
    <linearGradient
       inkscape:collect="always"
       xlink:href="#linearGradient940"
       id="linearGradient1282"
       gradientUnits="userSpaceOnUse" />
    <linearGradient
       inkscape:collect="always"
       xlink:href="#linearGradient940"
       id="linearGradient1284"
       gradientUnits="userSpaceOnUse" />
    <linearGradient
       inkscape:collect="always"
       xlink:href="#linearGradient940"
       id="linearGradient1286"
       gradientUnits="userSpaceOnUse" />
    <linearGradient
       inkscape:collect="always"
       xlink:href="#linearGradient940"
       id="linearGradient1288"
       gradientUnits="userSpaceOnUse" />
    <linearGradient
       inkscape:collect="always"
       xlink:href="#linearGradient940"
       id="linearGradient1290"
       gradientUnits="userSpaceOnUse" />
    <linearGradient
       inkscape:collect="always"
       xlink:href="#linearGradient940"
       id="linearGradient1292"
       gradientUnits="userSpaceOnUse" />
    <linearGradient
       inkscape:collect="always"
       xlink:href="#linearGradient940"
       id="linearGradient1294"
       gradientUnits="userSpaceOnUse" />
    <linearGradient
       inkscape:collect="always"
       xlink:href="#linearGradient940"
       id="linearGradient1296"
       gradientUnits="userSpaceOnUse" />
    <linearGradient
       inkscape:collect="always"
       xlink:href="#linearGradient940"
       id="linearGradient1298"
       gradientUnits="userSpaceOnUse" />
    <linearGradient
       inkscape:collect="always"
       xlink:href="#linearGradient940"
       id="linearGradient1300"
       gradientUnits="userSpaceOnUse" />
    <filter
       style="color-interpolation-filters:sRGB;"
       inkscape:label="Drop Shadow"
       id="filter1338">
      <feFlood
         flood-opacity="0.294118"
         flood-color="rgb(0,0,0)"
         result="flood"
         id="feFlood1328" />
      <feComposite
         in="flood"
         in2="SourceGraphic"
         operator="in"
         result="composite1"
         id="feComposite1330" />
      <feGaussianBlur
         in="composite1"
         stdDeviation="3"
         result="blur"
         id="feGaussianBlur1332" />
      <feOffset
         dx="0"
         dy="3"
         result="offset"
         id="feOffset1334" />
      <feComposite
         in="SourceGraphic"
         in2="offset"
         operator="over"
         result="composite2"
         id="feComposite1336" />
    </filter>
    <linearGradient
       inkscape:collect="always"
       xlink:href="#linearGradient1197"
       id="linearGradient1199"
       x1="540.14288"
       y1="29.770346"
       x2="540.14288"
       y2="1054.9744"
       gradientUnits="userSpaceOnUse"
       gradientTransform="matrix(0.99492386,0,0,0.99492386,2.59902,2.7429454)" />
    <linearGradient
       inkscape:collect="always"
       id="linearGradient1197">
      <stop
         style="stop-color:#ffffff;stop-opacity:0.58823532"
         offset="0"
         id="stop1193" />
      <stop
         style="stop-color:#ffffff;stop-opacity:0"
         offset="1"
         id="stop1195" />
    </linearGradient>
    <linearGradient
       inkscape:collect="always"
       xlink:href="#linearGradient1381"
       id="linearGradient1014"
       gradientUnits="userSpaceOnUse"
       x1="520"
       y1="52.362179"
       x2="520"
       y2="1052.3622"
       gradientTransform="translate(0,-28.36218)" />
    <linearGradient
       inkscape:collect="always"
       xlink:href="#linearGradient940"
       id="linearGradient1023"
       x1="760"
       y1="412.36218"
       x2="760"
       y2="672.36218"
       gradientUnits="userSpaceOnUse"
       gradientTransform="translate(0,40)" />
    <filter
       style="color-interpolation-filters:sRGB;"
       inkscape:label="Drop Shadow"
       id="filter1097">
      <feFlood
         flood-opacity="0.498039"
         flood-color="rgb(0,165,230)"
         result="flood"
         id="feFlood1087" />
      <feComposite
         in="flood"
         in2="SourceGraphic"
         operator="out"
         result="composite1"
         id="feComposite1089" />
      <feGaussianBlur
         in="composite1"
         stdDeviation="10"
         result="blur"
         id="feGaussianBlur1091" />
      <feOffset
         dx="0"
         dy="3"
         result="offset"
         id="feOffset1093" />
      <feComposite
         in="offset"
         in2="SourceGraphic"
         operator="atop"
         result="composite2"
         id="feComposite1095" />
    </filter>
    <linearGradient
       inkscape:collect="always"
       xlink:href="#linearGradient940"
       id="linearGradient1105"
       gradientUnits="userSpaceOnUse"
       x1="760"
       y1="412.36218"
       x2="760"
       y2="672.36218"
       gradientTransform="translate(0,40)" />
    <filter
       style="color-interpolation-filters:sRGB;"
       inkscape:label="Drop Shadow"
       id="filter1399">
      <feFlood
         flood-opacity="0.294118"
         flood-color="rgb(0,0,0)"
         result="flood"
         id="feFlood1389" />
      <feComposite
         in="flood"
         in2="SourceGraphic"
         operator="in"
         result="composite1"
         id="feComposite1391" />
      <feGaussianBlur
         in="composite1"
         stdDeviation="10"
         result="blur"
         id="feGaussianBlur1393" />
      <feOffset
         dx="0"
         dy="10"
         result="offset"
         id="feOffset1395" />
      <feComposite
         in="offset"
         in2="SourceGraphic"
         operator="out"
         result="composite2"
         id="feComposite1397" />
    </filter>
    <linearGradient
       inkscape:collect="always"
       xlink:href="#linearGradient940"
       id="linearGradient1002"
       gradientUnits="userSpaceOnUse"
       gradientTransform="translate(-1058.9668,-23.91797)"
       x1="520"
       y1="52.362179"
       x2="520"
       y2="1052.3622" />
    <filter
       inkscape:collect="always"
       style="color-interpolation-filters:sRGB"
       id="filter1251"
       x="-0.72"
       width="2.44"
       y="-0.72"
       height="2.44">
      <feGaussianBlur
         inkscape:collect="always"
         stdDeviation="45"
         id="feGaussianBlur1253" />
    </filter>
    <filter
       style="color-interpolation-filters:sRGB;"
       inkscape:label="Drop Shadow"
       id="filter1375">
      <feFlood
         flood-opacity="0.498039"
         flood-color="rgb(0,157,255)"
         result="flood"
         id="feFlood1365" />
      <feComposite
         in="flood"
         in2="SourceGraphic"
         operator="out"
         result="composite1"
         id="feComposite1367" />
      <feGaussianBlur
         in="composite1"
         stdDeviation="35"
         result="blur"
         id="feGaussianBlur1369" />
      <feOffset
         dx="0"
         dy="3"
         result="offset"
         id="feOffset1371" />
      <feComposite
         in="offset"
         in2="SourceGraphic"
         operator="in"
         result="composite2"
         id="feComposite1373" />
    </filter>
    <linearGradient
       id="linearGradient876">
      <stop
         style="stop-color:#19987a;stop-opacity:1"
         offset="0"
         id="stop872" />
      <stop
         style="stop-color:#003739;stop-opacity:1"
         offset="1"
         id="stop874" />
    </linearGradient>
    <clipPath
       clipPathUnits="userSpaceOnUse"
       id="clipPath1408">
      <circle
         r="490"
         cy="540.36218"
         cx="512"
         id="circle1410"
         style="color:#000000;display:inline;overflow:visible;visibility:visible;fill:url(#linearGradient1412);fill-opacity:1;fill-rule:nonzero;stroke:none;stroke-width:44.75828171;marker:none;enable-background:accumulate" />
    </clipPath>
    <linearGradient
       inkscape:collect="always"
       xlink:href="#linearGradient1346"
       id="linearGradient1412"
       gradientUnits="userSpaceOnUse"
       gradientTransform="matrix(4.9,0,0,4.9,22,50.362184)"
       x1="97.551018"
       y1="-3.6734703"
       x2="97.551018"
       y2="204.48979" />
    <clipPath
       clipPathUnits="userSpaceOnUse"
       id="clipPath1426">
      <circle
         r="490"
         cy="-364.36218"
         cx="-1088"
         id="circle1428"
         style="color:#000000;display:inline;overflow:visible;visibility:visible;fill:url(#linearGradient1430);fill-opacity:1;fill-rule:nonzero;stroke:none;stroke-width:44.75828171;marker:none;enable-background:accumulate"
         transform="scale(-1)" />
    </clipPath>
    <linearGradient
       inkscape:collect="always"
       xlink:href="#linearGradient1346"
       id="linearGradient1430"
       gradientUnits="userSpaceOnUse"
       gradientTransform="matrix(4.9,0,0,4.9,-1578,-854.36216)"
       x1="97.551018"
       y1="-3.6734703"
       x2="97.551018"
       y2="204.48979" />
    <linearGradient
       inkscape:collect="always"
       xlink:href="#linearGradient940"
       id="linearGradient1434"
       gradientUnits="userSpaceOnUse"
       x1="760"
       y1="412.36218"
       x2="760"
       y2="672.36218"
       gradientTransform="translate(0,40)" />
  </defs>
  <sodipodi:namedview
     id="base"
     pagecolor="#ffffff"
     bordercolor="#666666"
     borderopacity="1.0"
     inkscape:pageopacity="0.0"
     inkscape:pageshadow="2"
     inkscape:zoom="0.71875"
     inkscape:cx="612.86054"
     inkscape:cy="512"
     inkscape:document-units="px"
     inkscape:current-layer="layer1"
     showgrid="true"
     inkscape:window-width="1920"
     inkscape:window-height="958"
     inkscape:window-x="0"
     inkscape:window-y="25"
     inkscape:window-maximized="1"
     inkscape:snap-from-guide="true"
     showguides="true"
     inkscape:guide-bbox="true"
     inkscape:pagecheckerboard="true">
    <sodipodi:guide
       position="0,0"
       orientation="0,200"
       id="guide3764"
       inkscape:locked="false" />
    <sodipodi:guide
       position="200,0"
       orientation="-200,0"
       id="guide3766"
       inkscape:locked="false" />
    <sodipodi:guide
       position="200,200"
       orientation="0,-200"
       id="guide3768"
       inkscape:locked="false" />
    <sodipodi:guide
       position="0,200"
       orientation="200,0"
       id="guide3770"
       inkscape:locked="false" />
    <inkscape:grid
       type="xygrid"
       id="grid910" />
  </sodipodi:namedview>
  <metadata
     id="metadata7">
    <rdf:RDF>
      <cc:Work
         rdf:about="">
        <dc:format>image/svg+xml</dc:format>
        <dc:type
           rdf:resource="http://purl.org/dc/dcmitype/StillImage" />
        <dc:title />
      </cc:Work>
    </rdf:RDF>
  </metadata>
  <g
     inkscape:label="Layer 1"
     inkscape:groupmode="layer"
     id="layer1"
     transform="translate(0,-28.36218)">
    <circle
       style="color:#000000;display:inline;overflow:visible;visibility:visible;fill:url(#linearGradient4835);fill-opacity:1.0;fill-rule:nonzero;stroke:none;stroke-width:44.75828171;marker:none;enable-background:accumulate"
       id="path4188"
       cx="512"
       cy="540.36218"
       r="490" />
    <circle
       r="487.5127"
       cy="540.36218"
       cx="512"
       id="circle1191"
       style="color:#000000;display:inline;overflow:visible;visibility:visible;fill:none;fill-opacity:1;fill-rule:nonzero;stroke:url(#linearGradient1199);stroke-width:4.9749999;stroke-miterlimit:4;stroke-dasharray:none;marker:none;enable-background:accumulate" />
    <circle
       style="color:#000000;display:inline;overflow:visible;visibility:visible;fill:url(#linearGradient902);fill-opacity:1;fill-rule:nonzero;stroke:none;stroke-width:42.8092041;marker:none;enable-background:accumulate"
       id="path4188-6"
       cx="512"
       cy="540.36218"
       r="468.66211" />
    <path
       id="circle999"
       transform="translate(0,28.36218)"
       style="color:#000000;display:inline;overflow:visible;visibility:visible;fill:url(#linearGradient1014);fill-opacity:1;fill-rule:nonzero;stroke:none;stroke-width:42.8092041;marker:none;enable-background:accumulate;opacity:0.32"
       d="m 375.93164,64.166016 c -0.39039,0.101026 -0.74875,0.193984 -1.20898,0.318359 -0.03,0.07978 -0.058,0.160408 -0.0879,0.240234 0.44699,-0.183804 0.89424,-0.369392 1.29687,-0.558593 z m 593.80078,37.951174 c 1.38945,0.86535 4.58714,2.90518 3.60547,2.29101 -1.75032,-1.09505 -2.49028,-1.57896 -3.60547,-2.29101 z m -510.03515,15.31445 c -5.50562,0 -10.09485,-8.6e-4 -12.84766,2.75195 -1.83521,2.75281 -3.66992,5.50465 -3.66992,7.33985 0,1.83521 0.91675,3.67066 2.75195,5.50586 2.75281,1.83521 4.58863,2.75427 6.42383,3.67187 1.83521,0.91761 4.58899,1.83435 7.3418,2.75195 2.75281,0.91761 4.58825,1.83594 5.50585,1.83594 5.50561,4.58801 7.33912,7.34057 5.50391,9.17578 -0.9176,0 -2.75109,0.91639 -5.50391,1.83399 -2.75281,0.91761 -5.50658,1.8363 -7.34179,2.7539 -1.8352,0.91761 -3.66992,1.83436 -3.66992,2.75196 -0.9176,1.83521 -0.9176,4.58777 0,9.17578 0.9176,4.58802 0.91723,7.34253 -0.91797,9.17773 -1.83521,-1.8352 -3.67065,-5.50611 -5.50586,-11.01172 -1.83521,-5.50562 -2.75268,-9.17614 -4.58789,-10.09375 2.75281,3.67042 -2.75316,5.50513 -15.59961,3.66993 l -6.42188,-0.91797 c -1.8352,0 -5.50574,3.6e-4 -10.09375,0.91797 -5.50562,0.9176 -9.17724,0.91796 -12.84765,0.91796 -3.67041,0 -6.42261,-1.83544 -8.25782,-5.50585 -1.83521,-3.67041 -1.83521,-7.34009 0,-12.84571 0,-1.83521 0.91675,-1.83558 2.75196,-0.91797 -1.83521,-0.91761 -3.66944,-3.67101 -7.33985,-6.42382 -2.75281,-2.75281 -5.50621,-4.58826 -6.42382,-5.50586 -19.26966,6.42322 -39.45727,14.68212 -59.64454,25.69336 2.75281,0 5.5066,-3.7e-4 7.3418,-0.91797 1.83521,-0.91761 4.5874,-1.83508 8.25781,-4.58789 3.67041,-1.8352 5.50623,-2.75233 6.42383,-3.66993 14.68165,-5.50562 22.93897,-7.34069 26.60938,-4.58789 l 2.7539,-2.7539 c 5.50562,6.42322 10.0929,11.92919 12.84571,15.59961 -2.75281,-1.83521 -9.17589,-1.83557 -19.26954,-0.91797 -8.25842,2.75281 -12.84606,5.50659 -13.76367,7.34179 2.75281,5.50562 3.66956,9.17493 2.75196,11.92774 -1.83521,-0.91761 -4.58704,-3.66908 -7.33985,-6.42188 -2.75281,-2.75281 -6.42297,-5.50658 -9.17578,-7.34179 -2.75281,-1.8352 -6.42297,-2.75196 -9.17578,-2.75196 -6.42322,0 -11.93041,3.6e-4 -13.76562,0.91797 -59.6442,33.0337 -110.11071,79.83078 -147.73243,140.39258 2.75281,2.7528 5.50465,4.58826 7.33985,5.50586 1.83521,0 2.7539,2.75305 2.7539,5.50586 0,3.67041 0.91639,5.50463 1.83399,7.33984 0.9176,0.9176 2.75378,0.91883 7.34179,-1.83398 3.67041,3.67041 4.5868,7.33971 1.83399,11.92773 0,0 10.09325,5.50672 28.44531,17.43555 8.25843,7.34083 12.84802,11.92846 13.76563,13.76367 0.9176,4.58801 -0.91822,8.25733 -6.42383,11.92774 0,-0.9176 -2.75305,-2.7511 -5.50586,-5.50391 -3.67041,-2.75281 -5.50586,-3.67151 -5.50586,-2.75391 -0.9176,1.83521 -0.9176,6.42407 0,11.92969 1.8352,5.50562 3.67102,8.25781 6.42383,8.25781 -2.75281,0 -4.58863,3.67053 -6.42383,10.09375 -0.9176,6.42322 -1.83399,14.68103 -1.83398,22.93946 0,8.25842 -3.7e-4,12.84644 -0.91797,14.68164 l 0.91797,0.91797 c -0.9176,5.50561 -4.9e-4,12.8474 3.66992,22.02343 3.67042,9.17603 8.25805,13.76331 13.76367,12.84571 -5.50562,0.9176 -0.91834,10.09288 12.8457,27.52734 2.75281,3.67041 4.58826,5.50586 5.50586,5.50586 0.9176,0.9176 3.67139,2.75269 7.3418,4.58789 3.67042,2.75281 7.34058,4.58863 9.17578,6.42383 l 6.42383,6.42383 c 1.8352,1.8352 3.66906,7.34082 6.42187,14.68164 2.7528,7.34083 5.50536,12.84644 9.17578,14.68164 -0.91761,2.75281 0.91821,6.42248 6.42383,12.8457 4.58801,5.50562 7.34143,11.01123 6.42383,14.68164 0,0 -0.91833,3.6e-4 -1.83594,0.91797 -0.9176,0 -0.91638,0.91797 -1.83398,0.91797 0.9176,2.75281 4.58813,5.50537 10.09375,9.17578 5.50562,2.75281 8.25659,5.50501 10.0918,8.25781 0,0.91761 0.91796,3.67102 0.91796,6.42383 0,2.75281 0.91834,5.50464 1.83594,7.33985 0.9176,1.83521 2.75305,1.83557 5.50586,0.91796 0.9176,-8.25842 -4.58838,-22.02257 -15.59961,-39.45703 -6.42322,-11.01123 -10.09411,-16.51635 -11.01172,-18.35156 -0.9176,-1.8352 -2.75232,-5.50573 -3.66992,-10.09375 -0.9176,-4.58801 -1.83435,-7.34057 -2.75195,-9.17578 0.9176,0 1.83472,3.7e-4 3.66992,0.91797 1.83521,0.91761 3.67066,1.83398 5.50586,1.83398 1.83521,0.9176 3.67028,1.83631 4.58789,2.75391 0.9176,0.9176 1.83557,1.83398 0.91797,1.83398 -0.9176,2.7528 -0.91919,6.42371 0.91601,11.01172 1.83521,4.58802 4.58899,8.25928 7.3418,11.92969 2.75281,3.67041 6.42371,7.33971 11.01172,11.92773 4.58802,4.58801 6.42223,7.34216 7.33984,8.25977 2.75281,2.7528 5.50536,6.42248 9.17578,12.8457 3.67041,5.50562 3.67041,8.25781 0,8.25782 3.67041,0 8.25964,1.8358 12.84766,6.42382 4.58801,4.58801 8.25697,8.25769 11.00977,12.84571 1.83521,3.67041 3.67066,9.17675 5.50586,16.51757 0.91761,7.34083 2.7539,12.8468 2.7539,15.59961 0.9176,2.75281 2.75305,5.50501 5.50586,8.25782 2.75281,2.75281 5.505,4.58862 8.25781,6.42382 2.75281,0.9176 5.50573,2.75305 10.09375,5.50586 4.58801,1.83521 7.34021,3.67029 8.25782,4.58789 1.8352,0.91761 6.42406,2.75146 11.92968,6.42188 5.50561,3.67041 10.09327,6.4242 13.76368,7.3418 4.58802,1.83521 7.34094,2.75195 10.09375,2.75195 2.75281,0 5.50537,-0.91638 9.17578,-1.83399 3.67042,-0.91759 6.4226,-1.83593 8.25781,-1.83593 6.42322,-0.91761 12.84594,2.75255 18.35156,9.17578 5.50562,7.34082 10.09521,11.92847 13.76563,13.76367 15.40908,8.15776 26.33622,10.04013 34.56054,7.43164 -0.59493,0.39698 -0.4914,2.09805 0.3086,4.49805 0.9176,2.75281 2.75109,6.42334 5.5039,10.09375 2.75281,3.67042 4.58825,7.34058 5.50586,9.17578 1.8352,2.75281 2.75427,4.58826 3.67188,5.50586 1.8352,2.75281 5.50451,5.50537 11.92773,9.17578 5.50561,3.67041 9.17688,7.34057 11.92969,9.17578 2.7528,-1.83521 3.67029,-3.67065 4.58789,-5.50586 -0.9176,3.67042 -1.3e-4,7.34204 4.58789,12.84766 4.58801,5.50561 8.25733,7.33947 11.92774,6.42187 5.50562,-0.91761 9.17773,-8.25866 9.17773,-20.1875 -12.84644,6.42322 -23.85839,2.75392 -31.19922,-11.92773 0,0 -0.91834,-1.83471 -1.83594,-3.66992 -0.91761,-1.83521 -1.83435,-3.67065 -2.75195,-5.50586 -0.91761,-1.8352 -0.91834,-3.67065 -1.83594,-5.50586 v -4.58789 c 0,-0.9176 1.83631,-1.83594 2.75391,-1.83594 3.67041,0 5.50427,-0.91638 6.42187,-1.83398 0,-1.83521 0.002,-4.58936 -0.91601,-8.25977 -0.91761,-3.67041 -1.83631,-6.4226 -2.75391,-8.25781 0,-3.67041 -2.75183,-7.34009 -7.33984,-12.84571 -4.58802,-5.50562 -6.4242,-8.26013 -7.3418,-9.17773 -1.8352,3.67041 -5.50574,5.50586 -10.09375,5.50586 -4.58802,0 -8.25855,-2.75305 -10.09375,-5.50586 0,0 -3.6e-4,1.83668 -0.91797,3.67187 -0.9176,1.83521 -0.91601,3.67029 -0.91601,4.5879 -5.50562,0 -8.26014,-3.6e-4 -9.17774,-0.91797 0,-0.9176 0.91833,-4.5885 1.83594,-11.01172 0.9176,-6.42322 0.91834,-11.01123 1.83594,-14.68164 0,-1.83521 1.83472,-4.58704 3.66992,-7.33985 1.83521,-3.67042 3.67029,-6.42298 4.58789,-9.17578 0.9176,-2.75281 1.83434,-5.50695 2.75195,-8.25976 0,-2.75281 -0.91675,-4.58668 -2.75195,-6.42188 -2.75281,-1.83521 -6.4237,-1.83594 -11.01172,-1.83594 -8.25842,0 -13.76281,4.58729 -16.51562,12.84571 0,0.91761 -0.91833,3.67103 -1.83594,6.42383 -0.9176,2.75281 -1.83434,5.50463 -2.75195,7.33984 -0.9176,1.83521 -2.75306,2.75464 -5.50586,4.58984 -3.67042,-2.7528 -8.25878,-2.7539 -15.59961,-2.7539 -7.34082,0 -11.92919,-1.83436 -15.59961,-2.75196 -5.50561,-3.67042 -10.09362,-9.17748 -14.68164,-18.35351 -3.67041,-9.17603 -6.42383,-16.5166 -6.42383,-23.85742 0,-4.58802 0.91834,-10.0924 1.83594,-16.51563 0.9176,-7.34082 1.83593,-11.92919 1.83593,-15.59961 0,-3.67041 -0.91906,-9.17639 -3.67187,-15.59961 0.91761,-0.9176 2.75305,-2.75342 5.50586,-6.42383 2.75281,-2.75281 4.58863,-5.50427 6.42383,-6.42187 0.91761,0 1.83435,-0.91797 2.75195,-0.91797 h 2.75391 c 0.9176,0 1.83435,-3.6e-4 2.75195,-0.91797 0.9176,-0.9176 1.83594,-1.83471 1.83594,-3.66992 0,0 -0.91871,-0.91834 -2.75391,-1.83594 -0.67447,-0.67446 -1.34898,-1.34227 -2.02344,-1.65234 -0.25008,-0.0585 -0.52011,-0.11217 -0.72851,-0.18164 0.24314,0 0.48537,0.0699 0.72851,0.18164 3.05322,0.71485 9.14171,0.59665 17.62305,-1.09961 9.17603,-1.83521 14.68274,-1.83484 17.43555,0.91797 6.42322,4.58801 11.01086,4.58764 13.76367,-0.91797 0,0 -0.91833,-2.75342 -1.83594,-6.42383 -0.9176,-3.67042 -0.9176,-6.42261 0,-8.25781 1.83521,11.92884 8.25793,13.76428 18.35156,5.50586 0.91761,0.9176 4.58813,2.75195 10.09375,2.75195 5.50562,0.9176 9.17652,1.83435 11.01172,2.75195 0.91761,0.91761 2.75268,1.83667 4.58789,3.67188 1.8352,1.8352 2.75428,2.75195 3.67188,2.75195 h 2.75195 c 1.83521,-0.91761 3.67065,-1.83508 5.50586,-4.58789 4.58801,5.50562 6.42224,11.0116 7.33984,15.59961 4.58802,17.43446 8.25928,26.61011 11.92969,28.44531 2.75281,0.91761 5.50465,1.83557 7.33985,0.91797 1.83521,0 2.7539,-2.75342 2.7539,-6.42383 v -9.17578 c 0,-2.75281 -0.91797,-4.5874 -0.91797,-8.25781 l 1.83594,-4.58789 v -11.92969 l -0.91797,-5.50586 c -6.42322,-0.9176 -10.09448,-3.66942 -11.92969,-7.33984 -1.8352,-3.67041 -0.91724,-7.34167 0.91797,-11.92969 1.8352,-3.67041 5.50537,-8.25732 9.17578,-11.92773 0,0 1.83544,-0.91834 5.50586,-1.83594 2.7528,-0.9176 6.42334,-2.75269 10.09375,-4.58789 3.67041,-1.83521 6.42261,-3.67066 8.25782,-5.50586 9.17603,-8.25843 11.92858,-15.59826 9.17578,-22.02148 2.7528,0 5.50658,-1.83545 7.34179,-5.50586 0,0 -1.83435,-0.91834 -2.75195,-1.83594 -1.83521,-0.9176 -3.67224,-2.75195 -4.58984,-2.75195 -1.83521,-0.9176 -2.75196,-0.91797 -2.75196,-0.91797 3.67041,-1.83521 4.58838,-5.50574 0.91797,-10.09375 1.83521,-0.91761 3.67029,-3.67139 4.58789,-7.3418 0.91761,-3.67041 2.75268,-5.50427 4.58789,-6.42188 3.67041,5.50563 8.25807,5.50404 13.76368,0.91602 2.75281,-3.67041 2.75316,-6.42139 0.91797,-10.0918 1.83519,-2.75281 6.42248,-5.50622 12.8457,-6.42382 6.42322,-1.83521 10.09448,-3.67102 11.92969,-6.42383 2.75281,0.9176 4.58825,-3.7e-4 5.50585,-0.91797 0,-1.83521 0.91797,-4.58703 0.91797,-7.33984 0,-3.67042 0.91639,-5.5066 1.83399,-7.3418 1.83521,-1.83521 4.58777,-3.67065 9.17578,-5.50586 4.58802,-1.83521 7.34218,-2.75195 8.25976,-2.75195 l 11.00977,-7.33985 c 0.9176,-1.83521 0.9176,-2.7539 0,-2.7539 7.34082,0.9176 14.68189,-1.83423 20.1875,-7.33985 4.58802,-4.58801 2.7533,-9.17724 -3.66992,-12.84765 0.91761,-2.75281 0.91687,-4.58667 -1.83594,-6.42188 -2.75281,-1.8352 -5.50537,-2.75427 -9.17578,-3.67187 0.9176,0 3.67139,-0.9176 7.3418,0 3.67041,0 5.50427,-3.7e-4 6.42187,-0.91797 6.42322,-4.58802 4.58814,-7.33899 -4.58789,-10.0918 -7.34083,-1.8352 -16.51611,-9.9e-4 -27.52734,7.33984 -0.91761,0 -2.75342,2.75342 -6.42383,6.42383 -2.16792,2.89055 -4.87046,4.61735 -6.83203,5.67969 -0.47506,0.49188 -0.95073,0.74219 -1.42578,0.74219 0.38992,-0.19497 0.89656,-0.45558 1.42578,-0.74219 0.44255,-0.45823 0.88362,-1.12467 1.32617,-2.00977 0.9176,-1.83521 1.8363,-4.58898 2.75391,-7.34179 0.9176,-2.75281 1.83593,-3.67029 1.83593,-4.58789 2.75281,-2.75281 7.34046,-6.42296 13.76368,-9.17579 5.50561,-2.75281 17.43395,-5.50464 33.0332,-7.33984 14.68165,-3.67041 25.69201,-0.91858 32.11523,7.33984 -0.9176,-0.91759 0.91821,-3.66979 6.42383,-8.25781 4.58802,-4.58801 8.25818,-7.34179 9.17578,-7.34179 0.9176,-0.9176 4.58777,-1.83436 9.17578,-2.75196 5.50562,-0.9176 8.26014,-2.75269 9.17774,-4.58789 l 0.91601,-13.76367 c -5.50561,0 -9.17456,-0.91748 -11.00976,-4.58789 -2.75281,-3.67042 -3.67028,-8.25805 -4.58789,-13.76367 0,0.9176 -0.91907,2.75109 -3.67188,5.5039 0,-2.75281 -0.91674,-4.5863 -2.75195,-5.5039 -1.8352,0 -4.58899,-0.002 -7.3418,0.91601 -2.75281,0.91761 -4.58826,0.91797 -5.50586,0.91797 -4.58802,-0.91761 -7.34057,-2.75268 -9.17578,-4.58789 -1.83521,-1.8352 -3.67065,-5.50574 -5.50586,-10.09375 -0.9176,-5.50562 -1.83434,-8.25818 -2.75195,-9.17578 -0.9176,-1.83521 -2.75342,-4.58863 -6.42383,-6.42383 -2.75281,-2.75281 -5.50427,-4.58667 -6.42187,-6.42187 0,-0.91761 -0.91834,-1.83668 -1.83594,-3.67188 -0.91761,-1.83521 -0.91834,-2.75268 -1.83594,-4.58789 -0.9176,-1.83521 -1.83435,-2.75232 -2.75195,-3.66992 -0.9176,-0.9176 -1.83472,-1.83594 -3.66992,-1.83594 -0.9176,0 -2.75268,0.91871 -4.58789,2.75391 -1.8352,1.83521 -3.67029,4.58863 -4.5879,6.42383 l -2.7539,2.75195 c -0.9176,-0.9176 -2.75232,-0.91797 -3.66992,-0.91797 -0.91761,0 -1.83631,3.7e-4 -2.75391,0.91797 -0.9176,0 -1.83435,0.91833 -2.75195,1.83594 -0.9176,0.9176 -2.75196,1.83398 -2.75196,1.83398 -0.9176,0.91761 -2.75304,1.83594 -5.50586,1.83594 -2.75279,0 -4.58824,0.91797 -5.50585,0.91797 6.42323,-1.8352 6.42286,-4.58899 -0.91797,-7.3418 -4.58801,-1.83521 -7.34094,-2.75158 -10.09375,-1.83398 3.67041,-1.8352 5.5055,-4.58899 4.58789,-7.3418 -0.9176,-3.67041 -2.75306,-6.42297 -5.50586,-9.17578 h 2.7539 c 0,-1.83521 -1.83544,-3.67065 -5.50586,-5.50586 -2.75279,-1.83521 -7.3413,-3.67065 -11.01171,-5.50586 -4.58801,-1.8352 -7.34021,-2.75232 -8.25782,-3.66992 -3.67041,-1.83521 -11.01219,-4.58863 -22.02343,-6.42383 -11.01123,-1.83521 -18.35071,-1.83521 -21.10352,0 -1.8352,2.75281 -2.75391,4.58862 -2.75391,6.42383 0,1.83521 0.91871,4.58776 2.75391,9.17578 1.83521,3.67041 1.83399,6.4226 1.83398,8.25781 0,2.75281 -0.91711,5.50696 -3.66992,8.25977 -2.75281,2.75281 -4.58789,5.50463 -4.58789,7.33984 0,2.75281 2.75256,6.42334 9.17578,10.09375 5.50562,3.67041 8.25904,8.25805 6.42383,13.76367 -0.9176,3.67041 -4.58813,6.42334 -10.09375,10.09375 -5.50562,3.67041 -9.17615,5.5066 -10.09375,7.3418 -1.83521,3.67041 -2.75317,7.33972 -0.91797,11.92773 1.83521,4.58802 3.67103,8.25855 6.42383,10.09375 0.91761,0.91761 0.91602,1.83631 0.91602,2.75391 0,0.91761 -0.91639,1.83435 -1.83399,2.75195 -0.9176,0.91761 -2.75232,1.83631 -3.66992,2.75391 -0.9176,0.9176 -2.75268,1.83398 -4.58789,1.83398 l -1.83594,0.91797 c -4.58802,1.83521 -9.17529,0.91809 -12.8457,-3.66992 -3.67042,-4.58802 -7.34217,-10.09436 -8.25977,-16.51758 -2.75281,-11.01124 -6.42334,-17.43432 -10.09375,-19.26953 -10.09364,-3.67041 -15.59876,-2.75245 -18.35156,0.91797 -1.83521,-5.50562 -11.01171,-11.01196 -25.69336,-16.51758 -10.85677,-3.61892 -22.60851,-4.55558 -36.1289,-2.82226 2.15575,-0.50669 1.96892,-4.01918 -0.57422,-9.10547 -2.75281,-6.42322 -7.34167,-9.17701 -11.92969,-7.3418 0.91761,-2.75281 1.83631,-6.4237 2.75391,-11.01172 0,-4.58801 0.91601,-7.34021 0.91601,-8.25781 0.91761,-5.50562 3.67139,-10.09363 7.3418,-14.68164 0,0 1.83508,-1.83545 4.58789,-5.50586 2.75281,-2.75281 4.58863,-6.4226 6.42383,-8.25781 1.5588,-2.3382 1.7787,-3.34325 0.68945,-3.59571 14.33294,1.6626 25.10474,-1.09497 31.42578,-7.41601 1.83521,-1.83521 4.58899,-5.5061 7.3418,-11.01172 2.75281,-5.50562 4.58667,-8.25696 6.42187,-11.00977 3.67042,-2.7528 6.42297,-3.67187 9.17578,-3.67187 1.8352,0 5.50732,1.83667 9.17774,3.67187 3.67041,1.83521 7.34058,2.75196 9.17578,2.75196 5.50562,0 9.17614,-1.83423 10.09375,-7.33985 0.9176,-5.50562 -0.91748,-9.17724 -4.58789,-12.84765 5.50562,0 5.50439,-2.75329 1.83398,-11.01172 -1.83521,-2.75281 -3.67065,-4.5863 -5.50586,-5.50391 -5.50562,-1.8352 -11.01036,-0.91846 -17.43359,2.75195 -3.67041,1.83521 -2.75244,3.67065 0.91797,5.50586 0,0 -2.75342,1.83582 -6.42383,6.42383 -3.67042,4.58802 -7.34094,8.25696 -10.09375,11.00977 -3.67041,2.75281 -6.42334,1.83605 -10.09375,-2.75196 0,0 -1.83472,-3.66979 -3.66992,-8.25781 -1.83521,-5.50562 -3.67102,-8.25976 -6.42383,-8.25976 -3.67042,0 -6.42333,2.75256 -10.09375,9.17578 0.91761,-3.67041 -0.91662,-6.42297 -7.33984,-9.17578 -5.50562,-2.7528 -11.0116,-4.58826 -15.59961,-5.50586 8.25843,-5.50562 6.42298,-11.01038 -5.50586,-17.4336 -2.75281,-1.83521 -7.34008,-2.75195 -12.8457,-2.75195 z m 474.39257,193.45703 a 468.66211,468.66211 0 0 1 0.0625,0.14453 c 0.20583,0.16235 0.2775,0.21779 0.51368,0.4043 -0.19413,-0.18061 -0.38282,-0.36734 -0.57618,-0.54883 z m 2.50782,5.09375 c 0.0627,0.15863 0.12792,0.32529 0.19336,0.4961 0.71965,0.62437 1.43753,1.24954 2.15625,1.875 -0.002,-0.0123 -0.008,-0.0369 -0.01,-0.0488 -0.78082,-0.7732 -1.56086,-1.54722 -2.33984,-2.32227 z m 7.97851,16.76563 c 1.08363,1.37429 2.21227,2.71593 3.31836,4.07031 0.006,-0.12365 0.009,-0.20667 0.0156,-0.33594 -1.10233,-1.25216 -2.22104,-2.49097 -3.33399,-3.73437 z m -0.10351,1.34375 a 468.66211,468.66211 0 0 1 0.18359,0.41015 c 0.95273,1.4727 1.98106,3.06943 3.14063,4.87696 0.002,-0.0833 0.005,-0.1667 0.008,-0.25 -1.076,-1.59076 -2.20554,-3.30222 -3.33203,-5.03711 z m 4.64843,3.78515 c 0.0137,0.12629 0.0275,0.25259 0.041,0.37891 0.85619,0.90796 1.79476,1.83511 1.32227,1.25195 -0.44582,-0.55022 -0.90305,-1.09175 -1.36329,-1.63086 z m 0.3711,3.77344 c 0.0129,0.13861 0.0244,0.27738 0.0371,0.41602 1.06105,1.64956 1.80024,2.77587 2.43359,3.73242 v -0.31445 c -0.70061,-1.15896 -1.55795,-2.46766 -2.4707,-3.83399 z m -295.0625,389.3125 c -0.65953,0 -1.34891,0.11435 -2.03711,0.34375 -2.75281,0.9176 -5.50465,1.8363 -7.33985,2.75391 -1.83521,0.9176 -4.58898,2.75306 -7.34179,5.50586 -2.75281,2.75281 -4.58825,3.67029 -5.50586,4.58789 -0.9176,0 -2.75111,1.83472 -5.50391,3.66992 -2.75281,1.83521 -4.58826,3.67028 -5.50586,4.58789 -0.91761,1.8352 -2.75427,4.58703 -3.67187,7.33984 -0.91761,3.67041 -2.75196,5.5066 -2.75196,7.3418 -0.91761,-1.8352 -3.66943,-2.75268 -7.33984,-4.58789 -3.28589,-0.82147 -5.83176,-1.64516 -6.33008,-3.125 0.88602,4.61307 1.77219,11.73033 2.65821,21.47656 0.9176,11.01123 1.8363,18.3518 2.7539,23.85742 2.75281,12.84644 -9.8e-4,22.94042 -7.34179,30.28125 -11.92886,11.01123 -17.43397,19.27014 -18.35157,25.69336 -1.83521,9.17603 0.91663,14.68043 7.33985,16.51563 0,2.75281 -1.8335,7.34203 -5.50391,12.84765 -0.9176,5.50561 -1.83594,10.09327 -1.83594,13.76368 0,2.75281 3.7e-4,5.50574 0.91797,10.09375 87.17228,-15.59925 162.41513,-55.05527 223.89453,-120.20508 -0.9176,-0.9176 -3.66979,-1.83631 -8.25781,-2.75391 -3.67041,-0.9176 -6.42457,-0.91834 -8.25977,-1.83594 -7.34083,-2.75281 -12.84485,-4.5863 -15.59765,-5.5039 0,-2.75281 -7.3e-4,-5.50696 -1.83594,-8.25977 -1.83521,-2.75281 -2.75305,-4.58825 -5.50586,-5.50586 -1.83521,-0.9176 -4.58739,-2.7511 -8.25781,-5.5039 -3.67041,-1.83521 -5.50659,-3.67225 -7.3418,-4.58985 -0.9176,-0.9176 -2.75269,-1.83472 -4.58789,-3.66992 -1.83521,-1.83521 -3.67029,-2.75232 -4.58789,-3.66992 -0.9176,-0.91761 -2.75269,-1.83435 -4.58789,-2.75195 -2.75281,-0.91761 -4.58826,-1.83557 -5.50586,-0.91797 -0.91761,0 -3.66907,0.91797 -6.42187,0.91797 l -1.83594,0.91601 c -0.9176,0 -2.75232,0.91833 -3.66992,1.83594 -0.9176,0.9176 -1.83668,0.91834 -3.67188,1.83594 -0.91761,0.9176 -1.83435,0.91637 -2.75195,1.83398 v 1.83594 c -9.17603,-7.34082 -16.51623,-11.92846 -22.93946,-13.76367 -1.83519,0 -4.58898,-1.83668 -7.34179,-3.67188 -2.75281,-1.83521 -4.58863,-3.67028 -6.42383,-4.58789 -1.83521,-0.9176 -3.66906,-0.91797 -6.42188,-0.91797 -2.75279,0 -4.58898,1.83705 -7.34179,4.58985 -1.8352,1.83521 -3.66992,5.50537 -3.66992,9.17578 0,4.58802 -0.91797,7.34021 -0.91797,8.25781 -2.75281,-1.83521 -2.75281,-5.50611 0,-11.01172 2.75281,-5.50562 3.67078,-9.17492 0.91797,-11.92773 -0.6882,-2.06461 -2.40814,-3.09766 -4.38672,-3.09766 z m 88.06445,188.65039 a 468.66211,468.66211 0 0 1 -1.01367,0.58203 c -0.0371,0.0927 -0.0743,0.17462 -0.11133,0.26953 0.35261,-0.16186 0.70476,-0.31272 1.05664,-0.46484 0.0217,-0.12964 0.0465,-0.25721 0.0684,-0.38672 z m -0.43359,2.66602 c -0.1899,0.11329 -0.47209,0.26722 -0.67969,0.38867 0.22233,-0.10145 0.44392,-0.20467 0.66602,-0.30664 0.004,-0.0274 0.009,-0.0546 0.0137,-0.082 z m -1.35547,7.59765 c -0.74293,0.0133 -1.27062,0.0211 -1.93164,0.0312 -0.013,0.0633 -0.0263,0.12647 -0.0391,0.18946 0.67729,-0.0625 1.22494,-0.10572 1.96093,-0.17774 0.003,-0.0143 0.007,-0.0287 0.01,-0.043 z" />
    <g
       style="fill-opacity:1;fill:none"
       id="g948">
      <circle
         r="175"
         cy="540.36218"
         cx="512"
         id="circle942"
         style="opacity:1;fill:none;fill-opacity:1;stroke:none;stroke-width:50.00000381;stroke-linecap:square;stroke-linejoin:miter;stroke-miterlimit:4;stroke-dasharray:none;stroke-opacity:1;paint-order:stroke markers fill" />
      <circle
         style="opacity:1;fill:none;fill-opacity:1;stroke:none;stroke-width:35.7142868;stroke-linecap:square;stroke-linejoin:miter;stroke-miterlimit:4;stroke-dasharray:none;stroke-opacity:1;paint-order:stroke markers fill"
         id="circle944"
         cx="226.02777"
         cy="825.61218"
         r="125" />
      <path
         style="fill:none;stroke:none;stroke-width:1px;stroke-linecap:butt;stroke-linejoin:miter;stroke-opacity:1;fill-opacity:1"
         d="m 360,452.36218 -235,300 180,170 315,-245 z"
         id="path946"
         inkscape:connector-curvature="0" />
    </g>
    <g
       id="g839"
       transform="matrix(5.2121184,0,0,5.2121184,35.27647,884.33884)"
       style="fill-opacity:1.0;fill:url(#linearGradient1300)" />
    <g
       id="g841"
       transform="matrix(5.2121184,0,0,5.2121184,35.27647,884.33884)"
       style="fill-opacity:1.0;fill:url(#linearGradient1298)" />
    <g
       id="g843"
       transform="matrix(5.2121184,0,0,5.2121184,35.27647,884.33884)"
       style="fill-opacity:1.0;fill:url(#linearGradient1296)" />
    <g
       id="g845"
       transform="matrix(5.2121184,0,0,5.2121184,35.27647,884.33884)"
       style="fill-opacity:1.0;fill:url(#linearGradient1294)" />
    <g
       id="g847"
       transform="matrix(5.2121184,0,0,5.2121184,35.27647,884.33884)"
       style="fill-opacity:1.0;fill:url(#linearGradient1292)" />
    <g
       id="g849"
       transform="matrix(5.2121184,0,0,5.2121184,35.27647,884.33884)"
       style="fill-opacity:1.0;fill:url(#linearGradient1290)" />
    <g
       id="g851"
       transform="matrix(5.2121184,0,0,5.2121184,35.27647,884.33884)"
       style="fill-opacity:1.0;fill:url(#linearGradient1288)" />
    <g
       id="g853"
       transform="matrix(5.2121184,0,0,5.2121184,35.27647,884.33884)"
       style="fill-opacity:1.0;fill:url(#linearGradient1286)" />
    <g
       id="g855"
       transform="matrix(5.2121184,0,0,5.2121184,35.27647,884.33884)"
       style="fill-opacity:1.0;fill:url(#linearGradient1284)" />
    <g
       id="g857"
       transform="matrix(5.2121184,0,0,5.2121184,35.27647,884.33884)"
       style="fill-opacity:1.0;fill:url(#linearGradient1282)" />
    <g
       id="g859"
       transform="matrix(5.2121184,0,0,5.2121184,35.27647,884.33884)"
       style="fill-opacity:1.0;fill:url(#linearGradient1280)" />
    <g
       id="g861"
       transform="matrix(5.2121184,0,0,5.2121184,35.27647,884.33884)"
       style="fill-opacity:1.0;fill:url(#linearGradient1278)" />
    <g
       id="g863"
       transform="matrix(5.2121184,0,0,5.2121184,35.27647,884.33884)"
       style="fill-opacity:1.0;fill:url(#linearGradient1276)" />
    <g
       id="g865"
       transform="matrix(5.2121184,0,0,5.2121184,35.27647,884.33884)"
       style="fill-opacity:1.0;fill:url(#linearGradient1274)" />
    <g
       id="g867"
       transform="matrix(5.2121184,0,0,5.2121184,35.27647,884.33884)"
       style="fill-opacity:1.0;fill:url(#linearGradient1272)" />
    <g
       id="g871"
       transform="matrix(5.2121184,0,0,5.2121184,35.27647,884.33884)" />
    <g
       id="g873"
       transform="matrix(5.2121184,0,0,5.2121184,35.27647,884.33884)" />
    <g
       id="g875"
       transform="matrix(5.2121184,0,0,5.2121184,35.27647,884.33884)" />
    <g
       id="g877"
       transform="matrix(5.2121184,0,0,5.2121184,35.27647,884.33884)" />
    <g
       id="g879"
       transform="matrix(5.2121184,0,0,5.2121184,35.27647,884.33884)" />
    <g
       id="g881"
       transform="matrix(5.2121184,0,0,5.2121184,35.27647,884.33884)" />
    <g
       id="g883"
       transform="matrix(5.2121184,0,0,5.2121184,35.27647,884.33884)" />
    <g
       id="g885"
       transform="matrix(5.2121184,0,0,5.2121184,35.27647,884.33884)" />
    <g
       id="g887"
       transform="matrix(5.2121184,0,0,5.2121184,35.27647,884.33884)" />
    <g
       id="g889"
       transform="matrix(5.2121184,0,0,5.2121184,35.27647,884.33884)" />
    <g
       id="g891"
       transform="matrix(5.2121184,0,0,5.2121184,35.27647,884.33884)" />
    <g
       id="g893"
       transform="matrix(5.2121184,0,0,5.2121184,35.27647,884.33884)" />
    <g
       id="g895"
       transform="matrix(5.2121184,0,0,5.2121184,35.27647,884.33884)" />
    <g
       id="g897"
       transform="matrix(5.2121184,0,0,5.2121184,35.27647,884.33884)" />
    <g
       id="g899"
       transform="matrix(5.2121184,0,0,5.2121184,35.27647,884.33884)" />
    <circle
       r="75"
       cy="689.10876"
       cx="755.40601"
       id="circle1011"
       style="opacity:1;fill:#000000;fill-opacity:0.39215686;fill-rule:evenodd;stroke:none;stroke-width:62.49999619;stroke-linecap:round;stroke-linejoin:round;stroke-miterlimit:4;stroke-dasharray:none;stroke-opacity:0.9626168;paint-order:stroke markers fill;filter:url(#filter1251)" />
    <circle
       r="125"
       cy="580.36218"
       cx="752"
       id="circle1101"
       style="opacity:1;fill:url(#linearGradient1105);fill-opacity:1;fill-rule:evenodd;stroke:none;stroke-width:104.16666412;stroke-linecap:round;stroke-linejoin:round;stroke-miterlimit:4;stroke-dasharray:none;stroke-opacity:0.9626168;paint-order:stroke markers fill;filter:url(#filter1399)" />
    <circle
       style="opacity:1;fill:url(#linearGradient1023);fill-opacity:1;fill-rule:evenodd;stroke:none;stroke-width:104.16666412;stroke-linecap:round;stroke-linejoin:round;stroke-miterlimit:4;stroke-dasharray:none;stroke-opacity:0.9626168;paint-order:stroke markers fill"
       id="path978"
       cx="752"
       cy="580.36218"
       r="125" />
    <path
       id="path1000"
       d="m -546.9668,26.44421 c -89.00749,0 -170.67453,22.023419 -245.91797,66.068359 -75.24345,44.044951 -133.96872,102.770221 -178.01367,178.013671 -44.04496,75.24344 -66.06836,156.91048 -66.06836,245.91797 0,89.00749 22.0234,170.67453 66.06836,245.91797 43.12734,75.24345 102.77022,134.88633 178.01367,178.01367 75.24344,44.04493 156.91048,66.06835 245.91797,66.06835 89.00749,0 170.67453,-22.02342 245.91797,-66.06835 75.24345,-44.04495 133.96872,-102.77022 178.01367,-178.01367 44.04494,-75.24344 66.06836,-156.91048 66.06836,-245.91797 0,-89.00749 -22.02342,-170.67453 -66.06836,-245.91797 C -167.08011,195.28279 -225.80538,136.55752 -301.04883,92.512569 -376.29227,48.467629 -457.95931,26.44421 -546.9668,26.44421 Z m -0.49805,21.835938 A 468.66211,468.66211 0 0 1 -78.80274,516.94226 468.66211,468.66211 0 0 1 -547.46485,985.60437 468.66211,468.66211 0 0 1 -1016.127,516.94226 468.66211,468.66211 0 0 1 -547.46485,48.280148 Z m -51.80468,73.595702 c -5.50562,0 -10.09485,-8.6e-4 -12.84766,2.75195 -1.83521,2.75281 -3.66992,5.50465 -3.66992,7.33985 0,1.83521 0.91675,3.67066 2.75195,5.50586 2.75281,1.83521 4.58863,2.75427 6.42383,3.67187 1.83521,0.91761 4.58899,1.83435 7.3418,2.75195 2.75281,0.91761 4.58825,1.83594 5.50585,1.83594 5.50561,4.58801 7.33912,7.34057 5.50391,9.17578 -0.9176,0 -2.7511,0.91639 -5.50391,1.83399 -2.75281,0.91761 -5.50658,1.8363 -7.34179,2.7539 -1.8352,0.91761 -3.66992,1.83436 -3.66992,2.75196 -0.9176,1.83521 -0.9176,4.58777 0,9.17578 0.9176,4.58802 0.91723,7.34253 -0.91797,9.17773 -1.83521,-1.8352 -3.67065,-5.50611 -5.50586,-11.01172 -1.83521,-5.50562 -2.75268,-9.17614 -4.58789,-10.09375 2.75281,3.67042 -2.75316,5.50513 -15.59961,3.66993 l -6.42188,-0.91797 c -1.8352,0 -5.50574,3.6e-4 -10.09375,0.91797 -5.50562,0.9176 -9.17724,0.91796 -12.84765,0.91796 -3.67041,0 -6.42261,-1.83544 -8.25782,-5.50585 -1.83521,-3.67041 -1.83521,-7.34009 0,-12.84571 0,-1.83521 0.91675,-1.83558 2.75196,-0.91797 -1.83521,-0.91761 -3.66944,-3.67101 -7.33985,-6.42382 -2.75281,-2.75281 -5.50621,-4.58826 -6.42382,-5.50586 -19.26966,6.42322 -39.45727,14.68212 -59.64454,25.69336 2.75281,0 5.5066,-3.7e-4 7.3418,-0.91797 1.83521,-0.91761 4.5874,-1.83508 8.25781,-4.58789 3.67041,-1.8352 5.50623,-2.75233 6.42383,-3.66993 14.68165,-5.50562 22.93897,-7.34069 26.60938,-4.58789 l 2.7539,-2.7539 c 5.50562,6.42322 10.0929,11.92919 12.84571,15.59961 -2.75281,-1.83521 -9.1759,-1.83557 -19.26954,-0.91797 -8.25842,2.75281 -12.84606,5.50659 -13.76367,7.34179 2.75281,5.50562 3.66956,9.17493 2.75196,11.92774 -1.83521,-0.91761 -4.58704,-3.66908 -7.33985,-6.42188 -2.75281,-2.75281 -6.42297,-5.50658 -9.17578,-7.34179 -2.75281,-1.8352 -6.42297,-2.75196 -9.17578,-2.75196 -6.42322,0 -11.93041,3.6e-4 -13.76562,0.91797 -59.6442,33.0337 -110.11071,79.83078 -147.73243,140.39258 2.75281,2.7528 5.50465,4.58826 7.33985,5.50586 1.83521,0 2.7539,2.75305 2.7539,5.50586 0,3.67041 0.91639,5.50463 1.83399,7.33984 0.9176,0.9176 2.75378,0.91883 7.34179,-1.83398 3.67041,3.67041 4.5868,7.33971 1.83399,11.92773 0,0 10.09325,5.50672 28.44531,17.43555 8.25843,7.34083 12.84802,11.92846 13.76563,13.76367 0.9176,4.58801 -0.91822,8.25733 -6.42383,11.92774 0,-0.9176 -2.75305,-2.7511 -5.50586,-5.50391 -3.67041,-2.75281 -5.50586,-3.67151 -5.50586,-2.75391 -0.9176,1.83521 -0.9176,6.42407 0,11.92969 1.8352,5.50562 3.67102,8.25781 6.42383,8.25781 -2.75281,0 -4.58863,3.67053 -6.42383,10.09375 -0.9176,6.42322 -1.83399,14.68103 -1.83398,22.93946 0,8.25842 -3.7e-4,12.84644 -0.91797,14.68164 l 0.91797,0.91797 c -0.9176,5.50561 -4.9e-4,12.8474 3.66992,22.02343 3.67042,9.17603 8.25805,13.76331 13.76367,12.84571 -5.50562,0.9176 -0.91834,10.09288 12.8457,27.52734 2.75281,3.67041 4.58826,5.50586 5.50586,5.50586 0.9176,0.9176 3.67139,2.75269 7.3418,4.58789 3.67042,2.75281 7.34058,4.58863 9.17578,6.42383 l 6.42383,6.42383 c 1.8352,1.8352 3.66906,7.34082 6.42187,14.68164 2.7528,7.34083 5.50536,12.84644 9.17578,14.68164 -0.91761,2.75281 0.91821,6.42248 6.42383,12.8457 4.58801,5.50562 7.34143,11.01123 6.42383,14.68164 0,0 -0.91833,3.6e-4 -1.83594,0.91797 -0.9176,0 -0.91638,0.91797 -1.83398,0.91797 0.9176,2.75281 4.58813,5.50537 10.09375,9.17578 5.50562,2.75281 8.25659,5.50501 10.0918,8.25781 0,0.91761 0.91796,3.67102 0.91796,6.42383 0,2.75281 0.91834,5.50464 1.83594,7.33985 0.9176,1.83521 2.75305,1.83557 5.50586,0.91796 0.9176,-8.25842 -4.58838,-22.02257 -15.59961,-39.45703 -6.42322,-11.01123 -10.09411,-16.51635 -11.01172,-18.35156 -0.9176,-1.8352 -2.75232,-5.50573 -3.66992,-10.09375 -0.9176,-4.58801 -1.83435,-7.34057 -2.75195,-9.17578 0.9176,0 1.83472,3.7e-4 3.66992,0.91797 1.83521,0.91761 3.67066,1.83398 5.50586,1.83398 1.83521,0.9176 3.67028,1.83631 4.58789,2.75391 0.9176,0.9176 1.83557,1.83398 0.91797,1.83398 -0.9176,2.7528 -0.91919,6.42371 0.91601,11.01172 1.83521,4.58802 4.58899,8.25928 7.3418,11.92969 2.75281,3.67041 6.42371,7.33971 11.01172,11.92773 4.58802,4.58801 6.42223,7.34216 7.33984,8.25977 2.75281,2.7528 5.50536,6.42248 9.17578,12.8457 3.67041,5.50562 3.67041,8.25782 0,8.25782 3.67041,0 8.25964,1.8358 12.84766,6.42382 4.58801,4.58801 8.25697,8.25769 11.00977,12.84571 1.83521,3.67041 3.67066,9.17675 5.50586,16.51757 0.91761,7.34083 2.7539,12.8468 2.7539,15.59961 0.9176,2.75281 2.75305,5.50501 5.50586,8.25782 2.75281,2.75281 5.505,4.58862 8.25781,6.42382 2.75281,0.9176 5.50573,2.75305 10.09375,5.50586 4.58801,1.83521 7.34021,3.67029 8.25782,4.58789 1.8352,0.91761 6.42406,2.75146 11.92968,6.42188 5.50561,3.67041 10.09327,6.4242 13.76368,7.3418 4.58802,1.83521 7.34094,2.75195 10.09375,2.75195 2.75281,0 5.50537,-0.91638 9.17578,-1.83399 3.67042,-0.91759 6.4226,-1.83593 8.25781,-1.83593 6.42322,-0.91761 12.84594,2.75255 18.35156,9.17578 5.50562,7.34082 10.09521,11.92847 13.76563,13.76367 15.40908,8.15776 26.33622,10.04013 34.56054,7.43164 0.0875,-0.0584 0.19099,-0.0898 0.3086,-0.0898 -0.10068,0.0336 -0.2071,0.0576 -0.3086,0.0898 -0.59493,0.39698 -0.4914,2.09805 0.3086,4.49805 0.9176,2.75281 2.75109,6.42334 5.5039,10.09375 2.75281,3.67042 4.58825,7.34058 5.50586,9.17578 1.8352,2.75281 2.75427,4.58826 3.67188,5.50586 1.8352,2.75281 5.50451,5.50537 11.92773,9.17578 5.50561,3.67041 9.17688,7.34057 11.92969,9.17578 2.7528,-1.83521 3.67029,-3.67065 4.58789,-5.50586 -0.9176,3.67042 -1.3e-4,7.34204 4.58789,12.84766 4.58801,5.50561 8.25733,7.33947 11.92774,6.42187 5.50562,-0.91761 9.17773,-8.25866 9.17773,-20.1875 -12.84644,6.42322 -23.85839,2.75392 -31.19922,-11.92773 0,0 -0.91834,-1.83471 -1.83594,-3.66992 -0.91761,-1.83521 -1.83435,-3.67065 -2.75195,-5.50586 -0.91761,-1.8352 -0.91834,-3.67065 -1.83594,-5.50586 v -4.58789 c 0,-0.9176 1.83631,-1.83594 2.75391,-1.83594 3.67041,0 5.50427,-0.91638 6.42187,-1.83398 0,-1.83521 0.002,-4.58936 -0.91601,-8.25977 -0.91761,-3.67041 -1.83631,-6.4226 -2.75391,-8.25781 0,-3.67041 -2.75183,-7.34009 -7.33984,-12.84571 -4.58802,-5.50562 -6.4242,-8.26013 -7.3418,-9.17773 -1.8352,3.67041 -5.50574,5.50586 -10.09375,5.50586 -4.58802,0 -8.25855,-2.75305 -10.09375,-5.50586 0,0 -3.6e-4,1.83668 -0.91797,3.67187 -0.9176,1.83521 -0.91601,3.67029 -0.91601,4.5879 -5.50562,0 -8.26014,-3.6e-4 -9.17774,-0.91797 0,-0.9176 0.91833,-4.5885 1.83594,-11.01172 0.9176,-6.42322 0.91834,-11.01123 1.83594,-14.68164 0,-1.83521 1.83472,-4.58704 3.66992,-7.33985 1.83521,-3.67042 3.67029,-6.42298 4.58789,-9.17578 0.9176,-2.75281 1.83434,-5.50695 2.75195,-8.25976 0,-2.75281 -0.91675,-4.58668 -2.75195,-6.42188 -2.75281,-1.83521 -6.4237,-1.83594 -11.01172,-1.83594 -8.25842,0 -13.76281,4.58729 -16.51562,12.84571 0,0.91761 -0.91833,3.67103 -1.83594,6.42383 -0.9176,2.75281 -1.83434,5.50463 -2.75195,7.33984 -0.9176,1.83521 -2.75306,2.75464 -5.50586,4.58984 -3.67042,-2.7528 -8.25878,-2.7539 -15.59961,-2.7539 -7.34082,0 -11.92919,-1.83436 -15.59961,-2.75196 -5.50561,-3.67042 -10.09362,-9.17748 -14.68164,-18.35351 -3.67041,-9.17603 -6.42383,-16.5166 -6.42383,-23.85742 0,-4.58802 0.91834,-10.0924 1.83594,-16.51563 0.9176,-7.34082 1.83593,-11.92919 1.83593,-15.59961 0,-3.67041 -0.91906,-9.17639 -3.67187,-15.59961 0.91761,-0.9176 2.75305,-2.75342 5.50586,-6.42383 2.75281,-2.75281 4.58863,-5.50427 6.42383,-6.42187 0.91761,0 1.83435,-0.91797 2.75195,-0.91797 h 2.75391 c 0.9176,0 1.83435,-3.6e-4 2.75195,-0.91797 0.9176,-0.9176 1.83594,-1.83471 1.83594,-3.66992 0,0 -0.91871,-0.91834 -2.75391,-1.83594 -0.67447,-0.67446 -1.34898,-1.34227 -2.02344,-1.65234 -0.25008,-0.0585 -0.52011,-0.11217 -0.72851,-0.18164 0.24314,0 0.48537,0.0699 0.72851,0.18164 3.05322,0.71485 9.14171,0.59665 17.62305,-1.09961 9.17603,-1.83521 14.68274,-1.83484 17.43555,0.91797 6.42322,4.58801 11.01086,4.58764 13.76367,-0.91797 0,0 -0.91833,-2.75342 -1.83594,-6.42383 -0.9176,-3.67042 -0.9176,-6.42261 0,-8.25781 1.83521,11.92884 8.25793,13.76428 18.35156,5.50586 0.91761,0.9176 4.58813,2.75195 10.09375,2.75195 5.50562,0.9176 9.17652,1.83435 11.01172,2.75195 0.91761,0.91761 2.75268,1.83667 4.58789,3.67188 1.8352,1.8352 2.75428,2.75195 3.67188,2.75195 h 2.75195 c 1.83521,-0.91761 3.67065,-1.83508 5.50586,-4.58789 4.58801,5.50562 6.42224,11.0116 7.33984,15.59961 4.58802,17.43446 8.25928,26.61011 11.92969,28.44531 2.75281,0.91761 5.50465,1.83557 7.33985,0.91797 1.83521,0 2.7539,-2.75342 2.7539,-6.42383 v -9.17578 c 0,-2.75281 -0.91797,-4.5874 -0.91797,-8.25781 l 1.83594,-4.58789 v -11.92969 l -0.91797,-5.50586 c -6.42322,-0.9176 -10.09448,-3.66942 -11.92969,-7.33984 -1.8352,-3.67041 -0.91724,-7.34167 0.91797,-11.92969 1.8352,-3.67041 5.50537,-8.25732 9.17578,-11.92773 0,0 1.83544,-0.91834 5.50586,-1.83594 2.7528,-0.9176 6.42334,-2.75269 10.09375,-4.58789 3.67041,-1.83521 6.42261,-3.67066 8.25782,-5.50586 9.17603,-8.25843 11.92858,-15.59826 9.17578,-22.02148 2.7528,0 5.50658,-1.83545 7.34179,-5.50586 0,0 -1.83435,-0.91834 -2.75195,-1.83594 -1.83521,-0.9176 -3.67224,-2.75195 -4.58984,-2.75195 -1.83521,-0.9176 -2.75196,-0.91797 -2.75196,-0.91797 3.67041,-1.83521 4.58838,-5.50574 0.91797,-10.09375 1.83521,-0.91761 3.67029,-3.67139 4.58789,-7.3418 0.91761,-3.67041 2.75268,-5.50428 4.58789,-6.42188 3.67041,5.50563 8.25807,5.50404 13.76368,0.91602 2.75281,-3.67041 2.75316,-6.42139 0.91797,-10.0918 1.83519,-2.75281 6.42248,-5.50622 12.8457,-6.42382 6.42322,-1.83521 10.09448,-3.67102 11.92969,-6.42383 2.75281,0.9176 4.58824,-3.7e-4 5.50585,-0.91797 0,-1.83521 0.91797,-4.58703 0.91797,-7.33984 0,-3.67042 0.91639,-5.5066 1.83399,-7.3418 1.83521,-1.83521 4.58777,-3.67065 9.17578,-5.50586 4.58802,-1.83521 7.34217,-2.75195 8.25976,-2.75195 l 11.00977,-7.33985 c 0.9176,-1.83521 0.9176,-2.7539 0,-2.7539 7.34082,0.9176 14.68189,-1.83423 20.1875,-7.33985 4.58802,-4.58801 2.7533,-9.17724 -3.66992,-12.84765 0.91761,-2.75281 0.91687,-4.58667 -1.83594,-6.42188 -2.75281,-1.8352 -5.50537,-2.75427 -9.17578,-3.67187 0.9176,0 3.67139,-0.9176 7.3418,0 3.67041,0 5.50427,-3.7e-4 6.42187,-0.91797 6.42322,-4.58802 4.58814,-7.33899 -4.58789,-10.0918 -7.34083,-1.8352 -16.51611,-9.9e-4 -27.52734,7.33984 -0.91761,0 -2.75342,2.75342 -6.42383,6.42383 -2.16792,2.89055 -4.87046,4.61735 -6.83203,5.67969 -0.47506,0.49188 -0.95073,0.74219 -1.42578,0.74219 0.38992,-0.19497 0.89656,-0.45558 1.42578,-0.74219 0.44255,-0.45823 0.88362,-1.12467 1.32617,-2.00977 0.9176,-1.83521 1.8363,-4.58898 2.75391,-7.34179 0.9176,-2.75281 1.83593,-3.67029 1.83593,-4.58789 2.75281,-2.75281 7.34046,-6.42297 13.76368,-9.17579 5.50561,-2.75281 17.43395,-5.50464 33.0332,-7.33984 14.68165,-3.67041 25.69201,-0.91859 32.11523,7.33984 -0.9176,-0.91759 0.91821,-3.66979 6.42383,-8.25781 4.58802,-4.58801 8.25818,-7.34179 9.17578,-7.34179 0.9176,-0.9176 4.58777,-1.83436 9.17578,-2.75196 5.50562,-0.9176 8.26014,-2.75269 9.17774,-4.58789 l 0.91601,-13.76367 c -5.50561,0 -9.17456,-0.91748 -11.00976,-4.58789 -2.75281,-3.67042 -3.67028,-8.25805 -4.58789,-13.76367 0,0.9176 -0.91907,2.75109 -3.67188,5.5039 0,-2.75281 -0.91674,-4.5863 -2.75195,-5.5039 -1.8352,0 -4.58899,-0.002 -7.3418,0.91601 -2.75281,0.91761 -4.58826,0.91797 -5.50586,0.91797 -4.58802,-0.91761 -7.34057,-2.75268 -9.17578,-4.58789 -1.83521,-1.8352 -3.67065,-5.50574 -5.50586,-10.09375 -0.9176,-5.50562 -1.83434,-8.25818 -2.75195,-9.17578 -0.9176,-1.83521 -2.75342,-4.58863 -6.42383,-6.42383 -2.75281,-2.75281 -5.50427,-4.58667 -6.42187,-6.42187 0,-0.91761 -0.91834,-1.83668 -1.83594,-3.67188 -0.91761,-1.83521 -0.91834,-2.75268 -1.83594,-4.58789 -0.9176,-1.83521 -1.83435,-2.75232 -2.75195,-3.66992 -0.9176,-0.9176 -1.83472,-1.83594 -3.66992,-1.83594 -0.9176,0 -2.75268,0.91871 -4.58789,2.75391 -1.8352,1.83521 -3.67029,4.58863 -4.5879,6.42383 l -2.7539,2.75195 c -0.9176,-0.9176 -2.75232,-0.91797 -3.66992,-0.91797 -0.91761,0 -1.83631,3.7e-4 -2.75391,0.91797 -0.9176,0 -1.83435,0.91833 -2.75195,1.83594 -0.9176,0.9176 -2.75196,1.83398 -2.75196,1.83398 -0.9176,0.91761 -2.75305,1.83594 -5.50586,1.83594 -2.7528,0 -4.58824,0.91797 -5.50585,0.91797 6.42323,-1.8352 6.42286,-4.58899 -0.91797,-7.3418 -4.58801,-1.83521 -7.34094,-2.75158 -10.09375,-1.83398 3.67041,-1.8352 5.5055,-4.58899 4.58789,-7.3418 -0.9176,-3.67041 -2.75306,-6.42297 -5.50586,-9.17578 h 2.7539 c 0,-1.83521 -1.83545,-3.67065 -5.50586,-5.50586 -2.7528,-1.83521 -7.3413,-3.67065 -11.01171,-5.50586 -4.58801,-1.8352 -7.34021,-2.75232 -8.25782,-3.66992 -3.67041,-1.83521 -11.01219,-4.58863 -22.02343,-6.42383 -11.01123,-1.83521 -18.35071,-1.83521 -21.10352,0 -1.8352,2.75281 -2.75391,4.58862 -2.75391,6.42383 0,1.83521 0.91871,4.58776 2.75391,9.17578 1.83521,3.67041 1.83398,6.4226 1.83398,8.25781 0,2.75281 -0.91711,5.50696 -3.66992,8.25977 -2.75281,2.75281 -4.58789,5.50463 -4.58789,7.33984 0,2.75281 2.75256,6.42334 9.17578,10.09375 5.50562,3.67041 8.25904,8.25805 6.42383,13.76367 -0.9176,3.67041 -4.58813,6.42334 -10.09375,10.09375 -5.50562,3.67041 -9.17615,5.5066 -10.09375,7.3418 -1.83521,3.67041 -2.75317,7.33972 -0.91797,11.92773 1.83521,4.58802 3.67103,8.25855 6.42383,10.09375 0.91761,0.91761 0.91602,1.83631 0.91602,2.75391 0,0.91761 -0.91639,1.83435 -1.83399,2.75195 -0.9176,0.91761 -2.75232,1.83631 -3.66992,2.75391 -0.9176,0.9176 -2.75268,1.83398 -4.58789,1.83398 l -1.83594,0.91797 c -4.58802,1.83521 -9.17529,0.91809 -12.8457,-3.66992 -3.67042,-4.58802 -7.34217,-10.09436 -8.25977,-16.51758 -2.75281,-11.01124 -6.42334,-17.43432 -10.09375,-19.26953 -10.09364,-3.67041 -15.59876,-2.75245 -18.35156,0.91797 -1.83521,-5.50562 -11.01171,-11.01196 -25.69336,-16.51758 -10.85677,-3.61892 -22.60851,-4.55558 -36.1289,-2.82226 -0.17773,0.0418 -0.36456,0.0703 -0.57422,0.0703 0.19307,-0.0257 0.38186,-0.0457 0.57422,-0.0703 2.15575,-0.50669 1.96892,-4.01918 -0.57422,-9.10547 -2.75281,-6.42322 -7.34167,-9.17701 -11.92969,-7.3418 0.91761,-2.75281 1.83631,-6.4237 2.75391,-11.01172 0,-4.58801 0.91601,-7.34021 0.91601,-8.25781 0.91761,-5.50562 3.67139,-10.09363 7.3418,-14.68164 0,0 1.83508,-1.83545 4.58789,-5.50586 2.75281,-2.75281 4.58863,-6.4226 6.42383,-8.25781 1.5588,-2.3382 1.7787,-3.34325 0.68945,-3.59571 -0.2317,-0.0269 -0.45589,-0.045 -0.68945,-0.0742 0.27641,0 0.4963,0.0295 0.68945,0.0742 14.33294,1.6626 25.10474,-1.09497 31.42578,-7.41601 1.83521,-1.83521 4.58899,-5.5061 7.3418,-11.01172 2.75281,-5.50562 4.58667,-8.25696 6.42187,-11.00977 3.67042,-2.7528 6.42297,-3.67187 9.17578,-3.67187 1.8352,0 5.50732,1.83667 9.17774,3.67187 3.67041,1.83521 7.34058,2.75196 9.17578,2.75196 5.50562,0 9.17614,-1.83423 10.09375,-7.33985 0.9176,-5.50562 -0.91748,-9.17724 -4.58789,-12.84765 5.50562,0 5.50439,-2.75329 1.83398,-11.01172 -1.83521,-2.75281 -3.67065,-4.5863 -5.50586,-5.50391 -5.50562,-1.8352 -11.01036,-0.91846 -17.43359,2.75195 -3.67041,1.83521 -2.75244,3.67065 0.91797,5.50586 0,0 -2.75342,1.83582 -6.42383,6.42383 -3.67042,4.58802 -7.34094,8.25696 -10.09375,11.00977 -3.67041,2.75281 -6.42334,1.83605 -10.09375,-2.75196 0,0 -1.83472,-3.66979 -3.66992,-8.25781 -1.83521,-5.50562 -3.67102,-8.25976 -6.42383,-8.25976 -3.67042,0 -6.42333,2.75256 -10.09375,9.17578 0.91761,-3.67041 -0.91662,-6.42297 -7.33984,-9.17578 -5.50562,-2.7528 -11.0116,-4.58826 -15.59961,-5.50586 8.25843,-5.50562 6.42298,-11.01038 -5.50586,-17.4336 -2.75281,-1.83521 -7.34008,-2.75195 -12.8457,-2.75195 z m 194.73242,613.53125 c -0.65953,0 -1.34891,0.11435 -2.03711,0.34375 -2.75281,0.9176 -5.50465,1.8363 -7.33985,2.75391 -1.83521,0.9176 -4.58898,2.75306 -7.34179,5.50586 -2.75281,2.75281 -4.58825,3.67029 -5.50586,4.58789 -0.9176,0 -2.75111,1.83472 -5.50391,3.66992 -2.75281,1.83521 -4.58826,3.67028 -5.50586,4.58789 -0.91761,1.8352 -2.75427,4.58703 -3.67187,7.33984 -0.91761,3.67041 -2.75196,5.5066 -2.75196,7.3418 -0.91761,-1.8352 -3.66943,-2.75268 -7.33984,-4.58789 -3.28589,-0.82147 -5.83176,-1.64516 -6.33008,-3.125 0.88602,4.61307 1.77219,11.73033 2.65821,21.47656 0.9176,11.01123 1.8363,18.3518 2.7539,23.85742 2.75281,12.84644 -9.8e-4,22.94042 -7.34179,30.28125 -11.92885,11.01123 -17.43397,19.27014 -18.35157,25.69336 -1.83521,9.17603 0.91663,14.68043 7.33985,16.51563 0,2.75281 -1.8335,7.34203 -5.50391,12.84765 -0.9176,5.50561 -1.83594,10.09327 -1.83594,13.76368 0,2.75281 3.7e-4,5.50574 0.91797,10.09375 87.17228,-15.59925 162.41513,-55.05527 223.89453,-120.20508 -0.9176,-0.9176 -3.66979,-1.83631 -8.25781,-2.75391 -3.67041,-0.9176 -6.42457,-0.91834 -8.25977,-1.83594 -7.34083,-2.75281 -12.84485,-4.5863 -15.59765,-5.5039 0,-2.75281 -7.3e-4,-5.50696 -1.83594,-8.25977 -1.83521,-2.75281 -2.75305,-4.58825 -5.50586,-5.50586 -1.83521,-0.9176 -4.58739,-2.7511 -8.25781,-5.5039 -3.67041,-1.83521 -5.50659,-3.67225 -7.3418,-4.58985 -0.9176,-0.9176 -2.75269,-1.83472 -4.58789,-3.66992 -1.83521,-1.83521 -3.67029,-2.75232 -4.58789,-3.66992 -0.9176,-0.91761 -2.75269,-1.83435 -4.58789,-2.75195 -2.75281,-0.91761 -4.58826,-1.83557 -5.50586,-0.91797 -0.91761,0 -3.66907,0.91797 -6.42187,0.91797 l -1.83594,0.91601 c -0.9176,0 -2.75232,0.91833 -3.66992,1.83594 -0.9176,0.9176 -1.83668,0.91834 -3.67188,1.83594 -0.91761,0.9176 -1.83435,0.91637 -2.75195,1.83398 v 1.83594 c -9.17603,-7.34082 -16.51624,-11.92846 -22.93946,-13.76367 -1.83519,0 -4.58898,-1.83668 -7.34179,-3.67188 -2.75281,-1.83521 -4.58863,-3.67028 -6.42383,-4.58789 -1.83521,-0.9176 -3.66907,-0.91797 -6.42188,-0.91797 -2.7528,0 -4.58898,1.83705 -7.34179,4.58985 -1.8352,1.83521 -3.66992,5.50537 -3.66992,9.17578 0,4.58802 -0.91797,7.34021 -0.91797,8.25781 -2.75281,-1.83521 -2.75281,-5.50611 0,-11.01172 2.75281,-5.50562 3.67078,-9.17492 0.91797,-11.92773 -0.6882,-2.06461 -2.40814,-3.09766 -4.38672,-3.09766 z"
       style="color:#000000;display:inline;overflow:visible;visibility:visible;opacity:0.32000002;fill:url(#linearGradient1002);fill-opacity:1;fill-rule:nonzero;stroke:none;stroke-width:42.8092041;marker:none;enable-background:accumulate"
       inkscape:connector-curvature="0" />
    <circle
       r="125"
       cy="580.36218"
       cx="752"
       id="circle1255"
       style="opacity:1;fill:url(#linearGradient1434);fill-opacity:1;fill-rule:evenodd;stroke:none;stroke-width:104.16666412;stroke-linecap:round;stroke-linejoin:round;stroke-miterlimit:4;stroke-dasharray:none;stroke-opacity:0.9626168;paint-order:stroke markers fill;filter:url(#filter1375)" />
  </g>
</svg>
