<?xml version="1.0" encoding="UTF-8" standalone="no"?>
<!-- Created with Inkscape (http://www.inkscape.org/) -->

<svg
   xmlns:dc="http://purl.org/dc/elements/1.1/"
   xmlns:cc="http://creativecommons.org/ns#"
   xmlns:rdf="http://www.w3.org/1999/02/22-rdf-syntax-ns#"
   xmlns:svg="http://www.w3.org/2000/svg"
   xmlns="http://www.w3.org/2000/svg"
   xmlns:xlink="http://www.w3.org/1999/xlink"
   xmlns:sodipodi="http://sodipodi.sourceforge.net/DTD/sodipodi-0.dtd"
   xmlns:inkscape="http://www.inkscape.org/namespaces/inkscape"
   width="1024"
   height="1024"
   viewBox="0 0 270.93333 270.93334"
   version="1.1"
   id="svg8"
   inkscape:version="0.92.4 (5da689c313, 2019-01-14)"
   sodipodi:docname="preferences-system.svg">
  <defs
     id="defs2">
    <linearGradient
       inkscape:collect="always"
       id="linearGradient999">
      <stop
         style="stop-color:#333333;stop-opacity:1"
         offset="0"
         id="stop995" />
      <stop
         style="stop-color:#4d4d4d;stop-opacity:0.59447002"
         offset="1"
         id="stop997" />
    </linearGradient>
    <radialGradient
       r="186.71201"
       cy="359.66599"
       cx="2995.801"
       gradientUnits="userSpaceOnUse"
       id="radialGradient1179">
      <stop
         id="stop1175"
         stop-color="#868686"
         offset="0" />
      <stop
         id="stop1177"
         stop-color="#565350"
         offset="1"
         style="stop-color:#6d6b6a;stop-opacity:1" />
    </radialGradient>
    <radialGradient
       r="186.71201"
       cy="359.66599"
       cx="2995.801"
       gradientUnits="userSpaceOnUse"
       id="radialGradient1152">
      <stop
         id="stop1148"
         stop-color="#868686"
         offset="0"
         style="stop-color:#838382;stop-opacity:1" />
      <stop
         id="stop1150"
         stop-color="#565350"
         offset="1" />
    </radialGradient>
    <radialGradient
       r="186.71201"
       cy="359.66599"
       cx="2995.801"
       gradientUnits="userSpaceOnUse"
       id="radialGradient1146">
      <stop
         id="stop1142"
         stop-color="#868686"
         offset="0"
         style="stop-color:#838383;stop-opacity:1" />
      <stop
         id="stop1144"
         stop-color="#565350"
         offset="1" />
    </radialGradient>
    <radialGradient
       r="186.71201"
       cy="359.66599"
       cx="2995.801"
       gradientUnits="userSpaceOnUse"
       id="radialGradient1140">
      <stop
         id="stop1136"
         stop-color="#868686"
         offset="0"
         style="stop-color:#868686;stop-opacity:1" />
      <stop
         id="stop1138"
         stop-color="#565350"
         offset="1" />
    </radialGradient>
    <radialGradient
       r="186.71201"
       cy="359.66599"
       cx="2995.801"
       gradientUnits="userSpaceOnUse"
       id="radialGradient1134">
      <stop
         id="stop1130"
         stop-color="#868686"
         offset="0" />
      <stop
         id="stop1132"
         stop-color="#565350"
         offset="1"
         style="stop-color:#999999;stop-opacity:1" />
    </radialGradient>
    <linearGradient
       gradientTransform="matrix(0.54421765,0,0,0.54421765,-1371.1019,28.185282)"
       y2="418.508"
       x2="2768.3201"
       y1="65.708"
       x1="2768.3201"
       gradientUnits="userSpaceOnUse"
       id="linearGradient1126">
      <stop
         id="stop1120"
         stop-color="#51514f"
         offset="0" />
      <stop
         id="stop1122"
         stop-color="#515151"
         offset="0.498" />
      <stop
         style="stop-color:#666666;stop-opacity:1"
         id="stop1124"
         stop-color="#565656"
         offset="1" />
    </linearGradient>
    <linearGradient
       id="linearGradient1089">
      <stop
         id="stop1087"
         offset="0"
         style="stop-color:#b3b3b3;stop-opacity:1" />
      <stop
         id="stop1085"
         offset="1"
         style="stop-color:#cecece;stop-opacity:1" />
    </linearGradient>
    <linearGradient
       id="linearGradient1137"
       inkscape:collect="always">
      <stop
         id="stop1133"
         offset="0"
         style="stop-color:#b3b3b3;stop-opacity:1" />
      <stop
         id="stop1135"
         offset="1"
         style="stop-color:#6b6666;stop-opacity:1" />
    </linearGradient>
    <linearGradient
       inkscape:collect="always"
       id="linearGradient892">
      <stop
         style="stop-color:#b3b3b3;stop-opacity:1"
         offset="0"
         id="stop888" />
      <stop
         style="stop-color:#7b7a7a;stop-opacity:0"
         offset="1"
         id="stop890" />
    </linearGradient>
    <mask
       maskUnits="userSpaceOnUse"
       id="mask1423">
      <g
         id="g1427"
         transform="matrix(0.39801054,0,0,0.39801054,-65.23909,-35.182402)">
        <path
           style="fill:#f3f5f6"
           inkscape:connector-curvature="0"
           id="path1425"
           d="M 777.6,216.5 H 511 l -14.4,33 -13.6,40 -12,46.7 -8.7,43.3 -7.3,44.7 -4.7,46 -1.3,24 c 0,7.6 6,13.7 13.3,13.7 h 66 c 7.2,0 13,5.8 13,13 v 18.7 43.3 31 l 1.7,33 3.3,39 4.3,40 4,25.3 5.3,31.3 2.9,16 h 214.7 c 15.9,0 29,-13.1 29,-29 v -524 c 0.1,-16 -12.9,-29 -28.9,-29 z" />
      </g>
    </mask>
    <linearGradient
       gradientTransform="matrix(0.26458333,0,0,0.26458333,-186.10792,29.929567)"
       y2="798.46222"
       x2="375.13599"
       y1="216.4622"
       x1="375.13599"
       gradientUnits="userSpaceOnUse"
       id="SVGID_1_">
      <stop
         id="stop60"
         style="stop-color:#1FD4FF"
         offset="0" />
      <stop
         id="stop62"
         style="stop-color:#1F74F4"
         offset="1" />
    </linearGradient>
    <linearGradient
       inkscape:collect="always"
       xlink:href="#linearGradient1137"
       id="linearGradient894"
       x1="132.29166"
       y1="24.479151"
       x2="132.29166"
       y2="296.99997"
       gradientUnits="userSpaceOnUse"
       gradientTransform="translate(5.3678385e-6)" />
    <linearGradient
       id="linearGradient868">
      <stop
         id="stop864"
         offset="0"
         style="stop-color:#cecece;stop-opacity:1" />
      <stop
         id="stop866"
         offset="1"
         style="stop-color:#b3b3b3;stop-opacity:1" />
    </linearGradient>
    <linearGradient
       inkscape:collect="always"
       xlink:href="#linearGradient892"
       id="linearGradient1131"
       gradientUnits="userSpaceOnUse"
       x1="132.29167"
       y1="42.999985"
       x2="132.29167"
       y2="275.83331"
       gradientTransform="matrix(0.97427824,0,0,0.97427824,3.4844477,4.1549215)" />
    <linearGradient
       id="grd67"
       gradientUnits="userSpaceOnUse"
       x1="2768.3201"
       y1="65.708"
       x2="2762.4858"
       y2="474.50018"
       gradientTransform="matrix(0.54421765,0,0,0.54421765,-1371.1019,29.772787)">
      <stop
         offset="0"
         stop-color="#51514f"
         id="stop492" />
      <stop
         offset="0.88310033"
         stop-color="#515151"
         id="stop494" />
      <stop
         offset="1"
         stop-color="#565656"
         id="stop496"
         style="stop-color:#666666;stop-opacity:1" />
    </linearGradient>
    <clipPath
       clipPathUnits="userSpaceOnUse"
       id="cp12">
      <path
         inkscape:connector-curvature="0"
         d="m 2768.32,418.51 c 97.42,0 176.4,-78.98 176.4,-176.4 0,-97.42 -78.98,-176.4 -176.4,-176.4 -97.42,0 -176.4,78.98 -176.4,176.4 0,97.42 78.98,176.4 176.4,176.4 z"
         id="path499" />
    </clipPath>
    <filter
       x="-0.5"
       y="-0.5"
       width="2"
       height="2"
       id="flt4">
      <feGaussianBlur
         stdDeviation="8.82"
         id="feGaussianBlur502" />
    </filter>
    <filter
       x="-0.5"
       y="-0.5"
       width="2"
       height="2"
       id="filter2191">
      <feGaussianBlur
         stdDeviation="8.82"
         id="feGaussianBlur2189" />
    </filter>
    <linearGradient
       id="grd68"
       gradientUnits="userSpaceOnUse"
       x1="2922.6699"
       y1="237.698"
       x2="2613.97"
       y2="237.698"
       xlink:href="#grd69">
      <stop
         offset="0.339"
         stop-color="#807c76"
         id="stop505" />
      <stop
         offset="0.478"
         stop-color="#d5d7d0"
         id="stop507" />
      <stop
         offset="0.562"
         stop-color="#bdbfba"
         id="stop509" />
      <stop
         offset="0.677"
         stop-color="#acb3ac"
         id="stop511" />
      <stop
         offset="0.854"
         stop-color="#dbe0db"
         id="stop513" />
      <stop
         offset="0.953"
         stop-color="#c2c7c1"
         id="stop515" />
      <stop
         offset="0.125"
         stop-color="#7f7a75"
         id="stop517" />
    </linearGradient>
    <clipPath
       clipPathUnits="userSpaceOnUse"
       id="cp13">
      <path
         inkscape:connector-curvature="0"
         d="M 2850.46,109.38 2844,126.6 c -0.42,1.13 0.01,2.64 0.96,3.37 l 7.59,5.81 c 0.93,0.71 2.52,0.75 3.5,0.05 l 14.96,-10.68 c 0.98,-0.7 2.47,-0.58 3.32,0.27 l 6.26,6.27 c 0.88,0.87 0.98,2.34 0.28,3.32 l -10.67,14.95 c -0.7,0.97 -0.68,2.54 0.05,3.49 l 5.82,7.6 c 0.72,0.93 2.24,1.38 3.37,0.96 l 17.2,-6.45 c 1.13,-0.42 2.53,0.08 3.14,1.13 l 4.43,7.67 c 0.61,1.07 0.33,2.51 -0.6,3.28 l -14.19,11.69 c -0.93,0.76 -1.32,2.28 -0.86,3.39 l 3.65,8.83 c 0.45,1.08 1.8,1.91 3,1.8 l 18.32,-1.78 c 1.2,-0.12 2.42,0.73 2.73,1.9 l 2.3,8.56 c 0.32,1.19 -0.33,2.51 -1.42,3.01 l -16.75,7.62 c -1.1,0.5 -1.86,1.87 -1.7,3.06 l 1.25,9.47 c 0.16,1.16 1.25,2.31 2.44,2.51 l 18.14,3.02 c 1.19,0.2 2.15,1.34 2.15,2.55 v 8.86 c 0,1.23 -0.96,2.34 -2.15,2.54 l -18.12,3.02 c -1.19,0.2 -2.28,1.33 -2.44,2.52 l -1.24,9.48 c -0.16,1.16 0.6,2.56 1.7,3.06 l 16.72,7.6 c 1.09,0.5 1.73,1.85 1.42,3.02 l -2.3,8.56 c -0.32,1.19 -1.53,2.01 -2.73,1.9 l -18.3,-1.78 c -1.19,-0.11 -2.54,0.69 -3,1.8 l -3.67,8.82 c -0.45,1.09 -0.08,2.63 0.85,3.4 l 14.2,11.69 c 0.93,0.76 1.2,2.23 0.6,3.28 l -4.43,7.67 c -0.62,1.07 -2.01,1.55 -3.14,1.13 l -17.23,-6.46 c -1.12,-0.42 -2.63,0.01 -3.36,0.96 l -5.81,7.59 c -0.71,0.93 -0.75,2.52 -0.05,3.5 l 10.68,14.96 c 0.7,0.98 0.58,2.46 -0.28,3.32 l -6.26,6.26 c -0.87,0.87 -2.34,0.98 -3.32,0.28 l -14.95,-10.68 c -0.98,-0.7 -2.54,-0.67 -3.5,0.06 l -7.59,5.82 c -0.93,0.71 -1.38,2.24 -0.96,3.36 l 6.45,17.21 c 0.42,1.13 -0.08,2.53 -1.13,3.13 l -7.67,4.43 c -1.07,0.62 -2.51,0.34 -3.28,-0.59 l -11.69,-14.2 c -0.76,-0.92 -2.28,-1.31 -3.39,-0.85 l -8.83,3.65 c -1.08,0.45 -1.91,1.8 -1.8,3 l 1.78,18.31 c 0.11,1.2 -0.74,2.43 -1.9,2.74 l -8.56,2.3 c -1.19,0.31 -2.52,-0.33 -3.01,-1.43 l -7.62,-16.74 c -0.5,-1.1 -1.87,-1.86 -3.06,-1.7 l -9.47,1.25 c -1.16,0.15 -2.31,1.25 -2.51,2.44 l -3.03,18.14 c -0.19,1.18 -1.33,2.15 -2.54,2.15 h -8.86 c -1.23,0 -2.35,-0.96 -2.54,-2.15 l -3.02,-18.13 c -0.2,-1.18 -1.33,-2.27 -2.52,-2.43 l -9.48,-1.24 c -1.17,-0.16 -2.56,0.6 -3.06,1.7 l -7.61,16.72 c -0.49,1.09 -1.84,1.73 -3.01,1.42 l -8.56,-2.3 c -1.19,-0.32 -2.01,-1.53 -1.9,-2.73 l 1.78,-18.3 c 0.11,-1.2 -0.69,-2.54 -1.8,-3 l -8.83,-3.67 c -1.08,-0.45 -2.62,-0.08 -3.39,0.85 l -11.69,14.2 c -0.76,0.93 -2.23,1.2 -3.28,0.59 l -7.67,-4.43 c -1.07,-0.61 -1.55,-2 -1.13,-3.13 l 6.46,-17.23 c 0.42,-1.12 -0.01,-2.63 -0.96,-3.36 l -7.59,-5.81 c -0.93,-0.71 -2.52,-0.75 -3.5,-0.05 l -14.96,10.68 c -0.98,0.7 -2.47,0.58 -3.32,-0.28 l -6.26,-6.26 c -0.88,-0.87 -0.98,-2.34 -0.28,-3.32 l 10.67,-14.95 c 0.7,-0.98 0.68,-2.54 -0.05,-3.5 l -5.82,-7.59 c -0.72,-0.93 -2.24,-1.38 -3.37,-0.96 l -17.2,6.45 c -1.13,0.42 -2.53,-0.09 -3.14,-1.13 l -4.43,-7.67 c -0.61,-1.07 -0.33,-2.52 0.6,-3.28 l 14.19,-11.69 c 0.93,-0.77 1.32,-2.29 0.86,-3.39 l -3.65,-8.83 c -0.45,-1.09 -1.8,-1.92 -3,-1.8 l -18.32,1.78 c -1.2,0.11 -2.42,-0.74 -2.73,-1.9 l -2.3,-8.56 c -0.32,-1.19 0.33,-2.52 1.42,-3.02 l 16.75,-7.61 c 1.1,-0.5 1.86,-1.87 1.7,-3.06 l -1.25,-9.47 c -0.16,-1.17 -1.25,-2.32 -2.44,-2.51 l -18.14,-3.03 c -1.19,-0.2 -2.15,-1.33 -2.15,-2.54 v -8.86 c 0,-1.24 0.96,-2.35 2.15,-2.55 l 18.12,-3.02 c 1.19,-0.19 2.28,-1.32 2.44,-2.51 l 1.24,-9.48 c 0.16,-1.17 -0.6,-2.56 -1.7,-3.06 l -16.72,-7.61 c -1.09,-0.5 -1.73,-1.85 -1.42,-3.01 l 2.3,-8.56 c 0.32,-1.19 1.53,-2.02 2.73,-1.9 l 18.3,1.77 c 1.19,0.12 2.54,-0.68 3,-1.79 l 3.67,-8.83 c 0.45,-1.08 0.08,-2.62 -0.85,-3.39 l -14.2,-11.69 c -0.93,-0.77 -1.2,-2.24 -0.6,-3.28 l 4.43,-7.67 c 0.62,-1.07 2.01,-1.55 3.14,-1.13 l 17.23,6.45 c 1.12,0.43 2.63,0 3.36,-0.96 l 5.81,-7.59 c 0.71,-0.93 0.75,-2.51 0.05,-3.49 l -10.68,-14.96 c -0.7,-0.98 -0.58,-2.47 0.28,-3.32 l 6.26,-6.27 c 0.87,-0.87 2.34,-0.97 3.32,-0.27 l 14.95,10.67 c 0.98,0.7 2.54,0.68 3.5,-0.05 l 7.59,-5.82 c 0.93,-0.72 1.38,-2.24 0.96,-3.37 l -6.45,-17.2 c -0.42,-1.13 0.08,-2.53 1.13,-3.14 l 7.67,-4.43 c 1.07,-0.61 2.51,-0.34 3.28,0.59 l 11.69,14.2 c 0.76,0.93 2.28,1.31 3.39,0.86 l 8.83,-3.65 c 1.08,-0.45 1.91,-1.81 1.8,-3.01 l -1.78,-18.31 c -0.11,-1.2 0.74,-2.42 1.9,-2.74 l 8.56,-2.29 c 1.19,-0.32 2.52,0.33 3.01,1.42 l 7.62,16.75 c 0.5,1.1 1.87,1.86 3.06,1.7 l 9.47,-1.25 c 1.16,-0.16 2.31,-1.25 2.51,-2.44 l 3.03,-18.14 c 0.19,-1.19 1.33,-2.15 2.54,-2.15 h 8.86 c 1.23,0 2.35,0.96 2.54,2.15 l 3.02,18.12 c 0.2,1.19 1.33,2.28 2.52,2.44 l 9.48,1.24 c 1.17,0.15 2.56,-0.6 3.06,-1.7 l 7.61,-16.72 c 0.49,-1.1 1.84,-1.73 3.01,-1.42 l 8.56,2.29 c 1.19,0.32 2.01,1.54 1.9,2.74 l -1.78,18.29 c -0.11,1.2 0.69,2.55 1.8,3.01 l 8.83,3.67 c 1.08,0.45 2.62,0.08 3.39,-0.85 l 11.69,-14.21 c 0.76,-0.93 2.23,-1.19 3.28,-0.59 l 7.67,4.43 c 1.07,0.62 1.55,2.01 1.13,3.14 z m -29.36,36.71 c -24.86,-14.35 -53.13,-17.47 -78.92,-10.93 -4.97,1.26 -2.06,0.57 -2.06,0.57 -6.92,2.36 -9.67,9.49 -6.19,15.85 0,0 -2.01,-3.67 0.16,0.28 10.34,18.87 31.04,56.63 31.04,56.63 4.68,8.54 16.37,15.3 26.12,15.1 0,0 45.86,-0.96 68.8,-1.43 4.26,-0.09 0,0 0,0 7.06,-0.15 11.64,-6.1 10.11,-12.75 -7.17,-25.78 -24.05,-48.88 -49.06,-63.32 z m -1.73,184.17 c 25.11,-13.92 42.35,-36.54 50.03,-62.02 1.48,-4.9 0.57,-2.05 0.57,-2.05 1.54,-7.15 -3.15,-13.18 -10.4,-13.47 0,0 4.18,0.17 -0.33,-0.01 -21.49,-0.86 -64.52,-2.56 -64.52,-2.56 -9.73,-0.39 -21.55,6.15 -26.4,14.61 0,0 -22.8,39.8 -34.2,59.71 -2.12,3.7 0,0 0,0 -3.52,6.13 -0.78,13.12 5.71,15.23 0,0 -4.1,-1.13 0,0 25.79,7.14 54.29,4.56 79.54,-9.44 z m -125.19,-16.85 c 5.07,4.57 12.5,3.44 16.05,-2.66 0,0 -2.14,3.68 0,0 11.54,-19.84 34.6,-59.48 34.6,-59.48 4.91,-8.43 4.66,-21.93 -0.54,-30.17 0,0 -22.99,-36.41 -34.48,-54.6 -2.4,-3.81 -0.17,-0.27 -0.17,-0.27 -3.87,-6.14 -11.44,-7.18 -16.87,-2.27 0,0 2.02,-2.22 -1.49,1.52 -18.22,19.39 -29.2,45.62 -28.7,74.33 0.51,28.87 12.52,54.84 31.6,73.6 z"
         id="path520" />
    </clipPath>
    <radialGradient
       id="grd69"
       gradientUnits="userSpaceOnUse"
       cx="2768.3201"
       cy="208.12801"
       r="152.27299">
      <stop
         offset="0"
         stop-color="#d4d4d4"
         id="stop523" />
      <stop
         offset="1"
         stop-color="#928c85"
         id="stop525" />
    </radialGradient>
    <linearGradient
       id="grd70"
       gradientUnits="userSpaceOnUse"
       x1="2869.542"
       y1="178.16299"
       x2="2733.041"
       y2="178.16299">
      <stop
         offset="0.339"
         stop-color="#908c83"
         id="stop528" />
      <stop
         offset="0.562"
         stop-color="#bdbfba"
         id="stop530" />
      <stop
         offset="0.677"
         stop-color="#acb3ac"
         id="stop532" />
      <stop
         offset="0.854"
         stop-color="#cfd6cf"
         id="stop534" />
      <stop
         offset="0.953"
         stop-color="#c2c7c1"
         id="stop536" />
      <stop
         offset="0.125"
         stop-color="#7e736d"
         id="stop538" />
    </linearGradient>
    <linearGradient
       id="grd71"
       gradientUnits="userSpaceOnUse"
       x1="2869.75"
       y1="297.233"
       x2="2733.04"
       y2="297.233">
      <stop
         offset="0.339"
         stop-color="#908c83"
         id="stop541" />
      <stop
         offset="0.562"
         stop-color="#bdbfba"
         id="stop543" />
      <stop
         offset="0.677"
         stop-color="#acb3ac"
         id="stop545" />
      <stop
         offset="0.854"
         stop-color="#cfd6cf"
         id="stop547" />
      <stop
         offset="0.953"
         stop-color="#c2c7c1"
         id="stop549" />
      <stop
         offset="0.125"
         stop-color="#7e736d"
         id="stop551" />
    </linearGradient>
    <linearGradient
       id="grd72"
       gradientUnits="userSpaceOnUse"
       x1="2746.27"
       y1="239.90199"
       x2="2662.48"
       y2="239.90199">
      <stop
         offset="0.339"
         stop-color="#908c83"
         id="stop554" />
      <stop
         offset="0.562"
         stop-color="#bdbfba"
         id="stop556" />
      <stop
         offset="0.677"
         stop-color="#acb3ac"
         id="stop558" />
      <stop
         offset="0.854"
         stop-color="#cfd6cf"
         id="stop560" />
      <stop
         offset="0.953"
         stop-color="#c2c7c1"
         id="stop562" />
      <stop
         offset="0.125"
         stop-color="#7e736d"
         id="stop564" />
    </linearGradient>
    <linearGradient
       id="grd73"
       gradientUnits="userSpaceOnUse"
       x1="3143.0659"
       y1="424.52399"
       x2="2834.3359"
       y2="429.91299">
      <stop
         offset="0.52"
         stop-color="#77695f"
         id="stop567" />
      <stop
         offset="0.585"
         stop-color="#79726d"
         id="stop569" />
      <stop
         offset="0.677"
         stop-color="#797574"
         id="stop571" />
      <stop
         offset="0.854"
         stop-color="#cfd6cf"
         id="stop573" />
      <stop
         offset="0.953"
         stop-color="#c3c6bb"
         id="stop575" />
      <stop
         offset="0.125"
         stop-color="#7e736d"
         id="stop577" />
    </linearGradient>
    <radialGradient
       id="grd74"
       gradientUnits="userSpaceOnUse"
       cx="2995.801"
       cy="359.66599"
       r="186.71201"
       fx="2995.801"
       fy="359.66599"
       fr="0"
       spreadMethod="pad">
      <stop
         offset="0"
         stop-color="#868686"
         id="stop580" />
      <stop
         offset="1"
         stop-color="#565350"
         id="stop582" />
    </radialGradient>
    <linearGradient
       id="grd75"
       gradientUnits="userSpaceOnUse"
       x1="2701.2759"
       y1="388.60699"
       x2="2392.6069"
       y2="459.86801"
       xlink:href="#linearGradient868">
      <stop
         offset="0.339"
         stop-color="#908c83"
         id="stop585" />
      <stop
         offset="0.562"
         stop-color="#bdbfba"
         id="stop587" />
      <stop
         offset="0.677"
         stop-color="#acb3ac"
         id="stop589" />
      <stop
         offset="0.854"
         stop-color="#8e8b85"
         id="stop591" />
      <stop
         offset="0.933"
         stop-color="#7f7c75"
         id="stop593" />
      <stop
         offset="0.024"
         stop-color="#746f68"
         id="stop595" />
    </linearGradient>
    <radialGradient
       id="grd76"
       gradientUnits="userSpaceOnUse"
       cx="2541.021"
       cy="356.564"
       r="186.731">
      <stop
         offset="0"
         stop-color="#868686"
         id="stop598" />
      <stop
         offset="1"
         stop-color="#565350"
         id="stop600" />
    </radialGradient>
    <clipPath
       clipPathUnits="userSpaceOnUse"
       id="cp12-5">
      <path
         inkscape:connector-curvature="0"
         d="m 2328.32,421.51 c 97.42,0 176.4,-78.98 176.4,-176.4 0,-97.42 -78.98,-176.4 -176.4,-176.4 -97.42,0 -176.4,78.98 -176.4,176.4 0,97.42 78.98,176.4 176.4,176.4 z"
         id="path499-6" />
    </clipPath>
    <filter
       inkscape:collect="always"
       style="color-interpolation-filters:sRGB"
       id="filter982"
       x="-0.048"
       width="1.096"
       y="-0.048"
       height="1.096">
      <feGaussianBlur
         inkscape:collect="always"
         stdDeviation="6.174"
         id="feGaussianBlur984" />
    </filter>
    <linearGradient
       id="grd68-9"
       gradientUnits="userSpaceOnUse"
       x1="2331.2749"
       y1="435.5072"
       x2="2331.2749"
       y2="45.72554"
       xlink:href="#linearGradient1089"
       gradientTransform="translate(-3.4704352e-5,10.990787)" />
    <linearGradient
       id="linearGradient5115"
       y2="304"
       gradientUnits="userSpaceOnUse"
       x2="304"
       gradientTransform="translate(0,-576)"
       y1="304.89999"
       x1="272">
      <stop
         id="stop5111"
         style="stop-color:#ffffff;stop-opacity:1"
         offset="0" />
      <stop
         id="stop5113"
         style="stop-color:#fffdff;stop-opacity:1"
         offset="1" />
    </linearGradient>
    <clipPath
       clipPathUnits="userSpaceOnUse"
       id="cp13-3">
      <path
         inkscape:connector-curvature="0"
         d="m 2410.46,112.38 -6.45,17.23 c -0.42,1.13 0.01,2.63 0.96,3.36 l 7.59,5.81 c 0.93,0.71 2.52,0.75 3.5,0.05 l 14.96,-10.68 c 0.98,-0.7 2.47,-0.58 3.32,0.28 l 6.27,6.27 c 0.87,0.87 0.98,2.34 0.28,3.32 l -10.68,14.95 c -0.7,0.98 -0.67,2.55 0.06,3.5 l 5.82,7.59 c 0.71,0.93 2.24,1.38 3.36,0.96 l 17.21,-6.45 c 1.13,-0.42 2.53,0.08 3.13,1.13 l 4.43,7.67 c 0.62,1.07 0.34,2.51 -0.59,3.28 l -14.2,11.69 c -0.93,0.77 -1.31,2.29 -0.85,3.39 l 3.65,8.83 c 0.45,1.08 1.8,1.91 3,1.8 l 18.31,-1.78 c 1.2,-0.12 2.43,0.73 2.74,1.9 l 2.29,8.56 c 0.32,1.19 -0.32,2.51 -1.42,3.01 l -16.75,7.62 c -1.1,0.5 -1.86,1.87 -1.7,3.06 l 1.25,9.47 c 0.15,1.16 1.25,2.31 2.44,2.51 l 18.14,3.02 c 1.19,0.2 2.15,1.34 2.15,2.54 v 8.86 c 0,1.23 -0.96,2.35 -2.15,2.54 l -18.12,3.02 c -1.19,0.2 -2.28,1.32 -2.43,2.51 l -1.24,9.48 c -0.15,1.16 0.61,2.56 1.7,3.06 l 16.72,7.61 c 1.09,0.5 1.73,1.85 1.42,3.01 l -2.29,8.56 c -0.32,1.19 -1.54,2.02 -2.74,1.9 l -18.29,-1.77 c -1.2,-0.12 -2.54,0.69 -3,1.8 l -3.67,8.83 c -0.45,1.08 -0.08,2.63 0.85,3.39 l 14.2,11.69 c 0.93,0.77 1.2,2.23 0.59,3.28 l -4.43,7.67 c -0.62,1.07 -2.01,1.55 -3.14,1.13 l -17.23,-6.45 c -1.13,-0.42 -2.63,0.01 -3.36,0.96 l -5.81,7.59 c -0.71,0.93 -0.75,2.52 -0.05,3.5 l 10.68,14.96 c 0.7,0.98 0.58,2.47 -0.28,3.32 l -6.27,6.27 c -0.87,0.87 -2.34,0.98 -3.32,0.28 l -14.95,-10.68 c -0.98,-0.7 -2.55,-0.67 -3.5,0.06 l -7.59,5.82 c -0.93,0.71 -1.38,2.24 -0.96,3.36 l 6.45,17.21 c 0.42,1.13 -0.08,2.53 -1.13,3.13 l -7.67,4.43 c -1.07,0.62 -2.51,0.34 -3.28,-0.59 l -11.69,-14.2 c -0.77,-0.93 -2.29,-1.31 -3.39,-0.85 l -8.83,3.65 c -1.08,0.45 -1.91,1.8 -1.8,3 l 1.78,18.31 c 0.12,1.2 -0.73,2.43 -1.9,2.74 l -8.56,2.29 c -1.19,0.32 -2.51,-0.32 -3.01,-1.42 l -7.62,-16.75 c -0.5,-1.1 -1.87,-1.86 -3.06,-1.7 l -9.47,1.25 c -1.16,0.15 -2.31,1.25 -2.51,2.44 l -3.02,18.14 c -0.2,1.19 -1.34,2.15 -2.54,2.15 h -8.86 c -1.23,0 -2.35,-0.96 -2.54,-2.15 l -3.02,-18.12 c -0.2,-1.19 -1.32,-2.28 -2.51,-2.43 l -9.48,-1.24 c -1.16,-0.15 -2.56,0.61 -3.06,1.7 l -7.61,16.72 c -0.5,1.09 -1.85,1.73 -3.01,1.42 l -8.56,-2.29 c -1.19,-0.32 -2.02,-1.54 -1.9,-2.74 l 1.77,-18.29 c 0.12,-1.2 -0.69,-2.54 -1.8,-3 l -8.83,-3.67 c -1.08,-0.45 -2.63,-0.08 -3.39,0.85 l -11.69,14.2 c -0.77,0.93 -2.23,1.2 -3.28,0.59 l -7.67,-4.43 c -1.07,-0.62 -1.55,-2.01 -1.13,-3.14 l 6.45,-17.23 c 0.42,-1.13 -0.01,-2.63 -0.96,-3.36 l -7.59,-5.81 c -0.93,-0.71 -2.52,-0.75 -3.5,-0.05 l -14.96,10.68 c -0.98,0.7 -2.47,0.58 -3.32,-0.28 l -6.27,-6.27 c -0.87,-0.87 -0.98,-2.34 -0.28,-3.32 l 10.68,-14.95 c 0.7,-0.98 0.67,-2.55 -0.06,-3.5 l -5.82,-7.59 c -0.71,-0.93 -2.24,-1.38 -3.36,-0.96 l -17.21,6.45 c -1.13,0.42 -2.53,-0.08 -3.13,-1.13 l -4.43,-7.67 c -0.62,-1.07 -0.34,-2.51 0.59,-3.28 l 14.2,-11.69 c 0.93,-0.77 1.31,-2.29 0.85,-3.39 l -3.65,-8.83 c -0.45,-1.08 -1.8,-1.91 -3,-1.8 l -18.31,1.78 c -1.2,0.12 -2.43,-0.73 -2.74,-1.9 l -2.29,-8.56 c -0.32,-1.19 0.32,-2.51 1.42,-3.01 l 16.75,-7.62 c 1.1,-0.5 1.86,-1.87 1.7,-3.06 l -1.25,-9.47 c -0.15,-1.16 -1.25,-2.31 -2.44,-2.51 l -18.14,-3.02 c -1.19,-0.2 -2.15,-1.34 -2.15,-2.54 v -8.86 c 0,-1.23 0.96,-2.35 2.15,-2.54 l 18.12,-3.02 c 1.19,-0.2 2.28,-1.32 2.43,-2.51 l 1.24,-9.48 c 0.15,-1.16 -0.61,-2.56 -1.7,-3.06 l -16.72,-7.61 c -1.09,-0.5 -1.73,-1.85 -1.42,-3.01 l 2.29,-8.56 c 0.32,-1.19 1.54,-2.02 2.74,-1.9 l 18.29,1.77 c 1.2,0.12 2.54,-0.69 3,-1.8 l 3.67,-8.83 c 0.45,-1.08 0.08,-2.63 -0.85,-3.39 l -14.2,-11.69 c -0.93,-0.77 -1.2,-2.23 -0.59,-3.28 l 4.43,-7.67 c 0.62,-1.07 2.01,-1.55 3.14,-1.13 l 17.23,6.45 c 1.13,0.42 2.63,-0.01 3.36,-0.96 l 5.81,-7.59 c 0.71,-0.93 0.75,-2.52 0.05,-3.5 l -10.68,-14.96 c -0.7,-0.98 -0.58,-2.47 0.28,-3.32 l 6.27,-6.27 c 0.87,-0.87 2.34,-0.98 3.32,-0.28 l 14.95,10.68 c 0.98,0.7 2.55,0.67 3.5,-0.06 l 7.59,-5.82 c 0.93,-0.71 1.38,-2.24 0.96,-3.36 l -6.45,-17.21 c -0.42,-1.13 0.08,-2.53 1.13,-3.13 l 7.67,-4.43 c 1.07,-0.62 2.51,-0.34 3.28,0.59 l 11.69,14.2 c 0.77,0.93 2.29,1.31 3.39,0.85 l 8.83,-3.65 c 1.08,-0.45 1.91,-1.8 1.8,-3 L 2282.2,95.5 c -0.12,-1.2 0.73,-2.43 1.9,-2.74 l 8.56,-2.29 c 1.19,-0.32 2.51,0.32 3.01,1.42 l 7.62,16.75 c 0.5,1.1 1.87,1.86 3.06,1.7 l 9.47,-1.25 c 1.16,-0.15 2.31,-1.25 2.51,-2.44 l 3.02,-18.14 c 0.2,-1.19 1.34,-2.15 2.54,-2.15 h 8.86 c 1.23,0 2.35,0.96 2.54,2.15 l 3.02,18.12 c 0.2,1.19 1.32,2.28 2.51,2.43 l 9.48,1.24 c 1.16,0.15 2.56,-0.61 3.06,-1.7 l 7.61,-16.72 c 0.5,-1.09 1.85,-1.73 3.01,-1.42 l 8.56,2.29 c 1.19,0.32 2.02,1.54 1.9,2.74 l -1.77,18.29 c -0.12,1.2 0.69,2.54 1.8,3 l 8.83,3.67 c 1.08,0.45 2.63,0.08 3.39,-0.85 l 11.69,-14.2 c 0.77,-0.93 2.23,-1.2 3.28,-0.59 l 7.67,4.43 c 1.07,0.62 1.55,2.01 1.13,3.14 z m -29.36,36.71 c -24.86,-14.36 -53.13,-17.48 -78.92,-10.94 -4.97,1.26 -2.05,0.57 -2.05,0.57 -6.92,2.36 -9.68,9.49 -6.19,15.85 0,0 -2.01,-3.67 0.16,0.28 10.34,18.87 31.04,56.63 31.04,56.63 4.68,8.54 16.37,15.3 26.12,15.1 0,0 45.86,-0.95 68.8,-1.43 4.26,-0.09 0,0 0,0 7.06,-0.15 11.65,-6.09 10.11,-12.74 -7.16,-25.78 -24.05,-48.88 -49.06,-63.32 z m -1.73,184.17 c 25.11,-13.92 42.34,-36.54 50.02,-62.02 1.48,-4.91 0.57,-2.05 0.57,-2.05 1.54,-7.15 -3.15,-13.18 -10.4,-13.47 0,0 4.18,0.17 -0.32,-0.01 -21.5,-0.85 -64.52,-2.56 -64.52,-2.56 -9.73,-0.39 -21.55,6.15 -26.4,14.61 0,0 -22.8,39.8 -34.21,59.71 -2.12,3.7 0,0 0,0 -3.51,6.13 -0.77,13.12 5.72,15.23 0,0 -4.1,-1.14 0,0 25.79,7.14 54.29,4.56 79.54,-9.44 z m -125.19,-16.85 c 5.07,4.57 12.5,3.44 16.05,-2.67 0,0 -2.14,3.68 0,0 11.54,-19.83 34.6,-59.48 34.6,-59.48 4.9,-8.43 4.66,-21.93 -0.54,-30.17 0,0 -22.99,-36.41 -34.48,-54.6 -2.41,-3.81 -0.17,-0.27 -0.17,-0.27 -3.87,-6.13 -11.44,-7.18 -16.86,-2.27 0,0 2.02,-2.22 -1.49,1.52 -18.22,19.39 -29.2,45.62 -28.7,74.33 0.5,28.87 12.52,54.84 31.6,73.6 z"
         id="path520-7" />
    </clipPath>
    <linearGradient
       id="linearGradient5232"
       y2="288"
       xlink:href="#linearGradient5226"
       gradientUnits="userSpaceOnUse"
       x2="602"
       y1="288"
       x1="104" />
    <linearGradient
       id="linearGradient5226">
      <stop
         id="stop5228"
         offset="0" />
      <stop
         id="stop5230"
         style="stop-opacity:0"
         offset="1" />
    </linearGradient>
    <clipPath
       id="clipPath5222"
       clipPathUnits="userSpaceOnUse">
      <circle
         id="circle5224"
         r="184"
         style="color:#000000;opacity:0.2;fill:#df382c;enable-background:accumulate"
         cx="288"
         cy="288" />
    </clipPath>
    <filter
       id="filter5264"
       style="color-interpolation-filters:sRGB"
       height="1.192"
       width="1.192"
       y="-0.096000001"
       x="-0.096000001">
      <feGaussianBlur
         id="feGaussianBlur5266"
         stdDeviation="14.72" />
    </filter>
    <linearGradient
       id="linearGradient5234"
       y2="288"
       xlink:href="#linearGradient5226"
       gradientUnits="userSpaceOnUse"
       x2="564.59998"
       y1="288"
       x1="104" />
    <linearGradient
       inkscape:collect="always"
       xlink:href="#linearGradient999"
       id="linearGradient1001"
       x1="132.29167"
       y1="64.166649"
       x2="132.29167"
       y2="286.41666"
       gradientUnits="userSpaceOnUse"
       gradientTransform="matrix(1.1468615,0,0,1.1468615,-19.894826,-23.722976)" />
  </defs>
  <sodipodi:namedview
     id="base"
     pagecolor="#ffffff"
     bordercolor="#666666"
     borderopacity="1.0"
     inkscape:pageopacity="0.0"
     inkscape:pageshadow="2"
     inkscape:zoom="0.86914765"
     inkscape:cx="512"
     inkscape:cy="509.12362"
     inkscape:document-units="mm"
     inkscape:current-layer="g844"
     showgrid="true"
     showguides="true"
     inkscape:pagecheckerboard="true"
     units="px"
     inkscape:window-width="1920"
     inkscape:window-height="961"
     inkscape:window-x="0"
     inkscape:window-y="25"
     inkscape:window-maximized="1">
    <inkscape:grid
       type="xygrid"
       id="grid815" />
  </sodipodi:namedview>
  <metadata
     id="metadata5">
    <rdf:RDF>
      <cc:Work
         rdf:about="">
        <dc:format>image/svg+xml</dc:format>
        <dc:type
           rdf:resource="http://purl.org/dc/dcmitype/StillImage" />
        <dc:title />
      </cc:Work>
    </rdf:RDF>
  </metadata>
  <g
     inkscape:label="Layer 1"
     inkscape:groupmode="layer"
     id="layer1"
     transform="translate(0,-26.06665)">
    <g
       id="g844">
      <rect
         rx="11.4"
         y="51.334358"
         x="16.404167"
         height="220.39792"
         width="238.125"
         id="rect1383"
         style="opacity:1;fill:url(#linearGradient894);fill-opacity:1;fill-rule:evenodd;stroke:none;stroke-width:20.83175087;stroke-linejoin:round;stroke-miterlimit:4;stroke-dasharray:none;stroke-opacity:0;paint-order:stroke markers fill" />
      <rect
         style="opacity:1;fill:url(#linearGradient1131);fill-opacity:1;fill-rule:evenodd;stroke:none;stroke-width:20.29592133;stroke-linejoin:round;stroke-miterlimit:4;stroke-dasharray:none;stroke-opacity:0;paint-order:stroke markers fill"
         id="rect1129"
         width="232"
         height="214.72888"
         x="19.466667"
         y="54.168877"
         rx="11.106771" />
      <text
         xml:space="preserve"
         style="font-style:normal;font-weight:normal;font-size:10.58333302px;line-height:1.25;font-family:sans-serif;letter-spacing:0px;word-spacing:0px;fill:#000000;fill-opacity:1;stroke:none;stroke-width:0.26458332"
         x="52.916664"
         y="95.916649"
         id="text1170"><tspan
           sodipodi:role="line"
           id="tspan1168"
           x="52.916664"
           y="105.28042"
           style="stroke-width:0.26458332" /></text>
      <g
         id="Capa_1_86_"
         transform="matrix(4.0959123,0,0,4.0959123,76.498409,90.70205)" />
      <g
         id="g1182"
         transform="matrix(4.0959123,0,0,4.0959123,76.498409,90.70205)" />
      <g
         id="g1184"
         transform="matrix(4.0959123,0,0,4.0959123,76.498409,90.70205)" />
      <g
         id="g1186"
         transform="matrix(4.0959123,0,0,4.0959123,76.498409,90.70205)" />
      <g
         id="g1188"
         transform="matrix(4.0959123,0,0,4.0959123,76.498409,90.70205)" />
      <g
         id="g1190"
         transform="matrix(4.0959123,0,0,4.0959123,76.498409,90.70205)" />
      <g
         id="g1192"
         transform="matrix(4.0959123,0,0,4.0959123,76.498409,90.70205)" />
      <g
         id="g1194"
         transform="matrix(4.0959123,0,0,4.0959123,76.498409,90.70205)" />
      <g
         id="g1196"
         transform="matrix(4.0959123,0,0,4.0959123,76.498409,90.70205)" />
      <g
         id="g1198"
         transform="matrix(4.0959123,0,0,4.0959123,76.498409,90.70205)" />
      <g
         id="g1200"
         transform="matrix(4.0959123,0,0,4.0959123,76.498409,90.70205)" />
      <g
         id="g1202"
         transform="matrix(4.0959123,0,0,4.0959123,76.498409,90.70205)" />
      <g
         id="g1204"
         transform="matrix(4.0959123,0,0,4.0959123,76.498409,90.70205)" />
      <g
         id="g1206"
         transform="matrix(4.0959123,0,0,4.0959123,76.498409,90.70205)" />
      <g
         id="g1208"
         transform="matrix(4.0959123,0,0,4.0959123,76.498409,90.70205)" />
      <g
         id="g1210"
         transform="matrix(4.0959123,0,0,4.0959123,76.498409,90.70205)" />
      <circle
         cy="161.53331"
         cx="135.46666"
         style="color:#000000;fill:url(#linearGradient1001);fill-opacity:1;stroke-width:0.52884614;enable-background:accumulate"
         r="110"
         id="path4238" />
      <g
         style="opacity:0.51000001;enable-background:new"
         id="layer2"
         transform="matrix(0.5216525,0,0,0.5216525,-14.769253,11.297397)">
        <g
           id="g5219"
           style="opacity:0.6;stroke:url(#linearGradient5232);filter:url(#filter5264)"
           transform="rotate(90,288,288)"
           clip-path="url(#clipPath5222)" />
      </g>
      <g
         transform="matrix(0.65024274,0,0,0.65024274,-1378.2954,-4.3916438)"
         id="Mask by oval"
         clip-path="url(#cp12-5)">
        <g
           id="gear mid"
           transform="translate(-0.33455928,3.4730925)">
          <path
             inkscape:connector-curvature="0"
             style="opacity:0.5;fill:#050505;fill-opacity:1;filter:url(#filter982)"
             d="m 2410.4599,126.20226 -6.45,17.23 c -0.42,1.13 0.01,2.63 0.96,3.36 l 7.59,5.81 c 0.93,0.71 2.52,0.75 3.5,0.05 l 14.96,-10.68 c 0.98,-0.7 2.47,-0.58 3.32,0.28 l 6.27,6.27 c 0.87,0.87 0.98,2.34 0.28,3.32 l -10.68,14.95 c -0.7,0.98 -0.67,2.55 0.06,3.5 l 5.82,7.59 c 0.71,0.93 2.24,1.38 3.36,0.96 l 17.21,-6.45 c 1.13,-0.42 2.53,0.08 3.13,1.13 l 4.43,7.67 c 0.62,1.07 0.34,2.51 -0.59,3.28 l -14.2,11.69 c -0.93,0.77 -1.31,2.29 -0.85,3.39 l 3.65,8.83 c 0.45,1.08 1.8,1.91 3,1.8 l 18.31,-1.78 c 1.2,-0.12 2.43,0.73 2.74,1.9 l 2.29,8.56 c 0.32,1.19 -0.32,2.51 -1.42,3.01 l -16.75,7.62 c -1.1,0.5 -1.86,1.87 -1.7,3.06 l 1.25,9.47 c 0.15,1.16 1.25,2.31 2.44,2.51 l 18.14,3.02 c 1.19,0.2 2.15,1.34 2.15,2.54 v 8.86 c 0,1.23 -0.96,2.35 -2.15,2.54 l -18.12,3.02 c -1.19,0.2 -2.28,1.32 -2.43,2.51 l -1.24,9.48 c -0.15,1.16 0.61,2.56 1.7,3.06 l 16.72,7.61 c 1.09,0.5 1.73,1.85 1.42,3.01 l -2.29,8.56 c -0.32,1.19 -1.54,2.02 -2.74,1.9 l -18.29,-1.77 c -1.2,-0.12 -2.54,0.69 -3,1.8 l -3.67,8.83 c -0.45,1.08 -0.08,2.63 0.85,3.39 l 14.2,11.69 c 0.93,0.77 1.2,2.23 0.59,3.28 l -4.43,7.67 c -0.62,1.07 -2.01,1.55 -3.14,1.13 l -17.23,-6.45 c -1.13,-0.42 -2.63,0.01 -3.36,0.96 l -5.81,7.59 c -0.71,0.93 -0.75,2.52 -0.05,3.5 l 10.68,14.96 c 0.7,0.98 0.58,2.47 -0.28,3.32 l -6.27,6.27 c -0.87,0.87 -2.34,0.98 -3.32,0.28 l -14.95,-10.68 c -0.98,-0.7 -2.55,-0.67 -3.5,0.06 l -7.59,5.82 c -0.93,0.71 -1.38,2.24 -0.96,3.36 l 6.45,17.21 c 0.42,1.13 -0.08,2.53 -1.13,3.13 l -7.67,4.43 c -1.07,0.62 -2.51,0.34 -3.28,-0.59 l -11.69,-14.2 c -0.77,-0.93 -2.29,-1.31 -3.39,-0.85 l -8.83,3.65 c -1.08,0.45 -1.91,1.8 -1.8,3 l 1.78,18.31 c 0.12,1.2 -0.73,2.43 -1.9,2.74 l -8.56,2.29 c -1.19,0.32 -2.51,-0.32 -3.01,-1.42 l -7.62,-16.75 c -0.5,-1.1 -1.87,-1.86 -3.06,-1.7 l -9.47,1.25 c -1.16,0.15 -2.31,1.25 -2.51,2.44 l -3.02,18.14 c -0.2,1.19 -1.34,2.15 -2.54,2.15 h -8.86 c -1.23,0 -2.35,-0.96 -2.54,-2.15 l -3.02,-18.12 c -0.2,-1.19 -1.32,-2.28 -2.51,-2.43 l -9.48,-1.24 c -1.16,-0.15 -2.56,0.61 -3.06,1.7 l -7.61,16.72 c -0.5,1.09 -1.85,1.73 -3.01,1.42 l -8.56,-2.29 c -1.19,-0.32 -2.02,-1.54 -1.9,-2.74 l 1.77,-18.29 c 0.12,-1.2 -0.69,-2.54 -1.8,-3 l -8.83,-3.67 c -1.08,-0.45 -2.63,-0.08 -3.39,0.85 l -11.69,14.2 c -0.77,0.93 -2.23,1.2 -3.28,0.59 l -7.67,-4.43 c -1.07,-0.62 -1.55,-2.01 -1.13,-3.14 l 6.45,-17.23 c 0.42,-1.13 -0.01,-2.63 -0.96,-3.36 l -7.59,-5.81 c -0.93,-0.71 -2.52,-0.75 -3.5,-0.05 l -14.96,10.68 c -0.98,0.7 -2.47,0.58 -3.32,-0.28 l -6.27,-6.27 c -0.87,-0.87 -0.98,-2.34 -0.28,-3.32 l 10.68,-14.95 c 0.7,-0.98 0.67,-2.55 -0.06,-3.5 l -5.82,-7.59 c -0.71,-0.93 -2.24,-1.38 -3.36,-0.96 l -17.21,6.45 c -1.13,0.42 -2.53,-0.08 -3.13,-1.13 l -4.43,-7.67 c -0.62,-1.07 -0.34,-2.51 0.59,-3.28 l 14.2,-11.69 c 0.93,-0.77 1.31,-2.29 0.85,-3.39 l -3.65,-8.83 c -0.45,-1.08 -1.8,-1.91 -3,-1.8 l -18.31,1.78 c -1.2,0.12 -2.43,-0.73 -2.74,-1.9 l -2.29,-8.56 c -0.32,-1.19 0.32,-2.51 1.42,-3.01 l 16.75,-7.62 c 1.1,-0.5 1.86,-1.87 1.7,-3.06 l -1.25,-9.47 c -0.15,-1.16 -1.25,-2.31 -2.44,-2.51 l -18.14,-3.02 c -1.19,-0.2 -2.15,-1.34 -2.15,-2.54 v -8.86 c 0,-1.23 0.96,-2.35 2.15,-2.54 l 18.12,-3.02 c 1.19,-0.2 2.28,-1.32 2.43,-2.51 l 1.24,-9.48 c 0.15,-1.16 -0.61,-2.56 -1.7,-3.06 l -16.72,-7.61 c -1.09,-0.5 -1.73,-1.85 -1.42,-3.01 l 2.29,-8.56 c 0.32,-1.19 1.54,-2.02 2.74,-1.9 l 18.29,1.77 c 1.2,0.12 2.54,-0.69 3,-1.8 l 3.67,-8.83 c 0.45,-1.08 0.08,-2.63 -0.85,-3.39 l -14.2,-11.69 c -0.93,-0.77 -1.2,-2.23 -0.59,-3.28 l 4.43,-7.67 c 0.62,-1.07 2.01,-1.55 3.14,-1.13 l 17.23,6.45 c 1.13,0.42 2.63,-0.01 3.36,-0.96 l 5.81,-7.59 c 0.71,-0.93 0.75,-2.52 0.05,-3.5 l -10.68,-14.96 c -0.7,-0.98 -0.58,-2.47 0.28,-3.32 l 6.27,-6.27 c 0.87,-0.87 2.34,-0.98 3.32,-0.28 l 14.95,10.68 c 0.98,0.7 2.55,0.67 3.5,-0.06 l 7.59,-5.82 c 0.93,-0.71 1.38,-2.24 0.96,-3.36 l -6.45,-17.21 c -0.42,-1.13 0.08,-2.53 1.13,-3.13 l 7.67,-4.43 c 1.07,-0.62 2.51,-0.34 3.28,0.59 l 11.69,14.2 c 0.77,0.93 2.29,1.31 3.39,0.85 l 8.83,-3.65 c 1.08,-0.45 1.91,-1.8 1.8,-3 l -1.78,-18.31 c -0.12,-1.2 0.73,-2.43 1.9,-2.74 l 8.56,-2.29 c 1.19,-0.32 2.51,0.32 3.01,1.42 l 7.62,16.75 c 0.5,1.1 1.87,1.86 3.06,1.7 l 9.47,-1.25 c 1.16,-0.15 2.31,-1.25 2.51,-2.44 l 3.02,-18.14 c 0.2,-1.19 1.34,-2.15 2.54,-2.15 h 8.86 c 1.23,0 2.35,0.96 2.54,2.15 l 3.02,18.12 c 0.2,1.19 1.32,2.28 2.51,2.43 l 9.48,1.24 c 1.16,0.15 2.56,-0.61 3.06,-1.7 l 7.61,-16.72 c 0.5,-1.09 1.85,-1.73 3.01,-1.42 l 8.56,2.29 c 1.19,0.32 2.02,1.54 1.9,2.74 l -1.77,18.29 c -0.12,1.2 0.69,2.54 1.8,3 l 8.83,3.67 c 1.08,0.45 2.63,0.08 3.39,-0.85 l 11.69,-14.2 c 0.77,-0.93 2.23,-1.2 3.28,-0.59 l 7.67,4.43 c 1.07,0.62 1.55,2.01 1.13,3.14 z m -29.36,36.71 c -24.86,-14.36 -53.13,-17.48 -78.92,-10.94 -4.97,1.26 -2.05,0.57 -2.05,0.57 -6.92,2.36 -9.68,9.49 -6.19,15.85 0,0 -2.01,-3.67 0.16,0.28 10.34,18.87 31.04,56.63 31.04,56.63 4.68,8.54 16.37,15.3 26.12,15.1 0,0 45.86,-0.95 68.8,-1.43 4.26,-0.09 0,0 0,0 7.06,-0.15 11.65,-6.09 10.11,-12.74 -7.16,-25.78 -24.05,-48.88 -49.06,-63.32 z m -1.73,184.17 c 25.11,-13.92 42.34,-36.54 50.02,-62.02 1.48,-4.91 0.57,-2.05 0.57,-2.05 1.54,-7.15 -3.15,-13.18 -10.4,-13.47 0,0 4.18,0.17 -0.32,-0.01 -21.5,-0.85 -64.52,-2.56 -64.52,-2.56 -9.73,-0.39 -21.55,6.15 -26.4,14.61 0,0 -22.8,39.8 -34.21,59.71 -2.12,3.7 0,0 0,0 -3.51,6.13 -0.77,13.12 5.72,15.23 0,0 -4.1,-1.14 0,0 25.79,7.14 54.29,4.56 79.54,-9.44 z m -125.19,-16.85 c 5.07,4.57 12.5,3.44 16.05,-2.67 0,0 -2.14,3.68 0,0 11.54,-19.83 34.6,-59.48 34.6,-59.48 4.9,-8.43 4.66,-21.93 -0.54,-30.17 0,0 -22.99,-36.41 -34.48,-54.6 -2.41,-3.81 -0.17,-0.27 -0.17,-0.27 -3.87,-6.13 -11.44,-7.18 -16.86,-2.27 0,0 2.02,-2.22 -1.49,1.52 -18.22,19.39 -29.2,45.62 -28.7,74.33 0.5,28.87 12.52,54.84 31.6,73.6 z"
             class="shp86"
             id="path956" />
          <path
             id="gear"
             class="shp86"
             d="m 2410.4599,123.37078 -6.45,17.23 c -0.42,1.13 0.01,2.63 0.96,3.36 l 7.59,5.81 c 0.93,0.71 2.52,0.75 3.5,0.05 l 14.96,-10.68 c 0.98,-0.7 2.47,-0.58 3.32,0.28 l 6.27,6.27 c 0.87,0.87 0.98,2.34 0.28,3.32 l -10.68,14.95 c -0.7,0.98 -0.67,2.55 0.06,3.5 l 5.82,7.59 c 0.71,0.93 2.24,1.38 3.36,0.96 l 17.21,-6.45 c 1.13,-0.42 2.53,0.08 3.13,1.13 l 4.43,7.67 c 0.62,1.07 0.34,2.51 -0.59,3.28 l -14.2,11.69 c -0.93,0.77 -1.31,2.29 -0.85,3.39 l 3.65,8.83 c 0.45,1.08 1.8,1.91 3,1.8 l 18.31,-1.78 c 1.2,-0.12 2.43,0.73 2.74,1.9 l 2.29,8.56 c 0.32,1.19 -0.32,2.51 -1.42,3.01 l -16.75,7.62 c -1.1,0.5 -1.86,1.87 -1.7,3.06 l 1.25,9.47 c 0.15,1.16 1.25,2.31 2.44,2.51 l 18.14,3.02 c 1.19,0.2 2.15,1.34 2.15,2.54 v 8.86 c 0,1.23 -0.96,2.35 -2.15,2.54 l -18.12,3.02 c -1.19,0.2 -2.28,1.32 -2.43,2.51 l -1.24,9.48 c -0.15,1.16 0.61,2.56 1.7,3.06 l 16.72,7.61 c 1.09,0.5 1.73,1.85 1.42,3.01 l -2.29,8.56 c -0.32,1.19 -1.54,2.02 -2.74,1.9 l -18.29,-1.77 c -1.2,-0.12 -2.54,0.69 -3,1.8 l -3.67,8.83 c -0.45,1.08 -0.08,2.63 0.85,3.39 l 14.2,11.69 c 0.93,0.77 1.2,2.23 0.59,3.28 l -4.43,7.67 c -0.62,1.07 -2.01,1.55 -3.14,1.13 l -17.23,-6.45 c -1.13,-0.42 -2.63,0.01 -3.36,0.96 l -5.81,7.59 c -0.71,0.93 -0.75,2.52 -0.05,3.5 l 10.68,14.96 c 0.7,0.98 0.58,2.47 -0.28,3.32 l -6.27,6.27 c -0.87,0.87 -2.34,0.98 -3.32,0.28 l -14.95,-10.68 c -0.98,-0.7 -2.55,-0.67 -3.5,0.06 l -7.59,5.82 c -0.93,0.71 -1.38,2.24 -0.96,3.36 l 6.45,17.21 c 0.42,1.13 -0.08,2.53 -1.13,3.13 l -7.67,4.43 c -1.07,0.62 -2.51,0.34 -3.28,-0.59 l -11.69,-14.2 c -0.77,-0.93 -2.29,-1.31 -3.39,-0.85 l -8.83,3.65 c -1.08,0.45 -1.91,1.8 -1.8,3 l 1.78,18.31 c 0.12,1.2 -0.73,2.43 -1.9,2.74 l -8.56,2.29 c -1.19,0.32 -2.51,-0.32 -3.01,-1.42 l -7.62,-16.75 c -0.5,-1.1 -1.87,-1.86 -3.06,-1.7 l -9.47,1.25 c -1.16,0.15 -2.31,1.25 -2.51,2.44 l -3.02,18.14 c -0.2,1.19 -1.34,2.15 -2.54,2.15 h -8.86 c -1.23,0 -2.35,-0.96 -2.54,-2.15 l -3.02,-18.12 c -0.2,-1.19 -1.32,-2.28 -2.51,-2.43 l -9.48,-1.24 c -1.16,-0.15 -2.56,0.61 -3.06,1.7 l -7.61,16.72 c -0.5,1.09 -1.85,1.73 -3.01,1.42 l -8.56,-2.29 c -1.19,-0.32 -2.02,-1.54 -1.9,-2.74 l 1.77,-18.29 c 0.12,-1.2 -0.69,-2.54 -1.8,-3 l -8.83,-3.67 c -1.08,-0.45 -2.63,-0.08 -3.39,0.85 l -11.69,14.2 c -0.77,0.93 -2.23,1.2 -3.28,0.59 l -7.67,-4.43 c -1.07,-0.62 -1.55,-2.01 -1.13,-3.14 l 6.45,-17.23 c 0.42,-1.13 -0.01,-2.63 -0.96,-3.36 l -7.59,-5.81 c -0.93,-0.71 -2.52,-0.75 -3.5,-0.05 l -14.96,10.68 c -0.98,0.7 -2.47,0.58 -3.32,-0.28 l -6.27,-6.27 c -0.87,-0.87 -0.98,-2.34 -0.28,-3.32 l 10.68,-14.95 c 0.7,-0.98 0.67,-2.55 -0.06,-3.5 l -5.82,-7.59 c -0.71,-0.93 -2.24,-1.38 -3.36,-0.96 l -17.21,6.45 c -1.13,0.42 -2.53,-0.08 -3.13,-1.13 l -4.43,-7.67 c -0.62,-1.07 -0.34,-2.51 0.59,-3.28 l 14.2,-11.69 c 0.93,-0.77 1.31,-2.29 0.85,-3.39 l -3.65,-8.83 c -0.45,-1.08 -1.8,-1.91 -3,-1.8 l -18.31,1.78 c -1.2,0.12 -2.43,-0.73 -2.74,-1.9 l -2.29,-8.56 c -0.32,-1.19 0.32,-2.51 1.42,-3.01 l 16.75,-7.62 c 1.1,-0.5 1.86,-1.87 1.7,-3.06 l -1.25,-9.47 c -0.15,-1.16 -1.25,-2.31 -2.44,-2.51 l -18.14,-3.02 c -1.19,-0.2 -2.15,-1.34 -2.15,-2.54 v -8.86 c 0,-1.23 0.96,-2.35 2.15,-2.54 l 18.12,-3.02 c 1.19,-0.2 2.28,-1.32 2.43,-2.51 l 1.24,-9.48 c 0.15,-1.16 -0.61,-2.56 -1.7,-3.06 l -16.72,-7.61 c -1.09,-0.5 -1.73,-1.85 -1.42,-3.01 l 2.29,-8.56 c 0.32,-1.19 1.54,-2.02 2.74,-1.9 l 18.29,1.77 c 1.2,0.12 2.54,-0.69 3,-1.8 l 3.67,-8.83 c 0.45,-1.08 0.08,-2.63 -0.85,-3.39 l -14.2,-11.69 c -0.93,-0.77 -1.2,-2.23 -0.59,-3.28 l 4.43,-7.67 c 0.62,-1.07 2.01,-1.55 3.14,-1.13 l 17.23,6.45 c 1.13,0.42 2.63,-0.01 3.36,-0.96 l 5.81,-7.59 c 0.71,-0.93 0.75,-2.52 0.05,-3.5 l -10.68,-14.96 c -0.7,-0.98 -0.58,-2.47 0.28,-3.32 l 6.27,-6.27 c 0.87,-0.87 2.34,-0.98 3.32,-0.28 l 14.95,10.68 c 0.98,0.7 2.55,0.67 3.5,-0.06 l 7.59,-5.82 c 0.93,-0.71 1.38,-2.24 0.96,-3.36 l -6.45,-17.21 c -0.42,-1.13 0.08,-2.53 1.13,-3.13 l 7.67,-4.43 c 1.07,-0.62 2.51,-0.34 3.28,0.59 l 11.69,14.2 c 0.77,0.93 2.29,1.31 3.39,0.85 l 8.83,-3.65 c 1.08,-0.45 1.91,-1.8 1.8,-3 l -1.78,-18.30999 c -0.12,-1.2 0.73,-2.43 1.9,-2.74 l 8.56,-2.29 c 1.19,-0.32 2.51,0.32 3.01,1.42 l 7.62,16.74999 c 0.5,1.1 1.87,1.86 3.06,1.7 l 9.47,-1.25 c 1.16,-0.15 2.31,-1.25 2.51,-2.44 l 3.02,-18.139993 c 0.2,-1.19 1.34,-2.15 2.54,-2.15 h 8.86 c 1.23,0 2.35,0.96 2.54,2.15 l 3.02,18.119993 c 0.2,1.19 1.32,2.28 2.51,2.43 l 9.48,1.24 c 1.16,0.15 2.56,-0.61 3.06,-1.7 l 7.61,-16.71999 c 0.5,-1.09 1.85,-1.73 3.01,-1.42 l 8.56,2.29 c 1.19,0.32 2.02,1.54 1.9,2.74 l -1.77,18.28999 c -0.12,1.2 0.69,2.54 1.8,3 l 8.83,3.67 c 1.08,0.45 2.63,0.08 3.39,-0.85 l 11.69,-14.2 c 0.77,-0.93 2.23,-1.2 3.28,-0.59 l 7.67,4.43 c 1.07,0.62 1.55,2.01 1.13,3.14 z m -29.36,36.71 c -24.86,-14.36 -53.13,-17.48 -78.92,-10.94 -4.97,1.26 -2.05,0.57 -2.05,0.57 -6.92,2.36 -9.68,9.49 -6.19,15.85 0,0 -2.01,-3.67 0.16,0.28 10.34,18.87 31.04,56.63 31.04,56.63 4.68,8.54 16.37,15.3 26.12,15.1 0,0 45.86,-0.95 68.8,-1.43 4.26,-0.09 0,0 0,0 7.06,-0.15 11.65,-6.09 10.11,-12.74 -7.16,-25.78 -24.05,-48.88 -49.06,-63.32 z m -1.73,184.17 c 25.11,-13.92 42.34,-36.54 50.02,-62.02 1.48,-4.91 0.57,-2.05 0.57,-2.05 1.54,-7.15 -3.15,-13.18 -10.4,-13.47 0,0 4.18,0.17 -0.32,-0.01 -21.5,-0.85 -64.52,-2.56 -64.52,-2.56 -9.73,-0.39 -21.55,6.15 -26.4,14.61 0,0 -22.8,39.8 -34.21,59.71 -2.12,3.7 0,0 0,0 -3.51,6.13 -0.77,13.12 5.72,15.23 0,0 -4.1,-1.14 0,0 25.79,7.14 54.29,4.56 79.54,-9.44 z m -125.19,-16.85 c 5.07,4.57 12.5,3.44 16.05,-2.67 0,0 -2.14,3.68 0,0 11.54,-19.83 34.6,-59.48 34.6,-59.48 4.9,-8.43 4.66,-21.93 -0.54,-30.17 0,0 -22.99,-36.41 -34.48,-54.6 -2.41,-3.81 -0.17,-0.27 -0.17,-0.27 -3.87,-6.13 -11.44,-7.18 -16.86,-2.27 0,0 2.02,-2.22 -1.49,1.52 -18.22,19.39 -29.2,45.62 -28.7,74.33 0.5,28.87 12.52,54.84 31.6,73.6 z"
             style="fill:url(#grd68-9);fill-opacity:1"
             inkscape:connector-curvature="0" />
        </g>
      </g>
    </g>
  </g>
</svg>
