<?xml version="1.0" encoding="UTF-8" standalone="no"?>
<!-- Generator: flash2svg, http://dissentgraphics.com/tools/flash2svg -->

<svg
   xmlns:dc="http://purl.org/dc/elements/1.1/"
   xmlns:cc="http://creativecommons.org/ns#"
   xmlns:rdf="http://www.w3.org/1999/02/22-rdf-syntax-ns#"
   xmlns:svg="http://www.w3.org/2000/svg"
   xmlns="http://www.w3.org/2000/svg"
   xmlns:xlink="http://www.w3.org/1999/xlink"
   xmlns:sodipodi="http://sodipodi.sourceforge.net/DTD/sodipodi-0.dtd"
   xmlns:inkscape="http://www.inkscape.org/namespaces/inkscape"
   id="Mplayer"
   image-rendering="optimizeSpeed"
   version="1.1"
   style="background-color:#ffffff"
   x="0px"
   y="0px"
   width="1024px"
   height="1024px"
   viewBox="0 0 1024 1024"
   enable-background="new 0 0 1024 1024"
   sodipodi:docname="software-properties.svg"
   inkscape:version="0.92.4 (5da689c313, 2019-01-14)">
  <metadata
     id="metadata26">
    <rdf:RDF>
      <cc:Work
         rdf:about="">
        <dc:format>image/svg+xml</dc:format>
        <dc:type
           rdf:resource="http://purl.org/dc/dcmitype/StillImage" />
        <dc:title />
      </cc:Work>
    </rdf:RDF>
  </metadata>
  <sodipodi:namedview
     pagecolor="#ffffff"
     bordercolor="#666666"
     borderopacity="1"
     objecttolerance="10"
     gridtolerance="10"
     guidetolerance="10"
     inkscape:pageopacity="0"
     inkscape:pageshadow="2"
     inkscape:window-width="1920"
     inkscape:window-height="958"
     id="namedview24"
     showgrid="true"
     inkscape:pagecheckerboard="true"
     inkscape:zoom="0.75102041"
     inkscape:cx="293.73126"
     inkscape:cy="512"
     inkscape:window-x="0"
     inkscape:window-y="25"
     inkscape:window-maximized="1"
     inkscape:current-layer="Mplayer">
    <inkscape:grid
       type="xygrid"
       id="grid841" />
  </sodipodi:namedview>
  <defs
     transform="matrix(1 0 0 1 0 0) "
     id="defs2">
    <linearGradient
       id="linearGradient5032">
      <stop
         id="stop5034"
         offset="0"
         style="stop-color:#f4f4f4;stop-opacity:1;" />
      <stop
         id="stop5036"
         offset="1"
         style="stop-color:#9d9d9d;stop-opacity:1;" />
    </linearGradient>
    <linearGradient
       id="linearGradient7958">
      <stop
         style="stop-color:#5d5d57;stop-opacity:1;"
         offset="0"
         id="stop7960" />
      <stop
         style="stop-color:#2d2c2b;stop-opacity:1;"
         offset="1"
         id="stop7962" />
    </linearGradient>
    <linearGradient
       id="linearGradient5081">
      <stop
         style="stop-color:#c3c1bf;stop-opacity:1;"
         offset="0"
         id="stop5083" />
      <stop
         style="stop-color:#a39f9b;stop-opacity:1;"
         offset="1"
         id="stop5085" />
    </linearGradient>
    <clipPath
       id="clipPath5101"
       clipPathUnits="userSpaceOnUse">
      <path
         transform="translate(0,-0.44665647)"
         d="m 315,448 a 19,19 0 1 1 -38,0 19,19 0 1 1 38,0 z"
         sodipodi:ry="19"
         sodipodi:rx="19"
         sodipodi:cy="448"
         sodipodi:cx="296"
         id="path5103"
         style="fill:#ff00ff;fill-opacity:1;stroke:none"
         sodipodi:type="arc" />
    </clipPath>
    <clipPath
       id="clipPath5149"
       clipPathUnits="userSpaceOnUse">
      <path
         inkscape:connector-curvature="0"
         style="fill:#ff00ff;fill-opacity:1;stroke:none"
         d="m 306.50004,1007.5487 c 10.04414,-5.7989 13.48552,-18.64235 7.68653,-28.68649 -5.79901,-10.04418 -18.64239,-13.48553 -28.68653,-7.68654 -10.04415,5.79899 -13.48555,18.64236 -7.68654,28.68654 5.79899,10.04419 18.64239,13.48549 28.68654,7.68649 z m -2,-3.4641 c -8.13098,4.6945 -18.52802,1.9086 -23.22244,-6.22239 -4.69442,-8.13098 -1.90854,-18.52801 6.22244,-23.22243 8.13097,-4.69442 18.52801,-1.90855 23.22243,6.22243 4.69442,8.13097 1.90854,18.52801 -6.22243,23.22239 z"
         id="path5151" />
    </clipPath>
    <clipPath
       id="clipPath5171"
       clipPathUnits="userSpaceOnUse">
      <path
         inkscape:connector-curvature="0"
         style="fill:#ff00ff;fill-opacity:1;stroke:none"
         d="m 281.15075,974.51295 c -8.20101,8.20101 -8.20101,21.49748 0,29.69845 8.20104,8.2011 21.49748,8.201 29.69849,0 8.20101,-8.20097 8.20104,-21.49741 0,-29.69845 -8.20101,-8.20101 -21.49748,-8.20101 -29.69849,0 z m 2.82843,2.82843 c 6.63891,-6.63891 17.40272,-6.63891 24.04163,0 6.63891,6.63891 6.63891,17.40272 0,24.04162 -6.63891,6.6389 -17.40272,6.6389 -24.04163,0 -6.63891,-6.6389 -6.63891,-17.40271 0,-24.04162 z"
         id="path5173" />
    </clipPath>
    <clipPath
       id="clipPath4329"
       clipPathUnits="userSpaceOnUse">
      <path
         inkscape:connector-curvature="0"
         id="path4331"
         d="m 277.25,902.23719 c -11.59798,0 -21,9.40202 -21,21 0,0.1891 0.007,0.37461 0.0117,0.5625 -0.005,0.1879 -0.0117,0.37341 -0.0117,0.5625 0,11.59802 9.40202,21.00001 21,21.00001 11.59798,0 21.00001,-9.40199 21.00001,-21.00001 0,-0.18909 -0.007,-0.3746 -0.0117,-0.5625 0.005,-0.18789 0.0117,-0.3734 0.0117,-0.5625 0,-11.59798 -9.40203,-21 -21.00001,-21 z"
         style="fill:#ff00ff;fill-opacity:1;stroke:none" />
    </clipPath>
    <linearGradient
       id="linearGradient4195">
      <stop
         style="stop-color:#ebebeb;stop-opacity:1;"
         offset="0"
         id="stop4197" />
      <stop
         style="stop-color:#ebebeb;stop-opacity:0;"
         offset="1"
         id="stop4199" />
    </linearGradient>
    <linearGradient
       id="linearGradient4342">
      <stop
         id="stop4344"
         offset="0"
         style="stop-color:#e1e1e1;stop-opacity:1;" />
      <stop
         id="stop4346"
         offset="1"
         style="stop-color:#e1e1e1;stop-opacity:0;" />
    </linearGradient>
    <linearGradient
       id="linearGradient4865">
      <stop
         id="stop4867"
         offset="0"
         style="stop-color:#e1e1e1;stop-opacity:1;" />
      <stop
         id="stop4869"
         offset="1"
         style="stop-color:#ffffff;stop-opacity:1" />
    </linearGradient>
    <linearGradient
       id="linearGradient8054-6">
      <stop
         id="stop8056-0"
         offset="0"
         style="stop-color:#de4814;stop-opacity:1;" />
      <stop
         id="stop8058-6"
         offset="1"
         style="stop-color:#ff6000;stop-opacity:1;" />
    </linearGradient>
    <linearGradient
       gradientTransform="matrix(6.25,0,0,6.25,13.750175,-212.24986)"
       gradientUnits="userSpaceOnUse"
       y2="111.99996"
       x2="82"
       y1="106"
       x1="82"
       id="linearGradient4860-5"
       xlink:href="#linearGradient8054-6"
       inkscape:collect="always" />
    <linearGradient
       gradientUnits="userSpaceOnUse"
       y2="930.36218"
       x2="230.875"
       y1="934.11218"
       x1="230.875"
       id="linearGradient4871-9"
       xlink:href="#linearGradient940"
       inkscape:collect="always"
       gradientTransform="matrix(16.666665,0,0,16.666665,-3296.6661,-15068.284)" />
    <linearGradient
       gradientTransform="matrix(0.62000001,0,0,0.62000001,293.79009,115.25012)"
       inkscape:collect="always"
       xlink:href="#linearGradient940"
       id="linearGradient852"
       x1="500"
       y1="264"
       x2="500"
       y2="764"
       gradientUnits="userSpaceOnUse" />
    <linearGradient
       id="linearGradient940">
      <stop
         id="stop936"
         offset="0"
         style="stop-color:#f6f7f7;stop-opacity:1" />
      <stop
         id="stop938"
         offset="1"
         style="stop-color:#dce7f0;stop-opacity:1" />
    </linearGradient>
    <linearGradient
       inkscape:collect="always"
       xlink:href="#linearGradient940"
       id="linearGradient1290"
       x1="562.56012"
       y1="283.89011"
       x2="562.56012"
       y2="569.09009"
       gradientUnits="userSpaceOnUse" />
    <linearGradient
       inkscape:collect="always"
       xlink:href="#linearGradient842"
       id="linearGradient843"
       x1="520"
       y1="4"
       x2="520.03137"
       y2="1026.0078"
       gradientUnits="userSpaceOnUse"
       gradientTransform="scale(0.95703125)" />
    <linearGradient
       id="linearGradient842"
       inkscape:collect="always">
      <stop
         id="stop836"
         offset="0"
         style="stop-color:#ff9300;stop-opacity:1" />
      <stop
         id="stop840"
         offset="1"
         style="stop-color:#ff6d00;stop-opacity:1" />
    </linearGradient>
    <linearGradient
       inkscape:collect="always"
       xlink:href="#linearGradient842"
       id="linearGradient1322"
       gradientUnits="userSpaceOnUse"
       gradientTransform="matrix(0.95703125,0,0,0.95703125,22,22)"
       x1="520"
       y1="4"
       x2="520.03137"
       y2="1026.0078" />
    <linearGradient
       inkscape:collect="always"
       xlink:href="#linearGradient1197"
       id="linearGradient1199"
       x1="540.14288"
       y1="29.770346"
       x2="540.14288"
       y2="1054.9744"
       gradientUnits="userSpaceOnUse"
       gradientTransform="matrix(0.99492386,0,0,0.99492386,2.5990309,-25.619193)" />
    <linearGradient
       inkscape:collect="always"
       id="linearGradient1197">
      <stop
         style="stop-color:#ffffff;stop-opacity:0.58823532"
         offset="0"
         id="stop1193" />
      <stop
         style="stop-color:#ffffff;stop-opacity:0"
         offset="1"
         id="stop1195" />
    </linearGradient>
    <filter
       style="color-interpolation-filters:sRGB;"
       inkscape:label="Drop Shadow"
       id="filter1398">
      <feFlood
         flood-opacity="0.294118"
         flood-color="rgb(0,0,0)"
         result="flood"
         id="feFlood1388" />
      <feComposite
         in="flood"
         in2="SourceGraphic"
         operator="in"
         result="composite1"
         id="feComposite1390" />
      <feGaussianBlur
         in="composite1"
         stdDeviation="3"
         result="blur"
         id="feGaussianBlur1392" />
      <feOffset
         dx="0"
         dy="3"
         result="offset"
         id="feOffset1394" />
      <feComposite
         in="offset"
         in2="SourceGraphic"
         operator="out"
         result="composite2"
         id="feComposite1396" />
    </filter>
    <filter
       style="color-interpolation-filters:sRGB;"
       inkscape:label="Drop Shadow"
       id="filter1412">
      <feFlood
         flood-opacity="0.294118"
         flood-color="rgb(0,0,0)"
         result="flood"
         id="feFlood1402" />
      <feComposite
         in="flood"
         in2="SourceGraphic"
         operator="in"
         result="composite1"
         id="feComposite1404" />
      <feGaussianBlur
         in="composite1"
         stdDeviation="3"
         result="blur"
         id="feGaussianBlur1406" />
      <feOffset
         dx="0"
         dy="3"
         result="offset"
         id="feOffset1408" />
      <feComposite
         in="offset"
         in2="SourceGraphic"
         operator="out"
         result="composite2"
         id="feComposite1410" />
    </filter>
  </defs>
  <path
     id="path"
     d="m 966.34006,324.4089 q -8.92796,-21.64513 -20.13987,-42.40784 c -4.20442,-7.83792 -8.66839,-15.62395 -13.39192,-23.25424 -20.29556,-32.9089 -45.05509,-64.00106 -74.27861,-93.22458 C 762.86546,69.85805 647.32097,22 512,22 376.67903,22 261.18644,69.85805 165.52224,165.52224 69.85805,261.18644 22,376.67903 22,512 22,647.32097 69.85805,762.86546 165.52224,858.52966 261.18644,954.1939 376.67903,1002 512,1002 647.32097,1002 762.86546,954.1939 858.52966,858.52966 911.21504,805.79237 949.41841,747.0339 973.0879,682.30614 992.34537,629.51695 1002,572.78284 1002,512 c 0,-46.61229 -5.65787,-90.88877 -17.02539,-132.82945 -1.29773,-4.72351 -2.64725,-9.44704 -4.04874,-14.11864 -4.25638,-13.80721 -9.13561,-27.35487 -14.58581,-40.64301 z"
     style="fill:url(#linearGradient1322);fill-opacity:1;stroke-width:1.03813565"
     inkscape:connector-curvature="0" />
  <g
     id="g1212"
     transform="matrix(1.6129032,0,0,1.6129032,-407.35499,-173.88725)">
    <path
       sodipodi:type="star"
       style="opacity:0.3;fill:url(#linearGradient852);fill-opacity:1;fill-rule:evenodd;stroke:none;stroke-width:7.02992153;stroke-linecap:butt;stroke-linejoin:round;stroke-miterlimit:4;stroke-dasharray:none;stroke-opacity:0;paint-order:stroke fill markers"
       id="path844"
       sodipodi:sides="3"
       sodipodi:cx="587.36011"
       sodipodi:cy="432.69009"
       sodipodi:r1="173.60001"
       sodipodi:r2="86.800003"
       sodipodi:arg1="0"
       sodipodi:arg2="1.0471976"
       inkscape:flatsided="true"
       inkscape:rounded="0.39"
       inkscape:randomized="0"
       d="m 760.96011,432.69009 c 0,117.26678 -158.844,208.97541 -260.40001,150.34202 -101.556,-58.63339 -101.556,-242.05065 0,-300.68403 101.55601,-58.63339 260.40001,33.07524 260.40001,150.34201 z"
       inkscape:transform-center-x="1.0605154e-05"
       transform="matrix(0,-1.3793931,1.3793931,0,-26.849627,1242.7841)"
       inkscape:transform-center-y="-96.557534" />
    <path
       inkscape:connector-curvature="0"
       style="font-style:normal;font-variant:normal;font-weight:bold;font-stretch:normal;font-size:18px;line-height:125%;font-family:Ubuntu;-inkscape-font-specification:'Ubuntu Bold';text-align:start;letter-spacing:0px;word-spacing:0px;writing-mode:lr-tb;text-anchor:start;display:inline;fill:url(#linearGradient1290);fill-opacity:1.0;stroke:none;stroke-width:16.66666412"
       d="m 538.16426,275.25009 c -9.98584,20.77917 -19.6865,42.12833 -29.10167,64.0625 -9.13,21.6445 -18.62016,44.50783 -28.32033,68.74999 -2.14416,5.52083 -4.2715,11.502 -6.44516,17.1875 h 63.47649 c 0.68167,-1.8935 1.47333,-3.9945 2.1485,-5.85933 4.56483,-11.83317 8.59567,-22.61067 12.30467,-32.42183 3.70916,-9.81317 6.91233,-18.47334 9.76549,-25.97667 2.853,-7.50333 5.01867,-13.4435 6.44534,-17.7735 1.71183,4.33 3.983,10.2685 6.836,17.7735 2.85316,7.50333 6.25233,16.1635 9.961,25.97667 3.99433,9.81116 8.02516,20.58866 12.30466,32.42183 0.675,1.86483 1.46667,3.96583 2.14833,5.85933 h 65.82033 c -2.2245,-5.68733 -4.43083,-11.665 -6.6405,-17.1875 -9.41533,-24.24216 -18.90533,-47.10549 -28.32033,-68.74999 -9.41517,-21.93417 -19.01033,-43.28333 -28.711,-64.0625 z m -95.8985,236.52348 c -7.18717,20.10883 -14.52634,40.99466 -22.26567,63.47649 h 69.336 c 3.1385,-10.3905 6.64217,-21.06349 10.3515,-32.03116 3.7105,-10.18733 7.27784,-20.28133 10.74217,-30.46883 H 451.2501 c -3.09518,0 -6.07401,-0.37 -8.98434,-0.97667 z m 255.27348,0 c -2.85317,0.58167 -5.75933,0.97667 -8.78917,0.97667 h -61.32799 c 3.44417,10.1845 6.907,20.28449 10.3515,30.46883 3.994,10.96616 7.60367,21.64066 10.74217,32.03116 h 71.48432 c -7.73933,-22.48183 -15.0785,-43.36766 -22.2655,-63.47649 -0.0667,0.0125 -0.13333,-0.0125 -0.195,0 z"
       id="path4743-3" />
    <rect
       style="display:inline;fill:url(#linearGradient4871-9);fill-opacity:1.0;stroke:none;stroke-width:16.66666412"
       id="rect4747-0"
       width="300.00003"
       height="62.500134"
       x="419.99991"
       y="437.74979"
       ry="31.250067" />
    <rect
       ry="18.749996"
       y="456.49979"
       x="432.49991"
       height="37.499992"
       width="187.50003"
       id="rect4886-6"
       style="color:#000000;display:inline;overflow:visible;visibility:visible;fill:#ffffff;fill-opacity:1;fill-rule:nonzero;stroke:none;stroke-width:16.66666412;marker:none;enable-background:accumulate" />
    <rect
       style="color:#000000;display:inline;overflow:visible;visibility:visible;fill:url(#linearGradient4860-5);fill-opacity:1;fill-rule:nonzero;stroke:none;stroke-width:16.66666412;marker:none;enable-background:accumulate"
       id="rect4852-2"
       width="187.50003"
       height="37.499992"
       x="432.49991"
       y="450.24979"
       ry="18.749996" />
    <path
       inkscape:connector-curvature="0"
       style="display:inline;fill:#ffffff;fill-opacity:1;stroke:none;stroke-width:16.66666412"
       d="m 451.2501,437.75008 c -17.31251,0 -31.25001,13.9375 -31.25001,31.24999 0,1.08167 0.0833,2.072 0.195,3.125 1.595,-15.79633 14.82417,-28.12499 31.05468,-28.12499 h 237.49997 c 16.2305,0 29.46017,12.32866 31.05483,28.12499 0.1,-1.05333 0.195,-2.043 0.195,-3.125 0,-17.31249 -13.9375,-31.24999 -31.25,-31.24999 H 451.24943 Z"
       id="rect4877-6" />
    <path
       inkscape:connector-curvature="0"
       style="color:#000000;display:inline;overflow:visible;visibility:visible;opacity:0.1;fill:#000000;fill-opacity:1;fill-rule:nonzero;stroke:none;stroke-width:16.66666412;marker:none;enable-background:accumulate"
       d="m 451.2501,450.25008 c -10.38751,0 -18.75001,8.3625 -18.75001,18.74999 0,1.095 0.21167,2.08184 0.39,3.125 1.515,-8.84666 9.0675,-15.62499 18.35934,-15.62499 h 149.99999 c 9.29183,0 16.8445,6.77833 18.3595,15.62499 0.17833,-1.04333 0.39,-2.02933 0.39,-3.125 0,-10.38749 -8.3625,-18.74999 -18.75,-18.74999 H 451.24893 Z"
       id="rect4890-1" />
    <rect
       ry="31.250067"
       y="437.74979"
       x="419.99991"
       height="62.500134"
       width="300.00003"
       id="rect1400"
       style="display:inline;fill:url(#linearGradient4871-9);fill-opacity:1;stroke:none;stroke-width:16.66666412;filter:url(#filter1412)" />
    <path
       id="path1350"
       d="m 538.16426,275.25009 c -9.98584,20.77917 -19.6865,42.12833 -29.10167,64.0625 -9.13,21.6445 -18.62016,44.50783 -28.32033,68.74999 -2.14416,5.52083 -4.2715,11.502 -6.44516,17.1875 h 63.47649 c 0.68167,-1.8935 1.47333,-3.9945 2.1485,-5.85933 4.56483,-11.83317 8.59567,-22.61067 12.30467,-32.42183 3.70916,-9.81317 6.91233,-18.47334 9.76549,-25.97667 2.853,-7.50333 5.01867,-13.4435 6.44534,-17.7735 1.71183,4.33 3.983,10.2685 6.836,17.7735 2.85316,7.50333 6.25233,16.1635 9.961,25.97667 3.99433,9.81116 8.02516,20.58866 12.30466,32.42183 0.675,1.86483 1.46667,3.96583 2.14833,5.85933 h 65.82033 c -2.2245,-5.68733 -4.43083,-11.665 -6.6405,-17.1875 -9.41533,-24.24216 -18.90533,-47.10549 -28.32033,-68.74999 -9.41517,-21.93417 -19.01033,-43.28333 -28.711,-64.0625 z m -95.8985,236.52348 c -7.18717,20.10883 -14.52634,40.99466 -22.26567,63.47649 h 69.336 c 3.1385,-10.3905 6.64217,-21.06349 10.3515,-32.03116 3.7105,-10.18733 7.27784,-20.28133 10.74217,-30.46883 H 451.2501 c -3.09518,0 -6.07401,-0.37 -8.98434,-0.97667 z m 255.27348,0 c -2.85317,0.58167 -5.75933,0.97667 -8.78917,0.97667 h -61.32799 c 3.44417,10.1845 6.907,20.28449 10.3515,30.46883 3.994,10.96616 7.60367,21.64066 10.74217,32.03116 h 71.48432 c -7.73933,-22.48183 -15.0785,-43.36766 -22.2655,-63.47649 -0.0667,0.0125 -0.13333,-0.0125 -0.195,0 z"
       style="font-style:normal;font-variant:normal;font-weight:bold;font-stretch:normal;font-size:18px;line-height:125%;font-family:Ubuntu;-inkscape-font-specification:'Ubuntu Bold';text-align:start;letter-spacing:0px;word-spacing:0px;writing-mode:lr-tb;text-anchor:start;display:inline;fill:url(#linearGradient1290);fill-opacity:1;stroke:none;stroke-width:16.66666412;filter:url(#filter1398)"
       inkscape:connector-curvature="0" />
    <path
       inkscape:transform-center-y="51.576683"
       transform="matrix(0.97537821,0.97537821,-0.97537821,0.97537821,415.97268,-570.3703)"
       inkscape:transform-center-x="-51.576716"
       d="m 760.96011,432.69009 c 0,117.26678 -158.844,208.97541 -260.40001,150.34202 -101.556,-58.63339 -101.556,-242.05065 0,-300.68403 101.55601,-58.63339 260.40001,33.07524 260.40001,150.34201 z"
       inkscape:randomized="0"
       inkscape:rounded="0.39"
       inkscape:flatsided="true"
       sodipodi:arg2="1.0471976"
       sodipodi:arg1="0"
       sodipodi:r2="86.800003"
       sodipodi:r1="173.60001"
       sodipodi:cy="432.69009"
       sodipodi:cx="587.36011"
       sodipodi:sides="3"
       id="path1292"
       style="opacity:0.3;fill:none;fill-opacity:1;fill-rule:evenodd;stroke:#f55906;stroke-width:22.47365189;stroke-linecap:butt;stroke-linejoin:round;stroke-miterlimit:4;stroke-dasharray:none;stroke-opacity:1;paint-order:stroke fill markers"
       sodipodi:type="star" />
  </g>
  <circle
     r="487.5127"
     cy="512"
     cx="512"
     id="circle1191"
     style="color:#000000;display:inline;overflow:visible;visibility:visible;fill:none;fill-opacity:1;fill-rule:nonzero;stroke:url(#linearGradient1199);stroke-width:4.9749999;stroke-miterlimit:4;stroke-dasharray:none;marker:none;enable-background:accumulate" />
</svg>
